<svg width="124" height="138" viewBox="0 0 124 138" fill="none" xmlns="http://www.w3.org/2000/svg">
<rect x="-1.00047" y="54.7698" width="67.8366" height="93.4038" rx="5.75" transform="rotate(-25.6055 -1.00047 54.7698)" fill="white"/>
<rect x="-1.00047" y="54.7698" width="67.8366" height="93.4038" rx="5.75" transform="rotate(-25.6055 -1.00047 54.7698)" stroke="#E2E2E2" stroke-width="1.5"/>
<mask id="mask0_45_174373" style="mask-type:alpha" maskUnits="userSpaceOnUse" x="0" y="26" width="100" height="112">
<rect y="55.122" width="66.3366" height="91.9038" transform="rotate(-25.6055 0 55.122)" fill="#D9D9D9"/>
</mask>
<g mask="url(#mask0_45_174373)">
<path d="M11.5073 60.6963L10.5028 59.6208L8.30333 60.6749L8.48806 62.1432L7.06774 62.8239L6.30104 56.2052L8.50051 55.1512L13.1305 59.9184L11.5073 60.6963ZM8.15768 59.5171L9.70786 58.7742L7.81375 56.7378L8.15768 59.5171Z" fill="black"/>
<path d="M57.1251 38.48C57.132 38.3895 57.2343 38.3405 57.3092 38.3918L58.8251 39.4295C58.9 39.4808 58.8913 39.5939 58.8095 39.6331L57.1528 40.427C57.0709 40.4662 56.9774 40.4022 56.9843 40.3117L57.1251 38.48Z" fill="black"/>
<path fill-rule="evenodd" clip-rule="evenodd" d="M57.0887 33.785C57.2314 34.0827 57.2912 34.3988 57.2775 34.707C57.33 34.6755 57.3844 34.6461 57.4408 34.6191C58.4059 34.1566 59.5632 34.564 60.0257 35.5291C60.4882 36.4942 60.0808 37.6515 59.1157 38.114C58.3305 38.4903 57.418 38.2907 56.856 37.6834C56.9774 38.5019 56.5613 39.3381 55.7761 39.7144C54.811 40.1769 53.6537 39.7695 53.1912 38.8044C52.7287 37.8393 53.1361 36.6821 54.1012 36.2195C54.1301 36.2057 54.1591 36.1927 54.1883 36.1804C53.942 35.9984 53.7354 35.7553 53.5938 35.4599C53.1313 34.4948 53.5387 33.3375 54.5038 32.875C55.4689 32.4125 56.6262 32.8199 57.0887 33.785Z" fill="black"/>
<mask id="path-6-outside-1_45_174373" maskUnits="userSpaceOnUse" x="27.8565" y="62.6856" width="47.1209" height="47.5905" fill="black">
<rect fill="white" x="27.8565" y="62.6856" width="47.1209" height="47.5905"/>
<path fill-rule="evenodd" clip-rule="evenodd" d="M54.8889 80.0174C54.9403 78.8635 54.7161 77.6806 54.182 76.5661C52.4506 72.9533 48.1183 71.4282 44.5055 73.1596C40.8927 74.891 39.3675 79.2233 41.0989 82.8361C41.6288 83.9418 42.4023 84.8519 43.3242 85.533C43.2149 85.5791 43.1061 85.628 42.9979 85.6798C39.3851 87.4112 37.8599 91.7435 39.5913 95.3563C41.3227 98.9691 45.655 100.494 49.2678 98.7629C52.2072 97.3543 53.7647 94.2239 53.3107 91.1601C55.4144 93.4333 58.8301 94.1803 61.7695 92.7717C65.3823 91.0403 66.9075 86.7079 65.1761 83.0951C63.4447 79.4823 59.1124 77.9572 55.4996 79.6886C55.2889 79.7895 55.0852 79.8994 54.8889 80.0174ZM55.4466 94.114C54.9701 93.7879 54.3193 94.0998 54.2751 94.6754L53.8301 100.466C53.7859 101.041 54.3814 101.449 54.902 101.2L60.1392 98.6898C60.6598 98.4403 60.7151 97.7207 60.2387 97.3946L55.4466 94.114Z"/>
</mask>
<path fill-rule="evenodd" clip-rule="evenodd" d="M54.8889 80.0174C54.9403 78.8635 54.7161 77.6806 54.182 76.5661C52.4506 72.9533 48.1183 71.4282 44.5055 73.1596C40.8927 74.891 39.3675 79.2233 41.0989 82.8361C41.6288 83.9418 42.4023 84.8519 43.3242 85.533C43.2149 85.5791 43.1061 85.628 42.9979 85.6798C39.3851 87.4112 37.8599 91.7435 39.5913 95.3563C41.3227 98.9691 45.655 100.494 49.2678 98.7629C52.2072 97.3543 53.7647 94.2239 53.3107 91.1601C55.4144 93.4333 58.8301 94.1803 61.7695 92.7717C65.3823 91.0403 66.9075 86.7079 65.1761 83.0951C63.4447 79.4823 59.1124 77.9572 55.4996 79.6886C55.2889 79.7895 55.0852 79.8994 54.8889 80.0174ZM55.4466 94.114C54.9701 93.7879 54.3193 94.0998 54.2751 94.6754L53.8301 100.466C53.7859 101.041 54.3814 101.449 54.902 101.2L60.1392 98.6898C60.6598 98.4403 60.7151 97.7207 60.2387 97.3946L55.4466 94.114Z" fill="black"/>
<path d="M54.8889 80.0174L51.8919 79.884L51.6433 85.4696L56.4349 82.5884L54.8889 80.0174ZM43.3242 85.533L44.488 88.2981L49.3474 86.2529L45.1068 83.1201L43.3242 85.533ZM53.3107 91.1601L55.5126 89.1224L48.9204 81.999L50.3431 91.5998L53.3107 91.1601ZM54.2751 94.6754L51.2839 94.4456L51.2839 94.4456L54.2751 94.6754ZM55.4466 94.114L57.1412 91.6385L55.4466 94.114ZM53.8301 100.466L56.8213 100.696L56.8213 100.696L53.8301 100.466ZM54.902 101.2L53.6055 98.4943L54.902 101.2ZM60.1392 98.6898L61.4357 101.395L60.1392 98.6898ZM60.2387 97.3946L58.544 99.8701L58.544 99.8701L60.2387 97.3946ZM51.4766 77.8627C51.7921 78.5209 51.9218 79.2114 51.8919 79.884L57.8859 80.1508C57.9587 78.5156 57.6401 76.8403 56.8874 75.2696L51.4766 77.8627ZM45.802 75.8649C47.9206 74.8496 50.4613 75.744 51.4766 77.8627L56.8874 75.2696C54.4399 70.1627 48.3159 68.0067 43.2089 70.4542L45.802 75.8649ZM43.8042 81.5396C42.7889 79.4209 43.6833 76.8803 45.802 75.8649L43.2089 70.4542C38.102 72.9016 35.9461 79.0257 38.3935 84.1326L43.8042 81.5396ZM45.1068 83.1201C44.5695 82.7231 44.1173 82.1927 43.8042 81.5396L38.3935 84.1326C39.1403 85.6908 40.2351 86.9808 41.5416 87.946L45.1068 83.1201ZM44.2944 88.3852C44.3588 88.3544 44.4233 88.3253 44.488 88.2981L42.1605 82.768C42.0064 82.8328 41.8533 82.9016 41.7014 82.9745L44.2944 88.3852ZM42.2967 94.0598C41.2813 91.9412 42.1757 89.4005 44.2944 88.3852L41.7014 82.9745C36.5944 85.4219 34.4385 91.5459 36.8859 96.6529L42.2967 94.0598ZM47.9713 96.0576C45.8526 97.0729 43.312 96.1785 42.2967 94.0598L36.8859 96.6529C39.3334 101.76 45.4574 103.916 50.5643 101.468L47.9713 96.0576ZM50.3431 91.5998C50.6098 93.3992 49.691 95.2334 47.9713 96.0576L50.5643 101.468C54.7235 99.4751 56.9197 95.0485 56.2783 90.7203L50.3431 91.5998ZM60.473 90.0663C58.7533 90.8904 56.748 90.4575 55.5126 89.1224L51.1089 93.1977C54.0808 96.4091 58.9069 97.4703 63.0661 95.477L60.473 90.0663ZM62.4708 84.3917C63.4861 86.5103 62.5917 89.0509 60.473 90.0663L63.0661 95.477C68.173 93.0296 70.3289 86.9056 67.8815 81.7986L62.4708 84.3917ZM56.7961 82.3939C58.9148 81.3786 61.4554 82.273 62.4708 84.3917L67.8815 81.7986C65.4341 76.6917 59.31 74.5357 54.2031 76.9832L56.7961 82.3939ZM56.4349 82.5884C56.5503 82.519 56.6707 82.454 56.7961 82.3939L54.2031 76.9832C53.907 77.1251 53.6201 77.2798 53.343 77.4464L56.4349 82.5884ZM57.2663 94.9053C57.1336 96.6323 55.1811 97.568 53.7519 96.5895L57.1412 91.6385C54.7592 90.0078 51.5051 91.5673 51.2839 94.4456L57.2663 94.9053ZM56.8213 100.696L57.2663 94.9053L51.2839 94.4456L50.8389 100.236L56.8213 100.696ZM53.6055 98.4943C55.1675 97.7457 56.954 98.9688 56.8213 100.696L50.8389 100.236C50.6177 103.114 53.5953 105.153 56.1985 103.905L53.6055 98.4943ZM58.8426 95.9844L53.6055 98.4943L56.1985 103.905L61.4357 101.395L58.8426 95.9844ZM58.544 99.8701C57.1148 98.8917 57.2807 96.733 58.8426 95.9844L61.4357 101.395C64.0389 100.148 64.3154 96.5498 61.9333 94.9191L58.544 99.8701ZM53.7519 96.5895L58.544 99.8701L61.9333 94.9191L57.1412 91.6385L53.7519 96.5895Z" fill="black" mask="url(#path-6-outside-1_45_174373)"/>
<mask id="path-8-outside-2_45_174373" maskUnits="userSpaceOnUse" x="27.8565" y="63.1178" width="46.2191" height="47.1583" fill="black">
<rect fill="white" x="27.8565" y="63.1178" width="46.2191" height="47.1583"/>
<path fill-rule="evenodd" clip-rule="evenodd" d="M54.8889 80.0174C54.9403 78.8635 54.7161 77.6806 54.182 76.5661C52.4506 72.9533 48.1183 71.4282 44.5055 73.1596C40.8927 74.891 39.3675 79.2233 41.0989 82.8361C41.6288 83.9418 42.4023 84.8519 43.3242 85.533C43.2149 85.5791 43.1061 85.628 42.9979 85.6798C39.3851 87.4112 37.8599 91.7435 39.5913 95.3563C41.3227 98.9691 45.655 100.494 49.2678 98.7629C52.2072 97.3543 53.7647 94.2239 53.3107 91.1601C55.4144 93.4333 58.8301 94.1803 61.7695 92.7717C65.3823 91.0403 66.9075 86.7079 65.1761 83.0951C63.4447 79.4823 59.1124 77.9572 55.4996 79.6886C55.2889 79.7895 55.0852 79.8994 54.8889 80.0174ZM55.4466 94.114C54.9701 93.7879 54.3193 94.0998 54.2751 94.6754L53.8301 100.466C53.7859 101.041 54.3814 101.449 54.902 101.2L60.1392 98.6898C60.6598 98.4403 60.7151 97.7207 60.2387 97.3946L55.4466 94.114Z"/>
</mask>
<path fill-rule="evenodd" clip-rule="evenodd" d="M54.8889 80.0174C54.9403 78.8635 54.7161 77.6806 54.182 76.5661C52.4506 72.9533 48.1183 71.4282 44.5055 73.1596C40.8927 74.891 39.3675 79.2233 41.0989 82.8361C41.6288 83.9418 42.4023 84.8519 43.3242 85.533C43.2149 85.5791 43.1061 85.628 42.9979 85.6798C39.3851 87.4112 37.8599 91.7435 39.5913 95.3563C41.3227 98.9691 45.655 100.494 49.2678 98.7629C52.2072 97.3543 53.7647 94.2239 53.3107 91.1601C55.4144 93.4333 58.8301 94.1803 61.7695 92.7717C65.3823 91.0403 66.9075 86.7079 65.1761 83.0951C63.4447 79.4823 59.1124 77.9572 55.4996 79.6886C55.2889 79.7895 55.0852 79.8994 54.8889 80.0174ZM55.4466 94.114C54.9701 93.7879 54.3193 94.0998 54.2751 94.6754L53.8301 100.466C53.7859 101.041 54.3814 101.449 54.902 101.2L60.1392 98.6898C60.6598 98.4403 60.7151 97.7207 60.2387 97.3946L55.4466 94.114Z" fill="black"/>
<path d="M54.8889 80.0174L52.6411 79.9174L52.4547 84.1066L56.0484 81.9457L54.8889 80.0174ZM43.3242 85.533L44.1971 87.6069L47.8416 86.0729L44.6612 83.7233L43.3242 85.533ZM53.3107 91.1601L54.9621 89.6318L50.018 84.2893L51.085 91.4899L53.3107 91.1601ZM54.2751 94.6754L52.0317 94.503L54.2751 94.6754ZM55.4466 94.114L56.7175 92.2574L55.4466 94.114ZM53.8301 100.466L56.0735 100.638L53.8301 100.466ZM54.902 101.2L53.9296 99.1706L54.902 101.2ZM60.1392 98.6898L61.1115 100.719L60.1392 98.6898ZM60.2387 97.3946L58.9677 99.2512L60.2387 97.3946ZM52.153 77.5385C52.5231 78.3109 52.6764 79.1244 52.6411 79.9174L57.1367 80.1175C57.2041 78.6026 56.9091 77.0503 56.211 75.5938L52.153 77.5385ZM45.4779 75.1886C47.9701 73.9942 50.9586 75.0463 52.153 77.5385L56.211 75.5938C53.9426 70.8604 48.2665 68.8621 43.5331 71.1305L45.4779 75.1886ZM43.1279 81.8637C41.9335 79.3715 42.9857 76.3829 45.4779 75.1886L43.5331 71.1305C38.7997 73.399 36.8014 79.0751 39.0698 83.8085L43.1279 81.8637ZM44.6612 83.7233C44.0277 83.2553 43.4951 82.63 43.1279 81.8637L39.0698 83.8085C39.7624 85.2536 40.7769 86.4486 41.9873 87.3428L44.6612 83.7233ZM43.9703 87.7089C44.0456 87.6728 44.1212 87.6388 44.1971 87.6069L42.4514 83.4592C42.3085 83.5194 42.1665 83.5832 42.0255 83.6508L43.9703 87.7089ZM41.6203 94.384C40.426 91.8918 41.4781 88.9032 43.9703 87.7089L42.0255 83.6508C37.2921 85.9192 35.2938 91.5953 37.5623 96.3287L41.6203 94.384ZM48.2954 96.7339C45.8032 97.9283 42.8147 96.8762 41.6203 94.384L37.5623 96.3287C39.8307 101.062 45.5068 103.06 50.2402 100.792L48.2954 96.7339ZM51.085 91.4899C51.3985 93.6053 50.3201 95.7636 48.2954 96.7339L50.2402 100.792C54.0944 98.9449 56.131 94.8424 55.5364 90.8302L51.085 91.4899ZM60.7971 90.7426C58.7725 91.7129 56.4146 91.2014 54.9621 89.6318L51.6593 92.6883C54.4142 95.6651 58.8877 96.6478 62.7419 94.8007L60.7971 90.7426ZM63.1471 84.0675C64.3415 86.5597 63.2893 89.5483 60.7971 90.7426L62.7419 94.8007C67.4753 92.5323 69.4736 86.8562 67.2052 82.1228L63.1471 84.0675ZM56.472 81.7176C58.9642 80.5232 61.9527 81.5753 63.1471 84.0675L67.2052 82.1228C64.9367 77.3894 59.2606 75.3911 54.5272 77.6595L56.472 81.7176ZM56.0484 81.9457C56.184 81.8641 56.3253 81.7879 56.472 81.7176L54.5272 77.6595C54.2525 77.7912 53.9864 77.9347 53.7295 78.0892L56.0484 81.9457ZM56.5185 94.8478C56.43 95.9992 55.1284 96.6229 54.1756 95.9707L56.7175 92.2574C54.8119 90.9529 52.2087 92.2004 52.0317 94.503L56.5185 94.8478ZM56.0735 100.638L56.5185 94.8478L52.0317 94.503L51.5867 100.293L56.0735 100.638ZM53.9296 99.1706C54.9709 98.6716 56.162 99.4869 56.0735 100.638L51.5867 100.293C51.4098 102.596 53.7918 104.227 55.8744 103.229L53.9296 99.1706ZM59.1668 96.6608L53.9296 99.1706L55.8744 103.229L61.1115 100.719L59.1668 96.6608ZM58.9677 99.2512C58.0149 98.599 58.1255 97.1598 59.1668 96.6608L61.1115 100.719C63.1941 99.7208 63.4153 96.8425 61.5097 95.538L58.9677 99.2512ZM54.1756 95.9707L58.9677 99.2512L61.5097 95.538L56.7175 92.2574L54.1756 95.9707Z" fill="white" mask="url(#path-8-outside-2_45_174373)"/>
</g>
<rect x="15.6659" y="34.9464" width="67.8366" height="93.4038" rx="5.75" transform="rotate(-15 15.6659 34.9464)" fill="white"/>
<rect x="15.6659" y="34.9464" width="67.8366" height="93.4038" rx="5.75" transform="rotate(-15 15.6659 34.9464)" stroke="#E2E2E2" stroke-width="1.5"/>
<mask id="mask1_45_174373" style="mask-type:alpha" maskUnits="userSpaceOnUse" x="16" y="18" width="89" height="107">
<rect x="16.5845" y="35.4767" width="66.3366" height="91.9038" transform="rotate(-15 16.5845 35.4767)" fill="#D9D9D9"/>
</mask>
<g mask="url(#mask1_45_174373)">
<path d="M26.8692 43.0736L26.0799 41.8316L23.724 42.4629L23.6353 43.9402L22.114 44.3478L22.5785 37.7011L24.9344 37.0698L28.6079 42.6078L26.8692 43.0736ZM23.7939 41.2981L25.4543 40.8532L23.9674 38.5029L23.7939 41.2981Z" fill="#F50032"/>
<rect x="71.4097" y="28.5507" width="5.65685" height="5.65685" rx="0.235702" transform="rotate(-60 71.4097 28.5507)" fill="#F50032"/>
<rect x="47.1089" y="79.579" width="21.2132" height="21.2132" rx="1.5" transform="rotate(-60 47.1089 79.579)" fill="#F50032"/>
<rect x="44.5499" y="80.2648" width="24.9604" height="24.9604" rx="2.625" transform="rotate(-60 44.5499 80.2648)" stroke="#F50032" stroke-width="0.75"/>
</g>
<rect x="33.003" y="19.4924" width="67.8366" height="93.4038" rx="5.75" transform="rotate(-8.84606 33.003 19.4924)" fill="white"/>
<rect x="33.003" y="19.4924" width="67.8366" height="93.4038" rx="5.75" transform="rotate(-8.84606 33.003 19.4924)" stroke="#E2E2E2" stroke-width="1.5"/>
<mask id="mask2_45_174373" style="mask-type:alpha" maskUnits="userSpaceOnUse" x="33" y="9" width="81" height="102">
<rect x="33.8594" y="20.1182" width="66.3366" height="91.9038" transform="rotate(-8.84606 33.8594 20.1182)" fill="#D9D9D9"/>
</mask>
<g mask="url(#mask2_45_174373)">
<path d="M43.27 28.7739L42.6184 27.4544L40.2084 27.8295L39.9619 29.2888L38.4056 29.531L39.58 22.9724L41.99 22.5973L45.0486 28.4971L43.27 28.7739ZM40.4028 26.6789L42.1013 26.4146L40.8749 23.9185L40.4028 26.6789Z" fill="black"/>
<path d="M91.8879 21.0625C92.5352 20.9616 93.0633 20.5705 93.3642 20.0426C93.8123 20.4537 94.4341 20.6657 95.0814 20.5648C96.2098 20.3889 96.9809 19.3317 96.8038 18.2038C96.6502 17.2105 93.456 15.2321 92.6901 14.7707C92.5942 14.7129 92.4734 14.7317 92.3997 14.816C91.8109 15.4891 89.3723 18.3473 89.5269 19.3401C89.7028 20.4685 90.76 21.2396 91.8879 21.0625Z" fill="black"/>
<path d="M93.3562 20.6554C93.3889 20.5708 93.501 20.5533 93.5579 20.624L94.7102 22.0548C94.7671 22.1255 94.7262 22.2312 94.6365 22.2452L92.8213 22.5277C92.7316 22.5416 92.6605 22.4533 92.6932 22.3687L93.3562 20.6554Z" fill="black"/>
<mask id="path-21-outside-3_45_174373" maskUnits="userSpaceOnUse" x="55.7013" y="44.8905" width="38.1436" height="40.6465" fill="black">
<rect fill="white" x="55.7013" y="44.8905" width="38.1436" height="40.6465"/>
<path fill-rule="evenodd" clip-rule="evenodd" d="M87.602 65.0107C87.3756 63.556 86.6971 62.2838 85.7318 61.3151C85.4884 61.0424 85.2243 60.7863 84.9409 60.5493L73.2679 50.7848C72.5727 50.2033 71.5245 50.3664 71.0389 51.1317L62.8854 63.9818C62.687 64.2946 62.5128 64.6197 62.3634 64.9544C61.7392 66.1701 61.4799 67.5873 61.7062 69.0409C62.2753 72.6977 65.701 75.2007 69.3578 74.6316C72.3328 74.1686 74.5442 71.8147 74.9588 68.984C76.2141 71.5548 79.0363 73.1253 82.0113 72.6623C85.6681 72.0932 88.1711 68.6674 87.602 65.0107ZM76.2977 73.3634C75.9356 72.9137 75.2225 73.0247 75.0141 73.5631L72.9131 78.9928C72.7048 79.5313 73.1574 80.0934 73.7279 80.0046L79.4807 79.1093C80.0512 79.0205 80.3116 78.3474 79.9495 77.8978L76.2977 73.3634Z"/>
</mask>
<path fill-rule="evenodd" clip-rule="evenodd" d="M87.602 65.0107C87.3756 63.556 86.6971 62.2838 85.7318 61.3151C85.4884 61.0424 85.2243 60.7863 84.9409 60.5493L73.2679 50.7848C72.5727 50.2033 71.5245 50.3664 71.0389 51.1317L62.8854 63.9818C62.687 64.2946 62.5128 64.6197 62.3634 64.9544C61.7392 66.1701 61.4799 67.5873 61.7062 69.0409C62.2753 72.6977 65.701 75.2007 69.3578 74.6316C72.3328 74.1686 74.5442 71.8147 74.9588 68.984C76.2141 71.5548 79.0363 73.1253 82.0113 72.6623C85.6681 72.0932 88.1711 68.6674 87.602 65.0107ZM76.2977 73.3634C75.9356 72.9137 75.2225 73.0247 75.0141 73.5631L72.9131 78.9928C72.7048 79.5313 73.1574 80.0934 73.7279 80.0046L79.4807 79.1093C80.0512 79.0205 80.3116 78.3474 79.9495 77.8978L76.2977 73.3634Z" fill="black"/>
<path d="M85.7318 61.3151L83.494 63.3131L83.5487 63.3744L83.6067 63.4326L85.7318 61.3151ZM84.9409 60.5493L83.0161 62.8504L83.0161 62.8504L84.9409 60.5493ZM73.2679 50.7848L71.343 53.0859L71.343 53.0859L73.2679 50.7848ZM71.0389 51.1317L68.5058 49.5244L68.5058 49.5244L71.0389 51.1317ZM62.8854 63.9818L65.4185 65.5891L65.4185 65.5891L62.8854 63.9818ZM62.3634 64.9544L65.0322 66.3247L65.0697 66.2517L65.1031 66.1768L62.3634 64.9544ZM74.9588 68.984L77.6546 67.6677L73.3968 58.9476L71.9905 68.5492L74.9588 68.984ZM75.0141 73.5631L72.2163 72.4805L72.2163 72.4805L75.0141 73.5631ZM76.2977 73.3634L78.6342 71.4817L78.6342 71.4817L76.2977 73.3634ZM72.9131 78.9928L75.7109 80.0755L75.7109 80.0755L72.9131 78.9928ZM79.9495 77.8978L82.286 76.0161L82.286 76.0161L79.9495 77.8978ZM83.6067 63.4326C84.1392 63.967 84.5121 64.665 84.6377 65.472L90.5663 64.5494C90.2391 62.447 89.255 60.6007 87.8569 59.1976L83.6067 63.4326ZM83.0161 62.8504C83.1874 62.9937 83.3469 63.1484 83.494 63.3131L87.9696 59.317C87.6298 58.9364 87.2611 58.579 86.8658 58.2482L83.0161 62.8504ZM71.343 53.0859L83.0161 62.8504L86.8658 58.2482L75.1927 48.4837L71.343 53.0859ZM73.572 52.739C73.0864 53.5043 72.0382 53.6674 71.343 53.0859L75.1927 48.4837C73.1071 46.7391 69.9626 47.2285 68.5058 49.5244L73.572 52.739ZM65.4185 65.5891L73.572 52.739L68.5058 49.5244L60.3523 62.3745L65.4185 65.5891ZM65.1031 66.1768C65.1933 65.9746 65.2985 65.7782 65.4185 65.5891L60.3523 62.3745C60.0754 62.811 59.8323 63.2647 59.6238 63.7319L65.1031 66.1768ZM64.6705 68.5796C64.545 67.7731 64.6878 66.9954 65.0322 66.3247L59.6947 63.584C58.7906 65.3448 58.4149 67.4014 58.7419 69.5023L64.6705 68.5796ZM68.8964 71.6673C66.8768 71.9816 64.9848 70.5992 64.6705 68.5796L58.7419 69.5023C59.5658 74.7962 64.5252 78.4198 69.8191 77.5959L68.8964 71.6673ZM71.9905 68.5492C71.7611 70.1152 70.5351 71.4123 68.8964 71.6673L69.8191 77.5959C74.1306 76.9249 77.3273 73.5142 77.9272 69.4187L71.9905 68.5492ZM81.55 69.698C79.9113 69.953 78.3491 69.0899 77.6546 67.6677L72.263 70.3002C74.0791 74.0197 78.1612 76.2976 82.4727 75.6266L81.55 69.698ZM84.6377 65.472C84.952 67.4916 83.5696 69.3836 81.55 69.698L82.4727 75.6266C87.7665 74.8027 91.3902 69.8432 90.5663 64.5494L84.6377 65.472ZM77.812 74.6457C77.1869 76.2611 75.0476 76.594 73.9612 75.245L78.6342 71.4817C76.8236 69.2334 73.2581 69.7883 72.2163 72.4805L77.812 74.6457ZM75.7109 80.0755L77.812 74.6457L72.2163 72.4805L70.1153 77.9102L75.7109 80.0755ZM73.2666 77.0403C74.978 76.7739 76.336 78.4601 75.7109 80.0755L70.1153 77.9102C69.0735 80.6024 71.3368 83.4128 74.1892 82.9689L73.2666 77.0403ZM79.0194 76.145L73.2666 77.0403L74.1892 82.9689L79.942 82.0736L79.0194 76.145ZM77.613 79.7794C76.5266 78.4305 77.3079 76.4113 79.0194 76.145L79.942 82.0736C82.7945 81.6297 84.0966 78.2644 82.286 76.0161L77.613 79.7794ZM73.9612 75.245L77.613 79.7795L82.286 76.0161L78.6342 71.4817L73.9612 75.245Z" fill="black" mask="url(#path-21-outside-3_45_174373)"/>
<mask id="path-23-outside-4_45_174373" maskUnits="userSpaceOnUse" x="55.7013" y="45.0443" width="37.0017" height="39.5046" fill="black">
<rect fill="white" x="55.7013" y="45.0443" width="37.0017" height="39.5046"/>
<path fill-rule="evenodd" clip-rule="evenodd" d="M87.602 65.0107C87.3756 63.556 86.6971 62.2838 85.7318 61.3151C85.4884 61.0424 85.2243 60.7863 84.9409 60.5493L73.2679 50.7848C72.5727 50.2033 71.5245 50.3664 71.0389 51.1317L62.8854 63.9818C62.687 64.2946 62.5128 64.6197 62.3634 64.9544C61.7392 66.1701 61.4799 67.5873 61.7062 69.0409C62.2753 72.6977 65.701 75.2007 69.3578 74.6316C72.3328 74.1686 74.5442 71.8147 74.9588 68.984C76.2141 71.5548 79.0363 73.1253 82.0113 72.6623C85.6681 72.0932 88.1711 68.6674 87.602 65.0107ZM76.2977 73.3634C75.9356 72.9137 75.2225 73.0247 75.0141 73.5631L72.9131 78.9928C72.7048 79.5313 73.1574 80.0934 73.7279 80.0046L79.4807 79.1093C80.0512 79.0205 80.3116 78.3474 79.9495 77.8978L76.2977 73.3634Z"/>
</mask>
<path fill-rule="evenodd" clip-rule="evenodd" d="M87.602 65.0107C87.3756 63.556 86.6971 62.2838 85.7318 61.3151C85.4884 61.0424 85.2243 60.7863 84.9409 60.5493L73.2679 50.7848C72.5727 50.2033 71.5245 50.3664 71.0389 51.1317L62.8854 63.9818C62.687 64.2946 62.5128 64.6197 62.3634 64.9544C61.7392 66.1701 61.4799 67.5873 61.7062 69.0409C62.2753 72.6977 65.701 75.2007 69.3578 74.6316C72.3328 74.1686 74.5442 71.8147 74.9588 68.984C76.2141 71.5548 79.0363 73.1253 82.0113 72.6623C85.6681 72.0932 88.1711 68.6674 87.602 65.0107ZM76.2977 73.3634C75.9356 72.9137 75.2225 73.0247 75.0141 73.5631L72.9131 78.9928C72.7048 79.5313 73.1574 80.0934 73.7279 80.0046L79.4807 79.1093C80.0512 79.0205 80.3116 78.3474 79.9495 77.8978L76.2977 73.3634Z" fill="black"/>
<path d="M85.7318 61.3151L84.0534 62.8136L84.0945 62.8595L84.1379 62.9032L85.7318 61.3151ZM84.9409 60.5493L83.4973 62.2751L83.4973 62.2751L84.9409 60.5493ZM73.2679 50.7848L71.8242 52.5106L71.8242 52.5106L73.2679 50.7848ZM71.0389 51.1317L69.139 49.9262L69.139 49.9262L71.0389 51.1317ZM62.8854 63.9818L64.7852 65.1873L64.7852 65.1873L62.8854 63.9818ZM62.3634 64.9544L64.365 65.9821L64.3931 65.9274L64.4182 65.8712L62.3634 64.9544ZM74.9588 68.984L76.9807 67.9967L73.7873 61.4567L72.7326 68.6579L74.9588 68.984ZM75.0141 73.5631L72.9158 72.7512L72.9158 72.7512L75.0141 73.5631ZM76.2977 73.3634L78.0501 71.9521L78.0501 71.9521L76.2977 73.3634ZM72.9131 78.9928L75.0115 79.8048L75.0115 79.8048L72.9131 78.9928ZM79.9495 77.8978L81.7019 76.4865L81.7019 76.4865L79.9495 77.8978ZM84.1379 62.9032C84.7787 63.5462 85.2279 64.3877 85.3787 65.3567L89.8252 64.6647C89.5232 62.7242 88.6155 61.0215 87.3257 59.7269L84.1379 62.9032ZM83.4973 62.2751C83.6966 62.4418 83.8823 62.6219 84.0534 62.8136L87.4102 59.8165C87.0944 59.4629 86.7519 59.1308 86.3845 58.8235L83.4973 62.2751ZM71.8242 52.5106L83.4973 62.2751L86.3845 58.8235L74.7115 49.059L71.8242 52.5106ZM72.9387 52.3371C72.6959 52.7198 72.1718 52.8014 71.8242 52.5106L74.7115 49.059C72.9735 47.6051 70.353 48.013 69.1391 49.9262L72.9387 52.3371ZM64.7852 65.1873L72.9387 52.3371L69.139 49.9262L60.9856 62.7764L64.7852 65.1873ZM64.4182 65.8712C64.5232 65.6359 64.6456 65.4073 64.7852 65.1873L60.9856 62.7764C60.7283 63.1819 60.5024 63.6035 60.3087 64.0375L64.4182 65.8712ZM63.9294 68.6949C63.7787 67.7266 63.9507 66.789 64.365 65.9821L60.3619 63.9266C59.5278 65.5511 59.1812 67.4479 59.4829 69.3869L63.9294 68.6949ZM69.0117 72.4084C66.5829 72.7864 64.3074 71.1238 63.9294 68.6949L59.4829 69.3869C60.2431 74.2715 64.8192 77.615 69.7038 76.8548L69.0117 72.4084ZM72.7326 68.6579C72.4569 70.5401 70.9845 72.1013 69.0117 72.4084L69.7038 76.8548C73.6811 76.2358 76.6315 73.0893 77.1851 69.31L72.7326 68.6579ZM81.6653 70.439C79.6926 70.7461 77.8153 69.7061 76.9807 67.9967L72.937 69.9712C74.6129 73.4035 78.38 75.5045 82.3573 74.8855L81.6653 70.439ZM85.3787 65.3567C85.7568 67.7856 84.0942 70.061 81.6653 70.439L82.3573 74.8855C87.2419 74.1253 90.5854 69.5493 89.8252 64.6647L85.3787 65.3567ZM77.1125 74.3751C76.6958 75.452 75.2696 75.6739 74.5453 74.7746L78.0501 71.9521C76.6016 70.1535 73.7492 70.5974 72.9158 72.7512L77.1125 74.3751ZM75.0115 79.8048L77.1125 74.3751L72.9158 72.7512L70.8147 78.1809L75.0115 79.8048ZM73.3819 77.7813C74.5229 77.6038 75.4282 78.7279 75.0115 79.8048L70.8147 78.1809C69.9813 80.3347 71.792 82.583 74.0739 82.2278L73.3819 77.7813ZM79.1347 76.886L73.3819 77.7813L74.0739 82.2278L79.8267 81.3325L79.1347 76.886ZM78.1971 79.309C77.4728 78.4097 77.9937 77.0636 79.1347 76.886L79.8267 81.3325C82.1086 80.9774 83.1504 78.2851 81.7019 76.4865L78.1971 79.309ZM74.5453 74.7746L78.1971 79.309L81.7019 76.4865L78.0501 71.9521L74.5453 74.7746Z" fill="white" mask="url(#path-23-outside-4_45_174373)"/>
</g>
<g clip-path="url(#clip0_45_174373)">
<rect x="55.9717" y="2" width="66.3366" height="91.9038" rx="5" fill="white"/>
<mask id="mask3_45_174373" style="mask-type:alpha" maskUnits="userSpaceOnUse" x="55" y="2" width="68" height="92">
<rect x="55.9717" y="2" width="66.3366" height="91.9038" fill="#D9D9D9"/>
</mask>
<g mask="url(#mask3_45_174373)">
<path d="M63.9397 12L63.4987 10.596H61.0597L60.5917 12H59.0167L61.1857 5.7H63.6247L65.7397 12H63.9397ZM61.4287 9.489H63.1477L62.3197 6.834L61.4287 9.489Z" fill="#F50032"/>
<path d="M116.559 6.2838C115.854 6.28072 115.224 6.60741 114.812 7.11759C114.406 6.60245 113.779 6.27036 113.074 6.26728C111.844 6.26123 110.841 7.25405 110.835 8.48554C110.829 9.57507 113.925 12.253 114.639 12.8559C114.725 12.9281 114.845 12.9287 114.931 12.8573C115.651 12.261 118.772 9.61218 118.777 8.52393C118.783 7.2939 117.791 6.29023 116.559 6.2838Z" fill="#F50032"/>
<path fill-rule="evenodd" clip-rule="evenodd" d="M102.625 51.0543C103.549 49.7861 104.094 48.2244 104.094 46.5355C104.094 42.2919 100.653 38.8518 96.4098 38.8518C92.9572 38.8518 90.0364 41.129 89.0675 44.2634C88.0987 41.129 85.1779 38.8518 81.7253 38.8518C77.4816 38.8518 74.0415 42.2919 74.0415 46.5355C74.0415 48.2228 74.5854 49.7831 75.5074 51.0506C75.7355 51.4032 75.99 51.7407 76.2698 52.0598L87.9395 65.3706C88.537 66.0521 89.5978 66.0521 90.1953 65.3706L101.865 52.0598C102.144 51.7417 102.398 51.4055 102.625 51.0543Z" fill="#F50032"/>
<path d="M102.625 51.0543L101.051 50.0351L101.079 49.992L101.109 49.9504L102.625 51.0543ZM89.0675 44.2634L90.8589 44.8171L89.0675 50.6125L87.2762 44.8171L89.0675 44.2634ZM75.5074 51.0506L77.0237 49.9477L77.0538 49.9892L77.0817 50.0322L75.5074 51.0506ZM76.2698 52.0598L74.8599 53.2959H74.8599L76.2698 52.0598ZM87.9395 65.3706L86.5296 66.6066V66.6066L87.9395 65.3706ZM90.1953 65.3706L91.6052 66.6066V66.6066L90.1953 65.3706ZM101.865 52.0598L100.455 50.8237V50.8237L101.865 52.0598ZM101.109 49.9504C101.807 48.9921 102.219 47.8146 102.219 46.5355H105.969C105.969 48.6343 105.29 50.58 104.141 52.1581L101.109 49.9504ZM102.219 46.5355C102.219 43.3274 99.6179 40.7268 96.4098 40.7268V36.9768C101.689 36.9768 105.969 41.2564 105.969 46.5355H102.219ZM96.4098 40.7268C93.8025 40.7268 91.5919 42.446 90.8589 44.8171L87.2762 43.7097C88.481 39.812 92.1118 36.9768 96.4098 36.9768V40.7268ZM87.2762 44.8171C86.5432 42.446 84.3326 40.7268 81.7253 40.7268V36.9768C86.0232 36.9768 89.6541 39.812 90.8589 43.7097L87.2762 44.8171ZM81.7253 40.7268C78.5172 40.7268 75.9165 43.3274 75.9165 46.5355H72.1665C72.1665 41.2564 76.4461 36.9768 81.7253 36.9768V40.7268ZM75.9165 46.5355C75.9165 47.8134 76.327 48.9899 77.0237 49.9477L73.9911 52.1536C72.8438 50.5763 72.1665 48.6323 72.1665 46.5355H75.9165ZM77.0817 50.0322C77.2605 50.3087 77.4602 50.5734 77.6797 50.8237L74.8599 53.2959C74.5198 52.9079 74.2104 52.4977 73.933 52.069L77.0817 50.0322ZM77.6797 50.8237L89.3494 64.1345L86.5296 66.6066L74.8599 53.2959L77.6797 50.8237ZM89.3494 64.1345C89.2 63.9641 88.9348 63.9641 88.7854 64.1345L91.6052 66.6066C90.2608 68.1401 87.874 68.1401 86.5296 66.6066L89.3494 64.1345ZM88.7854 64.1345L100.455 50.8237L103.275 53.2959L91.6052 66.6066L88.7854 64.1345ZM100.455 50.8237C100.674 50.5742 100.873 50.3106 101.051 50.0351L104.199 52.0734C103.922 52.5005 103.614 52.9093 103.275 53.2959L100.455 50.8237Z" fill="#F50032"/>
<path fill-rule="evenodd" clip-rule="evenodd" d="M102.625 51.0543C103.549 49.7861 104.094 48.2244 104.094 46.5355C104.094 42.2919 100.653 38.8518 96.4098 38.8518C92.9572 38.8518 90.0364 41.129 89.0675 44.2634C88.0987 41.129 85.1779 38.8518 81.7253 38.8518C77.4816 38.8518 74.0415 42.2919 74.0415 46.5355C74.0415 48.2228 74.5854 49.7831 75.5074 51.0506C75.7355 51.4032 75.99 51.7407 76.2698 52.0598L87.9395 65.3706C88.537 66.0521 89.5978 66.0521 90.1953 65.3706L101.865 52.0598C102.144 51.7417 102.398 51.4055 102.625 51.0543Z" fill="#F50032"/>
<path d="M102.625 51.0543L101.681 50.4427L101.698 50.4169L101.716 50.392L102.625 51.0543ZM89.0675 44.2634L90.1424 44.5957L89.0675 48.0729L87.9927 44.5957L89.0675 44.2634ZM75.5074 51.0506L76.4171 50.3889L76.4352 50.4137L76.452 50.4396L75.5074 51.0506ZM76.2698 52.0598L75.4238 52.8014H75.4238L76.2698 52.0598ZM87.9395 65.3706L87.0936 66.1122L87.0936 66.1122L87.9395 65.3706ZM90.1953 65.3706L91.0412 66.1122V66.1122L90.1953 65.3706ZM101.865 52.0598L101.019 51.3182V51.3182L101.865 52.0598ZM101.716 50.392C102.504 49.3097 102.969 47.9785 102.969 46.5355H105.219C105.219 48.4703 104.593 50.2625 103.534 51.7166L101.716 50.392ZM102.969 46.5355C102.969 42.9132 100.032 39.9768 96.4098 39.9768V37.7268C101.275 37.7268 105.219 41.6706 105.219 46.5355H102.969ZM96.4098 39.9768C93.4644 39.9768 90.9697 41.9192 90.1424 44.5957L87.9927 43.9312C89.1031 40.3388 92.45 37.7268 96.4098 37.7268V39.9768ZM87.9927 44.5957C87.1654 41.9192 84.6707 39.9768 81.7253 39.9768V37.7268C85.6851 37.7268 89.032 40.3388 90.1424 43.9312L87.9927 44.5957ZM81.7253 39.9768C78.103 39.9768 75.1665 42.9132 75.1665 46.5355H72.9165C72.9165 41.6706 76.8603 37.7268 81.7253 37.7268V39.9768ZM75.1665 46.5355C75.1665 47.9772 75.6303 49.3072 76.4171 50.3889L74.5976 51.7124C73.5404 50.259 72.9165 48.4685 72.9165 46.5355H75.1665ZM76.452 50.4396C76.6505 50.7465 76.8721 51.0403 77.1157 51.3182L75.4238 52.8014C75.1079 52.441 74.8204 52.0599 74.5628 51.6617L76.452 50.4396ZM77.1157 51.3182L88.7854 64.6289L87.0936 66.1122L75.4238 52.8014L77.1157 51.3182ZM88.7854 64.6289C88.9348 64.7993 89.2 64.7993 89.3494 64.6289L91.0412 66.1122C89.9956 67.3049 88.1392 67.3049 87.0936 66.1122L88.7854 64.6289ZM89.3494 64.6289L101.019 51.3182L102.711 52.8014L91.0412 66.1122L89.3494 64.6289ZM101.019 51.3182C101.262 51.0412 101.483 50.7486 101.681 50.4427L103.569 51.6658C103.312 52.0625 103.026 52.4423 102.711 52.8014L101.019 51.3182Z" fill="white"/>
<path fill-rule="evenodd" clip-rule="evenodd" d="M102.625 51.0393C103.549 49.7711 104.094 48.2095 104.094 46.5206C104.094 42.2769 100.653 38.8368 96.4098 38.8368C92.9572 38.8368 90.0364 41.114 89.0675 44.2485C88.0987 41.114 85.1779 38.8368 81.7253 38.8368C77.4816 38.8368 74.0415 42.2769 74.0415 46.5206C74.0415 48.2079 74.5854 49.7682 75.5074 51.0357C75.7355 51.3883 75.99 51.7257 76.2698 52.0448L87.9395 65.3556C88.537 66.0371 89.5978 66.0371 90.1953 65.3556L101.865 52.0448C102.144 51.7268 102.398 51.3906 102.625 51.0393Z" fill="#F50032"/>
</g>
</g>
<rect x="55.2217" y="1.25" width="67.8366" height="93.4038" rx="5.75" stroke="#E2E2E2" stroke-width="1.5"/>
<defs>
<clipPath id="clip0_45_174373">
<rect x="55.9717" y="2" width="66.3366" height="91.9038" rx="5" fill="white"/>
</clipPath>
</defs>
</svg>
