<svg width="104" height="136" viewBox="0 0 104 136" fill="none" xmlns="http://www.w3.org/2000/svg">
<rect x="0.75" y="0.75" width="102.5" height="134.5" rx="9.25" fill="white"/>
<rect x="0.75" y="0.75" width="102.5" height="134.5" rx="9.25" stroke="#E2E2E2" stroke-width="1.5"/>
<rect x="56.9409" y="89.9117" width="24" height="24" rx="1" transform="rotate(-45 56.9409 89.9117)" fill="#F50032"/>
<path fill-rule="evenodd" clip-rule="evenodd" d="M43.5979 87.8568C44.5084 89.1078 45.0456 90.648 45.0456 92.3136C45.0456 96.5006 41.6514 99.8948 37.4645 99.8948C34.058 99.8948 31.1763 97.648 30.2203 94.5555C29.2644 97.648 26.3826 99.8948 22.9761 99.8948C18.7892 99.8948 15.395 96.5006 15.395 92.3136C15.395 90.6485 15.9319 89.1087 16.842 87.8579C17.0669 87.5104 17.3178 87.1778 17.5936 86.8632L29.4683 73.3186C29.8667 72.8642 30.5739 72.8642 30.9722 73.3185L42.8469 86.8632C43.1225 87.1774 43.3732 87.5097 43.5979 87.8568Z" fill="black"/>
<path d="M29.7877 99.1617C29.9801 98.8283 30.4613 98.8283 30.6537 99.1617L34.5508 105.912C34.7433 106.245 34.5027 106.662 34.1178 106.662H26.3236C25.9387 106.662 25.6981 106.245 25.8906 105.912L29.7877 99.1617Z" fill="black"/>
<path fill-rule="evenodd" clip-rule="evenodd" d="M45.5604 44.3158C46.6044 42.8814 47.2202 41.1155 47.2202 39.2056C47.2202 34.4045 43.3281 30.5124 38.527 30.5124C34.6208 30.5124 31.3164 33.0888 30.2202 36.635C29.1241 33.0888 25.8196 30.5124 21.9134 30.5124C17.1123 30.5124 13.2202 34.4045 13.2202 39.2056C13.2202 41.1152 13.8359 42.8809 14.8796 44.3152C15.1374 44.7137 15.4251 45.095 15.7413 45.4556L29.4683 61.1129C29.8666 61.5673 30.5738 61.5673 30.9721 61.1129L44.6991 45.4556C45.0151 45.0952 45.3026 44.7141 45.5604 44.3158Z" fill="#F50032"/>
<path d="M73.7281 55.2205C73.9206 54.8872 74.4017 54.8872 74.5941 55.2205L78.4913 61.9705C78.6837 62.3039 78.4431 62.7205 78.0582 62.7205H70.264C69.8791 62.7205 69.6386 62.3039 69.831 61.9705L73.7281 55.2205Z" fill="black"/>
<path fill-rule="evenodd" clip-rule="evenodd" d="M82.1998 37.1917C82.1998 38.5923 81.8496 39.9111 81.2319 41.0652C81.4904 41.0407 81.7523 41.0282 82.0172 41.0282C86.5576 41.0282 90.2383 44.709 90.2383 49.2494C90.2383 53.7898 86.5576 57.4705 82.0172 57.4705C78.3231 57.4705 75.198 55.0341 74.1614 51.6805C73.1247 55.0341 69.9997 57.4705 66.3056 57.4705C61.7652 57.4705 58.0845 53.7898 58.0845 49.2494C58.0845 44.709 61.7652 41.0282 66.3056 41.0282C66.4415 41.0282 66.5767 41.0315 66.711 41.038C66.1023 39.8904 65.7575 38.5813 65.7575 37.1917C65.7575 32.6513 69.4383 28.9705 73.9787 28.9705C78.5191 28.9705 82.1998 32.6513 82.1998 37.1917Z" fill="black"/>
</svg>
