<svg width="20" height="20" viewBox="0 0 20 20" fill="none" xmlns="http://www.w3.org/2000/svg">
<g clip-path="url(#clip0_2122_83158)">
<rect x="2" y="2" width="16" height="16" rx="8" fill="white"/>
<path d="M17.6263 10.1497C17.6263 9.49417 17.5731 9.01582 17.458 8.51976H9.97266V11.4784H14.3664C14.2778 12.2137 13.7995 13.321 12.7364 14.065L12.7215 14.1641L15.0883 15.9976L15.2522 16.0139C16.7581 14.6231 17.6263 12.5769 17.6263 10.1497Z" fill="#4285F4"/>
<path d="M9.97272 17.945C12.1253 17.945 13.9324 17.2363 15.2523 16.0138L12.7365 14.065C12.0633 14.5345 11.1597 14.8622 9.97272 14.8622C7.86445 14.8622 6.07507 13.4715 5.43721 11.5492L5.34372 11.5572L2.88277 13.4617L2.85059 13.5512C4.16161 16.1555 6.85456 17.945 9.97272 17.945Z" fill="#34A853"/>
<path d="M5.43701 11.5493C5.2687 11.0532 5.1713 10.5217 5.1713 9.97251C5.1713 9.42326 5.2687 8.89177 5.42815 8.39571L5.42369 8.29006L2.93191 6.35492L2.85038 6.3937C2.31005 7.47443 2 8.68805 2 9.97251C2 11.257 2.31005 12.4705 2.85038 13.5513L5.43701 11.5493Z" fill="#FBBC05"/>
<path d="M9.97272 5.08269C11.4698 5.08269 12.4796 5.72934 13.0554 6.26974L15.3054 4.07285C13.9236 2.7884 12.1253 2 9.97272 2C6.85456 2 4.16161 3.78937 2.85059 6.39371L5.42836 8.39573C6.07507 6.47347 7.86445 5.08269 9.97272 5.08269Z" fill="#EB4335"/>
</g>
<rect x="1" y="1" width="18" height="18" rx="9" stroke="white" stroke-width="2"/>
<defs>
<clipPath id="clip0_2122_83158">
<rect x="2" y="2" width="16" height="16" rx="8" fill="white"/>
</clipPath>
</defs>
</svg>
