<svg viewBox="0 0 480 590" fill="none" xmlns="http://www.w3.org/2000/svg">
<g filter="url(#filter0_b_2111_95690)">
<g clip-path="url(#clip0_2111_95690)">
<rect width="480" height="590" rx="24" fill="white"/>
<g opacity="0.1">
<rect width="69.7132" height="32.6454" transform="matrix(1.20086e-08 1 1 -1.18418e-08 217.689 -62.3248)" fill="#C1C1C1"/>
<rect width="96.8987" height="32.9197" transform="matrix(1.20086e-08 1 1 -1.18418e-08 250.336 -62.3248)" fill="#C1C1C1"/>
<rect width="107.665" height="32.9197" transform="matrix(1.20086e-08 1 1 -1.18418e-08 283.254 -62.3248)" fill="#C1C1C1"/>
<rect width="128.66" height="32.9197" transform="matrix(1.20086e-08 1 1 -1.18418e-08 316.174 -62.3248)" fill="#C1C1C1"/>
<rect width="139.965" height="32.9197" transform="matrix(1.20086e-08 1 1 -1.18418e-08 349.097 -62.3248)" fill="#C1C1C1"/>
<rect width="170.649" height="32.9197" transform="matrix(1.20086e-08 1 1 -1.18418e-08 381.74 -62.3248)" fill="#C1C1C1"/>
<rect width="200.961" height="32.9953" transform="matrix(1.20086e-08 1 1 -1.18418e-08 414.51 -66.3192)" fill="#C1C1C1"/>
<rect width="221.348" height="32.9953" transform="matrix(1.20086e-08 1 1 -1.18418e-08 447.505 -71.416)" fill="#C1C1C1"/>
<rect width="1.07665" height="33.4683" transform="matrix(1.20086e-08 1 1 -1.18418e-08 220.891 167.138)" fill="#C1C1C1"/>
<rect width="7.80573" height="32.6454" transform="matrix(1.20086e-08 1 1 -1.18418e-08 217.695 89.7456)" fill="#C1C1C1"/>
<rect width="2.1533" height="32.6454" transform="matrix(1.20086e-08 1 1 -1.18418e-08 217.695 128.506)" fill="#C1C1C1"/>
<rect width="16.1498" height="32.6454" transform="matrix(1.20086e-08 1 1 -1.18418e-08 217.695 49.3715)" fill="#C1C1C1"/>
<rect width="24.2247" height="32.6454" transform="matrix(1.20086e-08 1 1 -1.18418e-08 217.695 8.45691)" fill="#C1C1C1"/>
<rect width="7.80573" height="32.6454" transform="matrix(1.20086e-08 1 1 -1.18418e-08 185.009 65.3618)" fill="#C1C1C1"/>
<rect width="7.80573" height="32.6454" transform="matrix(1.1972e-08 1 1 -1.1878e-08 152.013 47.4196)" fill="#C1C1C1"/>
<rect width="2.1533" height="32.6454" transform="matrix(1.20086e-08 1 1 -1.18418e-08 185.009 104.122)" fill="#C1C1C1"/>
<rect width="2.1533" height="32.6454" transform="matrix(1.1972e-08 1 1 -1.1878e-08 152.013 86.18)" fill="#C1C1C1"/>
<rect width="16.2559" height="33.6015" transform="matrix(1.20086e-08 1 1 -1.18418e-08 184.283 33.1293)" fill="#C1C1C1"/>
<rect width="16.2559" height="33.6015" transform="matrix(1.20086e-08 1 1 -1.18418e-08 150.682 17.3012)" fill="#C1C1C1"/>
<rect width="24.2247" height="32.6454" transform="matrix(1.20086e-08 1 1 -1.18418e-08 185.009 -15.9269)" fill="#C1C1C1"/>
<rect width="7.80573" height="32.9197" transform="matrix(1.20086e-08 1 1 -1.18418e-08 250.333 108.328)" fill="#C1C1C1"/>
<rect width="2.1533" height="32.9197" transform="matrix(1.20086e-08 1 1 -1.18418e-08 250.333 147.09)" fill="#C1C1C1"/>
<rect width="1.07665" height="32.9197" transform="matrix(1.20086e-08 1 1 -1.18418e-08 250.333 193.924)" fill="#C1C1C1"/>
<rect width="16.1498" height="32.9197" transform="matrix(1.20086e-08 1 1 -1.18418e-08 250.333 67.6848)" fill="#C1C1C1"/>
<rect width="24.2247" height="32.9197" transform="matrix(1.20086e-08 1 1 -1.18418e-08 250.333 27.31)" fill="#C1C1C1"/>
<rect width="7.53656" height="32.9197" transform="matrix(1.20086e-08 1 1 -1.18418e-08 283.255 126.629)" fill="#C1C1C1"/>
<rect width="2.1533" height="32.9197" transform="matrix(1.20086e-08 1 1 -1.18418e-08 283.255 164.849)" fill="#C1C1C1"/>
<rect width="1.07665" height="32.9197" transform="matrix(1.20086e-08 1 1 -1.18418e-08 283.255 211.684)" fill="#C1C1C1"/>
<rect width="16.4189" height="32.9197" transform="matrix(1.20086e-08 1 1 -1.18418e-08 283.255 85.4449)" fill="#C1C1C1"/>
<rect width="24.2247" height="32.9197" transform="matrix(1.20086e-08 1 1 -1.18418e-08 283.255 45.3414)" fill="#C1C1C1"/>
<rect width="7.80573" height="32.9197" transform="matrix(1.20086e-08 1 1 -1.18418e-08 316.175 142.244)" fill="#C1C1C1"/>
<rect width="2.1533" height="32.9197" transform="matrix(1.20086e-08 1 1 -1.18418e-08 316.175 180.467)" fill="#C1C1C1"/>
<rect width="1.07665" height="32.9197" transform="matrix(1.20086e-08 1 1 -1.18418e-08 316.175 227.297)" fill="#C1C1C1"/>
<rect width="15.8806" height="32.9197" transform="matrix(1.20086e-08 1 1 -1.18418e-08 316.175 101.6)" fill="#C1C1C1"/>
<rect width="24.2247" height="32.9197" transform="matrix(1.20086e-08 1 1 -1.18418e-08 316.175 61.2256)" fill="#C1C1C1"/>
<rect width="7.80573" height="32.9197" transform="matrix(1.20086e-08 1 1 -1.18418e-08 348.822 158.932)" fill="#C1C1C1"/>
<rect width="2.1533" height="32.9197" transform="matrix(1.20086e-08 1 1 -1.18418e-08 348.822 197.691)" fill="#C1C1C1"/>
<rect width="1.07665" height="32.9197" transform="matrix(1.20086e-08 1 1 -1.18418e-08 348.821 244.524)" fill="#C1C1C1"/>
<rect width="16.1498" height="32.9197" transform="matrix(1.20086e-08 1 1 -1.18418e-08 349.096 117.747)" fill="#C1C1C1"/>
<rect width="23.9555" height="32.9197" transform="matrix(1.20086e-08 1 1 -1.18418e-08 349.097 77.6445)" fill="#C1C1C1"/>
<rect width="7.80573" height="32.9197" transform="matrix(1.20086e-08 1 1 -1.18418e-08 382.02 183.158)" fill="#C1C1C1"/>
<rect width="2.1533" height="32.9197" transform="matrix(1.20086e-08 1 1 -1.18418e-08 382.02 221.916)" fill="#C1C1C1"/>
<rect width="1.07665" height="32.9197" transform="matrix(1.20086e-08 1 1 -1.18418e-08 382.02 268.749)" fill="#C1C1C1"/>
<rect width="15.8806" height="32.9197" transform="matrix(1.20086e-08 1 1 -1.18418e-08 381.745 133.913)" fill="#C1C1C1"/>
<rect width="16.0186" height="32.9953" transform="matrix(1.20086e-08 1 1 -1.18418e-08 381.515 101.876)" fill="#C1C1C1"/>
<rect width="7.80573" height="32.9197" transform="matrix(1.20086e-08 1 1 -1.18418e-08 414.661 216.258)" fill="#C1C1C1"/>
<rect width="2.1533" height="32.9197" transform="matrix(1.20086e-08 1 1 -1.18418e-08 414.661 253.674)" fill="#C1C1C1"/>
<rect width="1.75824" height="33.0508" transform="matrix(1.20086e-08 1 1 -1.18418e-08 417.94 300.242)" fill="#C1C1C1"/>
<rect width="8.00931" height="32.9953" transform="matrix(1.20086e-08 1 1 -1.18418e-08 414.51 182.697)" fill="#C1C1C1"/>
<rect width="7.47778" height="32.9197" transform="matrix(1.20086e-08 1 1 -1.18418e-08 382.247 175.416)" fill="#C1C1C1"/>
<rect width="16.7467" height="32.9953" transform="matrix(1.20086e-08 1 1 -1.18418e-08 414.51 149.932)" fill="#C1C1C1"/>
<rect width="7.80573" height="33.194" transform="matrix(1.20086e-08 1 1 -1.18418e-08 447.306 239.948)" fill="#C1C1C1"/>
<rect width="2.1533" height="33.194" transform="matrix(1.20086e-08 1 1 -1.18418e-08 447.306 278.705)" fill="#C1C1C1"/>
<rect width="15.8806" height="33.194" transform="matrix(1.20086e-08 1 1 -1.18418e-08 447.306 198.768)" fill="#C1C1C1"/>
<rect width="24.2247" height="33.194" transform="matrix(1.20086e-08 1 1 -1.18418e-08 447.305 167.407)" fill="#C1C1C1"/>
</g>
<g opacity="0.1">
<rect width="96.8987" height="32.9197" transform="matrix(-1.20086e-08 -1 -1 1.18418e-08 230.845 669.914)" fill="#C1C1C1"/>
<rect width="107.665" height="32.9197" transform="matrix(-1.20086e-08 -1 -1 1.18418e-08 197.928 669.914)" fill="#C1C1C1"/>
<rect width="128.66" height="32.9197" transform="matrix(-1.20086e-08 -1 -1 1.18418e-08 165.008 669.914)" fill="#C1C1C1"/>
<rect width="139.965" height="32.9197" transform="matrix(-1.20086e-08 -1 -1 1.18418e-08 132.084 669.914)" fill="#C1C1C1"/>
<rect width="170.649" height="32.9197" transform="matrix(-1.20086e-08 -1 -1 1.18418e-08 99.4412 669.914)" fill="#C1C1C1"/>
<rect width="200.961" height="32.9953" transform="matrix(-1.20086e-08 -1 -1 1.18418e-08 66.6718 673.908)" fill="#C1C1C1"/>
<rect width="221.348" height="32.9953" transform="matrix(-1.20086e-08 -1 -1 1.18418e-08 33.677 679.005)" fill="#C1C1C1"/>
<rect width="1.07665" height="33.4683" transform="matrix(-1.20086e-08 -1 -1 1.18418e-08 260.29 440.451)" fill="#C1C1C1"/>
<rect width="7.80573" height="32.6454" transform="matrix(-1.20086e-08 -1 -1 1.18418e-08 263.487 517.844)" fill="#C1C1C1"/>
<rect width="2.1533" height="32.6454" transform="matrix(-1.20086e-08 -1 -1 1.18418e-08 263.487 479.083)" fill="#C1C1C1"/>
<rect width="16.1498" height="32.6454" transform="matrix(-1.20086e-08 -1 -1 1.18418e-08 263.487 558.218)" fill="#C1C1C1"/>
<rect width="24.2247" height="32.6454" transform="matrix(-1.20086e-08 -1 -1 1.18418e-08 263.487 599.132)" fill="#C1C1C1"/>
<rect width="7.80573" height="32.6454" transform="matrix(-1.20086e-08 -1 -1 1.18418e-08 296.172 542.227)" fill="#C1C1C1"/>
<rect width="7.80573" height="32.6454" transform="matrix(-1.1972e-08 -1 -1 1.1878e-08 329.168 560.17)" fill="#C1C1C1"/>
<rect width="2.1533" height="32.6454" transform="matrix(-1.20086e-08 -1 -1 1.18418e-08 296.172 503.467)" fill="#C1C1C1"/>
<rect width="2.1533" height="32.6454" transform="matrix(-1.1972e-08 -1 -1 1.1878e-08 329.168 521.409)" fill="#C1C1C1"/>
<rect width="16.2559" height="33.6015" transform="matrix(-1.20086e-08 -1 -1 1.18418e-08 296.899 574.46)" fill="#C1C1C1"/>
<rect width="16.2559" height="33.6015" transform="matrix(-1.20086e-08 -1 -1 1.18418e-08 330.5 590.288)" fill="#C1C1C1"/>
<rect width="7.80573" height="32.9197" transform="matrix(-1.20086e-08 -1 -1 1.18418e-08 230.849 499.261)" fill="#C1C1C1"/>
<rect width="2.1533" height="32.9197" transform="matrix(-1.20086e-08 -1 -1 1.18418e-08 230.849 460.499)" fill="#C1C1C1"/>
<rect width="1.07665" height="32.9197" transform="matrix(-1.20086e-08 -1 -1 1.18418e-08 230.849 413.666)" fill="#C1C1C1"/>
<rect width="16.1498" height="32.9197" transform="matrix(-1.20086e-08 -1 -1 1.18418e-08 230.849 539.904)" fill="#C1C1C1"/>
<rect width="24.2247" height="32.9197" transform="matrix(-1.20086e-08 -1 -1 1.18418e-08 230.849 580.279)" fill="#C1C1C1"/>
<rect width="7.53656" height="32.9197" transform="matrix(-1.20086e-08 -1 -1 1.18418e-08 197.927 480.96)" fill="#C1C1C1"/>
<rect width="2.1533" height="32.9197" transform="matrix(-1.20086e-08 -1 -1 1.18418e-08 197.927 442.741)" fill="#C1C1C1"/>
<rect width="1.07665" height="32.9197" transform="matrix(-1.20086e-08 -1 -1 1.18418e-08 197.927 395.905)" fill="#C1C1C1"/>
<rect width="16.4189" height="32.9197" transform="matrix(-1.20086e-08 -1 -1 1.18418e-08 197.927 522.144)" fill="#C1C1C1"/>
<rect width="24.2247" height="32.9197" transform="matrix(-1.20086e-08 -1 -1 1.18418e-08 197.927 562.248)" fill="#C1C1C1"/>
<rect width="7.80573" height="32.9197" transform="matrix(-1.20086e-08 -1 -1 1.18418e-08 165.007 465.346)" fill="#C1C1C1"/>
<rect width="2.1533" height="32.9197" transform="matrix(-1.20086e-08 -1 -1 1.18418e-08 165.007 427.122)" fill="#C1C1C1"/>
<rect width="1.07665" height="32.9197" transform="matrix(-1.20086e-08 -1 -1 1.18418e-08 165.007 380.292)" fill="#C1C1C1"/>
<rect width="15.8806" height="32.9197" transform="matrix(-1.20086e-08 -1 -1 1.18418e-08 165.007 505.989)" fill="#C1C1C1"/>
<rect width="24.2247" height="32.9197" transform="matrix(-1.20086e-08 -1 -1 1.18418e-08 165.007 546.364)" fill="#C1C1C1"/>
<rect width="7.80573" height="32.9197" transform="matrix(-1.20086e-08 -1 -1 1.18418e-08 132.36 448.657)" fill="#C1C1C1"/>
<rect width="2.1533" height="32.9197" transform="matrix(-1.20086e-08 -1 -1 1.18418e-08 132.36 409.898)" fill="#C1C1C1"/>
<rect width="1.07665" height="32.9197" transform="matrix(-1.20086e-08 -1 -1 1.18418e-08 132.36 363.065)" fill="#C1C1C1"/>
<rect width="16.1498" height="32.9197" transform="matrix(-1.20086e-08 -1 -1 1.18418e-08 132.086 489.842)" fill="#C1C1C1"/>
<rect width="23.9555" height="32.9197" transform="matrix(-1.20086e-08 -1 -1 1.18418e-08 132.085 529.945)" fill="#C1C1C1"/>
<rect width="7.80573" height="32.9197" transform="matrix(-1.20086e-08 -1 -1 1.18418e-08 99.1619 424.431)" fill="#C1C1C1"/>
<rect width="2.1533" height="32.9197" transform="matrix(-1.20086e-08 -1 -1 1.18418e-08 99.1619 385.673)" fill="#C1C1C1"/>
<rect width="1.07665" height="32.9197" transform="matrix(-1.20086e-08 -1 -1 1.18418e-08 99.1619 338.84)" fill="#C1C1C1"/>
<rect width="15.8806" height="32.9197" transform="matrix(-1.20086e-08 -1 -1 1.18418e-08 99.4362 473.676)" fill="#C1C1C1"/>
<rect width="16.0186" height="32.9953" transform="matrix(-1.20086e-08 -1 -1 1.18418e-08 99.6671 505.713)" fill="#C1C1C1"/>
<rect width="7.80573" height="32.9197" transform="matrix(-1.20086e-08 -1 -1 1.18418e-08 66.5209 391.331)" fill="#C1C1C1"/>
<rect width="2.1533" height="32.9197" transform="matrix(-1.20086e-08 -1 -1 1.18418e-08 66.5209 353.915)" fill="#C1C1C1"/>
<rect width="1.75824" height="33.0508" transform="matrix(-1.20086e-08 -1 -1 1.18418e-08 63.2419 307.347)" fill="#C1C1C1"/>
<rect width="8.00931" height="32.9953" transform="matrix(-1.20086e-08 -1 -1 1.18418e-08 66.672 424.892)" fill="#C1C1C1"/>
<rect width="7.47778" height="32.9197" transform="matrix(-1.20086e-08 -1 -1 1.18418e-08 98.9343 432.173)" fill="#C1C1C1"/>
<rect width="16.7467" height="32.9953" transform="matrix(-1.20086e-08 -1 -1 1.18418e-08 66.672 457.657)" fill="#C1C1C1"/>
<rect width="7.80573" height="33.194" transform="matrix(-1.20086e-08 -1 -1 1.18418e-08 33.8756 367.641)" fill="#C1C1C1"/>
<rect width="2.1533" height="33.194" transform="matrix(-1.20086e-08 -1 -1 1.18418e-08 33.8756 328.884)" fill="#C1C1C1"/>
<rect width="15.8806" height="33.194" transform="matrix(-1.20086e-08 -1 -1 1.18418e-08 33.8756 408.822)" fill="#C1C1C1"/>
<rect width="24.2247" height="33.194" transform="matrix(-1.20086e-08 -1 -1 1.18418e-08 33.8762 440.182)" fill="#C1C1C1"/>
</g>
</g>
</g>
<defs>
<filter id="filter0_b_2111_95690" x="-40" y="-40" width="560" height="670" filterUnits="userSpaceOnUse" color-interpolation-filters="sRGB">
<feFlood flood-opacity="0" result="BackgroundImageFix"/>
<feGaussianBlur in="BackgroundImageFix" stdDeviation="20"/>
<feComposite in2="SourceAlpha" operator="in" result="effect1_backgroundBlur_2111_95690"/>
<feBlend mode="normal" in="SourceGraphic" in2="effect1_backgroundBlur_2111_95690" result="shape"/>
</filter>
<clipPath id="clip0_2111_95690">
<rect width="480" height="590" rx="24" fill="white"/>
</clipPath>
</defs>
</svg>
