<svg width="16" height="16" viewBox="0 0 16 16" fill="none" xmlns="http://www.w3.org/2000/svg">
<g id="iconRight">
<path id="icon" fill-rule="evenodd" clip-rule="evenodd" d="M12.0267 4.37954C11.9901 4.29108 11.9359 4.2082 11.864 4.1363C11.7175 3.98985 11.5256 3.91663 11.3337 3.91663L4.66699 3.91663C4.25278 3.91663 3.91699 4.25241 3.91699 4.66663C3.91699 5.08084 4.25278 5.41663 4.66699 5.41663L9.523 5.41663L4.13666 10.803C3.84377 11.0959 3.84377 11.5707 4.13666 11.8636C4.42956 12.1565 4.90443 12.1565 5.19732 11.8636L10.5837 6.47729V11.3333C10.5837 11.7475 10.9194 12.0833 11.3337 12.0833C11.7479 12.0833 12.0837 11.7475 12.0837 11.3333L12.0837 4.66663C12.0837 4.56493 12.0634 4.46797 12.0267 4.37954Z" fill="#111111"/>
</g>
</svg>
