<svg opacity="0.15" width="35" height="18" viewBox="0 0 35 18" fill="none" xmlns="http://www.w3.org/2000/svg">
<path d="M0 17.2207C6.11546 17.2207 8.53668 8.72951 14.651 8.72951V0.238281C8.53668 0.238281 6.11546 8.72951 0 8.72951V17.2207Z" fill="#FBFFDD"/>
<path d="M14.6619 17.2207C20.7762 17.2207 23.1985 8.72951 29.3129 8.72951V0.238281C23.1985 0.238281 20.7762 8.72951 14.6619 8.72951V17.2207Z" fill="#FBFFDD"/>
<path d="M29.313 17.2207C30.6082 17.2207 31.8504 16.7734 32.7663 15.9772C33.6821 15.181 34.1967 14.1011 34.1967 12.9751C34.1967 11.8491 33.6821 10.7692 32.7663 9.97301C31.8504 9.1768 30.6082 8.72949 29.313 8.72949V17.2207Z" fill="#FBFFDD"/>
</svg>
