<svg width="27" height="15" viewBox="0 0 27 15" fill="none" xmlns="http://www.w3.org/2000/svg">
<g clip-path="url(#clip0_54_3522)">
<path d="M0 14.6878C4.59809 14.6878 6.41856 7.34388 11.0158 7.34388V0C6.41856 0 4.59809 7.34388 0 7.34388V14.6878Z" fill="#F50032"/>
<path d="M11.0237 14.6877C15.6209 14.6877 17.4422 7.34376 22.0395 7.34376V-0.00012207C17.4422 -0.00012207 15.6209 7.34376 11.0237 7.34376V14.6877Z" fill="#F50032"/>
<path d="M22.0403 14.6879C23.0142 14.6879 23.9481 14.301 24.6367 13.6124C25.3253 12.9238 25.7122 11.9898 25.7122 11.016C25.7122 10.0421 25.3253 9.1081 24.6367 8.41948C23.9481 7.73086 23.0142 7.34399 22.0403 7.34399V14.6879Z" fill="#F50032"/>
</g>
<defs>
<clipPath id="clip0_54_3522">
<rect width="26.3158" height="14.7368" fill="white"/>
</clipPath>
</defs>
</svg>
