<svg viewBox="0 0 1440 900" fill="none" xmlns="http://www.w3.org/2000/svg">
<g clip-path="url(#clip0_17_16266)">
<rect width="1440" height="900" fill="white"/>
<rect width="1440" height="900" fill="url(#paint0_radial_17_16266)"/>
<path opacity="0.16" d="M20 -124V780C20 835.229 64.7715 880 120 880H1190" stroke="#FBFFDD" stroke-width="4"/>
<g opacity="0.14">
<path d="M1210 886.221C1216.12 886.221 1218.54 877.73 1224.65 877.73V869.238C1218.54 869.238 1216.12 877.73 1210 877.73V886.221Z" fill="#FBFFDD"/>
<path d="M1224.66 886.221C1230.78 886.221 1233.2 877.73 1239.31 877.73V869.238C1233.2 869.238 1230.78 877.73 1224.66 877.73V886.221Z" fill="#FBFFDD"/>
<path d="M1239.31 886.221C1240.61 886.221 1241.85 885.773 1242.77 884.977C1243.68 884.181 1244.2 883.101 1244.2 881.975C1244.2 880.849 1243.68 879.769 1242.77 878.973C1241.85 878.177 1240.61 877.729 1239.31 877.729V886.221Z" fill="#FBFFDD"/>
<path d="M1268.59 869.238H1276.29V886.285H1271.25V872.769L1267.1 886.285H1261.84L1258.05 872.87V886.285H1254V869.238H1261.84L1265 880.881L1268.59 869.238Z" fill="#FBFFDD"/>
<path d="M1289.04 874.111H1293.78L1285.34 891.158H1280.72L1283.18 886.212L1277.18 874.111H1282.45L1285.53 881.49L1289.04 874.111Z" fill="#FBFFDD"/>
<path d="M1293.66 882.319H1298.98C1299.04 883.656 1299.88 884.581 1301.51 884.581C1302.6 884.581 1303.36 884.192 1303.36 883.532C1303.36 882.616 1302.3 882.342 1300.44 881.829L1297.89 881.146C1295.28 880.418 1293.94 879.245 1293.94 877.482C1293.94 875.091 1296.49 873.731 1300.97 873.731C1305.34 873.731 1307.89 875.105 1308.23 877.601H1303.36C1303.3 877.089 1303.02 876.615 1302.57 876.282C1302.12 875.949 1301.53 875.785 1300.94 875.824C1299.79 875.824 1299.26 876.282 1299.26 876.772C1299.26 877.578 1300.44 877.894 1302.06 878.334L1304.64 879.039C1306.1 879.429 1308.68 880.281 1308.68 882.667C1308.68 885.053 1306.1 886.683 1301.25 886.683C1296.74 886.674 1294.11 885.14 1293.66 882.319Z" fill="#FBFFDD"/>
<path d="M1318.48 876.566H1316.02V882.52C1316.02 883.615 1316.18 883.761 1318.03 883.761H1318.48V886.294H1315.32C1311.93 886.294 1310.95 885.442 1310.95 882.108V876.566H1309.26V874.13H1310.97V871.45L1316.02 869.747V874.13H1318.48V876.566Z" fill="#FBFFDD"/>
<path d="M1334.44 880.857H1324.59C1324.7 883.825 1325.55 884.485 1326.89 884.485C1328.15 884.485 1328.8 883.802 1328.96 882.318H1334.17C1333.84 884.874 1331.51 886.674 1326.89 886.674C1321.53 886.674 1319.32 883.894 1319.32 880.322C1319.32 876.571 1321.59 873.722 1327.03 873.722C1331.65 873.722 1334.45 876.255 1334.45 880.395L1334.44 880.857ZM1324.72 878.664H1329.04V878.59C1329.04 876.548 1328.03 875.911 1326.99 875.911C1325.51 875.911 1324.81 877.152 1324.72 878.664Z" fill="#FBFFDD"/>
<path d="M1350.01 878.128V886.285H1344.96V878.856C1344.96 877.368 1344.44 876.639 1343.11 876.639C1341.79 876.639 1341.07 877.441 1341.07 879.387V886.257H1336.03V876.374C1336.03 875.815 1336.03 874.693 1335.97 874.111H1340.99V875.742C1341.63 874.574 1343.09 873.722 1345.33 873.722C1348.33 873.722 1350.01 875.036 1350.01 878.128Z" fill="#FBFFDD"/>
<path d="M1363.25 883.29H1372.14V886.285H1357.91V869.238H1363.23L1363.25 883.29Z" fill="#FBFFDD"/>
<path d="M1382.54 886.285V884.581C1381.73 885.776 1380.33 886.459 1378 886.459C1374.81 886.459 1373.08 885.044 1373.08 882.854C1373.08 880.491 1375.18 879.736 1378.25 879.191L1379.52 878.971C1381.78 878.581 1382.46 878.265 1382.46 877.317C1382.46 876.465 1381.84 875.902 1380.72 875.902C1380.46 875.876 1380.19 875.901 1379.95 875.976C1379.7 876.051 1379.47 876.174 1379.29 876.336C1379.1 876.498 1378.96 876.694 1378.87 876.91C1378.79 877.126 1378.76 877.356 1378.79 877.583H1373.59C1373.72 874.931 1375.99 873.713 1380.76 873.713C1385.69 873.713 1387.39 875.197 1387.39 877.752V884.352C1387.39 885.154 1387.39 885.813 1387.48 886.299L1382.54 886.285ZM1382.35 881.755V880.294C1381.98 880.441 1381.53 880.587 1380.8 880.807L1380.38 880.931C1379.01 881.32 1378.34 881.586 1378.34 882.465C1378.34 883.267 1378.96 883.839 1380.16 883.839C1381.55 883.825 1382.34 883.024 1382.34 881.755H1382.35Z" fill="#FBFFDD"/>
<path d="M1404.14 880.102C1404.14 883.729 1401.9 886.431 1397.82 886.431C1397.16 886.452 1396.51 886.35 1395.9 886.132C1395.29 885.914 1394.74 885.585 1394.29 885.167L1393.9 886.285H1389.42V869.238H1394.46V875.353C1394.9 874.84 1395.47 874.425 1396.13 874.142C1396.78 873.858 1397.51 873.714 1398.24 873.722C1402.37 873.722 1404.14 876.424 1404.14 880.102ZM1398.62 880.102C1398.62 877.4 1397.76 876.278 1396.44 876.278C1394.92 876.278 1394.33 877.4 1394.33 880.102C1394.33 882.291 1394.92 883.876 1396.44 883.876C1398.05 883.894 1398.64 882.291 1398.64 880.102H1398.62Z" fill="#FBFFDD"/>
<path d="M1404.99 882.319H1410.31C1410.36 883.656 1411.2 884.581 1412.83 884.581C1413.92 884.581 1414.67 884.192 1414.67 883.532C1414.67 882.616 1413.62 882.342 1411.76 881.829L1409.22 881.146C1406.58 880.418 1405.26 879.245 1405.26 877.482C1405.26 875.091 1407.81 873.731 1412.3 873.731C1416.67 873.731 1419.22 875.105 1419.55 877.601H1414.68C1414.63 877.089 1414.35 876.615 1413.9 876.282C1413.44 875.95 1412.86 875.785 1412.27 875.824C1411.12 875.824 1410.59 876.282 1410.59 876.772C1410.59 877.578 1411.77 877.894 1413.39 878.334L1415.97 879.039C1417.43 879.429 1420.01 880.281 1420.01 882.667C1420.01 885.053 1417.43 886.683 1412.58 886.683C1408.07 886.674 1405.43 885.14 1404.99 882.319Z" fill="#FBFFDD"/>
</g>
</g>
<defs>
<radialGradient id="paint0_radial_17_16266" cx="0" cy="0" r="1" gradientUnits="userSpaceOnUse" gradientTransform="translate(720) rotate(90) scale(900 1118.93)">
<stop stop-color="#14C57A"/>
<stop offset="1" stop-color="#097750"/>
</radialGradient>
<clipPath id="clip0_17_16266">
<rect width="1440" height="900" fill="white"/>
</clipPath>
</defs>
</svg>
