<svg opacity="0.15" width="166" height="23" viewBox="0 0 166 23" fill="none" xmlns="http://www.w3.org/2000/svg">
<path d="M14.5902 0.238281H22.2924V17.2849H17.2506V3.76942L13.1045 17.2849H7.83625L4.05364 3.87018V17.2849H-0.00292969V0.238281H7.84152L11.0025 11.8805L14.5902 0.238281Z" fill="#FBFFDD"/>
<path d="M35.0415 5.11133H39.7829L31.3432 22.1579H26.7176L29.1832 17.2115L23.1774 5.11133H28.4456L31.5276 12.4896L35.0415 5.11133Z" fill="#FBFFDD"/>
<path d="M39.6619 13.3186H44.9828C45.0408 14.656 45.8784 15.5811 47.5063 15.5811C48.5968 15.5811 49.3555 15.1918 49.3555 14.5323C49.3555 13.6163 48.3018 13.3415 46.4421 12.8285L43.8923 12.1461C41.2845 11.4179 39.9411 10.2455 39.9411 8.48218C39.9411 6.09145 42.4909 4.7312 46.9742 4.7312C51.3416 4.7312 53.8914 6.10519 54.2286 8.60126H49.3555C49.3031 8.08865 49.0205 7.61463 48.5688 7.28199C48.1171 6.94934 47.5328 6.78487 46.9426 6.82424C45.7941 6.82424 45.262 7.28224 45.262 7.77229C45.262 8.57837 46.4421 8.89437 48.0647 9.33405L50.6409 10.0394C52.1002 10.4287 54.6764 11.2805 54.6764 13.6667C54.6764 16.0528 52.1002 17.6833 47.2534 17.6833C42.7438 17.6741 40.1097 16.1399 39.6619 13.3186Z" fill="#FBFFDD"/>
<path d="M64.4806 7.56614H62.015V13.5201C62.015 14.6147 62.1836 14.7612 64.0328 14.7612H64.4806V17.2939H61.3196C57.9321 17.2939 56.9522 16.4421 56.9522 13.1079V7.56614H55.2611V5.1296H56.9733V2.45032L62.015 0.746582V5.1296H64.4806V7.56614Z" fill="#FBFFDD"/>
<path d="M80.4434 11.8575H70.5917C70.7024 14.8253 71.5453 15.4848 72.8887 15.4848C74.1478 15.4848 74.7958 14.8024 74.9644 13.3185H80.1747C79.8376 15.8741 77.509 17.674 72.8887 17.674C67.5309 17.674 65.3235 14.894 65.3235 11.3216C65.3235 7.57065 67.5941 4.72192 73.0257 4.72192C77.6512 4.72192 80.4487 7.25463 80.4487 11.3949L80.4434 11.8575ZM70.7235 9.66368H75.0382V9.59041C75.0382 7.54776 74.0319 6.91114 72.9941 6.91114C71.5084 6.91114 70.8077 8.1523 70.7235 9.66368Z" fill="#FBFFDD"/>
<path d="M96.0058 9.12783V17.2847H90.9641V9.85604C90.9641 8.36756 90.4373 7.63935 89.115 7.63935C87.7926 7.63935 87.0709 8.44084 87.0709 10.3873V17.2572H82.0291V7.37371C82.0291 6.81495 82.0291 5.69288 81.9712 5.11122H86.9866V6.74168C87.6293 5.5738 89.0939 4.72192 91.3276 4.72192C94.3253 4.72192 96.0058 6.03637 96.0058 9.12783Z" fill="#FBFFDD"/>
<path d="M109.245 14.2896H118.138V17.2849H103.914V0.238281H109.235L109.245 14.2896Z" fill="#FBFFDD"/>
<path d="M128.543 17.2849V15.5811C127.731 16.7765 126.33 17.4589 124.002 17.4589C120.809 17.4589 119.076 16.0437 119.076 13.8545C119.076 11.4912 121.183 10.7355 124.254 10.1905L125.519 9.97068C127.784 9.58138 128.458 9.26537 128.458 8.31732C128.458 7.46545 127.842 6.90211 126.72 6.90211C126.459 6.87571 126.194 6.90103 125.946 6.97617C125.697 7.05131 125.472 7.17432 125.286 7.33599C125.1 7.49766 124.958 7.69381 124.872 7.90976C124.785 8.1257 124.756 8.35584 124.786 8.58295H119.587C119.724 5.93116 121.994 4.71289 126.757 4.71289C131.688 4.71289 133.395 6.1968 133.395 8.75241V15.3521C133.395 16.1536 133.395 16.8131 133.479 17.2986L128.543 17.2849ZM128.348 12.7553V11.2943C127.979 11.4408 127.531 11.5874 126.804 11.8072L126.383 11.9309C125.013 12.3202 124.339 12.5858 124.339 13.4652C124.339 14.2667 124.955 14.8392 126.162 14.8392C127.552 14.8254 128.337 14.0239 128.337 12.7553H128.348Z" fill="#FBFFDD"/>
<path d="M150.143 11.1019C150.143 14.7292 147.898 17.4314 143.821 17.4314C143.163 17.4518 142.507 17.3496 141.898 17.1315C141.29 16.9135 140.741 16.5848 140.291 16.1673L139.901 17.2849H135.418V0.238281H140.459V6.35252C140.897 5.84011 141.468 5.42516 142.125 5.14173C142.783 4.8583 143.508 4.71448 144.242 4.72206C148.367 4.72206 150.143 7.42422 150.143 11.1019ZM144.621 11.1019C144.621 8.39975 143.757 7.27766 142.44 7.27766C140.923 7.27766 140.333 8.39975 140.333 11.1019C140.333 13.2911 140.918 14.8758 142.44 14.8758C144.052 14.8941 144.637 13.2911 144.637 11.1019H144.621Z" fill="#FBFFDD"/>
<path d="M150.985 13.3186H156.306C156.364 14.656 157.202 15.5811 158.83 15.5811C159.92 15.5811 160.674 15.1918 160.674 14.5323C160.674 13.6163 159.62 13.3415 157.76 12.8285L155.216 12.1461C152.582 11.4179 151.265 10.2455 151.265 8.48218C151.265 6.09145 153.815 4.7312 158.298 4.7312C162.665 4.7312 165.215 6.10519 165.552 8.60126H160.679C160.628 8.08904 160.347 7.61502 159.896 7.28226C159.445 6.94951 158.861 6.78491 158.271 6.82424C157.123 6.82424 156.591 7.28224 156.591 7.77229C156.591 8.57837 157.766 8.89437 159.394 9.33405L161.97 10.0394C163.429 10.4287 166.005 11.2805 166.005 13.6667C166.005 16.0528 163.429 17.6833 158.582 17.6833C154.067 17.6741 151.433 16.1399 150.985 13.3186Z" fill="#FBFFDD"/>
</svg>
