<svg width="122" height="169" viewBox="0 0 122 169" fill="none" xmlns="http://www.w3.org/2000/svg">
<rect x="0.5" y="0.5" width="121" height="167.25" rx="10.5" stroke="#ADADAD"/>
<g clip-path="url(#clip0_26_21178)">
<rect x="1" y="1" width="120" height="166.25" rx="10" fill="white"/>
<mask id="mask0_26_21178" style="mask-type:alpha" maskUnits="userSpaceOnUse" x="1" y="1" width="120" height="167">
<rect x="1" y="1" width="120" height="166.25" fill="#D9D9D9"/>
</mask>
<g mask="url(#mask0_26_21178)">
<rect x="6.81708" y="7" width="10.8" height="4" fill="#E6E5FF"/>
<rect x="17.6171" y="7" width="10.8" height="4" fill="white"/>
<rect x="28.4171" y="7" width="10.8" height="4" fill="#E6E5FF"/>
<rect x="39.2171" y="7" width="10.8" height="4" fill="#E6E5FF"/>
<rect x="50.0171" y="7" width="10.8" height="4" fill="#E6E5FF"/>
<rect x="60.8171" y="7" width="10.8" height="4" fill="#E6E5FF"/>
<rect x="71.6171" y="7" width="10.8" height="4" fill="#E6E5FF"/>
<rect x="82.4171" y="7" width="10.8" height="4" fill="#E6E5FF"/>
<rect x="93.2171" y="7" width="10.8" height="4" fill="#E6E5FF"/>
<rect x="104.017" y="7" width="10.8" height="4" fill="#E6E5FF"/>
<rect x="6.81708" y="11" width="10.8" height="4" fill="white"/>
<rect x="17.6171" y="11" width="10.8" height="4" fill="#E6E5FF"/>
<rect x="28.4171" y="11" width="10.8" height="4" fill="white"/>
<rect x="39.2171" y="11" width="10.8" height="4" fill="#E6E5FF"/>
<rect x="50.0171" y="11" width="10.8" height="4" fill="#E6E5FF"/>
<rect x="60.8171" y="11" width="10.8" height="4" fill="#E6E5FF"/>
<rect x="71.6171" y="11" width="10.8" height="4" fill="#E6E5FF"/>
<rect x="82.4171" y="11" width="10.8" height="4" fill="#E6E5FF"/>
<rect x="93.2171" y="11" width="10.8" height="4" fill="#E6E5FF"/>
<rect x="104.017" y="11" width="10.8" height="4" fill="#E6E5FF"/>
<rect x="6.81708" y="15" width="10.8" height="2" fill="#E6E5FF"/>
<rect x="17.6171" y="15" width="10.8" height="4" fill="white"/>
<rect x="28.4171" y="15" width="10.8" height="4" fill="#E6E5FF"/>
<rect x="39.2171" y="15" width="10.8" height="4" fill="white"/>
<rect x="50.0171" y="15" width="10.8" height="4" fill="#E6E5FF"/>
<rect x="60.8171" y="15" width="10.8" height="4" fill="#E6E5FF"/>
<rect x="71.6171" y="15" width="10.8" height="4" fill="#E6E5FF"/>
<rect x="82.4171" y="15" width="10.8" height="4" fill="#E6E5FF"/>
<rect x="93.2171" y="15" width="10.8" height="4" fill="#E6E5FF"/>
<rect x="104.017" y="15" width="10.8" height="4" fill="#E6E5FF"/>
<rect x="6.81708" y="19" width="10.8" height="4" fill="white"/>
<rect x="17.6171" y="19" width="10.8" height="2" fill="#E6E5FF"/>
<rect x="28.4171" y="19" width="10.8" height="4" fill="white"/>
<rect x="39.2171" y="19" width="10.8" height="4" fill="#E6E5FF"/>
<rect x="50.0171" y="19" width="10.8" height="4" fill="white"/>
<rect x="60.8171" y="19" width="10.8" height="4" fill="#E6E5FF"/>
<rect x="71.6171" y="19" width="10.8" height="4" fill="#E6E5FF"/>
<rect x="82.4171" y="19" width="10.8" height="4" fill="#E6E5FF"/>
<rect x="93.2171" y="19" width="10.8" height="4" fill="#E6E5FF"/>
<rect x="104.017" y="19" width="10.8" height="4" fill="#E6E5FF"/>
<rect x="6.81708" y="23" width="10.8" height="1" fill="#E6E5FF"/>
<rect x="17.6171" y="23" width="10.8" height="4" fill="white"/>
<rect x="28.4171" y="23" width="10.8" height="2" fill="#E6E5FF"/>
<rect x="39.2171" y="23" width="10.8" height="4" fill="white"/>
<rect x="50.0171" y="23" width="10.8" height="4" fill="#E6E5FF"/>
<rect x="60.8171" y="23" width="10.8" height="4" fill="white"/>
<rect x="71.6171" y="23" width="10.8" height="4" fill="#E6E5FF"/>
<rect x="82.4171" y="23" width="10.8" height="4" fill="#E6E5FF"/>
<rect x="93.2171" y="23" width="10.8" height="4" fill="#E6E5FF"/>
<rect x="104.017" y="23" width="10.8" height="4" fill="#E6E5FF"/>
<rect x="6.81708" y="27" width="10.8" height="4" fill="white"/>
<rect x="17.6171" y="27" width="10.8" height="1" fill="#E6E5FF"/>
<rect x="28.4171" y="27" width="10.8" height="4" fill="white"/>
<rect x="39.2171" y="27" width="10.8" height="2" fill="#E6E5FF"/>
<rect x="50.0171" y="27" width="10.8" height="4" fill="white"/>
<rect x="60.8171" y="27" width="10.8" height="4" fill="#E6E5FF"/>
<rect x="71.6171" y="27" width="10.8" height="4" fill="white"/>
<rect x="82.4171" y="27" width="10.8" height="4" fill="#E6E5FF"/>
<rect x="93.2171" y="27" width="10.8" height="4" fill="#E6E5FF"/>
<rect x="104.017" y="27" width="10.8" height="4" fill="#E6E5FF"/>
<rect x="6.81708" y="31" width="10.8" height="4" fill="white"/>
<rect x="17.6171" y="31" width="10.8" height="4" fill="white"/>
<rect x="28.4171" y="31" width="10.8" height="1" fill="#E6E5FF"/>
<rect x="39.2171" y="31" width="10.8" height="4" fill="white"/>
<rect x="50.0171" y="31" width="10.8" height="2" fill="#E6E5FF"/>
<rect x="60.8171" y="31" width="10.8" height="4" fill="white"/>
<rect x="71.6171" y="31" width="10.8" height="4" fill="#E6E5FF"/>
<rect x="82.4171" y="31" width="10.8" height="4" fill="white"/>
<rect x="93.2171" y="31" width="10.8" height="4" fill="#E6E5FF"/>
<rect x="104.017" y="31" width="10.8" height="4" fill="#E6E5FF"/>
<rect x="6.81708" y="35" width="10.8" height="0.5" fill="#E6E5FF"/>
<rect x="17.6171" y="35" width="10.8" height="4" fill="white"/>
<rect x="28.4171" y="35" width="10.8" height="4" fill="white"/>
<rect x="39.2171" y="35" width="10.8" height="1" fill="#E6E5FF"/>
<rect x="50.0171" y="35" width="10.8" height="4" fill="white"/>
<rect x="60.8171" y="35" width="10.8" height="2" fill="#E6E5FF"/>
<rect x="71.6171" y="35" width="10.8" height="4" fill="white"/>
<rect x="82.4171" y="35" width="10.8" height="4" fill="#E6E5FF"/>
<rect x="93.2171" y="35" width="10.8" height="4" fill="white"/>
<rect x="104.017" y="35" width="10.8" height="4" fill="#E6E5FF"/>
<rect x="6.81708" y="39" width="10.8" height="4" fill="white"/>
<rect x="17.6171" y="39" width="10.8" height="0.5" fill="#E6E5FF"/>
<rect x="28.4171" y="39" width="10.8" height="4" fill="white"/>
<rect x="39.2171" y="39" width="10.8" height="4" fill="white"/>
<rect x="50.0171" y="39" width="10.8" height="1" fill="#E6E5FF"/>
<rect x="60.8171" y="39" width="10.8" height="4" fill="white"/>
<rect x="71.6171" y="39" width="10.8" height="2" fill="#E6E5FF"/>
<rect x="82.4171" y="39" width="10.8" height="4" fill="white"/>
<rect x="93.2171" y="39" width="10.8" height="4" fill="#E6E5FF"/>
<rect x="104.017" y="39" width="10.8" height="4" fill="white"/>
<rect x="6.81708" y="43" width="10.8" height="4" fill="white"/>
<rect x="17.6171" y="43" width="10.8" height="4" fill="white"/>
<rect x="28.4171" y="43" width="10.8" height="0.5" fill="#E6E5FF"/>
<rect x="39.2171" y="43" width="10.8" height="4" fill="white"/>
<rect x="50.0171" y="43" width="10.8" height="4" fill="white"/>
<rect x="60.8171" y="43" width="10.8" height="1" fill="#E6E5FF"/>
<rect x="71.6171" y="43" width="10.8" height="4" fill="white"/>
<rect x="82.4171" y="43" width="10.8" height="2" fill="#E6E5FF"/>
<rect x="93.2171" y="43" width="10.8" height="4" fill="white"/>
<rect x="104.017" y="43" width="10.8" height="4" fill="#E6E5FF"/>
<rect x="6.81708" y="47" width="10.8" height="4" fill="white"/>
<rect x="17.6171" y="47" width="10.8" height="4" fill="white"/>
<rect x="28.4171" y="47" width="10.8" height="4" fill="white"/>
<rect x="39.2171" y="47" width="10.8" height="0.5" fill="#E6E5FF"/>
<rect x="50.0171" y="47" width="10.8" height="4" fill="white"/>
<rect x="60.8171" y="47" width="10.8" height="4" fill="white"/>
<rect x="71.6171" y="47" width="10.8" height="1" fill="#E6E5FF"/>
<rect x="82.4171" y="47" width="10.8" height="4" fill="white"/>
<rect x="93.2171" y="47" width="10.8" height="2" fill="#E6E5FF"/>
<rect x="104.017" y="47" width="10.8" height="4" fill="white"/>
<rect x="6.81708" y="51" width="10.8" height="4" fill="white"/>
<rect x="17.6171" y="51" width="10.8" height="4" fill="white"/>
<rect x="28.4171" y="51" width="10.8" height="4" fill="white"/>
<rect x="39.2171" y="51" width="10.8" height="4" fill="white"/>
<rect x="50.0171" y="51" width="10.8" height="0.5" fill="#E6E5FF"/>
<rect x="60.8171" y="51" width="10.8" height="4" fill="white"/>
<rect x="71.6171" y="51" width="10.8" height="4" fill="white"/>
<rect x="82.4171" y="51" width="10.8" height="1" fill="#E6E5FF"/>
<rect x="93.2171" y="51" width="10.8" height="4" fill="white"/>
<rect x="104.017" y="51" width="10.8" height="2" fill="#E6E5FF"/>
<rect x="6.81708" y="55" width="10.8" height="4" fill="white"/>
<rect x="17.6171" y="55" width="10.8" height="4" fill="white"/>
<rect x="28.4171" y="55" width="10.8" height="4" fill="white"/>
<rect x="39.2171" y="55" width="10.8" height="4" fill="white"/>
<rect x="50.0171" y="55" width="10.8" height="4" fill="white"/>
<rect x="60.8171" y="55" width="10.8" height="0.5" fill="#E6E5FF"/>
<rect x="71.6171" y="55" width="10.8" height="4" fill="white"/>
<rect x="82.4171" y="55" width="10.8" height="4" fill="white"/>
<rect x="93.2171" y="55" width="10.8" height="1" fill="#E6E5FF"/>
<rect x="104.017" y="55" width="10.8" height="4" fill="white"/>
<rect x="6.81708" y="59" width="10.8" height="4" fill="white"/>
<rect x="17.6171" y="59" width="10.8" height="4" fill="white"/>
<rect x="28.4171" y="59" width="10.8" height="4" fill="white"/>
<rect x="39.2171" y="59" width="10.8" height="4" fill="white"/>
<rect x="50.0171" y="59" width="10.8" height="4" fill="white"/>
<rect x="60.8171" y="59" width="10.8" height="4" fill="white"/>
<rect x="71.6171" y="59" width="10.8" height="0.5" fill="#E6E5FF"/>
<rect x="82.4171" y="59" width="10.8" height="4" fill="white"/>
<rect x="93.2171" y="59" width="10.8" height="4" fill="white"/>
<rect x="104.017" y="59" width="10.8" height="1" fill="#E6E5FF"/>
<rect x="6.81708" y="63" width="10.8" height="4" fill="white"/>
<rect x="17.6171" y="63" width="10.8" height="4" fill="white"/>
<rect x="28.4171" y="63" width="10.8" height="4" fill="white"/>
<rect x="39.2171" y="63" width="10.8" height="4" fill="white"/>
<rect x="50.0171" y="63" width="10.8" height="4" fill="white"/>
<rect x="60.8171" y="63" width="10.8" height="4" fill="white"/>
<rect x="71.6171" y="63" width="10.8" height="4" fill="white"/>
<rect x="82.4171" y="63" width="10.8" height="0.5" fill="#E6E5FF"/>
<rect x="93.2171" y="63" width="10.8" height="4" fill="white"/>
<rect x="104.017" y="63" width="10.8" height="4" fill="white"/>
<rect x="6.81708" y="67" width="10.8" height="4" fill="white"/>
<rect x="17.6171" y="67" width="10.8" height="4" fill="white"/>
<rect x="28.4171" y="67" width="10.8" height="4" fill="white"/>
<rect x="39.2171" y="67" width="10.8" height="4" fill="white"/>
<rect x="50.0171" y="67" width="10.8" height="4" fill="white"/>
<rect x="60.8171" y="67" width="10.8" height="4" fill="white"/>
<rect x="71.6171" y="67" width="10.8" height="4" fill="white"/>
<rect x="82.4171" y="67" width="10.8" height="4" fill="white"/>
<rect x="93.2171" y="67" width="10.8" height="0.5" fill="#E6E5FF"/>
<rect x="104.017" y="67" width="10.8" height="4" fill="white"/>
<rect x="6.81708" y="71" width="10.8" height="4" fill="white"/>
<rect x="17.6171" y="71" width="10.8" height="4" fill="white"/>
<rect x="28.4171" y="71" width="10.8" height="4" fill="white"/>
<rect x="39.2171" y="71" width="10.8" height="4" fill="white"/>
<rect x="50.0171" y="71" width="10.8" height="4" fill="white"/>
<rect x="60.8171" y="71" width="10.8" height="4" fill="white"/>
<rect x="71.6171" y="71" width="10.8" height="4" fill="white"/>
<rect x="82.4171" y="71" width="10.8" height="4" fill="white"/>
<rect x="93.2171" y="71" width="10.8" height="4" fill="white"/>
<rect x="104.017" y="71" width="10.8" height="0.5" fill="#E6E5FF"/>
</g>
</g>
<rect x="4" y="4" width="114" height="160.25" rx="7" stroke="white" stroke-width="6"/>
<path d="M12.7073 155.258C15.8478 155.258 17.0912 150.316 20.2311 150.316V145.375C17.0912 145.375 15.8478 150.316 12.7073 150.316V155.258Z" fill="#F50032"/>
<path d="M20.2366 155.258C23.3766 155.258 24.6205 150.316 27.7604 150.316V145.375C24.6205 145.375 23.3766 150.316 20.2366 150.316V155.258Z" fill="#F50032"/>
<path d="M27.7604 155.258C28.4255 155.258 29.0634 154.997 29.5337 154.534C30.004 154.071 30.2683 153.442 30.2683 152.787C30.2683 152.132 30.004 151.503 29.5337 151.04C29.0634 150.577 28.4255 150.316 27.7604 150.316V155.258Z" fill="#F50032"/>
<defs>
<clipPath id="clip0_26_21178">
<rect x="1" y="1" width="120" height="166.25" rx="10" fill="white"/>
</clipPath>
</defs>
</svg>
