<svg width="123" height="169" viewBox="0 0 123 169" fill="none" xmlns="http://www.w3.org/2000/svg">
<g clip-path="url(#clip0_17_2723)">
<rect x="1.75" y="1" width="120" height="166.25" rx="10" fill="white"/>
<mask id="mask0_17_2723" style="mask-type:alpha" maskUnits="userSpaceOnUse" x="1" y="1" width="121" height="167">
<rect x="1.75" y="1" width="120" height="166.25" fill="#D9D9D9"/>
</mask>
<g mask="url(#mask0_17_2723)">
<path d="M8.452 22V20.056L13.168 15.322C14.572 13.918 14.986 13.27 14.986 12.532C14.986 11.758 14.464 11.236 13.438 11.236C12.412 11.236 11.89 11.758 11.89 12.82V12.91H8.362C8.488 10.534 9.91 9.112 13.438 9.112C16.912 9.112 18.514 10.714 18.514 12.532C18.514 13.954 18.064 14.692 16.21 16.528C15.166 17.572 14.086 18.778 13.006 19.876H18.838V22H8.452Z" fill="black"/>
<path d="M107.164 20.3605C107.254 20.2034 107.481 20.2034 107.572 20.3605L109.409 23.5425C109.5 23.6996 109.386 23.896 109.205 23.896H105.531C105.349 23.896 105.236 23.6996 105.327 23.5425L107.164 20.3605Z" fill="black"/>
<path fill-rule="evenodd" clip-rule="evenodd" d="M111.157 11.8616C111.157 12.5218 110.992 13.1435 110.701 13.6876C110.823 13.676 110.946 13.6701 111.071 13.6701C113.211 13.6701 114.947 15.4053 114.947 17.5456C114.947 19.686 113.211 21.4211 111.071 21.4211C109.33 21.4211 107.857 20.2726 107.368 18.6916C106.879 20.2726 105.406 21.4211 103.665 21.4211C101.524 21.4211 99.7891 19.686 99.7891 17.5456C99.7891 15.4053 101.524 13.6701 103.665 13.6701C103.729 13.6701 103.792 13.6717 103.856 13.6748C103.569 13.1337 103.406 12.5166 103.406 11.8616C103.406 9.7212 105.141 7.98608 107.282 7.98608C109.422 7.98608 111.157 9.7212 111.157 11.8616Z" fill="black"/>
<path d="M59.451 110.25C60.0284 109.25 61.4718 109.25 62.0491 110.25L67.8566 120.309C68.4339 121.309 67.7122 122.559 66.5575 122.559H54.9426C53.7879 122.559 53.0662 121.309 53.6436 120.309L59.451 110.25Z" fill="black"/>
<path fill-rule="evenodd" clip-rule="evenodd" d="M74.9356 77.5079C74.9356 79.9796 74.3175 82.3068 73.2275 84.3436C73.6836 84.3004 74.1458 84.2783 74.6132 84.2783C82.6257 84.2783 89.1211 90.7737 89.1211 98.7862C89.1211 106.799 82.6257 113.294 74.6132 113.294C68.0942 113.294 62.5795 108.995 60.7501 103.076C58.9207 108.995 53.406 113.294 46.887 113.294C38.8745 113.294 32.3791 106.799 32.3791 98.7862C32.3791 90.7737 38.8745 84.2783 46.887 84.2783C47.1268 84.2783 47.3653 84.2841 47.6023 84.2956C46.5282 82.2703 45.9198 79.9602 45.9198 77.5079C45.9198 69.4954 52.4152 63 60.4277 63C68.4402 63 74.9356 69.4954 74.9356 77.5079Z" fill="black"/>
</g>
</g>
<rect x="1.25" y="0.5" width="121" height="167.25" rx="10.5" stroke="#ADADAD"/>
<defs>
<clipPath id="clip0_17_2723">
<rect x="1.75" y="1" width="120" height="166.25" rx="10" fill="white"/>
</clipPath>
</defs>
</svg>
