<svg width="123" height="169" viewBox="0 0 123 169" fill="none" xmlns="http://www.w3.org/2000/svg">
<g clip-path="url(#clip0_17_2725)">
<rect x="1.75" y="1" width="120" height="166.25" rx="10" fill="white"/>
<mask id="mask0_17_2725" style="mask-type:alpha" maskUnits="userSpaceOnUse" x="1" y="1" width="121" height="167">
<rect x="1.75" y="1" width="120" height="166.25" fill="#D9D9D9"/>
</mask>
<g mask="url(#mask0_17_2725)">
<path d="M13.42 22.288C10.522 22.288 7.966 21.19 7.966 18.004H11.53C11.53 19.444 12.466 20.056 13.438 20.056C14.968 20.056 15.544 19.21 15.544 17.68V9.4H18.874V17.86C18.874 21.316 16.498 22.288 13.42 22.288Z" fill="black"/>
<path d="M107.164 20.3605C107.254 20.2034 107.481 20.2034 107.572 20.3605L109.409 23.5425C109.5 23.6996 109.386 23.896 109.205 23.896H105.531C105.349 23.896 105.236 23.6996 105.327 23.5425L107.164 20.3605Z" fill="black"/>
<path fill-rule="evenodd" clip-rule="evenodd" d="M111.157 11.8616C111.157 12.5218 110.992 13.1435 110.701 13.6876C110.823 13.676 110.946 13.6701 111.071 13.6701C113.212 13.6701 114.947 15.4053 114.947 17.5456C114.947 19.686 113.212 21.4211 111.071 21.4211C109.33 21.4211 107.857 20.2726 107.368 18.6916C106.879 20.2726 105.406 21.4211 103.665 21.4211C101.524 21.4211 99.7892 19.686 99.7892 17.5456C99.7892 15.4053 101.524 13.6701 103.665 13.6701C103.729 13.6701 103.792 13.6717 103.856 13.6748C103.569 13.1337 103.406 12.5166 103.406 11.8616C103.406 9.7212 105.141 7.98608 107.282 7.98608C109.422 7.98608 111.157 9.7212 111.157 11.8616Z" fill="black"/>
<mask id="mask1_17_2725" style="mask-type:alpha" maskUnits="userSpaceOnUse" x="7" y="31" width="109" height="130">
<rect x="7.5" y="31" width="108" height="130" rx="6" fill="white"/>
</mask>
<g mask="url(#mask1_17_2725)">
<path d="M7.98932 177.519V140.529H115.01V177.457L75.6956 193.458C74.686 193.091 70.0355 191.5 64.2837 191.5C63.3353 191.5 62.3868 191.531 61.4996 191.623C61.1631 191.623 57.7364 191.837 52.7189 194.621C52.5047 194.59 52.1682 194.529 51.7093 194.529C50.9444 194.529 49.8124 194.652 48.4968 195.172C48.4968 195.172 48.4356 195.172 48.405 195.172C48.2826 195.172 47.8849 195.172 45.6209 195.784C45.3761 195.845 43.1121 196.334 42.2861 196.671C41.766 196.671 40.1138 196.701 39.043 197.191L7.98932 177.519Z" fill="#F50032"/>
<path d="M114.521 141.049V177.151L75.6653 192.938C74.3497 192.479 69.7911 191.011 64.2534 191.011C63.305 191.011 62.3566 191.041 61.4387 191.133C61.0104 191.133 57.5532 191.378 52.5968 194.101C52.3827 194.101 52.0461 194.04 51.679 194.04C50.9141 194.04 49.7209 194.162 48.3748 194.682C48.0994 194.682 47.5181 194.743 45.4988 195.294C44.8564 195.416 43.0513 195.845 42.164 196.181C41.4909 196.181 40.1142 196.242 39.0739 196.64L8.47916 177.243V141.019H114.521M115.5 140.04H7.50012V177.794L38.9822 197.772C39.9612 197.221 41.7969 197.16 42.2558 197.16C42.317 197.16 42.3476 197.16 42.3476 197.16C42.9901 196.824 45.713 196.242 45.713 196.242C47.5181 195.753 48.1606 195.661 48.3748 195.661C48.5277 195.661 48.4665 195.722 48.4665 195.722C49.7821 195.172 50.9141 195.049 51.7096 195.049C52.3827 195.049 52.811 195.141 52.811 195.141C58.0427 192.204 61.5305 192.143 61.5305 192.143C62.4789 192.051 63.3968 192.02 64.284 192.02C70.6478 192.02 75.6959 194.04 75.6959 194.04L115.5 177.824V140.07V140.04Z" fill="black"/>
<path d="M93.1049 154.481H67.9254V155.46H93.1049V154.481Z" fill="black"/>
<path d="M94.4506 157.173H68.0779V158.152H94.4506V157.173Z" fill="black"/>
<path d="M94.8483 159.835H69.6688V160.814H94.8483V159.835Z" fill="black"/>
<path d="M38.9822 197.772L7.50012 177.794V140.04H59.2359L83.9565 190.644L74.8698 194.315C74.8698 194.315 67.6801 191.47 60.7045 193.214C60.7045 193.214 59.3889 193.336 54.249 195.998C54.249 195.998 49.9657 195.233 48.0382 195.906C48.0382 195.906 47.4569 195.753 44.3668 196.548C44.3668 196.548 42.1028 196.732 41.4603 197.068C41.4603 197.068 40.0836 197.099 38.9822 197.742V197.772Z" fill="black"/>
<path d="M68.0171 156.408C67.8947 155.827 67.7724 155.245 67.7112 154.633C67.1299 153.593 66.4568 152.584 65.7531 151.574H33.0779V156.408H68.0171Z" fill="white"/>
<path d="M62.1429 146.74C61.4086 145.761 60.705 144.813 60.0931 143.834C59.6647 143.191 59.42 142.518 59.2976 141.906H33.0779V146.74H62.1429Z" fill="white"/>
<path d="M79.6731 191.99C74.3802 188.074 67.8023 180.914 66.089 168.921C63.825 152.951 52.9944 142.334 51.1588 140.652L51.3729 140.407H62.9071C67.4352 146.159 73.1258 155.521 74.8391 167.667C76.7666 181.282 87.1382 186.575 90.0141 187.798L79.6731 191.99Z" fill="white"/>
<path d="M62.7239 140.774C67.1907 146.495 72.7896 155.735 74.4723 167.728C76.2774 180.486 85.3946 186.024 89.0966 187.768L79.7346 191.561C74.5335 187.676 68.1392 180.608 66.4565 168.86C64.3148 153.685 54.4939 143.313 51.8322 140.743H62.7239M63.0604 140.04H51.1897L50.6696 140.682C50.6696 140.682 63.2746 151.666 65.7222 168.982C67.4355 181.098 74.044 188.349 79.6122 192.418L90.8099 187.859V187.768C90.8099 187.768 77.3482 183.209 75.1454 167.636C73.4015 155.337 67.6497 145.914 63.0298 140.07L63.0604 140.04Z" fill="black"/>
<path d="M104.455 182.108L84.9357 140.04H107.086L110.605 175.652L104.455 182.108Z" fill="black"/>
<path d="M104.363 181.832C105.831 179.874 107.82 176.142 107.484 170.757L107.575 140.529H115.01V177.457L104.363 181.832Z" fill="#F50032"/>
<path d="M114.521 141.049V177.151L105.679 180.792C106.964 178.589 108.249 175.254 108.004 170.788L108.096 141.08H114.552M115.5 140.04H107.056L106.964 170.757C107.454 178.865 102.558 183.087 102.558 183.087L115.469 177.794V140.04H115.5Z" fill="black"/>
<path d="M71.1064 152.155C68.5976 146.74 65.6299 142.855 62.2645 140.56H90.2587C90.7176 140.56 91.1153 141.202 91.1153 141.906V150.809C91.1153 151.513 90.7176 152.155 90.2587 152.155H71.1064Z" fill="#F50032"/>
<path d="M90.2592 141.08C90.2592 141.08 90.5957 141.386 90.5957 141.906V150.809C90.5957 151.329 90.351 151.635 90.2592 151.635H71.4434C69.2406 146.954 66.6706 143.436 63.8253 141.049H90.2898M90.2592 140.04H60.3987C65.0185 142.426 68.3839 147.444 70.7703 152.675H90.2592C91.0241 152.675 91.636 151.849 91.636 150.809V141.906C91.636 140.866 91.0241 140.04 90.2592 140.04Z" fill="black"/>
<path d="M74.4725 148.79C73.5241 146.985 72.5144 145.302 71.1989 143.925H86.8022V148.79H74.4725Z" fill="#F50032"/>
<path d="M85.5785 145.18V147.597H75.2375C74.7786 146.771 74.3197 145.945 73.7995 145.18H85.6091M87.1389 142.702H67.4664C70.4953 144.078 72.1474 147.015 73.7384 150.044H87.1389C87.6284 150.044 88.0261 149.555 88.0261 148.943V143.772C88.0261 143.191 87.6284 142.702 87.1389 142.702Z" fill="black"/>
<path d="M7.98932 177.029V141.355H37.0238V194.958L36.932 195.08L7.98932 177.029Z" fill="#FFCE57"/>
<path d="M36.5346 141.875V194.254L8.47916 176.754V141.875H36.5346ZM37.5136 140.866H7.50012V177.304L37.0241 195.722L37.5136 195.141V140.866Z" fill="black"/>
<path d="M27.3871 141.784H33.965V192.663L27.3871 188.533V141.784Z" fill="#F50032"/>
<path d="M34.2091 193.091L27.1417 188.685V141.539H34.2091V193.091ZM27.6312 188.41L33.7195 192.204V142.028H27.6312V188.41Z" fill="black"/>
<path d="M18.5146 140.866H25.0925V187.859L18.5452 184.188L18.5146 140.866Z" fill="black"/>
<path d="M10.3457 141.784H16.6176V181.955L10.3457 178.161V141.784Z" fill="white"/>
<path d="M16.8624 182.414L10.0704 178.314V141.539H16.8624V182.414ZM10.5905 178.039L16.4035 181.526V142.028H10.5905V178.008V178.039Z" fill="black"/>
<path d="M78.6941 43.605C78.6941 43.605 76.7972 49.571 80.5909 54.925C84.5071 60.5239 83.4974 63.155 83.4974 63.155C83.4974 63.155 80.0096 63.155 79.6119 65.9086C79.153 69.0598 81.1111 74.1386 87.4442 72.1499C87.4442 72.1499 91.4827 70.1001 89.8612 62.6961C88.209 55.2922 82.1207 48.1024 84.3541 43.6356H78.7247L78.6941 43.605Z" fill="#FFCE57"/>
<path d="M84.7827 72.8231C83.1306 72.8231 81.7538 72.2112 80.7748 71.0792C79.398 69.4882 79.1532 67.2854 79.3674 65.8475C79.7345 63.3081 82.5493 62.941 83.2835 62.9104C83.4059 62.2985 83.6201 59.7285 80.377 55.0781C76.5833 49.6628 78.4496 43.5745 78.4802 43.5133L78.5414 43.3297H84.7521L84.5685 43.6968C83.2835 46.328 84.9357 49.9076 86.8631 54.0991C88.1481 56.822 89.4331 59.6673 90.1062 62.6044C91.7889 70.1307 87.7504 72.2418 87.5668 72.3336H87.5362C86.5572 72.6701 85.6393 72.8231 84.7827 72.8231ZM78.8779 43.8498C78.6025 44.8595 77.4705 50.0912 80.7748 54.7722C84.7215 60.4322 83.7425 63.1245 83.7119 63.2469L83.6507 63.3999H83.4977C83.4977 63.3999 80.2241 63.3999 79.8569 65.9393C79.6734 67.2548 79.8569 69.2741 81.1419 70.7732C82.4881 72.3642 84.6603 72.7619 87.3526 71.9052C87.6586 71.7523 91.177 69.6718 89.6167 62.7268C88.9742 59.8509 87.6892 57.0362 86.4348 54.3438C84.5379 50.2441 82.8858 46.6645 83.9872 43.8804H78.9085L78.8779 43.8498Z" fill="black"/>
<path d="M73.2177 44.064C73.2177 44.064 71.3208 50.0299 75.1146 55.384C79.0307 60.9829 78.0211 63.614 78.0211 63.614C78.0211 63.614 74.5333 63.614 74.1355 66.337C73.6766 69.4882 75.6347 74.567 81.9678 72.5783C81.9678 72.5783 86.0369 70.5285 84.3848 63.1245C82.7327 55.7206 76.6443 48.5614 78.8777 44.064H73.2483H73.2177Z" fill="#FFCE57"/>
<path d="M79.306 73.3126C77.6539 73.3126 76.2771 72.7007 75.2981 71.5687C73.9213 69.9778 73.6765 67.775 73.8907 66.337C74.2578 63.7976 77.0726 63.4305 77.8374 63.3999C77.9598 62.788 78.174 60.2181 74.9309 55.5677C71.1372 50.1524 73.0035 44.0946 73.0341 44.0334L73.0952 43.8499H79.306L79.1224 44.217C77.8374 46.8481 79.4896 50.4583 81.417 54.6192C82.702 57.3422 83.987 60.1875 84.6601 63.1246C86.3428 70.6509 82.3043 72.7925 82.1207 72.8537H82.0901C81.1111 73.1902 80.1932 73.3432 79.3366 73.3432L79.306 73.3126ZM73.4012 44.3088C73.1564 45.3184 71.9938 50.5501 75.2981 55.2311C79.2448 60.8911 78.2658 63.5835 78.2352 63.7059L78.174 63.8588H78.021C78.021 63.8588 74.7474 63.8894 74.3802 66.3982C74.1967 67.7138 74.3802 69.733 75.6652 71.2016C77.0114 72.7925 79.1836 73.1902 81.8759 72.3336C82.1819 72.1806 85.6697 70.1002 84.14 63.1552C83.4975 60.2793 82.1819 57.4645 80.9275 54.7416C79.0306 50.6419 77.3785 47.0623 78.4799 44.2782H73.4012V44.3088Z" fill="black"/>
<path d="M68.9349 44.064C68.9349 44.064 67.038 50.0299 70.8011 55.384C74.7173 60.9829 73.7076 63.614 73.7076 63.614C73.7076 63.614 70.2504 63.614 69.8221 66.337C69.3632 69.4882 71.3212 74.567 77.6544 72.5783C77.6544 72.5783 81.6929 70.5285 80.0714 63.1245C78.4192 55.7206 72.3309 48.5614 74.5643 44.064H68.9349Z" fill="#FFCE57"/>
<path d="M74.9927 73.3126C73.3406 73.3126 71.9638 72.7007 70.9848 71.5687C69.608 69.9778 69.3633 67.775 69.5774 66.337C69.9446 63.7976 72.7593 63.4305 73.5241 63.3999C73.6465 62.788 73.8607 60.2181 70.6176 55.5677C66.8239 50.1524 68.6902 44.0946 68.7208 44.0334L68.782 43.8499H74.9927L74.8091 44.217C73.4935 46.8481 75.1763 50.4583 77.1037 54.6192C78.3581 57.3422 79.6737 60.1875 80.3162 63.1246C81.9989 70.6509 77.9604 72.7925 77.7768 72.8537H77.7462C76.7672 73.1902 75.8493 73.3432 74.9927 73.3432V73.3126ZM69.1185 44.3088C68.8431 45.3184 67.7111 50.5501 71.0154 55.2311C74.9621 60.8911 73.9831 63.5835 73.9525 63.7059L73.8913 63.8588H73.7077C73.7077 63.8588 70.4341 63.8894 70.0669 66.3982C69.8834 67.7138 70.0975 69.733 71.3519 71.2016C72.7287 72.7925 74.8703 73.1902 77.5627 72.3336C77.8686 72.1806 81.387 70.1002 79.8267 63.1552C79.1842 60.2793 77.8992 57.4645 76.6142 54.7416C74.7173 50.6419 73.0652 47.0623 74.1666 44.2782H69.0879L69.1185 44.3088Z" fill="black"/>
<path d="M112.042 73.9551H98.6112V76.3415H112.042V73.9551Z" fill="black"/>
<path d="M47.3961 60.4628C47.3961 60.4628 50.272 59.8509 51.2205 61.3501C51.2205 61.3501 49.7519 61.962 48.7729 60.6464C48.7729 60.6464 47.8244 60.3405 47.3961 60.4628Z" fill="black"/>
<path d="M49.476 68.2339C50.1797 68.3562 51.2199 68.5398 52.1378 68.0503C52.1378 68.0503 50.8834 69.9778 48.6805 69.1517L49.476 68.2339Z" fill="black"/>
<path d="M56.7582 76.1578C52.5055 76.1578 49.3848 75.087 49.3236 75.0564C48.5894 74.8729 48.0693 74.4445 47.7939 73.802C47.0596 72.0581 48.4976 69.1822 48.9259 68.3562C48.1916 67.3771 48.5282 65.7862 48.62 65.3273L48.2834 64.5624L48.5282 62.6655C46.3865 62.1148 45.1322 61.35 44.765 60.3403C44.4591 59.5143 44.8874 58.8412 44.918 58.8412L48.0999 53.4871C48.0081 52.9058 47.5797 50.4888 47.5186 49.7851C47.335 48.1636 48.5282 43.5438 48.5894 43.3602L49.2625 43.5438C49.2625 43.5438 48.0387 48.1942 48.2222 49.6933C48.314 50.4582 48.8341 53.4565 48.8341 53.4871V53.6095L45.4993 59.2083C45.4993 59.2389 45.2239 59.6367 45.4075 60.0956C45.6217 60.6463 46.4171 61.4417 48.9871 62.0536L49.293 62.1148L48.9871 64.44L49.3542 65.2355V65.3579C49.1707 65.878 48.9259 67.4077 49.5684 68.0196L49.752 68.2032L49.6296 68.448C49.0789 69.3658 47.7939 72.1193 48.4058 73.4961C48.5894 73.9244 48.9565 74.1998 49.5072 74.3527C49.6296 74.4139 60.1848 77.9935 68.5372 71.7522L68.9349 72.3029C64.927 75.3012 60.399 76.1272 56.7276 76.1272L56.7582 76.1578Z" fill="black"/>
<path d="M84.6298 40.9739H48.375V43.8804H84.6298V40.9739Z" fill="white"/>
<path d="M84.8136 44.064H48.1611V40.7598H84.8136V44.064ZM48.5588 43.6663H84.4159V41.1575H48.5588V43.6663Z" fill="black"/>
<path d="M48.7733 38.9242C48.4979 37.6698 47.4271 33.9066 44.6124 31.4896H88.3629C85.5482 33.9066 84.508 37.6698 84.202 38.9242H48.7427H48.7733Z" fill="#F50032"/>
<path d="M87.1699 31.979C85.1507 34.2125 84.2022 37.0578 83.8351 38.4345H49.1712C48.8041 37.0578 47.8862 34.2125 45.8364 31.979H87.1699ZM89.9234 31H43.0828C47.3355 33.4782 48.3757 39.4136 48.3757 39.4136H84.6305C84.6305 39.4136 85.6708 33.4476 89.9234 31Z" fill="black"/>
<path d="M47.3955 36.2928C47.3955 36.2928 48.3746 40.1478 48.3746 40.9738H84.6294C84.6294 40.9738 84.9047 37.2107 85.3636 36.2928H47.3649H47.3955Z" fill="black"/>
<path d="M7.98932 127.833V90.9046L47.3036 74.9035C48.2826 75.2707 52.9636 76.8616 58.7155 76.8616C59.6639 76.8616 60.6123 76.8004 61.4996 76.7392C61.8055 76.7392 65.2628 76.5251 70.2803 73.7409C70.4639 73.7409 70.831 73.8021 71.2899 73.8021C72.0548 73.8021 73.1868 73.6797 74.5024 73.1596C74.533 73.1596 74.5636 73.1596 74.5942 73.1596C74.7165 73.1596 75.1143 73.1596 77.3783 72.5477C77.623 72.4866 79.8871 71.997 80.7131 71.6605C81.2332 71.6605 82.8853 71.6299 83.9562 71.1404L114.979 90.8128V127.802H7.98932V127.833Z" fill="#F50032"/>
<path d="M83.9565 71.7216L114.521 91.1187V127.343H8.47916V91.2411L47.3039 75.4236C48.6195 75.8825 53.1781 77.351 58.7158 77.351C59.6642 77.351 60.6127 77.2899 61.5305 77.2287C61.9588 77.2287 65.416 76.9839 70.3724 74.261C70.5866 74.261 70.9231 74.3222 71.2902 74.3222C72.0551 74.3222 73.2483 74.1998 74.5945 73.6797C74.8698 73.6797 75.4511 73.6185 77.4704 73.0678C78.1129 72.9454 79.918 72.5171 80.8052 72.1805C81.4783 72.1805 82.8551 72.1193 83.9259 71.7216M84.0177 70.5896C83.0692 71.1403 81.203 71.2015 80.744 71.2015H80.6522C80.0098 71.538 77.2868 72.1193 77.2868 72.1193C75.4817 72.6089 74.8392 72.7006 74.6251 72.7006C74.4721 72.7006 74.5333 72.67 74.5333 72.67C73.2177 73.2208 72.0857 73.3431 71.2902 73.3431C70.6172 73.3431 70.1888 73.2513 70.1888 73.2513C64.9571 76.1578 61.4387 76.2496 61.4387 76.2496C60.5209 76.3414 59.5724 76.372 58.6852 76.372C52.3215 76.372 47.2733 74.3528 47.2733 74.3528L7.50012 90.568V128.322H115.5V90.568L84.0177 70.5896Z" fill="black"/>
<path d="M55.0445 112.872H29.8956V113.851H55.0445V112.872Z" fill="black"/>
<path d="M54.9225 110.21H28.5498V111.189H54.9225V110.21Z" fill="black"/>
<path d="M53.3307 107.518H28.1512V108.497H53.3307V107.518Z" fill="black"/>
<path d="M51.6795 104.856H26.5306V105.835H51.6795V104.856Z" fill="black"/>
<path d="M50.0574 102.163H24.9085V103.142H50.0574V102.163Z" fill="black"/>
<path d="M48.4664 99.5017H23.2869V100.481H48.4664V99.5017Z" fill="black"/>
<path d="M48.3139 96.8093H23.165V97.7884H48.3139V96.8093Z" fill="black"/>
<path d="M46.5692 91.4553H20.4106V92.4344H46.5692V91.4553Z" fill="black"/>
<path d="M84.0178 70.5896L115.5 90.568V128.322H63.764L39.0435 77.7182L48.1301 74.0468C48.1301 74.0468 55.2893 76.8921 62.2955 75.1482C62.2955 75.1482 63.6111 75.0258 68.751 72.3641C68.751 72.3641 73.0343 73.129 74.9617 72.4559C74.9617 72.4559 75.5736 72.6394 78.6331 71.8134C78.6331 71.8134 80.8971 71.6298 81.5396 71.2933C81.5396 71.2933 82.9164 71.2933 84.0178 70.6202V70.5896Z" fill="black"/>
<path d="M47.3036 82.95V86.193C48.252 86.4683 49.1087 87.0191 49.7206 87.7839H89.9221V82.95H47.3036Z" fill="white"/>
<path d="M50.8225 92.6179C50.8225 94.2394 50.9143 95.8304 50.9755 97.4519H89.9226V92.6179H50.8225Z" fill="white"/>
<path d="M51.3122 102.286C51.4346 103.479 51.5264 104.703 51.6793 105.896C51.6793 105.896 51.7099 105.927 51.7405 105.957C52.1383 106.324 52.4748 106.722 52.8113 107.12H89.9228V102.286H51.3122Z" fill="white"/>
<path d="M54.953 111.954C55.0753 112.535 55.1977 113.116 55.2589 113.728C55.8708 114.769 56.5439 115.778 57.217 116.788H89.8922V111.954H54.9224H54.953Z" fill="white"/>
<path d="M60.8572 121.622C61.5915 122.601 62.2952 123.549 62.9071 124.528C63.3354 125.171 63.5802 125.813 63.7026 126.456H89.9223V121.622H60.8572Z" fill="white"/>
<path d="M60.0928 127.955C55.5648 122.203 49.8742 112.841 48.1609 100.695C46.2334 87.0802 35.8617 81.7873 32.9858 80.5636L43.3269 76.3721C48.6198 80.2882 55.1976 87.4474 56.911 99.4405C59.175 115.442 70.0055 126.027 71.8412 127.71L71.6271 127.955H60.1234H60.0928Z" fill="white"/>
<path d="M43.2658 76.7697C48.4975 80.6552 54.8612 87.7226 56.544 99.471C58.6856 114.646 68.5065 125.018 71.1988 127.588H60.3071C55.8403 121.866 50.2414 112.627 48.5587 100.634C46.7536 87.8756 37.6364 82.338 33.9344 80.5941L43.2964 76.8003M43.3576 75.9742L32.1599 80.5329V80.6552C32.1599 80.6552 45.6216 85.2139 47.7938 100.756C49.5377 113.055 55.2896 122.509 59.9094 128.322H71.7802L72.3003 127.679C72.3003 127.679 59.6952 116.696 57.2476 99.3793C55.5343 87.2637 48.9259 80.0128 43.3576 75.9742Z" fill="black"/>
<path d="M18.5456 86.2542L38.0345 128.322H15.9145L12.3961 92.7096L18.5456 86.2542Z" fill="black"/>
<path d="M7.98932 127.832V90.9046L18.6363 86.5295C17.1678 88.4876 15.1791 92.2202 15.5156 97.6048L15.4239 127.802H7.98932V127.832Z" fill="#F50032"/>
<path d="M17.321 87.6003C16.0361 89.8031 14.7511 93.138 14.9958 97.6354L14.9041 127.343H8.47916V91.2411L17.321 87.6003ZM20.4111 85.2445L7.50012 90.568V128.322H15.9137L16.0055 97.6048C15.516 89.4972 20.4111 85.2751 20.4111 85.2751V85.2445Z" fill="black"/>
<path d="M32.7408 127.802C32.2819 127.802 31.8842 127.159 31.8842 126.456V117.522C31.8842 116.818 32.2819 116.176 32.7408 116.176H51.8931C54.4019 121.591 57.3696 125.477 60.735 127.771H32.7408V127.802Z" fill="#F50032"/>
<path d="M51.5568 116.696C53.7596 121.377 56.3295 124.926 59.2055 127.282H32.741C32.741 127.282 32.4044 126.976 32.4044 126.456V117.522C32.4044 117.002 32.6492 116.696 32.741 116.696H51.5568ZM52.2298 115.686H32.741C31.9761 115.686 31.3642 116.512 31.3642 117.553V126.486C31.3642 127.527 31.9761 128.353 32.741 128.353H62.6015C57.9817 125.966 54.6162 120.918 52.2298 115.717V115.686Z" fill="black"/>
<path d="M36.1988 124.436V119.572H48.5285C49.4769 121.346 50.4866 123.06 51.7715 124.436H36.1988Z" fill="#F50032"/>
<path d="M47.7931 120.796C48.252 121.622 48.7109 122.417 49.231 123.182H37.4215V120.796H47.7625M49.2616 118.317H35.8611C35.3716 118.317 34.9739 118.807 34.9739 119.388V124.559C34.9739 125.14 35.3716 125.63 35.8611 125.63H55.5336C52.5047 124.222 50.8526 121.316 49.2616 118.287V118.317Z" fill="black"/>
<path d="M46.723 94.1477H21.5435V95.1267H46.723V94.1477Z" fill="black"/>
<path d="M85.9458 127.006V73.4044L86.0682 73.282L115.011 91.3329V127.006H85.9458Z" fill="#FFCE57"/>
<path d="M86.4653 74.1081L114.521 91.6083V126.486H86.4653V74.1081ZM85.9757 72.6395L85.4556 73.2208V127.496H115.5V91.0576L85.9757 72.6395Z" fill="black"/>
<path d="M95.613 126.578H89.0351V75.699L95.613 79.8293V126.578Z" fill="#F50032"/>
<path d="M95.8583 126.823H88.7909V75.2706L95.8583 79.6763V126.823ZM89.2804 126.333H95.3688V79.9516L89.2804 76.1579V126.333Z" fill="black"/>
<path d="M104.486 127.496H97.9081V80.5024L104.455 84.1738L104.486 127.496Z" fill="black"/>
<path d="M112.654 126.578H106.352V86.3766L112.654 90.2009V126.578Z" fill="white"/>
<path d="M112.899 126.823H106.107V85.9482L112.899 90.0479V126.823ZM106.597 126.333H112.379V90.3539L106.597 86.8355V126.333Z" fill="black"/>
<path d="M115.5 127H7.50012V161H115.5V127Z" fill="#FFCE57"/>
<path d="M115 156V155.5H114.5H7.50012H7.00012V156V160V160.5H7.50012H114.5H115V160V156Z" fill="#F50032" stroke="black"/>
<path d="M116.5 140H4.50012V144H116.5V140Z" fill="black"/>
<path d="M117 148.5V148H116.5H4.50012H4.00012V148.5V151.5V152H4.50012H116.5H117V151.5V148.5Z" fill="white" stroke="black"/>
<path d="M114.521 127.833V139.703H8.47916V127.833H114.521ZM115.5 126.823H7.50012V140.652H115.5V126.823Z" fill="black"/>
<path d="M72.3306 126.762H55.1363V140.682H72.3306V126.762Z" fill="#FFCE57"/>
<path d="M72.8499 141.172H54.6154V126.242H72.8499V141.172ZM55.625 140.132H71.8097V127.251H55.625V140.132Z" fill="black"/>
<path d="M70.2192 128.444H57.2164V138.969H70.2192V128.444Z" fill="#F50032"/>
<path d="M45.1327 136.338C45.561 135.328 45.7752 134.196 45.7752 133.034C45.7752 128.261 41.9203 124.375 37.1781 124.375C32.4359 124.375 28.5809 128.261 28.5809 133.034C28.5809 134.747 29.0704 136.338 29.9271 137.654L37.2087 151.146L45.1633 136.338H45.1327Z" fill="#F50032"/>
<path d="M37.1771 152.094L29.5284 137.898C28.6105 136.46 28.121 134.747 28.121 133.034C28.121 128.016 32.1901 123.947 37.1771 123.947C42.164 123.947 46.2331 128.016 46.2331 133.034C46.2331 134.227 45.9884 135.42 45.5601 136.491L37.2077 152.064L37.1771 152.094ZM37.1771 124.834C32.6797 124.834 29.0083 128.506 29.0083 133.034C29.0083 134.594 29.4366 136.124 30.2933 137.439L37.1771 150.228L44.734 136.154C45.1317 135.175 45.3459 134.104 45.3459 133.034C45.3459 128.506 41.6745 124.834 37.1771 124.834Z" fill="black"/>
<path d="M45.1327 136.338C45.561 135.328 45.7752 134.196 45.7752 133.034C45.7752 128.261 41.9203 124.375 37.1781 124.375C32.4359 124.375 28.5809 128.261 28.5809 133.034C28.5809 134.747 29.0704 136.338 29.9271 137.654C29.9271 137.654 30.1107 129.332 37.2087 129.148C37.2087 129.148 45.0103 129.148 44.1231 138.296L45.1633 136.338H45.1327Z" fill="white"/>
<path d="M43.4184 140.438L43.6326 138.265C43.9079 135.451 43.3572 133.248 41.9805 131.749C40.053 129.638 37.1771 129.607 37.1465 129.607C30.5686 129.791 30.3239 137.378 30.3239 137.684V139.122L29.5284 137.898C28.6105 136.43 28.121 134.747 28.121 133.034C28.121 128.016 32.1901 123.947 37.1771 123.947C42.164 123.947 46.2331 128.016 46.2331 133.034C46.2331 134.227 45.9884 135.42 45.5601 136.491L43.4796 140.407L43.4184 140.438ZM37.1465 128.72C37.2995 128.72 40.4813 128.75 42.6536 131.137C43.8468 132.452 44.4892 134.227 44.581 136.43L44.734 136.124C45.1317 135.145 45.3459 134.074 45.3459 133.003C45.3459 128.475 41.6745 124.804 37.1771 124.804C32.6797 124.804 29.0083 128.475 29.0083 133.003C29.0083 134.104 29.2224 135.175 29.6202 136.185C30.0791 133.707 31.6394 128.842 37.1465 128.689V128.72Z" fill="black"/>
<path d="M42.072 141.998C42.3168 141.355 42.4697 140.682 42.4697 139.948C42.4697 136.98 40.0833 134.594 37.1462 134.594C34.2091 134.594 31.8228 136.98 31.8228 139.948C31.8228 140.988 32.1287 141.967 32.6488 142.824L37.1462 151.176L42.072 141.998Z" fill="#F50032"/>
<path d="M37.1467 151.849L32.3739 142.977C31.7926 142.059 31.5172 141.019 31.5172 139.948C31.5172 136.797 34.0566 134.257 37.1772 134.257C40.2979 134.257 42.8373 136.797 42.8373 139.948C42.8373 140.682 42.6843 141.417 42.409 142.12L37.1772 151.849H37.1467ZM37.1467 134.93C34.3931 134.93 32.1597 137.194 32.1597 139.948C32.1597 140.896 32.4351 141.845 32.9246 142.64L37.1467 150.473L41.7665 141.845C42.0112 141.233 42.1336 140.59 42.1336 139.948C42.1336 137.164 39.9002 134.93 37.1467 134.93Z" fill="black"/>
<path d="M40.2371 141.661C40.3901 141.264 40.4819 140.835 40.4819 140.376C40.4819 138.51 38.9827 137.011 37.147 137.011C35.3113 137.011 33.8122 138.51 33.8122 140.376C33.8122 141.049 33.9958 141.661 34.3323 142.182L37.147 147.413L40.2371 141.661Z" fill="#F50032"/>
<path d="M37.1468 147.841L34.1485 142.273C33.812 141.723 33.5978 141.049 33.5978 140.376C33.5978 138.418 35.1888 136.797 37.1468 136.797C39.1049 136.797 40.6958 138.388 40.6958 140.376C40.6958 140.835 40.604 141.294 40.4205 141.753L37.1468 147.872V147.841ZM37.1468 137.225C35.4029 137.225 33.9956 138.632 33.9956 140.376C33.9956 140.988 34.1485 141.57 34.4851 142.059L37.1468 146.985L40.0533 141.57C40.2063 141.202 40.2675 140.805 40.2675 140.376C40.2675 138.632 38.8601 137.225 37.1162 137.225H37.1468Z" fill="black"/>
<path d="M37.1771 151.911L30.9052 140.254C30.1403 139.061 29.7426 137.684 29.7426 136.277C29.7426 132.146 33.0774 128.812 37.1771 128.812C41.2768 128.812 44.6117 132.177 44.6117 136.277C44.6117 137.256 44.4281 138.235 44.061 139.122L37.2077 151.911H37.1771ZM37.1771 129.515C33.4752 129.515 30.4463 132.544 30.4463 136.277C30.4463 137.562 30.8134 138.816 31.4865 139.887L37.1466 150.411L43.3573 138.847C43.6938 138.021 43.8468 137.164 43.8468 136.277C43.8468 132.544 40.8485 129.515 37.1466 129.515H37.1771Z" fill="black"/>
<path d="M30.2017 134.655L30.7218 133.584L29.9263 128.353C29.7122 128.689 29.5286 129.026 29.345 129.362L30.1711 134.655H30.2017Z" fill="black"/>
<path d="M31.8541 126.242C31.6093 126.425 31.3951 126.609 31.181 126.823L31.7317 131.504L32.4354 131.198L31.8541 126.242Z" fill="black"/>
<path d="M33.6892 130.28L34.3929 129.729L34.0258 124.987C33.781 125.079 33.5668 125.171 33.3221 125.293L33.6586 130.28H33.6892Z" fill="black"/>
<path d="M35.739 129.454L36.4732 129.332L36.3509 124.406C36.1061 124.406 35.8613 124.467 35.6166 124.498L35.739 129.423V129.454Z" fill="black"/>
<path d="M38.7069 124.528C38.4622 124.498 38.2174 124.437 38.0032 124.437L37.8809 129.209L38.5845 129.454L38.7069 124.528Z" fill="black"/>
<path d="M40.9714 125.293C40.7573 125.171 40.5125 125.079 40.2678 124.987L39.9312 129.913L40.6349 130.28L40.9714 125.293Z" fill="black"/>
<path d="M41.8885 131.228L42.5616 131.687L43.1123 126.792C42.8981 126.578 42.684 126.395 42.4392 126.211L41.8579 131.198L41.8885 131.228Z" fill="black"/>
<path d="M44.0918 134.808L44.9791 129.362C44.8261 128.995 44.6119 128.658 44.3978 128.353L43.6023 133.615L44.0918 134.808Z" fill="black"/>
<path d="M36.5345 146.281L37.0547 147.291V137.011C36.8711 137.011 36.6875 137.011 36.5345 137.072V146.281Z" fill="black"/>
<path d="M35.678 144.69L36.1675 145.608V137.164C35.9839 137.225 35.831 137.286 35.678 137.347V144.69Z" fill="black"/>
<path d="M34.8214 143.099L35.2803 143.956V137.592C35.1273 137.715 34.9743 137.837 34.8214 137.959V143.099Z" fill="black"/>
<path d="M33.9643 141.386C34.0561 141.661 34.1785 141.937 34.3314 142.181L34.3926 142.304V138.449C34.2091 138.724 34.0561 139.03 33.9643 139.336V141.355V141.386Z" fill="black"/>
<path d="M37.4219 146.924L37.942 145.945V137.133C37.789 137.103 37.6054 137.072 37.4219 137.042V146.924Z" fill="black"/>
<path d="M38.3096 145.241L38.7991 144.293V137.439C38.6462 137.348 38.4626 137.256 38.3096 137.195V145.21V145.241Z" fill="black"/>
<path d="M39.2276 143.558L39.6559 142.732V138.143C39.6559 138.143 39.3806 137.837 39.2276 137.715V143.528V143.558Z" fill="black"/>
<path d="M40.0833 141.937L40.2363 141.661C40.3893 141.264 40.481 140.835 40.481 140.376C40.481 139.795 40.3281 139.244 40.0833 138.786V141.937Z" fill="black"/>
<path d="M78.2966 131.045C77.8683 132.055 77.6541 133.187 77.6541 134.349C77.6541 139.122 81.5091 143.007 86.2512 143.007C90.9934 143.007 94.8484 139.153 94.8484 134.349C94.8484 132.636 94.3589 131.076 93.5022 129.729L86.2207 116.237L78.266 131.045H78.2966Z" fill="#F50032"/>
<path d="M86.2511 115.289L93.8998 129.485C94.8177 130.923 95.3072 132.605 95.3072 134.349C95.3072 139.367 91.2381 143.436 86.2511 143.436C81.2642 143.436 77.1951 139.367 77.1951 134.349C77.1951 133.156 77.4092 131.993 77.8682 130.892L86.1899 115.319L86.2511 115.289ZM86.2511 142.549C90.7486 142.549 94.4199 138.877 94.4199 134.349C94.4199 132.789 93.9916 131.259 93.1655 129.943L86.2817 117.155L78.7248 131.228C78.3271 132.207 78.1129 133.278 78.1129 134.349C78.1129 138.877 81.7843 142.549 86.2817 142.549H86.2511Z" fill="black"/>
<path d="M78.2966 131.045C77.8683 132.055 77.6541 133.187 77.6541 134.349C77.6541 139.122 81.5091 143.008 86.2512 143.008C90.9934 143.008 94.8484 139.153 94.8484 134.349C94.8484 132.636 94.3589 131.076 93.5022 129.729C93.5022 129.729 93.3186 138.051 86.2207 138.235C86.2207 138.235 78.419 138.235 79.3062 129.087L78.266 131.045H78.2966Z" fill="white"/>
<path d="M79.979 126.945L79.7649 129.118C79.4895 131.932 80.0402 134.135 81.3864 135.634C83.2833 137.745 86.1898 137.776 86.2204 137.776C92.7983 137.592 93.043 130.035 93.043 129.699V128.261L93.8385 129.485C94.7563 130.923 95.2458 132.636 95.2458 134.349C95.2458 139.367 91.1767 143.436 86.1898 143.436C81.2028 143.436 77.1337 139.367 77.1337 134.349C77.1337 133.156 77.3479 131.993 77.8068 130.892L79.8873 126.976L79.979 126.945ZM86.251 138.663C86.098 138.663 82.9161 138.633 80.7439 136.216C79.5507 134.9 78.9082 133.125 78.8164 130.923L78.6635 131.198C78.2657 132.177 78.0516 133.248 78.0516 134.319C78.0516 138.847 81.7229 142.518 86.2204 142.518C90.7178 142.518 94.3892 138.847 94.3892 134.319C94.3892 133.217 94.175 132.146 93.7467 131.137C93.3184 133.646 91.7274 138.48 86.2204 138.633L86.251 138.663Z" fill="black"/>
<path d="M81.3257 125.385C81.0504 126.027 80.928 126.701 80.928 127.435C80.928 130.403 83.3144 132.789 86.2515 132.789C89.1886 132.789 91.575 130.403 91.575 127.435C91.575 126.395 91.269 125.416 90.7489 124.559L86.2515 116.207L81.3257 125.385Z" fill="#F50032"/>
<path d="M86.2513 115.533L91.0547 124.406C91.636 125.324 91.9114 126.364 91.9114 127.435C91.9114 130.586 89.372 133.125 86.2513 133.125C83.1307 133.125 80.5913 130.586 80.5913 127.435C80.5913 126.7 80.7443 125.966 81.0196 125.262L86.2207 115.533H86.2513ZM86.2513 132.452C89.0049 132.452 91.2383 130.188 91.2383 127.435C91.2383 126.486 90.9629 125.538 90.4734 124.742L86.2513 116.91L81.6315 125.538C81.3868 126.15 81.2644 126.792 81.2644 127.435C81.2644 130.219 83.4978 132.452 86.2513 132.452Z" fill="black"/>
<path d="M83.1608 125.721C83.0079 126.119 82.9161 126.547 82.9161 127.006C82.9161 128.873 84.4152 130.372 86.2509 130.372C88.0866 130.372 89.5857 128.873 89.5857 127.006C89.5857 126.333 89.4022 125.721 89.0656 125.201L86.2509 119.97L83.1608 125.721Z" fill="#F50032"/>
<path d="M86.2511 119.541L89.2494 125.11C89.6166 125.66 89.8001 126.333 89.8001 127.006C89.8001 128.965 88.2092 130.586 86.2511 130.586C84.2931 130.586 82.7021 128.995 82.7021 127.006C82.7021 126.548 82.7939 126.089 82.9775 125.63L86.2511 119.511V119.541ZM86.2511 130.158C87.995 130.158 89.4024 128.75 89.4024 127.006C89.4024 126.395 89.2494 125.813 88.9129 125.324L86.2511 120.398L83.3446 125.813C83.1917 126.18 83.1305 126.578 83.1305 127.006C83.1305 128.75 84.5378 130.158 86.2817 130.158H86.2511Z" fill="black"/>
<path d="M86.2512 115.442L92.5232 127.098C93.288 128.291 93.6858 129.668 93.6858 131.076C93.6858 135.175 90.3509 138.541 86.2512 138.541C82.1515 138.541 78.8167 135.175 78.8167 131.076C78.8167 130.097 79.0003 129.118 79.3674 128.23L86.2206 115.442H86.2512ZM86.2512 137.837C89.9532 137.837 92.9515 134.808 92.9515 131.106C92.9515 129.821 92.5844 128.567 91.9113 127.496L86.2512 116.971L80.0405 128.536C79.704 129.362 79.551 130.219 79.551 131.106C79.551 134.808 82.5493 137.837 86.2818 137.837H86.2512Z" fill="black"/>
<path d="M93.1965 132.728L92.6764 133.798L93.4719 139.03C93.686 138.694 93.8696 138.357 94.0532 138.02L93.1965 132.728Z" fill="black"/>
<path d="M91.5441 141.141C91.7889 140.958 92.003 140.774 92.2172 140.56L91.6971 135.879L90.9934 136.185L91.5441 141.141Z" fill="black"/>
<path d="M89.7388 137.103L89.0351 137.653L89.4022 142.396C89.647 142.304 89.8612 142.212 90.1059 142.09L89.7694 137.103H89.7388Z" fill="black"/>
<path d="M87.6586 137.929L86.955 138.051L87.0773 142.977C87.3221 142.977 87.5668 142.916 87.781 142.885L87.6586 137.959V137.929Z" fill="black"/>
<path d="M84.7213 142.854C84.9661 142.885 85.1802 142.946 85.425 142.946L85.5474 138.173L84.8437 137.929L84.7213 142.854Z" fill="black"/>
<path d="M82.4273 142.09C82.6721 142.212 82.8862 142.304 83.131 142.396L83.4675 137.47L82.7639 137.103L82.4273 142.09Z" fill="black"/>
<path d="M81.5091 136.154L80.836 135.695L80.2853 140.591C80.4994 140.805 80.7136 140.988 80.9278 141.172L81.5091 136.185V136.154Z" fill="black"/>
<path d="M79.3366 132.575L78.4493 138.021C78.6023 138.388 78.8165 138.724 79.0306 139.03L79.7955 133.768L79.3366 132.575Z" fill="black"/>
<path d="M86.863 121.102L86.3123 120.092V130.341C86.4958 130.341 86.6794 130.341 86.863 130.28V121.071V121.102Z" fill="black"/>
<path d="M87.7197 122.693L87.2302 121.775V130.219C87.3832 130.158 87.5668 130.096 87.7197 130.035V122.693Z" fill="black"/>
<path d="M88.577 124.284L88.118 123.427V129.791C88.271 129.668 88.424 129.546 88.577 129.423V124.284Z" fill="black"/>
<path d="M89.4336 125.997C89.3419 125.721 89.2195 125.446 89.0665 125.201L89.0053 125.079V128.903C89.1889 128.628 89.3419 128.322 89.4336 128.016V125.997Z" fill="black"/>
<path d="M85.9757 120.459L85.4556 121.438V130.25C85.6392 130.28 85.7922 130.311 85.9757 130.341V120.459Z" fill="black"/>
<path d="M85.0886 122.142L84.5991 123.06V129.913C84.752 130.005 84.9356 130.096 85.0886 130.158V122.142Z" fill="black"/>
<path d="M84.1703 123.825L83.7419 124.651V129.24C83.8643 129.393 84.0173 129.546 84.1703 129.668V123.855V123.825Z" fill="black"/>
<path d="M83.3138 125.446L83.1608 125.721C83.0079 126.119 82.9161 126.547 82.9161 127.006C82.9161 127.588 83.0691 128.138 83.3138 128.597V125.446Z" fill="black"/>
<path d="M108.279 76.0355H102.344V88.1205H108.279V76.0355Z" fill="#FFCE57"/>
<path d="M108.035 76.3108V87.9062H102.589V76.3108H108.035ZM108.524 75.7906H102.099V88.3651H108.524V75.7906Z" fill="black"/>
<path d="M101.824 76.6168C101.824 76.6168 101.732 76.1273 102.742 75.8519C102.742 75.8519 110.085 74.8117 110.788 76.6168C110.788 76.6168 111.37 77.7794 106.322 77.7182C106.322 77.7182 102.161 77.7182 101.824 76.6168Z" fill="white"/>
<path d="M106.75 77.9936H106.291C105.557 77.9936 101.916 77.9324 101.549 76.7086C101.549 76.6168 101.427 75.9437 102.65 75.5766C102.712 75.5766 104.823 75.2706 106.903 75.2706C109.351 75.2706 110.697 75.6684 111.033 76.525C111.095 76.6168 111.125 76.8616 110.972 77.0757C110.575 77.7182 109.198 77.9936 106.75 77.9936ZM102.1 76.5556C102.345 77.1063 104.456 77.4429 106.322 77.4429H106.75C109.748 77.4429 110.36 76.9533 110.483 76.8004C110.513 76.7392 110.513 76.7086 110.513 76.7086C110.299 76.1273 108.984 75.8213 106.903 75.8213C104.823 75.8213 102.773 76.1273 102.773 76.1273C102.253 76.2803 102.1 76.4944 102.1 76.5556Z" fill="black"/>
<path d="M101.978 78.7585C101.978 78.7585 101.886 78.269 102.895 77.9937C102.895 77.9937 110.238 76.9534 110.942 78.7585C110.942 78.7585 111.523 79.9211 106.475 79.8599C106.475 79.8599 102.345 79.8599 102.008 78.7585H101.978Z" fill="white"/>
<path d="M106.903 80.1353H106.444C105.71 80.1353 102.069 80.0741 101.702 78.8503C101.702 78.7585 101.579 78.0548 102.803 77.7183C102.864 77.7183 104.975 77.4124 107.056 77.4124C109.503 77.4124 110.849 77.8101 111.186 78.6667C111.247 78.7585 111.278 79.0033 111.125 79.2174C110.758 79.8293 109.35 80.1353 106.903 80.1353ZM102.252 78.7279C102.497 79.2786 104.608 79.6152 106.474 79.6152H106.903C109.901 79.6152 110.513 79.1257 110.635 79.0033C110.697 78.9421 110.666 78.9115 110.666 78.9115C110.452 78.3608 109.136 78.0242 107.056 78.0242C104.975 78.0242 102.956 78.3302 102.925 78.3302C102.405 78.4832 102.252 78.6973 102.252 78.7585V78.7279Z" fill="black"/>
<path d="M102.098 80.9306C102.098 80.9306 102.007 80.4411 103.016 80.1658C103.016 80.1658 110.359 79.1256 111.063 80.9306C111.063 80.9306 111.644 82.0932 106.596 82.0321C106.596 82.0321 102.466 82.0321 102.129 80.9306H102.098Z" fill="white"/>
<path d="M107.055 82.3074H106.596C105.893 82.3074 102.221 82.2462 101.854 81.0224C101.854 80.9306 101.732 80.227 102.956 79.8904C103.017 79.8904 105.128 79.5845 107.208 79.5845C109.656 79.5845 111.033 79.9822 111.339 80.8389C111.4 80.9306 111.43 81.1754 111.277 81.3896C110.88 82.0015 109.503 82.3074 107.055 82.3074ZM102.374 80.9C102.619 81.4508 104.73 81.7567 106.596 81.7567C106.749 81.7567 106.902 81.7567 107.055 81.7567C110.237 81.7567 110.727 81.206 110.788 81.1142C110.788 81.1142 110.788 81.1142 110.788 81.0836C110.574 80.5023 109.228 80.1658 107.178 80.1658C105.128 80.1658 103.047 80.4717 103.047 80.4717C102.527 80.6247 102.374 80.8083 102.374 80.9Z" fill="black"/>
<path d="M102.894 76.9534C102.894 76.9534 102.711 76.4639 102.894 76.2497C102.894 76.2497 103.659 75.8214 103.996 76.2497C103.996 76.2497 104.393 76.7086 103.996 77.1675C103.996 77.1675 103.751 77.3511 102.894 76.9534Z" fill="white"/>
<path d="M103.782 77.3205C103.538 77.3205 103.232 77.2287 102.834 77.0452H102.803V76.984C102.803 76.9228 102.589 76.4027 102.803 76.1273C102.803 76.1273 103.171 75.8826 103.538 75.8826C103.752 75.8826 103.935 75.9744 104.058 76.1273C104.211 76.3109 104.425 76.7698 104.058 77.1981C104.027 77.2287 103.935 77.2899 103.752 77.2899L103.782 77.3205ZM102.987 76.831C103.599 77.1064 103.844 77.0452 103.905 77.0452C104.211 76.678 103.905 76.3415 103.905 76.3109C103.844 76.2191 103.721 76.1579 103.568 76.1579C103.324 76.1579 103.048 76.2803 102.987 76.3109C102.926 76.4333 102.987 76.678 102.987 76.831Z" fill="black"/>
<path d="M102.894 79.1256C102.894 79.1256 102.711 78.6361 102.894 78.4219C102.894 78.4219 103.659 77.9936 103.996 78.4219C103.996 78.4219 104.393 78.8809 103.996 79.3398C103.996 79.3398 103.751 79.5233 102.894 79.1256Z" fill="white"/>
<path d="M103.782 79.4927C103.538 79.4927 103.232 79.4009 102.834 79.2173H102.803V79.1561C102.803 79.095 102.589 78.5748 102.803 78.3301C102.803 78.3301 103.171 78.0853 103.538 78.0853C103.752 78.0853 103.935 78.1771 104.058 78.3301C104.211 78.5137 104.425 79.0032 104.058 79.4315C104.027 79.4315 103.935 79.4927 103.752 79.4927H103.782ZM102.987 79.0032C103.599 79.2785 103.844 79.2173 103.905 79.2173C104.211 78.8502 103.905 78.4831 103.905 78.4831C103.844 78.3913 103.721 78.3301 103.568 78.3301C103.324 78.3301 103.048 78.4525 102.987 78.4831C102.926 78.6054 102.987 78.8502 102.987 79.0032Z" fill="black"/>
<path d="M103.048 81.1143C103.048 81.1143 102.864 80.6247 103.048 80.4106C103.048 80.4106 103.813 79.9823 104.119 80.4106C104.119 80.4106 104.516 80.8695 104.119 81.3284C104.119 81.3284 103.874 81.512 103.048 81.1143Z" fill="white"/>
<path d="M103.935 81.4813C103.69 81.4813 103.384 81.3895 102.987 81.2059H102.925V81.1447C102.925 81.0836 102.711 80.5634 102.925 80.2881C102.925 80.2881 103.293 80.0433 103.66 80.0433C103.874 80.0433 104.057 80.1351 104.18 80.2881C104.333 80.4717 104.547 80.9306 104.18 81.3589C104.149 81.3895 104.057 81.4507 103.874 81.4507L103.935 81.4813ZM103.14 81.0224C103.751 81.2977 103.996 81.2365 104.057 81.2365C104.333 80.9 104.057 80.5329 104.057 80.5023C103.966 80.4105 103.874 80.3493 103.721 80.3493C103.476 80.3493 103.201 80.4717 103.14 80.5023C103.048 80.6246 103.14 80.8694 103.14 81.0224Z" fill="black"/>
<path d="M109.595 83.929C107.821 84.5715 104.363 83.7148 104.363 83.7148C102.956 82.7664 104.302 82.0321 104.302 82.0321C104.302 82.0321 110.666 81.665 111.308 83.0417C111.308 83.0417 112.043 84.7856 108.249 85.4281L108.065 84.3267L109.595 83.9596V83.929Z" fill="white"/>
<path d="M108.035 85.7341L107.821 84.4491C106.138 84.4491 104.394 84.0208 104.333 83.9902H104.241C103.721 83.5924 103.446 83.1947 103.477 82.797C103.477 82.1851 104.119 81.8179 104.211 81.7873H104.272L104.333 81.7567C104.333 81.7567 105.129 81.6956 106.199 81.6956C111.064 81.6956 111.462 82.6134 111.615 82.8888C111.615 82.8888 111.86 83.4701 111.492 84.082C111.064 84.8468 110.024 85.3669 108.341 85.6423L108.066 85.7035L108.035 85.7341ZM108.402 84.5409L108.494 85.0916C110.146 84.7856 110.758 84.2349 110.972 83.8678C111.186 83.5007 111.064 83.1641 111.064 83.1641C110.88 82.7664 109.473 82.3075 106.169 82.3075C105.312 82.3075 104.639 82.3381 104.425 82.3686C104.303 82.4604 104.058 82.6746 104.027 82.8888C104.027 83.1335 104.272 83.3477 104.517 83.5312C104.823 83.5924 106.414 83.9596 107.913 83.9596C108.311 83.9596 108.678 83.9596 108.984 83.8678L109.565 83.7148L109.718 84.2349C109.534 84.2961 109.32 84.3573 109.075 84.3879L108.402 84.5409Z" fill="black"/>
<path d="M104.486 83.1642C104.486 83.1642 104.302 82.6747 104.486 82.4605C104.486 82.4605 105.251 82.0322 105.587 82.4605C105.587 82.4605 105.985 82.9194 105.587 83.3784C105.587 83.3784 105.342 83.5619 104.486 83.1642Z" fill="white"/>
<path d="M105.343 83.5313C105.098 83.5313 104.792 83.4395 104.394 83.2559H104.333V83.1947C104.333 83.1335 104.119 82.6134 104.333 82.3381C104.333 82.3381 104.7 82.1239 105.067 82.1239C105.281 82.1239 105.465 82.2157 105.587 82.3687C105.74 82.5522 105.955 83.0417 105.587 83.4395C105.557 83.4701 105.465 83.5313 105.281 83.5313H105.343ZM104.578 83.0723C105.159 83.3477 105.434 83.2865 105.465 83.2865C105.771 82.9194 105.465 82.5828 105.465 82.5522C105.373 82.4604 105.281 82.3993 105.128 82.3993C104.884 82.3993 104.639 82.5216 104.547 82.5522C104.455 82.6746 104.547 82.9194 104.547 83.0723H104.578Z" fill="black"/>
<path d="M110.023 87.2944C110.023 88.2735 107.943 89.0383 105.403 89.0383C102.864 89.0383 100.783 88.2429 100.783 87.2944C100.783 86.346 102.864 85.5505 105.403 85.5505C107.943 85.5505 110.023 86.346 110.023 87.2944Z" fill="#FFCE57"/>
<path d="M105.404 89.2524C102.711 89.2524 100.57 88.3958 100.57 87.2944C100.57 86.193 102.681 85.3363 105.404 85.3363C108.126 85.3363 110.238 86.193 110.238 87.2944C110.238 88.3958 108.126 89.2524 105.404 89.2524ZM105.404 85.7646C102.803 85.7646 100.967 86.5907 100.967 87.325C100.967 88.0592 102.772 88.8853 105.404 88.8853C108.035 88.8853 109.809 88.0592 109.809 87.325C109.809 86.5907 108.004 85.7646 105.404 85.7646Z" fill="black"/>
<path d="M110.115 88.0898C110.115 89.0689 108.004 89.8338 105.373 89.8338C102.742 89.8338 100.63 89.0383 100.63 88.0898C100.63 87.1414 102.742 86.3459 105.373 86.3459C108.004 86.3459 110.115 87.1414 110.115 88.0898Z" fill="#FFCE57"/>
<path d="M105.373 90.0785C102.559 90.0785 100.448 89.2218 100.448 88.1204C100.448 86.8966 102.956 86.1624 105.373 86.1624C107.79 86.1624 110.299 86.8966 110.299 88.1204C110.299 89.2524 108.188 90.0785 105.373 90.0785ZM105.373 86.5601C102.712 86.5601 100.845 87.3861 100.845 88.1204C100.845 88.8547 102.712 89.6808 105.373 89.6808C108.035 89.6808 109.901 88.8547 109.901 88.1204C109.901 87.3861 108.035 86.5601 105.373 86.5601Z" fill="black"/>
<path d="M102.099 85.061C102.099 85.061 99.7126 84.7857 99.7738 82.8582C99.7738 82.8582 96.6837 78.4831 99.9574 76.6169C103.231 74.7506 104.73 77.1676 105.74 79.8293C105.74 79.8293 104.547 81.5426 101.977 78.116" fill="white"/>
<path d="M102.069 85.3058C101.182 85.214 99.5295 84.5716 99.5295 82.9194C99.2541 82.5217 97.8774 80.3189 98.3057 78.3914C98.4893 77.5348 99.0094 76.8617 99.8354 76.4027C101.029 75.7297 102.099 75.5461 103.017 75.8826C104.516 76.4333 105.373 78.2384 105.954 79.7376V79.86V79.9517C105.954 79.9517 105.587 80.4719 104.884 80.5024C103.966 80.5024 102.926 79.7682 101.794 78.269L102.191 77.9631C103.476 79.6764 104.363 80.0129 104.884 80.0129C105.19 80.0129 105.404 79.86 105.495 79.7682C104.945 78.3914 104.18 76.8005 102.895 76.3416C102.099 76.0662 101.212 76.2192 100.111 76.8311C99.4071 77.2288 98.9482 77.7795 98.7952 78.5138C98.3669 80.3801 99.9884 82.6747 99.9884 82.7053L100.05 82.7665V82.8582C99.9884 84.541 102.069 84.7857 102.161 84.8163L102.099 85.3058H102.069Z" fill="black"/>
<path d="M104.853 77.9324L104.088 78.5443C104.088 78.5443 104.302 79.7375 105.312 79.1562L104.853 77.9324Z" fill="white"/>
<path d="M104.822 79.4315C104.149 79.4315 103.966 78.5749 103.966 78.5443V78.4831L104.914 77.6876L105.465 79.1868L105.373 79.248C105.159 79.3703 105.006 79.4009 104.822 79.4009V79.4315ZM104.241 78.6055C104.302 78.789 104.455 79.2174 104.822 79.2174C104.822 79.2174 105.037 79.2174 105.159 79.1256L104.792 78.1465L104.241 78.6055Z" fill="black"/>
<path d="M54.0349 66.1534C54.0349 66.1534 53.7595 66.0616 53.6983 65.9392L53.3618 65.0214C53.3006 64.8378 53.3924 64.6542 53.5759 64.593C53.7595 64.5319 53.9431 64.593 54.0043 64.8072L54.3408 65.7251C54.402 65.9086 54.3408 66.0922 54.1266 66.1534C54.096 66.1534 54.0349 66.1534 54.0043 66.1534H54.0349Z" fill="black"/>
<path d="M48.8641 65.358L48.5275 64.5319C48.5275 64.5319 50.149 64.2565 50.9139 65.0214C50.9139 65.0214 51.893 65.3885 53.9122 65.358C53.9122 65.358 51.8624 66.2452 49.9655 65.4803C49.9655 65.4803 49.17 65.3274 48.8947 65.358H48.8641Z" fill="black"/>
<path d="M51.0671 52.814C54.5243 56.2101 57.798 52.814 57.798 52.814C54.3408 49.418 51.0671 52.814 51.0671 52.814Z" fill="white"/>
<path d="M54.3409 54.4967C53.1477 54.4967 51.9851 53.9766 50.9449 52.9364L50.8225 52.814L50.9449 52.6916C50.9449 52.6916 52.4746 51.1007 54.5551 51.1007C55.7483 51.1007 56.9109 51.6208 57.9511 52.661L58.0735 52.7834L57.9511 52.9364C57.9511 52.9364 56.4214 54.5273 54.3409 54.5273V54.4967ZM51.3426 52.814C52.2911 53.6707 53.3007 54.1296 54.3409 54.1296C55.9012 54.1296 57.125 53.1506 57.5228 52.7834C56.5743 51.9268 55.5953 51.4678 54.5551 51.4678C52.9947 51.4678 51.7709 52.4469 51.3732 52.814H51.3426Z" fill="black"/>
<path d="M55.871 52.7835C55.871 53.6096 55.2286 54.252 54.4331 54.252C53.6376 54.252 52.9951 53.6096 52.9645 52.7835C52.9645 51.9574 53.607 51.3149 54.4025 51.3149C55.198 51.3149 55.871 51.9574 55.871 52.7529V52.7835Z" fill="white"/>
<path d="M54.4325 54.4661C53.5147 54.4661 52.7804 53.7318 52.7804 52.814C52.7804 51.8961 53.5147 51.1619 54.4325 51.1619C55.3504 51.1619 56.0846 51.8961 56.0846 52.814C56.0846 53.2729 55.9011 53.6706 55.5951 53.9766C55.2892 54.2825 54.8608 54.4661 54.4325 54.4661ZM54.4325 51.529C53.7288 51.529 53.1781 52.1103 53.1781 52.814C53.1781 53.5177 53.7594 54.0684 54.4325 54.0684C54.7691 54.0684 55.075 53.946 55.3198 53.7012C55.5645 53.4565 55.6869 53.1505 55.6869 52.814C55.6869 52.1103 55.1362 51.5596 54.4325 51.5596V51.529Z" fill="black"/>
<path d="M55.1057 52.814C55.1057 53.2118 54.7998 53.5177 54.402 53.5177C54.0349 53.5177 53.729 53.2118 53.6984 52.814C53.6984 52.4469 54.0043 52.1104 54.3715 52.1104C54.7692 52.1104 55.0751 52.4163 55.0751 52.814H55.1057Z" fill="black"/>
<path d="M58.3487 49.877C58.3487 49.877 58.3487 49.877 58.2569 49.8464C58.1957 49.8464 58.1345 49.7852 58.0427 49.724C57.8592 49.6322 57.5532 49.5099 57.1861 49.3875C57.0025 49.3263 56.8189 49.2651 56.6048 49.2039C56.3906 49.1427 56.1764 49.0815 55.9623 49.0509C55.7481 48.9898 55.5034 48.9898 55.2586 48.9592C55.0138 48.9592 54.7691 48.9592 54.5243 48.9592C54.2796 48.9592 54.0348 48.9592 53.8206 49.0204C53.6983 49.0204 53.6065 49.0509 53.4841 49.0815C53.3617 49.1121 53.2699 49.1427 53.1476 49.1733C53.0558 49.1733 52.9334 49.2345 52.8416 49.2651C52.7498 49.2957 52.658 49.3569 52.5663 49.3875C52.4745 49.4181 52.3827 49.4793 52.2909 49.5099C52.1991 49.5711 52.1379 49.6017 52.0461 49.6628C51.8932 49.7546 51.7402 49.8158 51.6484 49.9076C51.526 49.9994 51.4343 50.0606 51.3731 50.1524C51.2201 50.2747 51.1283 50.3359 51.1283 50.3359L51.0671 50.3971C50.7918 50.6113 50.4246 50.5501 50.2105 50.3053C49.9963 50.03 50.0575 49.6628 50.3022 49.4487C50.3022 49.4487 50.3022 49.4487 50.3634 49.4181C50.3634 49.4181 50.4858 49.3263 50.7 49.2039C50.8224 49.1427 50.9447 49.0509 51.0671 48.9592C51.2201 48.8674 51.4037 48.8062 51.5872 48.6838C51.679 48.6532 51.7708 48.592 51.8932 48.5614C52.0156 48.5308 52.1073 48.5002 52.2297 48.439C52.3521 48.439 52.4745 48.3779 52.5969 48.3167C52.7192 48.3167 52.8416 48.2555 52.964 48.2249C53.0864 48.1943 53.2088 48.1637 53.3617 48.1637C53.4841 48.1637 53.6371 48.1637 53.7595 48.1637C54.0348 48.1637 54.3102 48.1637 54.5855 48.1637C54.8609 48.1637 55.1362 48.2249 55.4116 48.2555C55.6563 48.3167 55.9317 48.3473 56.1764 48.439C56.4212 48.5002 56.6354 48.592 56.8495 48.6532C57.0637 48.745 57.2779 48.8368 57.4614 48.898C57.8286 49.0509 58.1039 49.2345 58.3181 49.3569C58.4099 49.4181 58.5016 49.4793 58.5628 49.5099C58.624 49.5405 58.6546 49.5711 58.6546 49.5711C58.7464 49.6322 58.777 49.7546 58.7158 49.877C58.6546 49.9688 58.5322 49.9994 58.4405 49.9382L58.3487 49.877Z" fill="black"/>
<path d="M59.0222 52.3245C59.0222 52.3245 58.9304 52.3245 58.8998 52.2939C54.2188 48.8367 50.884 52.2328 50.8534 52.2939C50.7922 52.3857 50.6698 52.3857 50.5781 52.2939C50.4863 52.2328 50.4863 52.1104 50.5781 52.0186C50.5781 51.988 54.1882 48.3166 59.114 52.0186C59.2058 52.0798 59.2364 52.2022 59.1446 52.2939C59.114 52.3551 59.0528 52.3857 58.9916 52.3857L59.0222 52.3245Z" fill="black"/>
<path d="M59.7258 53.6401C59.7258 53.6401 59.5116 53.6401 59.3587 53.6401H59.1751L58.9915 53.6095C58.9303 53.6095 58.8691 53.6095 58.8385 53.5789C58.7774 53.5789 58.7162 53.5789 58.655 53.5177C58.5326 53.4872 58.4408 53.426 58.3184 53.3954C58.1961 53.3342 58.1043 53.273 58.0125 53.2424C57.8901 53.1812 57.7983 53.12 57.7065 53.0588C57.6147 52.9976 57.523 52.9059 57.4312 52.8447C57.3394 52.7529 57.2782 52.6917 57.1864 52.5693C57.1864 52.5693 56.9723 52.3857 56.8499 52.3246C56.7275 52.2328 56.6051 52.1716 56.4521 52.1104C56.3298 52.0492 56.1768 51.988 56.0544 51.9574C55.9014 51.8962 55.7791 51.8656 55.6261 51.835L55.4119 51.7738H55.1978C55.1978 51.7738 55.0448 51.7433 54.9836 51.7127H54.7694C54.7694 51.7127 54.4635 51.7127 54.3411 51.7127C54.1881 51.7127 54.0658 51.7127 53.9128 51.7433L53.4845 51.835C53.4845 51.835 53.2091 51.9268 53.0867 51.988L52.8726 52.0492C52.8726 52.0492 52.7502 52.1104 52.6584 52.141L52.2607 52.3246C52.2607 52.3246 51.9853 52.4775 51.8629 52.5387L51.4652 52.7529C51.2204 52.9364 50.9757 53.12 50.7003 53.273C50.7003 53.273 50.4862 53.3036 50.425 53.2118C50.3638 53.12 50.3944 53.0282 50.425 52.967C50.6697 52.7529 50.8839 52.5081 51.1287 52.294C51.251 52.2022 51.404 52.1104 51.5264 51.988C51.6488 51.8962 51.8017 51.8044 51.9241 51.7127L52.3524 51.4679C52.3524 51.4679 52.5054 51.3761 52.5666 51.3455L52.8114 51.2537C52.9643 51.1925 53.1173 51.1314 53.2703 51.0702L53.7598 50.9478C53.9128 50.9172 54.0964 50.9172 54.2799 50.8866C54.4635 50.8866 54.6165 50.8866 54.8 50.8866H55.0448C55.0448 50.8866 55.1978 50.9478 55.2895 50.9784L55.5343 51.0396L55.7791 51.1314C55.932 51.1925 56.1156 51.2537 56.238 51.3455C56.391 51.4067 56.5439 51.4985 56.6663 51.5903C56.7887 51.6821 56.9417 51.7738 57.064 51.8962C57.1864 52.0186 57.3088 52.1104 57.4312 52.2634C57.4312 52.2634 57.5536 52.4163 57.6453 52.5081C57.7371 52.5693 57.7983 52.6611 57.8901 52.7223C58.0431 52.8447 58.2266 52.967 58.4102 53.0588C58.502 53.12 58.5938 53.1506 58.7162 53.1812C58.7773 53.1812 58.8079 53.1812 58.8691 53.2118C58.9303 53.2118 58.9915 53.2118 59.0221 53.2118H59.1751H59.3281C59.4198 53.2118 59.5422 53.2118 59.6646 53.2118C59.6646 53.2118 59.8788 53.273 59.8788 53.3954C59.8788 53.5177 59.8176 53.6095 59.6952 53.6095L59.7258 53.6401Z" fill="black"/>
<path d="M51.8323 53.6708C51.4958 52.8141 51.7099 52.1104 51.7405 52.0798L52.1077 52.2022C52.1077 52.2022 51.9241 52.8141 52.1995 53.5178L51.8323 53.6708Z" fill="black"/>
<path d="M53.7289 56.0571C53.7289 56.0571 53.7289 56.0571 53.6677 56.0571C52.1685 55.4452 50.6694 53.7625 50.6082 53.6707C50.547 53.6096 50.5776 53.5178 50.6082 53.4872C50.6694 53.426 50.7612 53.426 50.7918 53.4872C50.7918 53.4872 52.2909 55.2005 53.7289 55.7818C53.7901 55.7818 53.8513 55.9042 53.8207 55.9654C53.8207 56.0265 53.7289 56.0571 53.6983 56.0571H53.7289Z" fill="black"/>
<path d="M65.2329 44.064C65.2329 44.064 63.3666 50.0299 67.1298 55.384C71.0459 60.9829 70.0363 63.614 70.0363 63.614C70.0363 63.614 66.5791 63.614 66.1508 66.337C65.6918 69.4882 67.6499 74.567 73.983 72.5783C73.983 72.5783 78.0215 70.5285 76.4 63.1245C74.7479 55.7206 68.6595 48.5614 70.8929 44.064H65.2635H65.2329Z" fill="#FFCE57"/>
<path d="M71.3217 73.3126C69.6696 73.3126 68.2928 72.7007 67.3138 71.5687C65.937 69.9778 65.6922 67.775 65.9064 66.337C66.2735 63.7976 69.0883 63.4305 69.8531 63.3999C69.9755 62.788 70.1897 60.2181 66.9466 55.5677C63.1529 50.1524 65.0191 44.0946 65.0497 44.0334L65.1109 43.8499H71.3217L71.1381 44.217C69.8531 46.8481 71.5052 50.4583 73.4327 54.6192C74.7177 57.3422 76.0027 60.1875 76.6758 63.1246C78.3585 70.6509 74.32 72.7925 74.1364 72.8537H74.1058C73.1268 73.1902 72.2089 73.3432 71.3523 73.3432L71.3217 73.3126ZM65.4169 44.3088C65.1415 45.3184 64.0095 50.5501 67.3138 55.2311C71.2605 60.8911 70.2814 63.5835 70.2509 63.7059L70.1897 63.8588H70.0367C70.0367 63.8588 66.763 63.8894 66.3959 66.3982C66.2123 67.7138 66.4265 69.733 67.6809 71.2016C69.0271 72.7925 71.1993 73.1902 73.8916 72.3336C74.1976 72.1806 77.6854 70.1002 76.1556 63.1552C75.5132 60.2793 74.2282 57.4645 72.9738 54.7416C71.0769 50.6419 69.4248 47.0623 70.5262 44.2782H65.4475L65.4169 44.3088Z" fill="black"/>
<path d="M70.0057 68.6315C70.0057 68.6315 70.0363 68.6315 70.1281 68.6315C70.1893 68.6315 70.3116 68.6621 70.434 68.6927C70.5564 68.6927 70.74 68.7539 70.9235 68.7845C71.1071 68.7845 71.3213 68.8151 71.5354 68.7845C71.6578 68.7845 71.7496 68.7845 71.872 68.7845C71.9943 68.7539 72.0861 68.7233 72.2085 68.6927C72.4227 68.6315 72.6062 68.4785 72.7898 68.3256L72.9122 68.1726C72.9122 68.1726 72.9734 68.0502 73.004 68.0196L73.0652 67.9278V67.8666L73.1569 67.6219C73.1569 67.6219 73.1875 67.4689 73.2181 67.4077C73.2181 67.3465 73.2487 67.2853 73.2793 67.2242C73.2793 67.1018 73.3405 66.9488 73.3405 66.7958C73.3405 66.5205 73.3099 66.2451 73.2181 65.9698C73.1263 65.6944 72.9734 65.4803 72.7898 65.2661C72.698 65.1743 72.6062 65.0519 72.5145 64.9907C72.3921 64.8989 72.3003 64.8072 72.2085 64.746C72.0861 64.6848 71.9943 64.593 71.872 64.5318C71.7496 64.4706 71.6578 64.4094 71.5354 64.3788C71.3213 64.2871 71.1377 64.1953 70.9235 64.1341C70.74 64.0729 70.587 64.0117 70.434 63.9811C70.1587 63.9199 70.0057 63.8587 70.0057 63.8587C70.0057 63.8587 69.7915 63.6752 69.8221 63.5528C69.8527 63.4304 69.9751 63.3386 70.0975 63.3692C70.0975 63.3692 70.281 63.3692 70.587 63.3998C70.74 63.3998 70.9235 63.461 71.1377 63.4916C71.3519 63.4916 71.566 63.614 71.8414 63.6752C71.9637 63.7363 72.0861 63.7669 72.2391 63.8281C72.3615 63.8893 72.5145 63.9811 72.6368 64.0423C72.7898 64.1035 72.9122 64.2259 73.0346 64.3176C73.1875 64.4094 73.3099 64.5318 73.4323 64.6542C73.6771 64.9295 73.8912 65.2355 74.0442 65.6026C74.1972 65.9698 74.2889 66.3675 74.2584 66.7652C74.2584 66.9488 74.2278 67.163 74.1972 67.3465C74.136 67.5301 74.1054 67.7443 74.0442 67.9278L73.9524 68.142V68.2032L73.9218 68.2338V68.295L73.8606 68.4173C73.8606 68.4173 73.7688 68.6009 73.7077 68.6621C73.6465 68.7539 73.5853 68.8151 73.5241 68.9069C73.2487 69.1822 72.9122 69.3964 72.5756 69.4882C72.2391 69.6105 71.9026 69.6105 71.6272 69.58C71.3519 69.58 71.1071 69.5188 70.8623 69.4576C70.6482 69.3964 70.4646 69.3352 70.3422 69.274C70.1893 69.2128 70.0975 69.1516 70.0057 69.121C69.9139 69.0598 69.8833 69.0598 69.8833 69.0598C69.7609 68.9987 69.7303 68.8457 69.7915 68.7233C69.8527 68.6315 69.9751 68.5703 70.0975 68.6009L70.0057 68.6315Z" fill="black"/>
<path d="M109.014 74.3221H101.61V44.1557L105.465 36.6906L109.014 44.1557V74.3221ZM102.314 73.6185H108.31V44.3392L105.434 38.3121L102.314 44.3392V73.6185Z" fill="black"/>
<path d="M105.557 37.4861H105.312V73.9551H105.557V37.4861Z" fill="black"/>
<path d="M104.456 39.4136H104.211V74.2916H104.456V39.4136Z" fill="black"/>
<path d="M106.597 39.6583H106.352V74.6588H106.597V39.6583Z" fill="black"/>
</g>
<rect x="8" y="31.5" width="107" height="129" rx="5.5" stroke="black"/>
</g>
</g>
<rect x="1.25" y="0.5" width="121" height="167.25" rx="10.5" stroke="#ADADAD"/>
<defs>
<clipPath id="clip0_17_2725">
<rect x="1.75" y="1" width="120" height="166.25" rx="10" fill="white"/>
</clipPath>
</defs>
</svg>
