<svg width="123" height="169" viewBox="0 0 123 169" fill="none" xmlns="http://www.w3.org/2000/svg">
<g clip-path="url(#clip0_17_2724)">
<rect x="1.25" y="1" width="120" height="166.25" rx="10" fill="white"/>
<mask id="mask0_17_2724" style="mask-type:alpha" maskUnits="userSpaceOnUse" x="1" y="1" width="121" height="167">
<rect x="1.25" y="1" width="120" height="166.25" fill="#D9D9D9"/>
</mask>
<g mask="url(#mask0_17_2724)">
<path d="M17.186 22L16.304 19.192H11.426L10.49 22H7.34L11.678 9.4H16.556L20.786 22H17.186ZM12.164 16.978H15.602L13.946 11.668L12.164 16.978Z" fill="black"/>
<path d="M106.664 20.3605C106.754 20.2034 106.981 20.2034 107.072 20.3605L108.909 23.5425C109 23.6996 108.886 23.896 108.705 23.896H105.031C104.849 23.896 104.736 23.6996 104.827 23.5425L106.664 20.3605Z" fill="black"/>
<path fill-rule="evenodd" clip-rule="evenodd" d="M110.657 11.8616C110.657 12.5218 110.492 13.1435 110.201 13.6876C110.323 13.676 110.446 13.6701 110.571 13.6701C112.711 13.6701 114.447 15.4053 114.447 17.5456C114.447 19.686 112.711 21.4211 110.571 21.4211C108.83 21.4211 107.357 20.2726 106.868 18.6916C106.379 20.2726 104.906 21.4211 103.165 21.4211C101.024 21.4211 99.2891 19.686 99.2891 17.5456C99.2891 15.4053 101.024 13.6701 103.165 13.6701C103.229 13.6701 103.292 13.6717 103.356 13.6748C103.069 13.1337 102.906 12.5166 102.906 11.8616C102.906 9.7212 104.641 7.98608 106.782 7.98608C108.922 7.98608 110.657 9.7212 110.657 11.8616Z" fill="black"/>
<mask id="path-7-outside-1_17_2724" maskUnits="userSpaceOnUse" x="25.8791" y="57" width="69" height="72" fill="black">
<rect fill="white" x="25.8791" y="57" width="69" height="72"/>
<path fill-rule="evenodd" clip-rule="evenodd" d="M72.7275 84.3436C73.8175 82.3068 74.4356 79.9796 74.4356 77.5079C74.4356 69.4954 67.9402 63 59.9277 63C51.9152 63 45.4198 69.4954 45.4198 77.5079C45.4198 79.9602 46.0282 82.2703 47.1023 84.2956C46.8653 84.2841 46.6268 84.2783 46.387 84.2783C38.3745 84.2783 31.8791 90.7737 31.8791 98.7862C31.8791 106.799 38.3745 113.294 46.387 113.294C52.906 113.294 58.4207 108.995 60.2501 103.076C62.0795 108.995 67.5942 113.294 74.1132 113.294C82.1257 113.294 88.6211 106.799 88.6211 98.7862C88.6211 90.7737 82.1257 84.2783 74.1132 84.2783C73.6458 84.2783 73.1836 84.3004 72.7275 84.3436ZM61.5491 110.25C60.9718 109.25 59.5284 109.25 58.951 110.25L53.1436 120.309C52.5662 121.309 53.2879 122.559 54.4426 122.559H66.0575C67.2122 122.559 67.9339 121.309 67.3566 120.309L61.5491 110.25Z"/>
</mask>
<path fill-rule="evenodd" clip-rule="evenodd" d="M72.7275 84.3436C73.8175 82.3068 74.4356 79.9796 74.4356 77.5079C74.4356 69.4954 67.9402 63 59.9277 63C51.9152 63 45.4198 69.4954 45.4198 77.5079C45.4198 79.9602 46.0282 82.2703 47.1023 84.2956C46.8653 84.2841 46.6268 84.2783 46.387 84.2783C38.3745 84.2783 31.8791 90.7737 31.8791 98.7862C31.8791 106.799 38.3745 113.294 46.387 113.294C52.906 113.294 58.4207 108.995 60.2501 103.076C62.0795 108.995 67.5942 113.294 74.1132 113.294C82.1257 113.294 88.6211 106.799 88.6211 98.7862C88.6211 90.7737 82.1257 84.2783 74.1132 84.2783C73.6458 84.2783 73.1836 84.3004 72.7275 84.3436ZM61.5491 110.25C60.9718 109.25 59.5284 109.25 58.951 110.25L53.1436 120.309C52.5662 121.309 53.2879 122.559 54.4426 122.559H66.0575C67.2122 122.559 67.9339 121.309 67.3566 120.309L61.5491 110.25Z" fill="black"/>
<path d="M72.7275 84.3436L67.4374 81.5126L62.1611 91.3718L73.2935 90.3169L72.7275 84.3436ZM47.1023 84.2956L46.8113 90.2886L57.3434 90.8L52.403 81.4845L47.1023 84.2956ZM60.2501 103.076L65.9825 101.304L60.2501 82.7601L54.5177 101.304L60.2501 103.076ZM58.951 110.25L53.7549 107.25H53.7549L58.951 110.25ZM61.5491 110.25L66.7453 107.25L61.5491 110.25ZM53.1436 120.309L58.3397 123.309H58.3397L53.1436 120.309ZM67.3566 120.309L62.1604 123.309H62.1604L67.3566 120.309ZM68.4356 77.5079C68.4356 78.9679 68.0728 80.3253 67.4374 81.5126L78.0176 87.1747C79.5622 84.2884 80.4356 80.9913 80.4356 77.5079H68.4356ZM59.9277 69C64.6265 69 68.4356 72.8091 68.4356 77.5079H80.4356C80.4356 66.1817 71.2539 57 59.9277 57V69ZM51.4198 77.5079C51.4198 72.8091 55.2289 69 59.9277 69V57C48.6015 57 39.4198 66.1817 39.4198 77.5079H51.4198ZM52.403 81.4845C51.7769 80.304 51.4198 78.9565 51.4198 77.5079H39.4198C39.4198 80.9638 40.2794 84.2366 41.8016 87.1068L52.403 81.4845ZM46.387 90.2783C46.5297 90.2783 46.6712 90.2818 46.8113 90.2886L47.3933 78.3027C47.0594 78.2865 46.7239 78.2783 46.387 78.2783V90.2783ZM37.8791 98.7862C37.8791 94.0874 41.6882 90.2783 46.387 90.2783V78.2783C35.0608 78.2783 25.8791 87.46 25.8791 98.7862H37.8791ZM46.387 107.294C41.6882 107.294 37.8791 103.485 37.8791 98.7862H25.8791C25.8791 110.112 35.0608 119.294 46.387 119.294V107.294ZM54.5177 101.304C53.4433 104.78 50.2009 107.294 46.387 107.294V119.294C55.611 119.294 63.3981 113.209 65.9825 104.848L54.5177 101.304ZM74.1132 107.294C70.2993 107.294 67.0569 104.78 65.9825 101.304L54.5177 104.848C57.1021 113.209 64.8892 119.294 74.1132 119.294V107.294ZM82.6211 98.7862C82.6211 103.485 78.812 107.294 74.1132 107.294V119.294C85.4394 119.294 94.6211 110.112 94.6211 98.7862H82.6211ZM74.1132 90.2783C78.812 90.2783 82.6211 94.0874 82.6211 98.7862H94.6211C94.6211 87.46 85.4394 78.2783 74.1132 78.2783V90.2783ZM73.2935 90.3169C73.5617 90.2915 73.8351 90.2783 74.1132 90.2783V78.2783C73.4565 78.2783 72.8054 78.3094 72.1615 78.3704L73.2935 90.3169ZM64.1472 113.25C62.4151 116.25 58.085 116.25 56.353 113.25L66.7453 107.25C63.8585 102.25 56.6416 102.25 53.7549 107.25L64.1472 113.25ZM58.3397 123.309L64.1472 113.25L53.7549 107.25L47.9474 117.309L58.3397 123.309ZM54.4426 116.559C57.9067 116.559 60.0718 120.309 58.3397 123.309L47.9474 117.309C45.0607 122.309 48.6691 128.559 54.4426 128.559V116.559ZM66.0575 116.559H54.4426V128.559H66.0575V116.559ZM62.1604 123.309C60.4284 120.309 62.5935 116.559 66.0575 116.559V128.559C71.831 128.559 75.4395 122.309 72.5527 117.309L62.1604 123.309ZM56.353 113.25L62.1604 123.309L72.5527 117.309L66.7453 107.25L56.353 113.25Z" fill="black" mask="url(#path-7-outside-1_17_2724)"/>
<mask id="path-9-outside-2_17_2724" maskUnits="userSpaceOnUse" x="26.8791" y="58" width="67" height="70" fill="black">
<rect fill="white" x="26.8791" y="58" width="67" height="70"/>
<path fill-rule="evenodd" clip-rule="evenodd" d="M72.7275 84.3436C73.8175 82.3068 74.4356 79.9796 74.4356 77.5079C74.4356 69.4954 67.9402 63 59.9277 63C51.9152 63 45.4198 69.4954 45.4198 77.5079C45.4198 79.9602 46.0282 82.2703 47.1023 84.2956C46.8653 84.2841 46.6268 84.2783 46.387 84.2783C38.3745 84.2783 31.8791 90.7737 31.8791 98.7862C31.8791 106.799 38.3745 113.294 46.387 113.294C52.906 113.294 58.4207 108.995 60.2501 103.076C62.0795 108.995 67.5942 113.294 74.1132 113.294C82.1257 113.294 88.6211 106.799 88.6211 98.7862C88.6211 90.7737 82.1257 84.2783 74.1132 84.2783C73.6458 84.2783 73.1836 84.3004 72.7275 84.3436ZM61.5491 110.25C60.9718 109.25 59.5284 109.25 58.951 110.25L53.1436 120.309C52.5662 121.309 53.2879 122.559 54.4426 122.559H66.0575C67.2122 122.559 67.9339 121.309 67.3566 120.309L61.5491 110.25Z"/>
</mask>
<path fill-rule="evenodd" clip-rule="evenodd" d="M72.7275 84.3436C73.8175 82.3068 74.4356 79.9796 74.4356 77.5079C74.4356 69.4954 67.9402 63 59.9277 63C51.9152 63 45.4198 69.4954 45.4198 77.5079C45.4198 79.9602 46.0282 82.2703 47.1023 84.2956C46.8653 84.2841 46.6268 84.2783 46.387 84.2783C38.3745 84.2783 31.8791 90.7737 31.8791 98.7862C31.8791 106.799 38.3745 113.294 46.387 113.294C52.906 113.294 58.4207 108.995 60.2501 103.076C62.0795 108.995 67.5942 113.294 74.1132 113.294C82.1257 113.294 88.6211 106.799 88.6211 98.7862C88.6211 90.7737 82.1257 84.2783 74.1132 84.2783C73.6458 84.2783 73.1836 84.3004 72.7275 84.3436ZM61.5491 110.25C60.9718 109.25 59.5284 109.25 58.951 110.25L53.1436 120.309C52.5662 121.309 53.2879 122.559 54.4426 122.559H66.0575C67.2122 122.559 67.9339 121.309 67.3566 120.309L61.5491 110.25Z" fill="black"/>
<path d="M72.7275 84.3436L68.7599 82.2203L64.8027 89.6147L73.152 88.8236L72.7275 84.3436ZM47.1023 84.2956L46.884 88.7904L54.7831 89.1739L51.0778 82.1873L47.1023 84.2956ZM60.2501 103.076L64.5494 101.747L60.2501 87.8392L55.9508 101.747L60.2501 103.076ZM58.951 110.25L55.0539 108L58.951 110.25ZM61.5491 110.25L65.4462 108L61.5491 110.25ZM53.1436 120.309L57.0407 122.559L53.1436 120.309ZM67.3566 120.309L63.4595 122.559L67.3566 120.309ZM69.9356 77.5079C69.9356 79.2208 69.509 80.8207 68.7599 82.2203L76.6951 86.467C78.126 83.793 78.9356 80.7383 78.9356 77.5079H69.9356ZM59.9277 67.5C65.4549 67.5 69.9356 71.9807 69.9356 77.5079H78.9356C78.9356 67.0101 70.4255 58.5 59.9277 58.5V67.5ZM49.9198 77.5079C49.9198 71.9807 54.4005 67.5 59.9277 67.5V58.5C49.4299 58.5 40.9198 67.0101 40.9198 77.5079H49.9198ZM51.0778 82.1873C50.3397 80.7956 49.9198 79.2074 49.9198 77.5079H40.9198C40.9198 80.7129 41.7166 83.7451 43.1268 86.404L51.0778 82.1873ZM46.387 88.7783C46.554 88.7783 46.7197 88.7824 46.884 88.7904L47.3205 79.8009C47.0109 79.7859 46.6996 79.7783 46.387 79.7783V88.7783ZM36.3791 98.7862C36.3791 93.259 40.8598 88.7783 46.387 88.7783V79.7783C35.8892 79.7783 27.3791 88.2885 27.3791 98.7862H36.3791ZM46.387 108.794C40.8598 108.794 36.3791 104.313 36.3791 98.7862H27.3791C27.3791 109.284 35.8892 117.794 46.387 117.794V108.794ZM55.9508 101.747C54.6877 105.834 50.8772 108.794 46.387 108.794V117.794C54.9348 117.794 62.1537 112.155 64.5494 104.405L55.9508 101.747ZM74.1132 108.794C69.623 108.794 65.8125 105.834 64.5494 101.747L55.9508 104.405C58.3465 112.155 65.5654 117.794 74.1132 117.794V108.794ZM84.1211 98.7862C84.1211 104.313 79.6404 108.794 74.1132 108.794V117.794C84.611 117.794 93.1211 109.284 93.1211 98.7862H84.1211ZM74.1132 88.7783C79.6404 88.7783 84.1211 93.259 84.1211 98.7862H93.1211C93.1211 88.2885 84.611 79.7783 74.1132 79.7783V88.7783ZM73.152 88.8236C73.4672 88.7937 73.7878 88.7783 74.1132 88.7783V79.7783C73.5039 79.7783 72.9 79.8071 72.303 79.8637L73.152 88.8236ZM62.8481 112.5C61.6934 114.5 58.8067 114.5 57.652 112.5L65.4462 108C63.1368 104 57.3633 104 55.0539 108L62.8481 112.5ZM57.0407 122.559L62.8481 112.5L55.0539 108L49.2465 118.059L57.0407 122.559ZM54.4426 118.059C56.752 118.059 58.1954 120.559 57.0407 122.559L49.2465 118.059C46.9371 122.059 49.8238 127.059 54.4426 127.059V118.059ZM66.0575 118.059H54.4426V127.059H66.0575V118.059ZM63.4595 122.559C62.3048 120.559 63.7481 118.059 66.0575 118.059V127.059C70.6763 127.059 73.5631 122.059 71.2537 118.059L63.4595 122.559ZM57.652 112.5L63.4595 122.559L71.2537 118.059L65.4462 108L57.652 112.5Z" fill="white" mask="url(#path-9-outside-2_17_2724)"/>
</g>
</g>
<rect x="0.75" y="0.5" width="121" height="167.25" rx="10.5" stroke="#ADADAD"/>
<defs>
<clipPath id="clip0_17_2724">
<rect x="1.25" y="1" width="120" height="166.25" rx="10" fill="white"/>
</clipPath>
</defs>
</svg>
