<svg width="123" height="169" viewBox="0 0 123 169" fill="none" xmlns="http://www.w3.org/2000/svg">
<g clip-path="url(#clip0_17_2718)">
<rect x="1.75" y="1" width="120" height="166.25" rx="10" fill="white"/>
<mask id="mask0_17_2718" style="mask-type:alpha" maskUnits="userSpaceOnUse" x="1" y="1" width="121" height="167">
<rect x="1.75" y="1" width="120" height="166.25" fill="#D9D9D9"/>
</mask>
<g mask="url(#mask0_17_2718)">
<path d="M8.452 22V20.056L13.168 15.322C14.572 13.918 14.986 13.27 14.986 12.532C14.986 11.758 14.464 11.236 13.438 11.236C12.412 11.236 11.89 11.758 11.89 12.82V12.91H8.362C8.488 10.534 9.91 9.112 13.438 9.112C16.912 9.112 18.514 10.714 18.514 12.532C18.514 13.954 18.064 14.692 16.21 16.528C15.166 17.572 14.086 18.778 13.006 19.876H18.838V22H8.452Z" fill="#F50032"/>
<rect x="99.25" y="16" width="11.3137" height="11.3137" rx="0.471405" transform="rotate(-45 99.25 16)" fill="#F50032"/>
<rect x="31.5" y="93" width="42.4264" height="42.4264" rx="3" transform="rotate(-45 31.5 93)" fill="#F50032"/>
</g>
</g>
<rect x="1.25" y="0.5" width="121" height="167.25" rx="10.5" stroke="#ADADAD"/>
<defs>
<clipPath id="clip0_17_2718">
<rect x="1.75" y="1" width="120" height="166.25" rx="10" fill="white"/>
</clipPath>
</defs>
</svg>
