<svg width="122" height="169" viewBox="0 0 122 169" fill="none" xmlns="http://www.w3.org/2000/svg">
<g clip-path="url(#clip0_17_2722)">
<rect x="1" y="1" width="120" height="166.25" rx="10" fill="white"/>
<mask id="mask0_17_2722" style="mask-type:alpha" maskUnits="userSpaceOnUse" x="1" y="1" width="120" height="167">
<rect x="1" y="1" width="120" height="166.25" fill="#D9D9D9"/>
</mask>
<g mask="url(#mask0_17_2722)">
<path d="M15.496 22L11.536 16.33V22H8.116V9.4H11.536V14.494L15.802 9.4H19.582L14.668 15.106L19.798 22H15.496Z" fill="#F50032"/>
<rect x="98.5" y="16" width="11.3137" height="11.3137" rx="0.471405" transform="rotate(-45 98.5 16)" fill="#F50032"/>
<g clip-path="url(#clip1_17_2722)">
<mask id="mask1_17_2722" style="mask-type:alpha" maskUnits="userSpaceOnUse" x="6" y="31" width="109" height="130">
<rect x="6.75" y="31" width="108" height="130" rx="6" fill="white"/>
</mask>
<g mask="url(#mask1_17_2722)">
<path d="M113.75 127H6.75V157H113.75V127Z" fill="#FFCE57"/>
<path d="M113.75 156H6.75V160H113.75V156Z" fill="black"/>
<path d="M114.57 139.964H6.75V126.201H114.57V139.964ZM7.71375 139H113.606V127.194H7.71375V139Z" fill="#000003"/>
<path d="M47.9195 53.0761C47.8593 52.8953 47.8292 52.6845 47.9195 52.4436C48.1002 51.6304 47.7388 50.7269 47.6184 49.9439C47.6184 49.7632 47.6184 49.5825 47.6184 49.4018C47.528 49.2512 47.4979 49.1006 47.4678 48.8898C47.4377 48.1067 47.4075 47.3237 47.3774 46.5406C47.3774 46.2093 47.3774 45.878 47.3774 45.5468C47.257 47.7453 46.8654 52.0219 45.4198 54.2205C45.5704 53.9796 46.6847 52.0822 44.8175 51.9316C43.8236 51.8412 43.1008 52.5942 42.9502 53.4676C42.7695 54.7927 43.4622 55.7264 44.3657 56.0577C45.209 56.3889 46.6546 55.9372 47.6786 54.5518C47.6485 54.4012 47.6485 54.2205 47.6786 54.0398C47.769 53.7085 47.8292 53.4073 47.8894 53.0761H47.9195Z" fill="white"/>
<path d="M47.7094 54.0999C46.9264 55.3347 45.812 55.937 44.9989 55.937C44.8181 55.937 44.6374 55.937 44.4869 55.8467C43.764 55.5756 43.0412 54.7926 43.2219 53.4976C43.3123 52.835 43.8544 52.1724 44.6676 52.1724C44.6977 52.1724 44.7579 52.1724 44.788 52.1724C45.2097 52.2025 45.4506 52.323 45.5711 52.5338C45.812 52.9856 45.3904 53.8288 45.2097 54.0999C45.1193 54.2204 45.1494 54.371 45.2699 54.4312C45.3904 54.4914 45.541 54.4613 45.6012 54.371C46.6553 52.8049 47.1673 50.2449 47.4383 48.0765C47.4383 47.5645 47.4082 47.0525 47.3781 46.5104C47.3781 45.7876 47.4685 45.0647 47.348 44.372C47.3179 44.2215 47.3179 44.101 47.348 43.9805C47.348 43.9805 47.348 43.9504 47.348 43.9203C47.2576 43.9504 47.1974 44.0408 47.1974 44.1311C47.1974 44.1913 47.1974 49.0402 46.053 52.3531C46.053 52.3531 46.053 52.3531 46.053 52.323C45.8723 51.9315 45.4807 51.7206 44.8784 51.6905C43.8243 51.6002 42.9208 52.3832 42.7702 53.4373C42.5895 54.7324 43.1918 55.8467 44.3363 56.2985C44.5471 56.3587 44.7579 56.4189 45.029 56.4189C45.8421 56.4189 46.9565 55.937 47.86 54.8227C47.7395 54.6119 47.7094 54.371 47.7395 54.0999H47.7094Z" fill="#000003"/>
<path d="M59.816 52.9253C64.2131 57.1718 68.3391 52.8952 68.3391 52.8952C63.942 48.6487 59.816 52.9253 59.816 52.9253Z" fill="white"/>
<path d="M63.9725 55.0336C62.4365 55.0336 60.9909 54.371 59.6657 53.0759L59.485 52.8952L59.6356 52.7145C59.6356 52.7145 61.5932 50.7268 64.2134 50.7268C65.7494 50.7268 67.195 51.3894 68.5202 52.6844L68.7009 52.8651L68.5202 53.0458C68.5202 53.0458 66.5626 55.0336 63.9725 55.0336ZM60.1777 52.9254C61.3523 54.0096 62.6473 54.5517 63.9725 54.5517C65.9301 54.5517 67.4962 53.347 68.0082 52.8651C66.8336 51.7809 65.5386 51.2388 64.2436 51.2388C62.2859 51.2388 60.7199 52.4435 60.2079 52.9254H60.1777Z" fill="#000003"/>
<path d="M65.9299 52.8953C65.9299 53.9192 65.1168 54.7324 64.0928 54.7324C63.0688 54.7324 62.2556 53.9192 62.2255 52.8953C62.2255 51.8713 63.0387 51.0581 64.0627 51.0581C65.0867 51.0581 65.8998 51.8713 65.8998 52.8953H65.9299Z" fill="white"/>
<path d="M64.0926 55.0034C62.9481 55.0034 62.0145 54.0698 62.0145 52.9253C62.0145 51.7809 62.9481 50.8473 64.0926 50.8171C65.237 50.8171 66.1706 51.7508 66.1706 52.8952C66.1706 53.4675 65.9598 53.9794 65.5683 54.371C65.1768 54.7625 64.6648 54.9733 64.0926 55.0034ZM64.0926 51.299C63.2192 51.299 62.4963 52.0218 62.4963 52.8952C62.4963 53.7686 63.2192 54.4914 64.0926 54.4914C64.5142 54.4914 64.9358 54.3107 65.237 54.0096C65.5382 53.7084 65.6888 53.3169 65.6888 52.8651C65.6888 51.9917 64.966 51.2689 64.0926 51.2689V51.299Z" fill="#000003"/>
<path d="M64.9662 52.8952C64.9662 53.3771 64.5747 53.7686 64.0929 53.7686C63.611 53.7686 63.2194 53.3771 63.1893 52.8952C63.1893 52.4134 63.5809 52.0219 64.0627 52.0219C64.5446 52.0219 64.9361 52.4134 64.9361 52.8952H64.9662Z" fill="#000003"/>
<path d="M58.0393 64.641V65.6048C58.0393 65.6048 60.2379 65.3337 61.563 65.9059C61.563 65.9059 66.5926 67.8033 65.9601 64.129C65.9601 64.129 66.3215 66.5685 64.394 65.8457C62.4665 65.1229 60.9306 64.1893 58.0694 64.6109L58.0393 64.641Z" fill="#000003"/>
<path d="M56.9249 64.6409V65.6046C56.9249 65.6046 54.7263 65.3637 53.4313 65.9359C53.4313 65.9359 48.4318 67.8935 49.0342 64.2192C49.0342 64.2192 48.7029 66.6587 50.6304 65.9359C52.5579 65.2131 54.0638 64.2494 56.955 64.6409H56.9249Z" fill="#000003"/>
<path d="M55.118 67.2009C54.2145 67.2009 53.2809 66.9299 53.2206 66.9299L53.311 66.5685C53.311 66.5685 55.0879 67.0503 55.9011 66.7191C56.5938 66.4179 57.0154 66.5383 57.1961 66.6588C57.3768 66.5383 57.7985 66.448 58.4911 66.7191C59.3043 67.0503 61.0812 66.5383 61.0812 66.5383L61.1716 66.8998C61.1716 66.8998 59.2742 67.4419 58.3406 67.0503C57.5876 66.7492 57.3166 66.9901 57.3166 67.0202L57.1961 67.1407L57.0756 67.0202C57.0756 67.0202 56.8046 66.7793 56.0517 67.0805C55.7806 67.2009 55.4493 67.231 55.118 67.231V67.2009Z" fill="#000003"/>
<path d="M61.0509 67.0804L60.8099 66.4178L61.2617 66.2672L61.5026 66.8997L61.0509 67.0804Z" fill="#000003"/>
<path d="M53.2156 66.3169L52.9911 67.0356L53.3361 67.1434L53.5605 66.4246L53.2156 66.3169Z" fill="#000003"/>
<path d="M55.4492 68.1948C55.4492 68.1948 57.4068 69.279 59.3946 68.2551C59.3946 68.2551 57.437 71.3872 55.4492 68.1948Z" fill="#000003"/>
<path d="M47.4982 68.6465L47.4079 52.835L47.0464 49.0703V48.6487L47.197 43.7095L47.6789 43.7396L47.5283 48.6487V49.0703L47.8897 52.8049L47.9801 68.6164L47.4982 68.6465Z" fill="#000003"/>
<path d="M82.1164 39.5921L47.2712 39.7684L47.2935 44.1655L82.1386 43.9891L82.1164 39.5921Z" fill="white"/>
<path d="M47.0464 44.3721V39.4931L82.3438 39.3124V44.1914L47.0464 44.3721ZM47.4982 40.0051V43.9203L81.8619 43.7396V39.8244L47.4982 40.0051Z" fill="#000003"/>
<path d="M63.37 31.3614H63.0086L42.1374 31.4819C46.2333 33.8913 47.2573 39.7641 47.2573 39.7641L63.0387 39.6738H63.4001L82.1029 39.5834C82.1029 39.5834 83.0968 33.7106 87.1626 31.241L63.37 31.3614Z" fill="#FFCE57"/>
<path d="M47.0767 40.005V39.7942C47.0767 39.7942 45.9623 34.0117 42.017 31.6927L41.264 31.2409L88.0059 31L87.253 31.4518C83.3377 33.831 82.3439 39.5533 82.3138 39.6135V39.8243L47.0465 40.005H47.0767ZM42.9205 31.7228C46.143 34.1021 47.2574 38.5293 47.4682 39.5232L81.9222 39.3425C82.1331 38.3486 83.157 33.9214 86.3796 31.4819L42.9506 31.6927L42.9205 31.7228Z" fill="#000003"/>
<path d="M114.268 127.014L7.23138 127.556V90.3611L43.9442 75.1218C43.9442 75.1218 50.1183 78.6455 58.0692 71.7788C58.0692 71.7788 63.7011 77.3806 70.5678 75.6037C70.5678 75.6037 74.9951 74.6701 75.5974 71.0259C75.5974 71.0259 78.1273 73.5858 81.1691 72.7727C81.1691 72.7727 81.7413 72.6823 82.4039 72.351C82.4039 72.351 83.6989 72.351 84.8133 71.7186L114.117 90.6623" fill="#FFCE57"/>
<path d="M6.75 128.038V90.0297L43.9748 74.5796L44.1857 74.7001C44.4266 74.8205 50.179 77.9527 57.7384 71.3872L58.0697 71.086L58.401 71.4173C58.401 71.4173 63.9124 76.7782 70.4177 75.0916C70.478 75.0916 74.5438 74.158 75.0859 70.9053L75.2365 69.9717L75.8991 70.6343C75.8991 70.6343 78.2783 72.9834 81.019 72.2305H81.0792C81.0792 72.2305 81.5912 72.1401 82.1333 71.8691L82.2538 71.8088H82.3743C82.3743 71.8088 83.5789 71.8088 84.5427 71.2366L84.8137 71.086L114.359 90.1803L113.847 90.9935L84.7836 72.2305C83.85 72.6822 82.8561 72.7726 82.5248 72.8027C81.9225 73.0737 81.4105 73.1942 81.29 73.1942C78.9108 73.8267 76.8929 72.622 75.8991 71.8691C74.8148 75.1518 70.8695 76.0252 70.6888 76.0554C64.5449 77.6516 59.425 73.6159 58.0998 72.4112C50.9018 78.4346 45.1795 76.2361 43.9748 75.6638L7.71375 90.6622V127.044L114.268 126.502V127.465L6.75 128.038Z" fill="#000003"/>
<path d="M43.6435 89.1864H18.8269V89.9092H43.6435V89.1864Z" fill="#000003"/>
<path d="M45.9023 92.2886H21.0858V93.0114H45.9023V92.2886Z" fill="#000003"/>
<path d="M48.1908 95.3604H22.1394V96.0832H48.1908V95.3604Z" fill="#000003"/>
<path d="M50.4502 98.4324H24.0676V99.1552H50.4502V98.4324Z" fill="#000003"/>
<path d="M116.25 140V139.5H115.75H3.75H3.25V140V145V145.5H3.75H115.75H116.25V145V140Z" fill="#F50032" stroke="black"/>
<path d="M116.25 151V150.5H115.75H3.75H3.25V151V156V156.5H3.75H115.75H116.25V156V151Z" fill="white" stroke="black"/>
<path d="M9.69563 151.5L8.25 153.458L9.72574 155.415L11.1413 153.458L9.69563 151.5Z" fill="#000003"/>
<path d="M12.6956 151.5L11.25 153.458L12.7257 155.415L14.1413 153.458L12.6956 151.5Z" fill="#000003"/>
<path d="M15.6956 151.5L14.25 153.458L15.7257 155.415L17.1413 153.458L15.6956 151.5Z" fill="#000003"/>
<path d="M18.6956 151.5L17.25 153.458L18.7257 155.415L20.1413 153.458L18.6956 151.5Z" fill="#000003"/>
<path d="M21.6956 151.5L20.25 153.458L21.7257 155.415L23.1413 153.458L21.6956 151.5Z" fill="#000003"/>
<path d="M24.6956 151.5L23.25 153.458L24.7257 155.415L26.1413 153.458L24.6956 151.5Z" fill="#000003"/>
<path d="M27.6956 151.5L26.25 153.458L27.7257 155.415L29.1413 153.458L27.6956 151.5Z" fill="#000003"/>
<path d="M30.6956 151.5L29.25 153.458L30.7257 155.415L32.1413 153.458L30.6956 151.5Z" fill="#000003"/>
<path d="M33.6956 151.5L32.25 153.458L33.7257 155.415L35.1413 153.458L33.6956 151.5Z" fill="#000003"/>
<path d="M36.6956 151.5L35.25 153.458L36.7257 155.415L38.1413 153.458L36.6956 151.5Z" fill="#000003"/>
<path d="M39.6956 151.5L38.25 153.458L39.7257 155.415L41.1413 153.458L39.6956 151.5Z" fill="#000003"/>
<path d="M42.6956 151.5L41.25 153.458L42.7257 155.415L44.1413 153.458L42.6956 151.5Z" fill="#000003"/>
<path d="M45.6956 151.5L44.25 153.458L45.7257 155.415L47.1413 153.458L45.6956 151.5Z" fill="#000003"/>
<path d="M48.6956 151.5L47.25 153.458L48.7257 155.415L50.1413 153.458L48.6956 151.5Z" fill="#000003"/>
<path d="M51.6956 151.5L50.25 153.458L51.7257 155.415L53.1413 153.458L51.6956 151.5Z" fill="#000003"/>
<path d="M54.6956 151.5L53.25 153.458L54.7257 155.415L56.1413 153.458L54.6956 151.5Z" fill="#000003"/>
<path d="M57.6956 151.5L56.25 153.458L57.7257 155.415L59.1413 153.458L57.6956 151.5Z" fill="#000003"/>
<path d="M60.6956 151.5L59.25 153.458L60.7257 155.415L62.1413 153.458L60.6956 151.5Z" fill="#000003"/>
<path d="M63.6956 151.5L62.25 153.458L63.7257 155.415L65.1413 153.458L63.6956 151.5Z" fill="#000003"/>
<path d="M66.6956 151.5L65.25 153.458L66.7257 155.415L68.1413 153.458L66.6956 151.5Z" fill="#000003"/>
<path d="M69.6956 151.5L68.25 153.458L69.7257 155.415L71.1413 153.458L69.6956 151.5Z" fill="#000003"/>
<path d="M72.6956 151.5L71.25 153.458L72.7257 155.415L74.1413 153.458L72.6956 151.5Z" fill="#000003"/>
<path d="M75.6956 151.5L74.25 153.458L75.7257 155.415L77.1413 153.458L75.6956 151.5Z" fill="#000003"/>
<path d="M78.6956 151.5L77.25 153.458L78.7257 155.415L80.1413 153.458L78.6956 151.5Z" fill="#000003"/>
<path d="M81.6956 151.5L80.25 153.458L81.7257 155.415L83.1413 153.458L81.6956 151.5Z" fill="#000003"/>
<path d="M84.6956 151.5L83.25 153.458L84.7257 155.415L86.1413 153.458L84.6956 151.5Z" fill="#000003"/>
<path d="M87.6956 151.5L86.25 153.458L87.7257 155.415L89.1413 153.458L87.6956 151.5Z" fill="#000003"/>
<path d="M90.6956 151.5L89.25 153.458L90.7257 155.415L92.1413 153.458L90.6956 151.5Z" fill="#000003"/>
<path d="M93.6956 151.5L92.25 153.458L93.7257 155.415L95.1413 153.458L93.6956 151.5Z" fill="#000003"/>
<path d="M96.6956 151.5L95.25 153.458L96.7257 155.415L98.1413 153.458L96.6956 151.5Z" fill="#000003"/>
<path d="M99.6956 151.5L98.25 153.458L99.7257 155.415L101.141 153.458L99.6956 151.5Z" fill="#000003"/>
<path d="M102.696 151.5L101.25 153.458L102.726 155.415L104.141 153.458L102.696 151.5Z" fill="#000003"/>
<path d="M105.696 151.5L104.25 153.458L105.726 155.415L107.141 153.458L105.696 151.5Z" fill="#000003"/>
<path d="M108.696 151.5L107.25 153.458L108.726 155.415L110.141 153.458L108.696 151.5Z" fill="#000003"/>
<path d="M111.696 151.5L110.25 153.458L111.726 155.415L113.141 153.458L111.696 151.5Z" fill="#000003"/>
<path d="M52.6781 101.535H24.4884V102.257H52.6781V101.535Z" fill="#000003"/>
<path d="M54.9674 104.606H26.3862V105.329H54.9674V104.606Z" fill="#000003"/>
<path d="M57.2263 107.678H27.862V108.401H57.2263V107.678Z" fill="#000003"/>
<path d="M54.3041 110.781H29.4875V111.503H54.3041V110.781Z" fill="#000003"/>
<path d="M84.7533 71.6583L114.057 90.6021V127.014L63.0388 127.255L38.403 77.4107L43.9445 75.1218C43.9445 75.1218 50.1185 78.6455 58.0695 71.7788C58.0695 71.7788 63.7014 77.3806 70.5681 75.6037C70.5681 75.6037 74.9953 74.6701 75.5977 71.0259C75.5977 71.0259 78.1275 73.5858 81.1694 72.7727C81.1694 72.7727 81.7416 72.6823 82.4042 72.351C82.4042 72.351 83.6992 72.351 84.8135 71.7186L84.7533 71.6583Z" fill="#000003"/>
<path d="M88.5781 84.5785H46.5947V94.0654H88.5781V84.5785Z" fill="#FFCE57"/>
<path d="M88.0958 85.0604V93.5836H47.0762V85.0604H88.0958ZM89.0897 84.0665H46.1124V94.5473H89.0897V84.0665Z" fill="#000003"/>
<path d="M88.4278 87.1987H46.7758V91.4151H88.4278V87.1987Z" fill="#F50032"/>
<path d="M88.0963 87.53V91.114H47.0767V87.53H88.0963ZM88.7287 86.8976H46.4442V91.7464H88.7287V86.8976Z" fill="#000003"/>
<path d="M88.0659 97.0168H51.3831V106.534H88.0659V97.0168Z" fill="#FFCE57"/>
<path d="M87.584 97.4989V106.022H51.8651V97.4989H87.584ZM88.5478 96.5352H50.9013V107.016H88.5478V96.5352Z" fill="#000003"/>
<path d="M87.9153 99.6671H51.5638V103.884H87.9153V99.6671Z" fill="#F50032"/>
<path d="M87.5846 99.9684V103.552H51.8656V99.9684H87.5846ZM88.2171 99.3359H51.2332V104.185H88.2171V99.3359Z" fill="#000003"/>
<path d="M61.473 118.972L61.3225 118.701C61.3225 118.701 61.3225 118.671 61.2923 118.641C60.6298 117.858 60.1479 116.955 59.6961 116.111L59.4552 115.66L59.666 115.388C60.5695 114.304 59.0336 112.106 58.2204 110.931C58.0999 110.781 58.0096 110.63 57.9192 110.509C57.859 110.419 57.7987 110.359 57.7385 110.299L56.3832 109.395H87.5846V118.882H61.5032L61.473 118.972Z" fill="#FFCE57"/>
<path d="M87.0722 109.967V118.49H61.7437C61.7437 118.49 61.6834 118.4 61.6533 118.37C60.9908 117.557 60.5089 116.653 60.027 115.78C61.2919 114.244 59.1235 111.503 58.3103 110.298C58.22 110.148 58.0995 110.058 57.979 109.967H87.0421M88.036 109.003H54.7264L57.4369 110.81C57.4369 110.81 57.4369 110.81 57.4972 110.871C57.5875 110.991 57.6779 111.142 57.7983 111.292C58.4308 112.226 59.9367 114.364 59.2741 115.177L58.8524 115.689L59.1837 116.262L59.2741 116.412C59.756 117.256 60.2378 118.159 60.9004 118.972V119.032L61.2016 119.484H88.036V109.003Z" fill="#000003"/>
<path d="M59.9667 116.352L59.6354 115.75L59.7558 115.569C60.2678 114.937 60.1474 113.973 59.3944 112.588L59.1535 112.106H87.3432V116.322H59.9366L59.9667 116.352Z" fill="#F50032"/>
<path d="M87.0725 112.437V116.021H60.1778C60.1778 116.021 60.0875 115.84 60.0574 115.78C60.7802 114.906 60.3585 113.611 59.7261 112.437H87.0725ZM87.7049 111.804H58.6418L59.1538 112.738C59.8164 113.973 59.967 114.846 59.5454 115.358L59.2743 115.689L59.4851 116.081L59.5454 116.201L59.6357 116.322L59.8164 116.653H87.735V111.804H87.7049Z" fill="#000003"/>
<path d="M84.2714 72.8629L84.5425 126.351L114.087 126.2V90.3007L84.7834 72.2906L84.2714 72.8629Z" fill="#FFCE57"/>
<path d="M84.0601 126.833L83.7891 72.6822L84.6625 71.6582L114.569 90.0297V126.682L84.0601 126.833ZM84.7528 73.0436L85.0239 125.839L113.605 125.688V90.5417L84.8733 72.893L84.7528 73.0135V73.0436Z" fill="#000003"/>
<path d="M18.1342 86.0542L37.6201 127.405L15.755 127.495L12.0807 92.439L18.1342 86.0542Z" fill="#000003"/>
<path d="M7.71332 90.6622L18.2242 86.2952C16.7786 88.2528 14.8511 91.897 15.1824 97.2277L15.2426 126.983H7.71332V90.632V90.6622Z" fill="#FFCE57"/>
<path d="M16.9291 87.3794C15.6642 89.5479 14.3993 92.8608 14.7004 97.2579L14.7607 126.532H8.19513V90.9935L16.9291 87.3794ZM19.971 85.0604L7.23138 90.3611V127.556H15.7545L15.6943 97.2278C15.1823 89.2467 20.0011 85.0604 20.0011 85.0604H19.971Z" fill="#000003"/>
<path d="M32.3794 126.923C31.9276 126.923 31.5361 126.321 31.5361 125.598L31.4759 116.804C31.4759 116.412 31.5964 116.051 31.7771 115.81C31.8674 115.69 32.0481 115.479 32.3192 115.479L51.2629 115.388C53.7927 120.689 56.7442 124.514 60.0571 126.773L32.3493 126.923H32.3794Z" fill="#FFCE57"/>
<path d="M50.9616 115.9C53.1601 120.478 55.7201 123.972 58.5812 126.291L32.4094 126.411C32.4094 126.411 32.0781 126.11 32.0781 125.598L32.0179 116.804C32.0179 116.292 32.2588 115.991 32.3492 115.991L50.9616 115.9ZM51.594 114.876L32.319 114.967C31.5661 114.967 30.9638 115.81 30.9939 116.804L31.0541 125.598C31.0541 126.622 31.6565 127.435 32.4094 127.435L61.9242 127.285C57.3464 124.966 54.0034 120.027 51.594 114.876Z" fill="#000003"/>
<path d="M35.7523 118.792L47.9497 118.732C48.8834 120.478 49.9073 122.165 51.2024 123.52L35.7824 123.58V118.792H35.7523Z" fill="#FFCE57"/>
<path d="M47.2275 119.936C47.6793 120.749 48.1611 121.532 48.6731 122.285L36.9876 122.345V119.996L47.2275 119.936ZM48.6731 117.497L35.4216 117.557C34.9397 117.557 34.5482 118.039 34.5482 118.611V123.731C34.5482 124.303 34.9698 124.785 35.4517 124.785L54.9074 124.695C51.8957 123.339 50.2392 120.478 48.6731 117.497Z" fill="#000003"/>
<path d="M97.1918 79.9404L88.8494 74.7904V126.05H97.1918V79.9404Z" fill="#FFCE57"/>
<path d="M97.6729 126.562H88.3366V73.9171L97.6729 79.6394V126.532V126.562ZM89.3305 125.568H96.7092V80.2116L89.3305 75.694V125.598V125.568Z" fill="#000003"/>
<path d="M111.437 88.7045L103.095 83.5544V126.05H111.437V88.7045Z" fill="#FFCE57"/>
<path d="M111.949 126.562H102.612V82.7112L111.949 88.4334V126.562ZM103.576 125.568H110.955V88.9756L103.576 84.458V125.598V125.568Z" fill="#000003"/>
<path d="M107.117 130.514L101.244 130.541L101.3 142.438L107.173 142.41L107.117 130.514Z" fill="#FFCE57"/>
<path d="M106.889 130.778L106.949 142.193H101.558L101.498 130.809H106.889M107.371 130.297H101.016L101.076 142.705H107.431L107.371 130.297Z" fill="#000003"/>
<path d="M99.8718 127.977V128.218L107.371 128.188V127.947L99.8718 127.977Z" fill="black"/>
<path d="M110.481 127.932L97.2 127.999L97.2118 130.348L110.493 130.281L110.481 127.932Z" fill="#000003"/>
<path d="M100.745 131.11C100.745 131.11 100.655 130.628 101.649 130.357C101.649 130.357 108.907 129.273 109.6 131.08C109.6 131.08 110.172 132.224 105.173 132.194C105.173 132.194 101.077 132.194 100.745 131.14V131.11Z" fill="white"/>
<path d="M105.504 132.435H105.203C104.179 132.435 100.866 132.344 100.505 131.17C100.505 131.079 100.384 130.387 101.589 130.055C101.649 130.055 103.818 129.724 105.896 129.724C108.275 129.724 109.57 130.116 109.871 130.929C109.931 131.019 109.961 131.26 109.811 131.471C109.419 132.103 108.004 132.405 105.504 132.405V132.435ZM101.017 131.049C101.258 131.591 103.306 131.893 105.173 131.893H105.504C108.576 131.893 109.208 131.411 109.329 131.26C109.359 131.2 109.359 131.17 109.359 131.17C109.148 130.628 107.883 130.296 105.896 130.296C103.908 130.296 101.739 130.598 101.709 130.598C101.197 130.748 101.047 130.959 101.047 131.049H101.017Z" fill="#000003"/>
<path d="M100.896 133.248C100.896 133.248 100.806 132.766 101.8 132.495C101.8 132.495 109.058 131.441 109.751 133.218C109.751 133.218 110.323 134.362 105.323 134.332C105.323 134.332 101.227 134.332 100.896 133.278V133.248Z" fill="white"/>
<path d="M105.654 134.573H105.353C104.329 134.573 101.016 134.483 100.655 133.338C100.655 133.248 100.534 132.555 101.739 132.224C101.799 132.224 103.967 131.893 106.046 131.893C108.395 131.893 109.72 132.284 110.021 133.097C110.081 133.188 110.111 133.429 109.961 133.639C109.569 134.272 108.154 134.573 105.654 134.573ZM101.167 133.188C101.408 133.73 103.455 134.031 105.323 134.031H105.654C108.726 134.031 109.358 133.549 109.479 133.398C109.539 133.338 109.539 133.308 109.539 133.308C109.419 132.977 108.786 132.465 106.076 132.465C104.028 132.465 101.92 132.766 101.889 132.766C101.377 132.917 101.227 133.127 101.227 133.188H101.167Z" fill="#000003"/>
<path d="M101.046 135.386C101.046 135.386 100.926 134.904 101.95 134.633C101.95 134.633 109.208 133.549 109.9 135.356C109.9 135.356 110.473 136.501 105.473 136.47C105.473 136.47 101.377 136.47 101.046 135.416V135.386Z" fill="white"/>
<path d="M105.775 136.711H105.473C104.449 136.711 101.137 136.621 100.775 135.477C100.775 135.386 100.655 134.693 101.859 134.362C101.92 134.362 104.088 134.031 106.166 134.031C108.545 134.031 109.84 134.422 110.142 135.236C110.202 135.326 110.232 135.567 110.081 135.778C109.69 136.41 108.274 136.711 105.744 136.711H105.775ZM101.317 135.326C101.558 135.838 103.606 136.169 105.473 136.169H105.775C108.847 136.169 109.479 135.687 109.63 135.537C109.66 135.477 109.66 135.446 109.66 135.446C109.539 135.115 108.907 134.573 106.196 134.573C104.178 134.573 102.04 134.874 102.01 134.904C101.498 135.055 101.347 135.236 101.347 135.326H101.317Z" fill="#000003"/>
<path d="M101.799 131.441C101.799 131.441 101.619 130.959 101.799 130.748C101.799 130.748 102.552 130.327 102.884 130.748C102.884 130.748 103.275 131.2 102.884 131.652C102.884 131.652 102.643 131.832 101.799 131.441Z" fill="white"/>
<path d="M102.673 131.802C102.432 131.802 102.131 131.712 101.739 131.561H101.679V131.501C101.679 131.441 101.468 130.929 101.679 130.658H101.709C101.709 130.658 102.07 130.417 102.432 130.417C102.643 130.417 102.823 130.507 102.944 130.658C103.094 130.839 103.305 131.32 102.944 131.712C102.884 131.742 102.823 131.802 102.643 131.802H102.673ZM101.92 131.351C102.522 131.622 102.763 131.561 102.823 131.561C103.125 131.23 102.823 130.869 102.823 130.839C102.733 130.748 102.643 130.688 102.492 130.688C102.251 130.688 101.98 130.808 101.92 130.869C101.83 130.989 101.92 131.23 101.92 131.381V131.351Z" fill="#000003"/>
<path d="M101.83 133.579C101.83 133.579 101.649 133.097 101.83 132.886C101.83 132.886 102.582 132.465 102.914 132.886C102.914 132.886 103.305 133.338 102.914 133.79C102.914 133.79 102.673 133.971 101.83 133.579Z" fill="white"/>
<path d="M102.703 133.941C102.462 133.941 102.161 133.85 101.769 133.67H101.709V133.609C101.709 133.549 101.498 133.037 101.709 132.796H101.739C101.739 132.796 102.101 132.555 102.462 132.555C102.673 132.555 102.854 132.646 102.974 132.796C103.125 132.977 103.335 133.459 102.974 133.88C102.914 133.91 102.854 133.971 102.673 133.971L102.703 133.941ZM101.92 133.489C102.522 133.76 102.763 133.7 102.824 133.7C103.125 133.338 102.824 133.007 102.824 132.977C102.733 132.886 102.643 132.826 102.492 132.826C102.251 132.826 101.98 132.947 101.92 132.977C101.83 133.097 101.92 133.338 101.92 133.489Z" fill="#000003"/>
<path d="M101.98 135.537C101.98 135.537 101.8 135.055 101.98 134.844C101.98 134.844 102.733 134.422 103.065 134.844C103.065 134.844 103.456 135.296 103.065 135.748C103.065 135.748 102.824 135.928 101.98 135.537Z" fill="white"/>
<path d="M102.854 135.898C102.613 135.898 102.312 135.808 101.92 135.657H101.86V135.597C101.86 135.537 101.649 135.025 101.86 134.784C101.86 134.784 102.221 134.543 102.583 134.543C102.793 134.543 102.974 134.633 103.095 134.784C103.245 134.965 103.456 135.446 103.095 135.838C103.034 135.868 102.974 135.928 102.793 135.928L102.854 135.898ZM102.101 135.446C102.703 135.718 102.944 135.657 103.004 135.627C103.275 135.296 103.004 134.935 103.004 134.904C102.914 134.814 102.824 134.754 102.673 134.754C102.432 134.754 102.161 134.874 102.101 134.934C102.01 135.055 102.101 135.296 102.101 135.446Z" fill="#000003"/>
<path d="M108.485 138.308C106.739 138.94 103.305 138.127 103.305 138.127C101.89 137.193 103.215 136.47 103.215 136.47C103.215 136.47 109.509 136.079 110.142 137.404C110.142 137.404 110.865 139.121 107.13 139.753L106.95 138.699L108.455 138.308H108.485Z" fill="white"/>
<path d="M106.92 140.084L106.709 138.819C105.052 138.819 103.336 138.398 103.245 138.398H103.155C102.613 138.006 102.372 137.645 102.372 137.223C102.372 136.621 103.004 136.26 103.065 136.229H103.125L103.185 136.199C103.185 136.199 104.059 136.139 105.203 136.139C109.841 136.139 110.233 137.012 110.383 137.283C110.383 137.314 110.624 137.826 110.293 138.458C109.871 139.211 108.817 139.753 107.161 140.024L106.89 140.084H106.92ZM107.281 138.88L107.371 139.422C108.998 139.091 109.6 138.579 109.811 138.187C110.022 137.826 109.901 137.494 109.901 137.494C109.811 137.314 109.209 136.651 105.233 136.651C104.299 136.651 103.547 136.681 103.336 136.711C103.215 136.802 102.974 137.012 102.944 137.223C102.944 137.464 103.185 137.675 103.426 137.856C103.727 137.916 105.293 138.247 106.739 138.247C107.161 138.247 107.522 138.247 107.853 138.157L108.426 138.006L108.576 138.548C108.395 138.609 108.185 138.669 107.944 138.729L107.311 138.88H107.281Z" fill="#000003"/>
<path d="M103.396 137.555C103.396 137.555 103.215 137.073 103.396 136.862C103.396 136.862 104.149 136.44 104.48 136.862C104.48 136.862 104.871 137.314 104.48 137.765C104.48 137.765 104.239 137.946 103.396 137.555Z" fill="white"/>
<path d="M104.269 137.946C104.028 137.946 103.727 137.856 103.335 137.675H103.305V137.615C103.305 137.555 103.094 137.043 103.305 136.802C103.305 136.802 103.667 136.561 104.028 136.561C104.239 136.561 104.42 136.651 104.54 136.802C104.691 136.982 104.901 137.434 104.54 137.856C104.51 137.886 104.42 137.946 104.239 137.946H104.269ZM103.516 137.464C104.118 137.735 104.359 137.675 104.42 137.645C104.691 137.314 104.42 136.952 104.42 136.922C104.359 136.832 104.239 136.771 104.088 136.771C103.847 136.771 103.576 136.892 103.516 136.922C103.426 137.043 103.516 137.283 103.516 137.434V137.464Z" fill="#000003"/>
<path d="M108.907 141.62C108.907 142.584 106.859 143.367 104.329 143.367C101.799 143.367 99.7513 142.614 99.7513 141.65C99.7513 140.687 101.799 139.904 104.329 139.904C106.859 139.904 108.907 140.657 108.907 141.62Z" fill="#FFCE57"/>
<path d="M104.299 143.578C101.619 143.578 99.5709 142.765 99.5709 141.681C99.5709 140.597 101.619 139.753 104.329 139.723H104.39C107.07 139.723 109.088 140.536 109.088 141.621C109.088 141.892 108.967 142.133 108.757 142.373C108.034 143.096 106.317 143.578 104.329 143.578H104.269H104.299ZM104.39 140.115H104.329C101.769 140.115 99.9624 140.958 99.9624 141.681C99.9624 142.404 101.709 143.187 104.299 143.187H104.36C106.197 143.187 107.883 142.735 108.516 142.102C108.666 141.952 108.757 141.801 108.757 141.621C108.757 140.898 107.01 140.115 104.45 140.115H104.39Z" fill="#000003"/>
<path d="M108.997 142.403C108.997 143.367 106.919 144.15 104.329 144.15C101.739 144.15 99.6609 143.397 99.6307 142.434C99.6307 141.47 101.709 140.687 104.299 140.687C106.889 140.687 108.967 141.44 108.997 142.403Z" fill="#FFCE57"/>
<path d="M104.27 144.361C101.529 144.361 99.4509 143.548 99.4509 142.464C99.4509 141.259 101.921 140.506 104.33 140.506H104.39C107.131 140.506 109.209 141.319 109.209 142.403C109.209 143.518 107.101 144.331 104.33 144.361H104.27ZM104.39 140.898H104.33C101.68 140.898 99.8424 141.711 99.8424 142.434C99.8424 143.156 101.619 143.939 104.27 143.939H104.33C106.98 143.939 108.787 143.126 108.787 142.403C108.787 141.681 106.95 140.898 104.36 140.898H104.39Z" fill="#000003"/>
<path d="M101.077 139.422C101.077 139.422 98.7276 139.181 98.7577 137.254C98.7577 137.254 95.6857 132.977 98.9083 131.11C102.131 129.272 103.637 131.652 104.631 134.272C104.631 134.272 103.456 135.958 100.896 132.615" fill="white"/>
<path d="M101.047 139.663C100.173 139.572 98.5169 138.97 98.5169 137.344C98.2459 136.922 96.8605 134.784 97.2821 132.917C97.4628 132.073 97.9748 131.411 98.788 130.929C99.9626 130.266 101.017 130.086 101.92 130.417C103.426 130.959 104.269 132.736 104.842 134.212L104.902 134.332L104.842 134.422C104.842 134.422 104.48 134.934 103.757 134.965C102.854 134.965 101.83 134.242 100.685 132.766L101.077 132.465C102.372 134.151 103.245 134.483 103.727 134.483C104.028 134.483 104.239 134.332 104.33 134.242C103.787 132.886 103.004 131.32 101.739 130.869C100.956 130.598 100.053 130.748 98.9988 131.35C98.3061 131.742 97.8544 132.314 97.7038 133.007C97.3122 134.844 98.9085 137.103 98.9085 137.133L98.9687 137.193V137.284C98.9085 138.94 100.956 139.181 101.047 139.211L100.987 139.693L101.047 139.663Z" fill="#000003"/>
<path d="M103.757 132.405L103.004 133.007C103.004 133.007 103.215 134.151 104.209 133.609L103.757 132.405Z" fill="white"/>
<path d="M103.727 133.911C103.064 133.911 102.884 133.097 102.884 133.037V132.977L103.817 132.194L104.39 133.67L104.299 133.73C104.119 133.85 103.908 133.911 103.757 133.911H103.727ZM103.155 133.067C103.215 133.248 103.366 133.639 103.727 133.639C103.727 133.639 103.938 133.639 104.058 133.549L103.697 132.615L103.155 133.067Z" fill="#000003"/>
<path d="M77.4647 129.875C77.0431 130.869 76.8323 131.983 76.8323 133.127C76.8323 137.826 80.6873 141.62 85.3856 141.62C90.0838 141.62 93.8786 137.765 93.8485 133.067C93.8485 131.381 93.3365 129.815 92.4932 128.52L85.235 115.268L77.4346 129.905L77.4647 129.875Z" fill="#F50032"/>
<path d="M85.2646 114.334L92.9143 128.278C93.8178 129.694 94.2997 131.35 94.3298 133.067C94.3298 138.006 90.3544 142.042 85.4151 142.072C80.4759 142.072 76.4402 138.097 76.4101 133.157C76.4101 131.983 76.6209 130.808 77.0727 129.724L85.2646 114.334ZM85.385 141.199C89.8424 141.199 93.4564 137.524 93.4263 133.067C93.4263 131.531 92.9746 130.025 92.1614 128.73L85.2947 116.141L77.8858 130.055C77.4943 131.019 77.2835 132.073 77.2835 133.127C77.2835 137.585 80.9578 141.199 85.4151 141.169L85.385 141.199Z" fill="#000003"/>
<path d="M77.4647 129.875C77.0431 130.869 76.8323 131.983 76.8323 133.127C76.8323 137.826 80.6873 141.62 85.3856 141.62C90.0838 141.62 93.8786 137.765 93.8485 133.067C93.8485 131.381 93.3365 129.815 92.4932 128.519C92.4932 128.519 92.3426 136.711 85.3554 136.922C85.3554 136.922 77.6454 136.952 78.4586 127.947L77.4346 129.875H77.4647Z" fill="white"/>
<path d="M79.1207 125.839L78.9099 127.977C78.6389 130.748 79.2111 132.917 80.5664 134.392C82.4637 136.47 85.3249 136.47 85.355 136.47C91.8603 136.26 92.0711 128.79 92.0711 128.489V127.074L92.8843 128.278C93.7878 129.724 94.2697 131.35 94.2998 133.067C94.2998 138.006 90.3243 142.042 85.3851 142.072C80.4459 142.072 76.4102 138.097 76.3801 133.157C76.3801 131.983 76.5909 130.808 77.0426 129.724L79.0906 125.839H79.1207ZM85.3851 137.344C85.2345 137.344 82.0722 137.344 79.9339 134.965C78.7292 133.669 78.0967 131.923 78.0064 129.754L77.8558 130.025C77.4643 130.989 77.2535 132.043 77.2535 133.097C77.2535 137.555 80.9278 141.169 85.3851 141.139C89.8424 141.139 93.4565 137.464 93.4264 133.007C93.4264 131.923 93.2156 130.869 92.7939 129.875C92.3723 132.344 90.8363 137.133 85.3851 137.284V137.344Z" fill="#000003"/>
<path d="M80.4461 124.303C80.2051 124.936 80.0546 125.598 80.0546 126.321C80.0546 129.242 82.4338 131.592 85.3552 131.561C88.2464 131.561 90.6257 129.182 90.5956 126.261C90.5956 125.237 90.2944 124.243 89.7523 123.43L85.2648 115.238L80.4461 124.303Z" fill="#FFCE57"/>
<path d="M85.2653 114.545L90.0539 123.279C90.6261 124.183 90.9273 125.207 90.9273 126.261C90.9273 129.363 88.4577 131.863 85.3556 131.893C82.2535 131.893 79.7538 129.423 79.7237 126.321C79.7237 125.568 79.8442 124.845 80.1453 124.183L85.2653 114.545ZM85.3556 131.26C88.0662 131.26 90.2948 129.001 90.2647 126.291C90.2647 125.357 89.9937 124.424 89.4817 123.641L85.2653 115.931L80.7176 124.454C80.4766 125.056 80.3562 125.689 80.3562 126.321C80.3562 129.062 82.5848 131.26 85.3255 131.26H85.3556Z" fill="#000003"/>
<path d="M82.2536 124.634C82.103 125.026 82.0127 125.448 82.0127 125.899C82.0127 127.736 83.5186 129.212 85.3557 129.182C87.1929 129.182 88.6686 127.676 88.6385 125.869C88.6385 125.207 88.4578 124.604 88.1265 124.092L85.2955 118.942L82.2536 124.634Z" fill="#F50032"/>
<path d="M85.2954 118.491L88.3071 123.972C88.6685 124.514 88.8492 125.177 88.8492 125.839C88.8492 127.767 87.2831 129.363 85.3556 129.363C83.4281 129.363 81.8319 127.797 81.8319 125.869C81.8319 125.418 81.9223 124.936 82.103 124.514L85.3255 118.46L85.2954 118.491ZM85.3556 128.971C87.0723 128.971 88.4577 127.556 88.4577 125.839C88.4577 125.237 88.277 124.665 87.9758 124.183L85.3255 119.364L82.4644 124.725C82.3138 125.086 82.2535 125.478 82.2535 125.899C82.2535 127.616 83.6691 129.001 85.3857 129.001L85.3556 128.971Z" fill="#000003"/>
<path d="M85.2649 114.485L91.5293 125.96C92.2822 127.134 92.6737 128.489 92.6737 129.875C92.6737 133.941 89.4211 137.253 85.3552 137.253C81.2894 137.253 77.9765 134.001 77.9464 129.935C77.9464 128.971 78.1271 128.007 78.4885 127.134L85.2047 114.485H85.2649ZM85.3552 136.561C89.0295 136.561 91.981 133.549 91.981 129.875C91.981 128.61 91.6196 127.375 90.9269 126.321L85.2649 115.991L79.1812 127.435C78.8499 128.248 78.6993 129.092 78.6993 129.965C78.6993 133.639 81.7111 136.591 85.3552 136.591V136.561Z" fill="#000003"/>
<path d="M92.2222 131.471L91.7102 132.525L92.5234 137.675C92.7342 137.344 92.9149 137.012 93.0956 136.651L92.2222 131.441V131.471Z" fill="#000003"/>
<path d="M90.6262 139.783C90.8671 139.603 91.0779 139.422 91.2586 139.211L90.7165 134.603L90.054 134.904L90.6262 139.783Z" fill="#000003"/>
<path d="M88.8192 135.808L88.0964 136.35L88.4578 141.018C88.6987 140.928 88.9397 140.807 89.1505 140.717L88.7891 135.808H88.8192Z" fill="#000003"/>
<path d="M86.7707 136.621L86.0479 136.742L86.1683 141.59C86.4093 141.59 86.6502 141.53 86.8911 141.5L86.7707 136.651V136.621Z" fill="#000003"/>
<path d="M83.8794 141.5C84.1203 141.53 84.3612 141.56 84.5721 141.59L84.6624 136.892L83.9396 136.651L83.8492 141.5H83.8794Z" fill="#000003"/>
<path d="M81.6208 140.747C81.8316 140.867 82.0725 140.958 82.3135 141.048L82.6147 136.199L81.922 135.838L81.6208 140.747Z" fill="#000003"/>
<path d="M80.6872 134.904L80.0247 134.453L79.4825 139.271C79.6934 139.482 79.9042 139.663 80.1451 139.843L80.6872 134.904Z" fill="#000003"/>
<path d="M78.489 131.381L77.6458 136.741C77.7963 137.103 78.0072 137.434 78.218 137.735L78.9709 132.525L78.489 131.35V131.381Z" fill="#000003"/>
<path d="M85.8972 120.057L85.3551 119.063L85.4153 129.182C85.596 129.182 85.7767 129.182 85.9574 129.122L85.8972 120.057Z" fill="#000003"/>
<path d="M86.7409 121.592L86.259 120.689V129.031C86.4699 128.971 86.6204 128.911 86.771 128.851V121.623L86.7409 121.592Z" fill="#000003"/>
<path d="M87.6143 123.159L87.1625 122.345V128.61C87.3432 128.489 87.5239 128.369 87.6444 128.248V123.159H87.6143Z" fill="#000003"/>
<path d="M88.4879 124.875C88.3976 124.604 88.2771 124.333 88.1265 124.092L88.0663 123.972V127.736C88.2771 127.465 88.3976 127.164 88.518 126.833V124.845L88.4879 124.875Z" fill="#000003"/>
<path d="M85.0235 119.424L84.5115 120.388V129.092C84.7224 129.122 84.9031 129.152 85.0838 129.182L85.0235 119.454V119.424Z" fill="#000003"/>
<path d="M84.1511 121.081L83.6692 122.014V128.761C83.8499 128.851 84.0306 128.941 84.1812 129.002V121.081H84.1511Z" fill="#000003"/>
<path d="M83.2473 122.737L82.8257 123.55V128.068C82.9763 128.218 83.1269 128.339 83.2774 128.489V122.737H83.2473Z" fill="#000003"/>
<path d="M82.4042 124.363L82.2536 124.634C82.103 125.026 82.0127 125.448 82.0127 125.899C82.0127 126.471 82.1633 127.014 82.4042 127.465V124.363Z" fill="#000003"/>
<path d="M47.4082 39.975L47.4383 43.9203L48.8839 41.9326L47.4082 39.975Z" fill="#000003"/>
<path d="M53.1903 43.8903V39.9449L51.7447 41.9327L53.1903 43.8903Z" fill="#000003"/>
<path d="M50.2994 39.975L48.8839 41.9326L50.3295 43.8902L51.745 41.9326L50.2994 39.975Z" fill="#000003"/>
<path d="M53.1907 39.9449V43.8903L54.6363 41.9026L53.1907 39.9449Z" fill="#000003"/>
<path d="M58.973 43.8601L58.9429 39.9148L57.5274 41.9025L58.973 43.8601Z" fill="#000003"/>
<path d="M56.0814 39.9449L54.6357 41.9026L56.0814 43.8602L57.527 41.9026L56.0814 39.9449Z" fill="#000003"/>
<path d="M58.9426 39.9148L58.9727 43.8601L60.3882 41.8724L58.9426 39.9148Z" fill="#000003"/>
<path d="M64.7253 43.83V39.8846L63.2797 41.8724L64.7253 43.83Z" fill="#000003"/>
<path d="M61.8336 39.9148L60.388 41.8724L61.8637 43.83L63.2793 41.8724L61.8336 39.9148Z" fill="#000003"/>
<path d="M64.7255 39.8846V43.83L66.1711 41.8423L64.7255 39.8846Z" fill="#000003"/>
<path d="M70.5078 43.7998L70.4777 39.8545L69.0622 41.8422L70.5078 43.7998Z" fill="#000003"/>
<path d="M67.5865 39.8846L66.171 41.8423L67.6166 43.7999L69.0622 41.8423L67.5865 39.8846Z" fill="#000003"/>
<path d="M70.4777 39.8545L70.5078 43.7998L71.9233 41.8121L70.4777 39.8545Z" fill="#000003"/>
<path d="M76.2594 43.7698L76.2293 39.8245L74.8138 41.8122L76.2594 43.7698Z" fill="#000003"/>
<path d="M73.3687 39.8545L71.923 41.8121L73.3687 43.7697L74.8143 41.8121L73.3687 39.8545Z" fill="#000003"/>
<path d="M76.2295 39.8245L76.2596 43.7698L77.6751 41.7821L76.2295 39.8245Z" fill="#000003"/>
<path d="M82.0126 43.7397V39.7943L80.567 41.782L82.0126 43.7397Z" fill="#000003"/>
<path d="M79.1209 39.8245L77.6752 41.7821L79.151 43.7397L80.5665 41.7821L79.1209 39.8245Z" fill="#000003"/>
<path d="M69.0616 49.221C69.0616 49.221 69.0314 49.221 68.9712 49.1607C68.911 49.1306 68.8206 49.0704 68.67 49.0102C68.4291 48.8897 68.0376 48.7391 67.6159 48.5885C67.375 48.5283 67.1341 48.4379 66.863 48.3777C66.6221 48.2873 66.3209 48.2572 66.0498 48.197C65.7487 48.1368 65.4475 48.1066 65.1463 48.0765C64.8452 48.0765 64.5139 48.0464 64.2127 48.0765C63.9115 48.0765 63.6104 48.0765 63.3092 48.1669C63.1586 48.1669 63.008 48.2271 62.8875 48.2271C62.737 48.2572 62.6165 48.3175 62.4659 48.3476C62.3454 48.3777 62.1948 48.4078 62.0744 48.468C61.9539 48.5283 61.8334 48.5885 61.713 48.6186C61.5925 48.6789 61.472 48.709 61.3817 48.7692C61.2612 48.8294 61.1709 48.8897 61.0805 48.9499C60.8998 49.0704 60.7191 49.1607 60.5685 49.2511C60.4179 49.3716 60.2975 49.4619 60.2071 49.5523C59.9963 49.7028 59.9059 49.7932 59.9059 49.7932L59.8156 49.8534C59.4843 50.1245 59.0024 50.0643 58.7314 49.733C58.4603 49.4017 58.5205 48.9198 58.8518 48.6487C58.8518 48.6487 58.882 48.6487 58.9121 48.6186C58.9121 48.6186 59.0627 48.5283 59.3036 48.3476C59.4542 48.2572 59.6048 48.1669 59.7855 48.0464C59.9662 47.9259 60.2071 47.8356 60.4481 47.7151C60.5685 47.6549 60.689 47.5946 60.8396 47.5344C60.9902 47.5043 61.1106 47.4441 61.2612 47.3838C61.4118 47.3236 61.5624 47.2935 61.713 47.2332C61.8636 47.2031 62.0443 47.173 62.1948 47.1429C62.3454 47.1128 62.5261 47.0827 62.7068 47.0525C62.8875 47.0525 63.0381 47.0525 63.2188 47.0224C63.5802 46.9923 63.9115 47.0224 64.2729 47.0224C64.6042 47.0224 64.9656 47.1128 65.2969 47.1429C65.6282 47.2332 65.9595 47.2634 66.2607 47.3838C66.5618 47.4742 66.863 47.5645 67.1341 47.6549C67.4051 47.7452 67.6461 47.8657 67.887 47.9561C68.3388 48.1669 68.7303 48.3777 68.9712 48.5283C69.0917 48.5885 69.182 48.6487 69.2724 48.709C69.3326 48.7391 69.3627 48.7692 69.3627 48.7692C69.4832 48.8596 69.5133 49.0102 69.4531 49.1306C69.3627 49.2511 69.2122 49.2812 69.0917 49.221H69.0616Z" fill="#000003"/>
<path d="M47.3477 48.7691C47.3477 48.7691 47.3477 48.7691 47.4079 48.7088C47.4681 48.6787 47.5284 48.6185 47.5886 48.5281C47.7392 48.3776 48.0102 48.1969 48.3114 47.986C48.462 47.8957 48.6427 47.7752 48.8535 47.6849C49.0342 47.5644 49.2752 47.5042 49.486 47.3837C49.6968 47.2933 49.9679 47.2331 50.2088 47.1729C50.4497 47.1428 50.7208 47.0825 50.9918 47.0825C51.1123 47.0825 51.2629 47.0825 51.3834 47.0825C51.5038 47.0825 51.6544 47.0825 51.7749 47.1126C52.0459 47.1126 52.2869 47.2331 52.5278 47.2933C52.6483 47.3235 52.7687 47.3837 52.8892 47.4138C53.0097 47.474 53.1 47.5042 53.2205 47.5644C53.4313 47.6547 53.612 47.8053 53.7927 47.8957C53.9433 48.0162 54.124 48.1065 54.2445 48.227C54.365 48.3474 54.4854 48.4378 54.5758 48.498C54.7565 48.6486 54.8468 48.739 54.8468 48.739C55.1179 48.9799 55.148 49.4015 54.9071 49.6726C54.6661 49.9437 54.2445 49.9738 53.9734 49.7328C53.9734 49.7328 53.9734 49.7328 53.9132 49.6726L53.853 49.6124C53.853 49.6124 53.7927 49.522 53.6421 49.4015C53.5819 49.3413 53.4916 49.251 53.4012 49.1305C53.3109 49.01 53.1904 48.9498 53.0699 48.8293C52.9495 48.739 52.829 48.5884 52.6483 48.5281C52.5579 48.4679 52.4977 48.4378 52.4073 48.3776C52.317 48.3173 52.2568 48.2872 52.1363 48.2571C51.9556 48.1969 51.7749 48.0764 51.5641 48.0463C51.4737 48.0463 51.3532 47.986 51.2629 47.986C51.1424 47.986 51.0521 47.986 50.9316 47.986C50.7208 47.9559 50.51 47.986 50.269 47.986C50.0582 48.0162 49.8474 48.0463 49.6366 48.1065C49.4257 48.1667 49.245 48.227 49.0342 48.2872C48.8535 48.3474 48.6728 48.4378 48.5222 48.498C48.2211 48.6486 47.95 48.7992 47.7994 48.9197C47.7091 48.9799 47.6488 49.01 47.6187 49.0703C47.5585 49.1004 47.5585 49.1305 47.5585 49.1305C47.5585 49.1305 47.3175 49.1907 47.2272 49.1004C47.1368 49.01 47.167 48.8594 47.2272 48.7992L47.3477 48.7691Z" fill="#000003"/>
<path d="M69.9055 52.2929C69.9055 52.2929 69.8151 52.2929 69.7549 52.2628C63.8218 47.8958 59.6054 52.2025 59.5753 52.2628C59.4849 52.3531 59.3343 52.3531 59.2139 52.2628C59.1235 52.1724 59.0934 52.0218 59.2139 51.9315C59.2741 51.8713 63.7917 47.2934 70.056 51.9315C70.1765 52.0218 70.1765 52.1724 70.1163 52.2628C70.0862 52.323 69.9958 52.3531 69.9356 52.3531L69.9055 52.2929Z" fill="#000003"/>
<path d="M70.8088 53.9494C70.8088 53.9494 70.5378 53.9494 70.3571 53.9494H70.1161L69.9053 53.8891C69.815 53.8891 69.7547 53.8891 69.6945 53.8289C69.6041 53.8289 69.5439 53.7988 69.4837 53.7687C69.3331 53.7084 69.2126 53.6482 69.062 53.588C68.9115 53.5277 68.791 53.4675 68.6705 53.3772C68.55 53.2868 68.4296 53.2266 68.3091 53.1362C68.1886 53.0459 68.0682 52.9555 67.9778 52.8652C67.8574 52.7748 67.767 52.6543 67.6465 52.5339C67.6465 52.5339 67.3755 52.3231 67.2249 52.2026C67.0743 52.0821 66.8936 52.0219 66.743 51.9315C66.5623 51.8713 66.4117 51.7809 66.231 51.7207C66.0503 51.6605 65.8696 51.6002 65.6889 51.5701L65.4179 51.5099H65.1468C65.1468 51.5099 64.9661 51.4497 64.8757 51.4497H64.6047C64.424 51.4497 64.2433 51.4497 64.0626 51.4497C63.8819 51.4497 63.7012 51.4497 63.5205 51.5099L62.9784 51.6304C62.7977 51.6906 62.617 51.7508 62.4363 51.8111L62.1652 51.9014C62.1652 51.9014 61.9845 51.9918 61.9243 52.0219L61.4123 52.2628C61.2316 52.3532 61.081 52.4435 60.9003 52.5339L60.3883 52.835C60.057 53.0459 59.7558 53.2868 59.4245 53.4976C59.4245 53.4976 59.1535 53.5579 59.0932 53.4374C59.033 53.347 59.033 53.1965 59.1234 53.1362C59.3944 52.835 59.7257 52.564 60.0269 52.2929C60.1775 52.1725 60.3582 52.052 60.5389 51.9315C60.7196 51.8111 60.8702 51.6906 61.0509 51.5701L61.593 51.269C61.593 51.269 61.7737 51.1786 61.864 51.1184L62.1652 50.9979C62.376 50.9377 62.5567 50.8473 62.7675 50.7871L63.4 50.6365C63.6108 50.5763 63.8217 50.5763 64.0325 50.5461C64.2433 50.5461 64.4541 50.5461 64.6649 50.5461H64.9962C64.9962 50.5461 65.207 50.6064 65.3275 50.6365L65.6287 50.6967L65.9299 50.8172C66.1407 50.8774 66.3214 50.9678 66.5322 51.0581C66.743 51.1485 66.8936 51.269 67.1044 51.3894C67.2851 51.5099 67.4658 51.6304 67.6164 51.7508C67.767 51.8713 67.9477 52.0219 68.0983 52.2026C68.1585 52.2929 68.279 52.3833 68.3693 52.5038C68.4597 52.5941 68.55 52.6845 68.6705 52.7748C68.8813 52.9254 69.0922 53.076 69.3331 53.1965C69.4536 53.2567 69.574 53.2868 69.6945 53.347C69.7547 53.347 69.815 53.3772 69.8752 53.4073C69.9354 53.4073 69.9957 53.4374 70.0559 53.4374H70.2366H70.4173C70.5378 53.4374 70.6884 53.4374 70.839 53.4073C70.839 53.4073 71.0799 53.4976 71.11 53.6181C71.11 53.7386 71.0197 53.859 70.8992 53.8891L70.8088 53.9494Z" fill="#000003"/>
<path d="M60.8098 53.9796C60.3882 52.9255 60.6894 52.0219 60.6894 51.9918L61.1411 52.1424C61.1411 52.1424 60.9002 52.9255 61.2616 53.7989L60.8098 53.9796Z" fill="#000003"/>
<path d="M58.34 61.6593C58.34 61.6593 58.34 61.6593 58.2798 61.5991C58.2497 61.5388 58.1894 61.4786 58.1593 61.328C58.1593 61.2678 58.1593 61.1774 58.1593 61.0871C58.1593 61.0268 58.1593 60.9967 58.2195 60.9365C58.2195 60.8762 58.2798 60.8461 58.34 60.816C58.4304 60.7257 58.4906 60.6955 58.6111 60.6654H58.6713V60.6353C58.6713 60.6353 58.6412 60.6353 58.7315 60.6353H58.7918C58.7918 60.6353 58.852 60.6353 58.9122 60.6353C58.9122 60.6353 58.9424 60.6353 58.9725 60.6353H59.0628C59.0628 60.6353 59.1833 60.6353 59.2435 60.6654C59.364 60.6654 59.4242 60.7257 59.5447 60.7859C59.7254 60.8762 59.876 60.9967 60.0266 61.0871C60.1772 61.2075 60.3277 61.2979 60.4482 61.3581C60.5084 61.3581 60.5386 61.3882 60.5687 61.3882C60.5687 61.3882 60.659 61.3882 60.6891 61.3882C60.7795 61.3882 60.8397 61.3882 60.9301 61.3882C61.2614 61.3882 61.5927 61.2678 61.7734 61.0268C61.8035 60.9666 61.8637 60.9064 61.8637 60.8461C61.8637 60.7859 61.8637 60.7257 61.8637 60.6353C61.8637 60.4847 61.8637 60.3341 61.8035 60.2137C61.8035 60.1534 61.7432 60.0932 61.7131 60.033C61.7131 59.9727 61.6529 59.9426 61.6228 59.8824C61.5324 59.792 61.5023 59.7318 61.412 59.6716C61.2915 59.5812 61.2011 59.521 61.2011 59.521C61.2011 59.521 61.171 59.4607 61.2011 59.4306C61.2011 59.4306 61.2614 59.4005 61.2915 59.4306C61.2915 59.4306 61.3818 59.4909 61.5625 59.5511C61.6529 59.5812 61.7131 59.6716 61.8336 59.7619C61.8938 59.792 61.924 59.8523 61.9842 59.9125C62.0143 59.9727 62.0745 60.033 62.1047 60.0932C62.1649 60.2438 62.2251 60.4245 62.2552 60.6052C62.2552 60.6955 62.2552 60.816 62.2552 60.9064C62.2552 60.9967 62.195 61.1172 62.1348 61.2075C62.0143 61.4184 61.8336 61.5689 61.6228 61.6894C61.412 61.7798 61.2011 61.84 60.9602 61.8701C60.8397 61.8701 60.7193 61.8701 60.6289 61.8701C60.5687 61.8701 60.5084 61.8701 60.4482 61.8701C60.388 61.8701 60.3277 61.84 60.2976 61.8099C60.0567 61.7195 59.9061 61.5991 59.7254 61.5087C59.5748 61.4184 59.4242 61.328 59.3038 61.2678C59.2435 61.2678 59.1833 61.2075 59.1231 61.2075C59.1231 61.2075 59.1231 61.2075 59.0628 61.2075C59.0628 61.2075 59.0327 61.2075 59.0026 61.2075C58.9725 61.2075 58.9122 61.2075 58.8821 61.2075C58.8821 61.2075 58.8821 61.2075 58.9423 61.2075L58.8821 61.2377C58.852 61.2377 58.852 61.2377 58.8219 61.2678C58.8219 61.2979 58.8219 61.3581 58.8219 61.3882V61.4485C58.8219 61.5388 58.7616 61.6292 58.6713 61.6593C58.6412 61.6593 58.5809 61.6593 58.5508 61.6593H58.5207H58.34Z" fill="#000003"/>
<path d="M63.219 56.9912C63.219 56.9912 63.1889 56.9912 63.1588 56.9912C61.2614 56.2383 59.364 54.1 59.2737 54.0096C59.2135 53.9494 59.2135 53.8289 59.2737 53.7687C59.364 53.7085 59.4544 53.7085 59.5146 53.7687C59.5146 53.7687 61.412 55.9371 63.2492 56.6599C63.3395 56.6901 63.3696 56.8105 63.3395 56.9009C63.3395 56.9611 63.2492 57.0213 63.1889 57.0213L63.219 56.9912Z" fill="#000003"/>
<path d="M54.756 52.052C51.6238 49.8534 48.7627 51.6303 47.6785 52.5037C47.7086 52.7748 47.7086 53.0458 47.6785 53.3169C50.63 55.7865 53.4007 54.5818 54.8162 53.6181C54.7259 53.076 54.7259 52.564 54.756 52.0219V52.052Z" fill="white"/>
<path d="M54.7561 53.3771C54.0032 53.9192 52.7985 54.5516 51.3529 54.5516C50.088 54.5516 48.8532 54.0396 47.7087 53.0458C47.7087 53.2265 47.6786 53.4072 47.6183 53.618C48.7929 54.5818 50.0578 55.0636 51.3529 55.0636C52.7985 55.0636 54.0333 54.4613 54.8465 53.9192C54.8164 53.7385 54.7862 53.5578 54.7561 53.3771Z" fill="#000003"/>
<path d="M47.7087 52.8049C48.311 52.2929 49.7868 51.2388 51.5938 51.2388C52.678 51.2388 53.7321 51.6002 54.726 52.323C54.726 52.1423 54.726 51.9315 54.7561 51.7508C53.7622 51.0882 52.678 50.7268 51.5938 50.7268C49.8169 50.7268 48.4014 51.6002 47.6484 52.2025C47.6786 52.3833 47.7087 52.5941 47.7087 52.7748V52.8049Z" fill="#000003"/>
<path d="M53.311 52.8953C53.311 53.9192 52.4978 54.7324 51.4738 54.7324C50.4498 54.7324 49.6367 53.9192 49.6066 52.8953C49.6066 51.8713 50.4197 51.0581 51.4437 51.0581C52.4677 51.0581 53.2809 51.8713 53.2809 52.8953H53.311Z" fill="white"/>
<path d="M51.4735 55.0034C50.329 55.0034 49.3954 54.0698 49.3954 52.9253C49.3954 51.7809 50.329 50.8473 51.4735 50.8171C52.6179 50.8171 53.5516 51.7508 53.5817 52.8952C53.5817 53.4675 53.3709 53.9794 52.9793 54.371C52.5878 54.7625 52.0758 54.9733 51.5036 55.0034H51.4735ZM51.4735 51.299C50.57 51.299 49.8773 52.0218 49.8773 52.8952C49.8773 53.7686 50.6001 54.4914 51.4735 54.4914C51.8951 54.4914 52.3168 54.3107 52.6179 54.0096C52.9191 53.7084 53.0998 53.3169 53.0697 52.8651C53.0697 51.9917 52.3469 51.2689 51.4735 51.2689V51.299Z" fill="#000003"/>
<path d="M52.3468 52.8952C52.3468 53.3771 51.9552 53.7686 51.4734 53.7686C50.9915 53.7686 50.6 53.3771 50.6 52.8952C50.6 52.4134 50.9915 52.0219 51.4734 52.0219C51.9552 52.0219 52.3468 52.4134 52.3468 52.8952Z" fill="#000003"/>
<path d="M47.4685 51.2086C47.4685 51.2086 47.4685 51.3893 47.4685 51.4796C47.4685 51.57 47.5287 51.6603 47.5287 51.7507C48.6431 50.9375 51.2934 49.4317 54.8472 50.9375C54.8472 50.7568 54.8773 50.6062 54.9074 50.4255C51.444 49.0401 48.7635 50.3051 47.4685 51.2086Z" fill="#000003"/>
<path d="M54.3947 51.4195C54.214 51.3291 54.0333 51.1785 53.8526 51.0882C53.6719 50.9978 53.4611 50.9075 53.2503 50.8472L52.9491 50.7268L52.6178 50.6665C52.6178 50.6665 52.407 50.6063 52.2865 50.6063H51.9552C51.7444 50.5461 51.5336 50.5461 51.3228 50.5762C51.1119 50.5762 50.9011 50.5762 50.6903 50.6665L50.0578 50.8171C49.847 50.8774 49.6663 50.9677 49.4555 51.0279L49.1543 51.1484C49.1543 51.1484 48.9736 51.2388 48.8833 51.299L48.3412 51.6002C48.1605 51.6905 48.0099 51.8411 47.8292 51.9616C47.7689 52.0218 47.6786 52.0519 47.6183 52.1122C47.6786 52.3531 47.7087 52.6241 47.7388 52.8952L48.2508 52.594C48.4315 52.5037 48.5821 52.3832 48.7628 52.323L49.2748 52.082C49.2748 52.082 49.4555 51.9917 49.5458 51.9616L49.8169 51.8712C49.9976 51.811 50.1783 51.7507 50.359 51.6905L50.9011 51.57C51.0818 51.5098 51.2625 51.5399 51.4432 51.5098C51.6239 51.5098 51.8046 51.5098 51.9853 51.5098H52.2564C52.2564 51.5098 52.4371 51.5098 52.5274 51.5399H52.7985L53.0696 51.6303C53.2503 51.6604 53.431 51.7206 53.6117 51.7809C53.7924 51.8411 53.943 51.9315 54.1237 51.9917C54.2742 52.082 54.455 52.1724 54.6055 52.2627C54.6658 52.2929 54.726 52.323 54.7561 52.3832C54.7561 52.1724 54.7561 51.9616 54.7862 51.7507C54.6658 51.6604 54.5453 51.57 54.3947 51.4797V51.4195Z" fill="#000003"/>
<path d="M48.1907 53.9796C47.769 52.9255 48.0702 52.0219 48.0702 51.9918L48.522 52.1424C48.522 52.1424 48.281 52.9255 48.6424 53.7989L48.1907 53.9796Z" fill="#000003"/>
<path d="M55.088 47.4741L54.9675 61.6894L59.1839 62.8941" fill="white"/>
<path d="M55.3284 47.4741L55.5392 61.6894L55.1176 61.1171L59.2436 62.6531C59.2436 62.6531 59.4243 62.8338 59.3942 62.9543C59.3641 63.0748 59.2436 63.135 59.1232 63.1049L54.8164 62.2315L54.3948 62.1411V61.6593L54.8766 47.4439C54.8766 47.3235 54.9971 47.203 55.1477 47.203C55.2682 47.203 55.3886 47.3235 55.3886 47.4439L55.3284 47.4741Z" fill="#000003"/>
<path d="M50.7211 56.69C50.7211 56.69 50.5705 56.6298 50.5404 56.5695C50.5404 56.4792 50.5705 56.3888 50.6609 56.3587C53.2208 55.7262 54.6062 54.2505 54.6062 54.2505C54.6665 54.1903 54.7869 54.1903 54.8472 54.2505C54.9074 54.3107 54.9375 54.4312 54.8472 54.4914C54.7869 54.5517 53.3714 56.0575 50.7211 56.69C50.7211 56.69 50.7211 56.69 50.691 56.69H50.7211Z" fill="#000003"/>
<path d="M76.0192 44.1914C76.0192 44.1914 74.1519 50.0341 77.8865 55.3046C81.7716 60.8161 80.7777 63.376 80.7777 63.376C80.7777 63.376 77.3443 63.376 76.9227 66.0564C76.4709 69.1585 78.3984 74.1279 84.6929 72.1702C84.6929 72.1702 88.6985 70.1524 87.0722 62.864C85.4459 55.5757 79.4224 48.5584 81.621 44.1613H76.0493L76.0192 44.1914Z" fill="white"/>
<path d="M82.0423 72.893C80.4159 72.893 79.0306 72.2907 78.0668 71.1763C76.7115 69.6102 76.4706 67.4418 76.6814 66.0564C77.0428 63.5868 79.8136 63.2254 80.5665 63.1652C80.687 62.5628 80.9279 60.033 77.6753 55.4552C73.9106 50.1244 75.7478 44.1612 75.7779 44.101L75.8381 43.9203H81.982L81.8013 44.2817C80.5063 46.8718 82.1627 50.3955 84.0902 54.4914C85.3552 57.1719 86.6502 59.9727 87.2827 62.8339C88.9391 70.2126 84.9335 72.3208 84.7829 72.4111H84.7528C83.7891 72.7424 82.8554 72.893 82.0423 72.893ZM76.2297 44.4323C75.9586 45.4261 74.8443 50.5461 78.0969 55.1841C82.0122 60.7257 81.0484 63.376 80.9882 63.4965L80.9279 63.647H80.7774C80.7774 63.647 77.5247 63.6772 77.1633 66.1468C76.9826 67.4418 77.1934 69.4295 78.4583 70.8752C79.8136 72.4413 81.9218 72.8328 84.6022 71.9895C84.9034 71.8389 88.3669 69.791 86.8309 62.9845C86.1984 60.1535 84.9034 57.4128 83.6686 54.7324C81.7712 50.6967 80.1449 47.1729 81.2291 44.4624H76.1995L76.2297 44.4323Z" fill="#000003"/>
<path d="M73.2188 44.1914C73.2188 44.1914 71.3515 50.0341 75.086 55.3046C78.9712 60.8161 77.9472 63.376 77.9472 63.376C77.9472 63.376 74.5138 63.376 74.0922 66.0564C73.6404 69.1585 75.5679 74.1279 81.8624 72.1702C81.8624 72.1702 85.868 70.1524 84.2417 62.864C82.6153 55.5757 76.5919 48.5584 78.7904 44.1613H73.2188V44.1914Z" fill="white"/>
<path d="M79.2418 72.893C77.6155 72.893 76.2301 72.2907 75.2663 71.1763C73.911 69.6102 73.6701 67.4418 73.8809 66.0564C74.2423 63.5868 77.0131 63.2254 77.766 63.1652C77.8865 62.5628 78.0973 60.033 74.8748 55.4552C71.1102 50.1244 72.9774 44.1612 72.9774 44.101L73.0377 43.9203H79.1816L79.0009 44.2817C77.7058 46.8718 79.3623 50.3955 81.2898 54.4914C82.5547 57.1719 83.8497 59.9727 84.4822 62.8339C86.1386 70.2126 82.133 72.3208 81.9825 72.4111H81.9523C80.9886 72.7424 80.055 72.893 79.2418 72.893ZM73.4292 44.4323C73.1581 45.4261 72.0438 50.5461 75.2964 55.1841C79.2117 60.7257 78.2479 63.376 78.1877 63.4965L78.1275 63.647H77.9468C77.9468 63.647 74.7242 63.6772 74.3327 66.1468C74.152 67.4418 74.3327 69.4295 75.5976 70.8752C76.9529 72.4413 79.0611 72.8328 81.7415 71.9895C82.0427 71.8389 85.5062 69.791 83.9702 62.9845C83.3377 60.1535 82.0427 57.4128 80.8079 54.7324C78.9406 50.6967 77.2842 47.1729 78.3684 44.4624H73.3689L73.4292 44.4323Z" fill="#000003"/>
<path d="M70.8996 44.3119C70.8996 44.3119 69.0323 50.1546 72.7668 55.4251C76.6519 60.9366 75.6581 63.4965 75.6581 63.4965C75.6581 63.4965 72.2247 63.4965 71.8031 66.2071C71.3513 69.3092 73.2788 74.2785 79.5733 72.3209C79.5733 72.3209 83.5789 70.303 81.9526 63.0147C80.3262 55.7263 74.3028 48.709 76.5014 44.3119H70.9297H70.8996Z" fill="white"/>
<path d="M76.923 72.9835C75.2967 72.9835 73.9113 72.3811 72.9476 71.2668C71.5923 69.7007 71.3514 67.5323 71.5622 66.1469C71.9236 63.6773 74.6944 63.3159 75.4473 63.2556C75.5678 62.6533 75.8087 60.1234 72.5862 55.5456C68.8215 50.2149 70.6587 44.2517 70.6888 44.1914L70.749 44.0107H76.8929L76.7122 44.3721C75.4172 46.9321 77.0736 50.4859 79.0011 54.5819C80.2661 57.2623 81.5611 60.0632 82.1936 62.9243C83.85 70.303 79.8444 72.4112 79.6938 72.5016H79.6637C78.7 72.8329 77.7663 72.9835 76.9532 72.9835H76.923ZM71.0803 44.5529C70.8093 45.5467 69.6949 50.6666 72.9476 55.3047C76.8628 60.8462 75.8991 63.4966 75.8388 63.617L75.7786 63.7676H75.628C75.628 63.7676 72.4055 63.7977 72.0139 66.2372C71.8332 67.5323 72.0139 69.52 73.2789 70.9656C74.6341 72.5317 76.7423 72.9232 79.4228 72.08C79.7239 71.9294 83.1874 69.8814 81.6514 63.0749C81.019 60.2439 79.7239 57.5032 78.4891 54.8228C76.5918 50.7871 74.9654 47.2935 76.0497 44.5529H71.0201H71.0803Z" fill="#000003"/>
<path d="M75.5068 68.6164C75.5068 68.6164 78.0969 69.8512 79.0305 67.8635C79.9642 65.8757 78.8498 63.888 75.6273 63.4965" fill="white"/>
<path d="M75.628 68.4057C75.628 68.4057 75.6581 68.4057 75.7484 68.4057C75.8087 68.4057 75.9291 68.4358 76.0496 68.496C76.2002 68.496 76.3508 68.5562 76.5315 68.5864C76.7122 68.5864 76.923 68.6165 77.1338 68.5864C77.2543 68.5864 77.3446 68.5864 77.4651 68.5562C77.5856 68.5261 77.6759 68.496 77.7964 68.4659C78.0072 68.4057 78.1879 68.2551 78.3686 68.1045L78.4891 67.9539C78.4891 67.9539 78.5493 67.8334 78.5794 67.7732L78.6397 67.6828V67.6527V67.5925L78.73 67.3516C78.73 67.3516 78.7903 67.201 78.7903 67.1407C78.7903 67.0805 78.8204 67.0203 78.8505 66.96C78.8505 66.8094 78.9107 66.689 78.9107 66.5384C78.9107 66.2673 78.8806 65.9963 78.7903 65.7252C78.6999 65.4542 78.5493 65.2433 78.3686 65.0325C78.2783 64.9422 78.1879 64.8217 78.0674 64.7615C77.947 64.6711 77.8566 64.5808 77.7663 64.5205C77.6458 64.4603 77.5555 64.3699 77.435 64.3097C77.3145 64.2495 77.2242 64.1892 77.1037 64.1591C76.8929 64.0688 76.6821 63.9784 76.5014 63.9182C76.3206 63.858 76.1701 63.7977 76.0195 63.7676C75.7484 63.7074 75.5978 63.6471 75.5978 63.6471C75.5978 63.6471 75.387 63.4966 75.4171 63.346C75.4171 63.2255 75.5677 63.1351 75.6882 63.1653C75.6882 63.1653 75.8689 63.1653 76.1701 63.1954C76.3206 63.1954 76.5014 63.2556 76.7122 63.2857C76.923 63.3158 77.1639 63.4062 77.4049 63.4664C77.5253 63.5267 77.6458 63.5568 77.7964 63.617C77.9169 63.6773 78.0674 63.7375 78.1879 63.8278C78.3385 63.8881 78.459 64.0085 78.5794 64.0989C78.6999 64.1892 78.8505 64.3097 78.971 64.4302C79.2119 64.7012 79.4528 65.0024 79.5733 65.3638C79.7239 65.7252 79.8142 66.1167 79.7841 66.5083C79.7841 66.7191 79.754 66.8998 79.7239 67.0805C79.6938 67.2612 79.6335 67.472 79.5733 67.6527L79.483 67.8937V67.9539L79.4528 67.984V68.0442L79.3926 68.1647C79.3926 68.1647 79.3022 68.3454 79.242 68.4057C79.1818 68.4659 79.1215 68.5562 79.0613 68.6165C78.7903 68.8875 78.459 69.0983 78.1277 69.1887C77.7964 69.3092 77.4651 69.3092 77.194 69.2791C76.923 69.2791 76.6519 69.2188 76.4411 69.1586C76.2303 69.0983 76.0496 69.0381 75.899 68.9779C75.7484 68.9176 75.6581 68.8574 75.5677 68.8273C75.5075 68.7972 75.4472 68.7671 75.4472 68.7671C75.3268 68.7068 75.2967 68.5562 75.3569 68.4358C75.4171 68.3454 75.5376 68.2852 75.6581 68.3153L75.628 68.4057Z" fill="#000003"/>
<path d="M49.0044 67.7129C49.0044 67.7129 47.7997 68.8875 46.324 69.1585C46.324 69.1585 43.3424 64.9722 40.933 68.8875C40.933 68.8875 39.5476 71.3571 41.6558 73.6159C41.6558 73.6159 47.7997 79.9706 57.7685 71.9895" fill="white"/>
<path d="M48.0703 76.2359C43.9141 76.2359 41.5047 73.8266 41.4445 73.7964C39.2459 71.4473 40.6614 68.8271 40.6915 68.797C41.4144 67.6525 42.2576 67.0502 43.1913 67.0201C44.7272 66.9598 46.0223 68.4657 46.3837 68.9174C47.739 68.5862 48.7931 67.5622 48.7931 67.5622L49.1545 67.9236C49.1545 67.9236 47.8896 69.1283 46.3235 69.4294H46.1729L46.0825 69.3391C46.0825 69.3391 44.6971 67.4417 43.1913 67.5019C42.4383 67.5019 41.7155 68.044 41.1132 69.0379C41.0529 69.1283 39.8483 71.3871 41.8059 73.4651C42.0468 73.7061 47.9498 79.5488 57.5873 71.8087L57.8885 72.2002C54.0033 75.3023 50.6904 76.266 48.0703 76.266V76.2359Z" fill="#000003"/>
<path d="M44.2154 69.9115L44.1552 69.4296C44.1552 69.4296 45.8117 69.2489 47.2874 68.5863L47.4982 69.0381C45.9924 69.7308 44.3058 69.9115 44.2456 69.9115H44.2154Z" fill="#000003"/>
<path d="M45.6914 72.4413C44.4566 72.4413 43.3423 72.0196 42.8002 71.5378C41.7461 70.5439 42.0774 69.3392 42.4087 68.8272C42.8303 68.2851 43.3122 68.0442 43.8242 68.0743C44.8482 68.1345 45.6312 69.279 45.6613 69.3392L45.2698 69.6103C45.2698 69.6103 44.6072 68.6164 43.8242 68.5562C43.4628 68.5562 43.1315 68.7369 42.8303 69.1284C42.8303 69.1284 42.1376 70.2427 43.1616 71.2065C43.6435 71.6582 45.059 72.2003 46.6251 71.8992C47.7695 71.6883 49.3657 70.9354 50.5102 68.6164L50.9318 68.8272C49.697 71.3269 47.9502 72.1401 46.6853 72.381C46.354 72.4413 46.0227 72.4714 45.6914 72.4714V72.4413Z" fill="#000003"/>
<path d="M45.6006 75.1519C44.8778 75.1519 44.2755 75.0315 43.8237 74.9411C40.571 74.3388 40.2397 71.2066 40.2397 71.1765L40.7216 71.1162C40.7216 71.1162 41.0228 73.9171 43.914 74.4592C45.6006 74.7905 49.1243 75.423 52.0758 69.52L52.5276 69.7308C50.2387 74.3087 47.5582 75.1218 45.6307 75.1218L45.6006 75.1519Z" fill="#000003"/>
<path d="M47.3173 76.1758C47.3173 76.1758 47.0462 76.1758 46.8956 76.1758V75.6939C52.1059 75.9951 54.1539 70.5439 54.184 70.4836L54.6357 70.6643C54.6357 70.6643 52.5577 76.1758 47.3173 76.1758Z" fill="#000003"/>
<path d="M53.3108 75.0616L53.1301 74.6098C54.5758 74.0376 56.1418 71.4776 56.1418 71.4475L56.5635 71.6884C56.5635 71.6884 54.907 74.4291 53.3108 75.0616Z" fill="#000003"/>
<path d="M67.0143 67.6225C67.0143 67.6225 68.219 68.7669 69.7249 69.038C69.7249 69.038 72.6764 64.8216 75.1159 68.7067C75.1159 68.7067 76.5013 71.1763 74.4533 73.4351C74.4533 73.4351 68.3696 79.9404 58.0695 71.7486L57.7684 71.9594" fill="white"/>
<path d="M67.9477 76.1156C65.2974 76.1156 61.9544 75.1518 58.0392 72.0799L57.8886 72.1702L57.5874 71.7787L58.0392 71.4474L58.1897 71.5679C68.1887 79.5188 74.0013 73.5255 74.2422 73.2845C76.1697 71.2065 74.9349 68.9477 74.8747 68.8573C74.2422 67.8635 73.5495 67.3515 72.7665 67.3515C71.2606 67.2912 69.9053 69.1886 69.8752 69.2187L69.7849 69.3392H69.6343C68.0682 69.0079 66.8635 67.8635 66.8033 67.8333L67.1346 67.4719C67.1346 67.4719 68.2188 68.4959 69.574 68.7971C69.9355 68.3453 71.2305 66.8395 72.7665 66.8696C73.7001 66.8696 74.5735 67.4719 75.2662 68.6164C75.2662 68.6465 76.7419 71.2667 74.5735 73.646C74.5434 73.6761 72.134 76.1457 67.9176 76.1457L67.9477 76.1156Z" fill="#000003"/>
<path d="M71.8331 69.791C71.8331 69.791 70.0863 69.6103 68.5503 68.9477L68.7611 68.496C70.2067 69.1284 71.8632 69.3091 71.8933 69.3091V69.791H71.8331Z" fill="#000003"/>
<path d="M70.3271 72.3208C70.0259 72.3208 69.6947 72.3208 69.3634 72.2304C68.0985 72.0196 66.3517 71.2064 65.0867 68.7368L65.5084 68.526C66.6528 70.845 68.2791 71.5679 69.4236 71.7787C70.9897 72.0497 72.3751 71.5377 72.8871 71.0559C73.9111 70.0921 73.2184 69.0079 73.1883 68.9477C72.8871 68.5862 72.5558 68.4055 72.2245 68.4055C71.4415 68.4357 70.809 69.4596 70.7789 69.4596L70.3572 69.1886C70.3572 69.1886 71.1403 67.9538 72.1643 67.8936C72.6763 67.8936 73.1581 68.1044 73.5497 68.6164C73.9111 69.1284 74.2424 70.3632 73.1883 71.357C72.6461 71.869 71.5318 72.2907 70.2669 72.2907L70.3271 72.3208Z" fill="#000003"/>
<path d="M70.417 75.0313C68.4895 75.0313 65.8091 74.188 63.5202 69.7006L63.972 69.4897C66.9837 75.3927 70.4773 74.7 72.1638 74.3687C75.0551 73.7965 75.3261 71.0257 75.3261 70.9956H75.808C75.808 70.9956 75.5068 74.188 72.2542 74.8506C71.8024 74.941 71.1398 75.0614 70.417 75.0614V75.0313Z" fill="#000003"/>
<path d="M68.7006 76.0854C63.5204 76.0854 61.4423 70.6944 61.4122 70.6342L61.864 70.4535C61.864 70.4535 64.0023 75.9047 69.1825 75.5734V76.0553C69.1825 76.0553 68.8512 76.0553 68.7006 76.0553V76.0854Z" fill="#000003"/>
<path d="M62.6473 74.9108C61.0511 74.3085 59.5453 71.7786 59.485 71.6582L59.9067 71.4172C59.9067 71.4172 61.3824 73.917 62.8281 74.4591L62.6473 74.9108Z" fill="#000003"/>
<path d="M107.371 127.947H99.6611V44.312L103.486 39.7643L107.371 44.312V127.947Z" fill="white"/>
<path d="M107.943 128.519H99.089V44.101L103.486 38.8907L107.943 44.101V128.519ZM100.233 127.375H106.799V44.5227L103.486 40.6375L100.233 44.5227V127.375Z" fill="#000003"/>
<path d="M101.318 128.339C101.137 128.339 100.956 128.188 100.956 127.977V42.1134C100.956 41.9025 101.107 41.752 101.318 41.752C101.529 41.752 101.679 41.9025 101.679 42.1134V128.008C101.679 128.188 101.529 128.369 101.318 128.369V128.339Z" fill="#000003"/>
<path d="M103.516 127.977C103.336 127.977 103.155 127.827 103.155 127.616V40.2159C103.155 40.0051 103.306 39.8545 103.516 39.8545C103.727 39.8545 103.878 40.0051 103.878 40.2159V127.616C103.878 127.797 103.727 127.977 103.516 127.977Z" fill="#000003"/>
<path d="M105.715 127.616C105.534 127.616 105.353 127.465 105.353 127.255V42.3543C105.353 42.1736 105.504 41.9929 105.715 41.9929C105.926 41.9929 106.076 42.1435 106.076 42.3543V127.255C106.076 127.435 105.926 127.616 105.715 127.616Z" fill="#000003"/>
<path d="M63.2797 126.923C57.0454 119.876 51.6545 109.967 48.8837 100.39C45.9322 90.1503 37.7102 82.109 34.6382 79.3683L41.0231 76.718C45.0588 80.6935 52.046 88.6745 54.9372 98.6433C58.4609 110.871 66.2914 122.346 71.9534 126.562L71.7125 126.893H63.2496L63.2797 126.923Z" fill="white"/>
<path d="M40.9624 77.1094C44.9981 81.1149 51.7745 88.9454 54.6055 98.7335C58.0991 110.78 65.6887 122.044 71.3808 126.532H63.4299C57.2558 119.544 51.9552 109.756 49.2146 100.3C46.3534 90.391 38.6434 82.5305 35.2703 79.4585L40.9323 77.1094M41.1431 76.2661L34.0054 79.2176C36.3846 81.2655 45.4499 89.6983 48.5821 100.45C51.6842 111.232 57.6172 121.05 63.1588 127.254H71.953L72.4951 126.441C66.8632 122.436 58.9123 110.871 55.3283 98.4926C52.407 88.4033 45.3897 80.362 41.1733 76.236L41.1431 76.2661Z" fill="#000003"/>
<path d="M41.6554 79.3381L38.8244 81.9583C38.8244 81.9583 39.3966 81.868 39.9387 81.7475C40.511 81.6572 41.0832 81.5668 41.0832 81.5668C41.0832 81.5668 41.2338 80.9946 41.3844 80.4525C41.5349 79.8802 41.6554 79.3381 41.6554 79.3381Z" fill="#000003"/>
<path d="M42.017 85.6025L44.9986 83.1329C44.9986 83.1329 44.4263 83.1932 43.8541 83.2534C43.2819 83.3136 42.7097 83.404 42.7097 83.404C42.7097 83.404 42.529 83.9461 42.3784 84.4882C42.1977 85.0303 42.017 85.5724 42.017 85.5724V85.6025Z" fill="#000003"/>
<path d="M43.3421 81.2356C43.3421 81.2356 42.7699 81.3259 42.1976 81.3862C41.6254 81.4765 41.0532 81.5669 41.0532 81.5669C41.0532 81.5669 40.9026 82.109 40.752 82.6812C40.6014 83.2233 40.4207 83.7654 40.4207 83.7654C40.4207 83.7654 40.9929 83.6751 41.5351 83.5847C42.1073 83.4944 42.6795 83.4341 42.6795 83.4341C42.6795 83.4341 42.8301 82.892 43.0108 82.3198C43.1614 81.7777 43.3421 81.2054 43.3421 81.2054V81.2356Z" fill="#000003"/>
<path d="M47.4984 86.3856L44.3662 88.6745C44.3662 88.6745 44.9384 88.6444 45.5107 88.5841C46.0829 88.5841 46.6551 88.5239 46.6551 88.5239C46.6551 88.5239 46.8659 87.9818 47.0768 87.4397C47.2876 86.8976 47.4984 86.3555 47.4984 86.3555V86.3856Z" fill="#000003"/>
<path d="M47.0163 92.6499L50.3593 90.6923C50.3593 90.6923 49.7871 90.6622 49.2149 90.6321C48.6426 90.6321 48.0704 90.6321 48.0704 90.6321C48.0704 90.6321 47.8295 91.1441 47.5584 91.6561C47.3175 92.1681 47.0464 92.6499 47.0464 92.6499H47.0163Z" fill="#000003"/>
<path d="M48.9741 88.4938C48.9741 88.4938 48.4018 88.4938 47.7995 88.4938C47.2273 88.4938 46.655 88.5239 46.655 88.5239C46.655 88.5239 46.4442 89.066 46.2033 89.578C45.9623 90.09 45.7515 90.6321 45.7515 90.6321C45.7515 90.6321 46.3238 90.6321 46.896 90.6321C47.4682 90.6321 48.0404 90.6321 48.0404 90.6321C48.0404 90.6321 48.2814 90.1201 48.5223 89.578C48.7632 89.0359 48.9741 88.5239 48.9741 88.5239V88.4938Z" fill="#000003"/>
<path d="M52.2565 94.4569L48.7027 95.9628C48.7027 95.9628 49.2749 96.023 49.817 96.1435C50.3591 96.2338 50.9314 96.3844 50.9314 96.3844C50.9314 96.3844 51.2928 95.9327 51.6241 95.4508C51.9554 94.9689 52.2565 94.487 52.2565 94.487V94.4569Z" fill="#000003"/>
<path d="M50.058 100.48L53.7624 99.3962C53.7624 99.3962 53.2203 99.2456 52.6782 99.0951C52.1361 98.9445 51.594 98.7336 51.594 98.7336C51.594 98.7336 51.2024 99.1553 50.8109 99.5769C50.4194 99.9986 50.058 100.48 50.058 100.48Z" fill="#000003"/>
<path d="M53.16 97.0168C53.16 97.0168 53.0396 96.9566 52.7986 96.8964C52.5878 96.8361 52.3168 96.7458 52.0156 96.6554C51.7445 96.5651 51.4434 96.5048 51.2325 96.4446C51.0217 96.3844 50.8711 96.3542 50.8711 96.3542C50.8711 96.3542 50.7808 96.4747 50.6603 96.6253C50.5398 96.806 50.3591 97.0168 50.1483 97.2276C49.9676 97.4385 49.7869 97.6493 49.6363 97.7999C49.4857 97.9505 49.3954 98.0408 49.3954 98.0408C49.3954 98.0408 49.9074 98.1613 50.4796 98.342C51.0217 98.5227 51.5638 98.7335 51.5638 98.7335C51.5638 98.7335 51.9553 98.3119 52.3469 97.9203C52.7384 97.4987 53.1299 97.0168 53.1299 97.0168H53.16Z" fill="#000003"/>
<path d="M55.027 102.98L51.4431 104.396C51.4431 104.396 51.5936 104.396 51.8045 104.456C52.0153 104.486 52.3165 104.546 52.5875 104.607C53.1597 104.697 53.732 104.817 53.732 104.817C53.732 104.817 54.0632 104.335 54.3945 103.884C54.5752 103.643 54.7258 103.432 54.8463 103.251C54.9668 103.071 55.0571 102.95 55.0571 102.95L55.027 102.98Z" fill="#000003"/>
<path d="M53.4917 109.064L56.9552 107.377C56.9552 107.377 56.383 107.317 55.8108 107.257C55.2385 107.196 54.6663 107.106 54.6663 107.106C54.6663 107.106 54.3651 107.588 54.064 108.07C53.7628 108.582 53.4616 109.064 53.4616 109.064H53.4917Z" fill="#000003"/>
<path d="M55.9612 105.209C55.9612 105.209 55.8106 105.209 55.5998 105.149C55.389 105.118 55.118 105.088 54.8168 105.028C54.2446 104.938 53.6723 104.847 53.6723 104.847C53.6723 104.847 53.341 105.329 53.0399 105.811C52.8893 106.052 52.7086 106.293 52.5881 106.474C52.4676 106.654 52.4074 106.775 52.4074 106.775C52.4074 106.775 52.9796 106.865 53.5519 106.956C54.1241 107.046 54.6963 107.106 54.6963 107.106C54.6963 107.106 54.9975 106.624 55.3288 106.142C55.6299 105.661 55.9612 105.179 55.9612 105.179V105.209Z" fill="#000003"/>
<path d="M58.7623 110.841L55.3591 112.708C55.3591 112.708 55.9313 112.738 56.5035 112.798C57.0758 112.829 57.648 112.859 57.648 112.859C57.648 112.859 57.919 112.347 58.1901 111.865C58.4611 111.353 58.7322 110.871 58.7322 110.871L58.7623 110.841Z" fill="#000003"/>
<path d="M57.949 117.075L61.2317 115.027C61.2317 115.027 60.6595 115.027 60.0873 115.027C59.5151 115.027 58.9428 115.027 58.9428 115.027C58.9428 115.027 58.7019 115.539 58.4308 116.051C58.1899 116.563 57.949 117.105 57.949 117.105V117.075Z" fill="#000003"/>
<path d="M59.9663 112.949C59.9663 112.949 59.3941 112.949 58.8218 112.919C58.2496 112.889 57.6774 112.859 57.6774 112.859C57.6774 112.859 57.4063 113.371 57.1353 113.883C56.8642 114.394 56.6233 114.906 56.6233 114.906C56.6233 114.906 57.1955 114.906 57.7677 114.967C58.34 114.967 58.9122 114.997 58.9122 114.997C58.9122 114.997 59.1833 114.485 59.4242 113.973C59.6952 113.461 59.9362 112.949 59.9362 112.949H59.9663Z" fill="#000003"/>
<path d="M63.34 118.25L60.1777 120.478C60.1777 120.478 60.3283 120.478 60.5391 120.478C60.75 120.478 61.0511 120.478 61.3222 120.448C61.8944 120.418 62.4666 120.388 62.4666 120.388C62.4666 120.388 62.6775 119.846 62.8883 119.334C63.0087 119.063 63.0991 118.792 63.1895 118.611C63.2798 118.4 63.34 118.28 63.34 118.28V118.25Z" fill="#000003"/>
<path d="M63.3399 124.544L66.2613 122.014C66.2613 122.014 65.7192 122.105 65.1469 122.195C64.5747 122.255 64.0025 122.315 64.0025 122.315C64.0025 122.315 63.8218 122.857 63.6411 123.43C63.4905 123.972 63.3399 124.544 63.3399 124.544Z" fill="#000003"/>
<path d="M64.7556 120.177C64.7556 120.177 64.1834 120.237 63.6112 120.267C63.0389 120.297 62.4667 120.358 62.4667 120.358C62.4667 120.358 62.2559 120.9 62.0752 121.442C61.8945 121.984 61.6837 122.526 61.6837 122.526C61.6837 122.526 62.2559 122.466 62.8281 122.436C63.4003 122.376 63.9726 122.315 63.9726 122.315C63.9726 122.315 64.1533 121.773 64.334 121.231C64.5147 120.689 64.7255 120.177 64.7255 120.177H64.7556Z" fill="#000003"/>
<path d="M41.5952 86.0242H18.4954V86.7169H41.5952V86.0242Z" fill="#000003"/>
<path d="M46.3837 36.8428C46.8957 38.1077 47.1667 39.1618 47.2571 39.5834H82.1328C82.1328 39.5834 82.3436 38.3787 82.9158 36.8428H46.4138H46.3837Z" fill="#000003"/>
<path d="M46.3837 36.8427L48.7027 31.8734L50.9615 36.8427H46.3837Z" fill="#000003"/>
<path d="M50.9617 36.8427L53.3108 31.8734L55.5696 36.8427H50.9617Z" fill="#000003"/>
<path d="M55.5698 36.8427L57.8888 31.8734L60.1476 36.8427H55.5698Z" fill="#000003"/>
<path d="M60.1473 36.8427L62.4965 31.8734L64.7553 36.8427H60.1473Z" fill="#000003"/>
<path d="M64.7555 36.8427L67.0745 31.8734L69.3333 36.8427H64.7555Z" fill="#000003"/>
<path d="M69.3336 36.8427L71.6827 31.8734L73.9114 36.8427H69.3336Z" fill="#000003"/>
<path d="M73.9106 36.8427L76.2597 31.8734L78.5185 36.8427H73.9106Z" fill="#000003"/>
<path d="M78.5185 36.8427L80.8375 31.8734L83.0963 36.8427H78.5185Z" fill="#000003"/>
<path d="M44.035 136.772C44.4566 135.748 44.6675 134.663 44.6675 133.519C44.6675 128.821 40.8125 125.026 36.1142 125.026C31.4159 125.026 27.6211 128.881 27.6512 133.579C27.6512 135.266 28.1632 136.832 29.0065 138.127L36.2648 151.379L44.0651 136.742L44.035 136.772Z" fill="#F50032"/>
<path d="M36.2346 152.312L28.5848 138.368C27.6813 136.952 27.1994 135.296 27.1693 133.579C27.1693 128.64 31.1448 124.604 36.084 124.574C41.0232 124.574 45.0589 128.55 45.089 133.489C45.089 134.663 44.8782 135.838 44.4265 136.922L36.2647 152.312H36.2346ZM36.1141 125.448C31.6568 125.448 28.0427 129.122 28.0728 133.579C28.0728 135.115 28.5246 136.621 29.3377 137.916L36.2045 150.505L43.6133 136.591C44.0048 135.597 44.2156 134.573 44.2156 133.519C44.2156 129.062 40.5413 125.448 36.084 125.478L36.1141 125.448Z" fill="#000003"/>
<path d="M44.035 136.772C44.4566 135.748 44.6675 134.663 44.6675 133.519C44.6675 128.821 40.8125 125.026 36.1142 125.026C31.4159 125.026 27.6211 128.881 27.6512 133.579C27.6512 135.266 28.1632 136.832 29.0065 138.127C29.0065 138.127 29.1571 129.935 36.1443 129.724C36.1443 129.724 43.8543 129.694 43.011 138.699L44.035 136.772Z" fill="white"/>
<path d="M42.3778 140.807L42.5886 138.669C42.8296 135.898 42.2875 133.73 40.9322 132.254C39.0348 130.176 36.1737 130.176 36.1436 130.176C29.6383 130.387 29.4274 137.856 29.4274 138.157V139.573L28.6444 138.368C27.7409 136.952 27.2289 135.296 27.2289 133.579C27.2289 128.64 31.2044 124.604 36.1436 124.574C41.0828 124.574 45.1185 128.55 45.1486 133.489C45.1486 134.663 44.9378 135.838 44.486 136.922L42.4381 140.807H42.3778ZM36.1135 129.303C36.264 129.303 39.4263 129.303 41.5647 131.682C42.7694 132.977 43.4018 134.724 43.4922 136.892L43.6427 136.621C44.0343 135.627 44.2451 134.603 44.2451 133.549C44.2451 129.092 40.5708 125.478 36.1135 125.508C31.6561 125.508 28.042 129.182 28.0722 133.639C28.0722 134.724 28.283 135.778 28.7046 136.772C29.1263 134.302 30.6622 129.544 36.1135 129.363V129.303Z" fill="#000003"/>
<path d="M41.0532 142.343C41.2941 141.711 41.4447 141.048 41.4447 140.326C41.4447 137.404 39.0654 135.055 36.1441 135.085C33.2227 135.115 30.8736 137.464 30.9037 140.386C30.9037 141.44 31.2048 142.404 31.7469 143.217L36.2344 151.439L41.0532 142.373V142.343Z" fill="#FFCE57"/>
<path d="M36.2347 152.071L31.446 143.337C30.8738 142.434 30.5726 141.41 30.5726 140.356C30.5726 137.253 33.0422 134.754 36.1443 134.724C39.2464 134.724 41.7461 137.223 41.7762 140.295C41.7762 141.048 41.6256 141.771 41.3546 142.434L36.2347 152.071ZM36.1443 135.386C33.4036 135.386 31.2051 137.645 31.2352 140.356C31.2352 141.289 31.5063 142.223 32.0183 143.006L36.2347 150.716L40.7824 142.193C41.0233 141.59 41.1438 140.958 41.1438 140.325C41.1438 137.585 38.9151 135.386 36.1744 135.386H36.1443Z" fill="#000003"/>
<path d="M39.246 142.012C39.3966 141.62 39.487 141.199 39.487 140.747C39.487 138.91 37.9811 137.434 36.1741 137.464C34.3369 137.464 32.8612 138.97 32.8913 140.777C32.8913 141.44 33.072 142.042 33.4033 142.554L36.2343 147.704L39.2762 142.012H39.246Z" fill="#F50032"/>
<path d="M36.2041 148.126L33.1924 142.645C32.831 142.102 32.6503 141.44 32.6503 140.777C32.6503 138.85 34.2164 137.254 36.1439 137.254C38.0714 137.254 39.6676 138.82 39.6676 140.747C39.6676 141.199 39.5772 141.651 39.3965 142.102L36.174 148.156L36.2041 148.126ZM36.1439 137.645C34.4272 137.645 33.0418 139.061 33.0418 140.777C33.0418 141.38 33.2225 141.952 33.5237 142.434L36.174 147.252L39.0351 141.892C39.1857 141.53 39.2459 141.139 39.2459 140.717C39.2459 139 37.8304 137.615 36.1137 137.615L36.1439 137.645Z" fill="#000003"/>
<path d="M36.234 152.161L29.9696 140.687C29.2167 139.512 28.8251 138.157 28.8251 136.772C28.8251 132.706 32.0778 129.393 36.1436 129.363C40.2094 129.363 43.5223 132.615 43.5223 136.681C43.5223 137.645 43.3416 138.609 42.9802 139.482L36.2641 152.131L36.234 152.161ZM36.1135 130.086C32.4392 130.086 29.4877 133.097 29.5178 136.772C29.5178 138.037 29.8792 139.271 30.5719 140.325L36.234 150.656L42.3176 139.211C42.6489 138.398 42.7995 137.555 42.7995 136.681C42.7995 133.007 39.7878 130.055 36.1436 130.055L36.1135 130.086Z" fill="#000003"/>
<path d="M29.2776 135.145L29.7896 134.091L28.9765 128.941C28.7656 129.272 28.5849 129.604 28.4042 129.965L29.2776 135.175V135.145Z" fill="#000003"/>
<path d="M30.8739 126.863C30.6631 127.044 30.4222 127.224 30.2114 127.435L30.7535 132.043L31.4462 131.742L30.8739 126.863Z" fill="#000003"/>
<path d="M32.6807 130.838L33.3734 130.296L33.012 125.628C32.771 125.719 32.5301 125.839 32.3193 125.929L32.6807 130.838Z" fill="#000003"/>
<path d="M34.7286 130.025L35.4514 129.905L35.3309 125.056C35.09 125.056 34.849 125.116 34.6081 125.146L34.7587 129.995L34.7286 130.025Z" fill="#000003"/>
<path d="M37.6197 125.146C37.3788 125.116 37.1379 125.086 36.8969 125.056L36.8066 129.754L37.4993 129.995L37.5896 125.146H37.6197Z" fill="#000003"/>
<path d="M39.8788 125.869C39.6378 125.749 39.427 125.658 39.1861 125.568L38.8849 130.417L39.5776 130.778L39.9089 125.869H39.8788Z" fill="#000003"/>
<path d="M40.8117 131.712L41.4742 132.164L41.9862 127.345C41.7754 127.164 41.5646 126.953 41.3237 126.773L40.7816 131.682L40.8117 131.712Z" fill="#000003"/>
<path d="M43.0106 135.266L43.8538 129.905C43.7033 129.543 43.4924 129.212 43.2816 128.911L42.5287 134.121L43.0106 135.296V135.266Z" fill="#000003"/>
<path d="M35.5715 146.59L36.1136 147.584L36.0534 137.464C35.8727 137.464 35.692 137.464 35.5113 137.524V146.59H35.5715Z" fill="#000003"/>
<path d="M34.7591 145.024L35.2409 145.927V137.615C35.0301 137.675 34.8795 137.735 34.7289 137.796V145.024H34.7591Z" fill="#000003"/>
<path d="M33.8855 143.458L34.3373 144.271V138.006C34.1566 138.127 34.006 138.247 33.8554 138.368V143.458H33.8855Z" fill="#000003"/>
<path d="M33.0122 141.771C33.1025 142.042 33.223 142.313 33.3736 142.554L33.4338 142.675V138.88C33.223 139.151 33.1025 139.452 32.9821 139.783V141.771H33.0122Z" fill="#000003"/>
<path d="M36.4751 147.192L36.9871 146.228V137.555C36.7763 137.524 36.5956 137.494 36.4149 137.464L36.4751 147.192Z" fill="#000003"/>
<path d="M37.3488 145.566L37.8307 144.632V137.886C37.65 137.796 37.4693 137.735 37.2886 137.645V145.566H37.3488Z" fill="#000003"/>
<path d="M38.2221 143.909L38.6438 143.096V138.579C38.4932 138.428 38.3426 138.308 38.192 138.157V143.879L38.2221 143.909Z" fill="#000003"/>
<path d="M39.0956 142.283L39.2462 142.012C39.3968 141.621 39.4871 141.199 39.4871 140.747C39.4871 140.175 39.3365 139.663 39.0956 139.181V142.283Z" fill="#000003"/>
<path d="M71.381 126.261H54.5154V140.265H71.381V126.261Z" fill="#FFCE57"/>
<path d="M71.8931 140.807H54.0035V125.779H71.8931V140.807ZM55.0275 139.783H70.8692V126.773H55.0275V139.783Z" fill="#000003"/>
<path d="M68.5496 128.64H57.346V137.946H68.5496V128.64Z" fill="#000003"/>
</g>
<rect x="7.25" y="31.5" width="107" height="129" rx="5.5" stroke="#F50032"/>
</g>
</g>
</g>
<rect x="0.5" y="0.5" width="121" height="167.25" rx="10.5" stroke="#ADADAD"/>
<defs>
<clipPath id="clip0_17_2722">
<rect x="1" y="1" width="120" height="166.25" rx="10" fill="white"/>
</clipPath>
<clipPath id="clip1_17_2722">
<rect width="108" height="130" fill="white" transform="translate(6.75 31)"/>
</clipPath>
</defs>
</svg>
