<svg width="123" height="169" viewBox="0 0 123 169" fill="none" xmlns="http://www.w3.org/2000/svg">
<g clip-path="url(#clip0_17_2729)">
<rect x="1.75" y="1" width="120" height="166.25" rx="10" fill="white"/>
<mask id="mask0_17_2729" style="mask-type:alpha" maskUnits="userSpaceOnUse" x="1" y="1" width="121" height="167">
<rect x="1.75" y="1" width="120" height="166.25" fill="#D9D9D9"/>
</mask>
<g mask="url(#mask0_17_2729)">
<path d="M13.42 22.288C10.522 22.288 7.966 21.19 7.966 18.004H11.53C11.53 19.444 12.466 20.056 13.438 20.056C14.968 20.056 15.544 19.21 15.544 17.68V9.4H18.874V17.86C18.874 21.316 16.498 22.288 13.42 22.288Z" fill="#F50032"/>
<path d="M110.925 9.56748C109.514 9.56131 108.254 10.2147 107.43 11.2351C106.618 10.2048 105.365 9.54059 103.953 9.53443C101.493 9.52234 99.4889 11.508 99.476 13.971C99.4646 16.15 105.656 21.5058 107.084 22.7116C107.255 22.8562 107.496 22.8573 107.669 22.7144C109.108 21.5219 115.35 16.2242 115.361 14.0477C115.373 11.5877 113.388 9.58034 110.925 9.56748Z" fill="#F50032"/>
<mask id="mask1_17_2729" style="mask-type:alpha" maskUnits="userSpaceOnUse" x="7" y="31" width="109" height="130">
<rect x="7.5" y="31" width="108" height="130" rx="6" fill="white"/>
</mask>
<g mask="url(#mask1_17_2729)">
<path d="M7.98926 177.519V140.529H115.01V177.457L75.6955 193.458C74.6859 193.091 70.0355 191.5 64.2837 191.5C63.3352 191.5 62.3868 191.531 61.4995 191.623C61.163 191.623 57.7364 191.837 52.7188 194.621C52.5047 194.59 52.1681 194.529 51.7092 194.529C50.9443 194.529 49.8123 194.652 48.4967 195.172C48.4967 195.172 48.4356 195.172 48.405 195.172C48.2826 195.172 47.8849 195.172 45.6208 195.784C45.3761 195.845 43.1121 196.334 42.286 196.671C41.7659 196.671 40.1138 196.701 39.043 197.191L7.98926 177.519Z" fill="#F50032"/>
<path d="M114.521 141.049V177.151L75.6652 192.938C74.3497 192.479 69.791 191.011 64.2534 191.011C63.3049 191.011 62.3565 191.041 61.4387 191.133C61.0103 191.133 57.5531 191.378 52.5968 194.101C52.3826 194.101 52.0461 194.04 51.6789 194.04C50.9141 194.04 49.7209 194.162 48.3747 194.682C48.0993 194.682 47.518 194.743 45.4988 195.294C44.8563 195.416 43.0512 195.845 42.164 196.181C41.4909 196.181 40.1141 196.242 39.0739 196.64L8.47909 177.243V141.019H114.521M115.5 140.04H7.50006V177.794L38.9821 197.772C39.9611 197.221 41.7968 197.16 42.2557 197.16C42.3169 197.16 42.3475 197.16 42.3475 197.16C42.99 196.824 45.7129 196.242 45.7129 196.242C47.518 195.753 48.1605 195.661 48.3747 195.661C48.5277 195.661 48.4665 195.722 48.4665 195.722C49.7821 195.172 50.9141 195.049 51.7095 195.049C52.3826 195.049 52.8109 195.141 52.8109 195.141C58.0426 192.204 61.5304 192.143 61.5304 192.143C62.4789 192.051 63.3967 192.02 64.284 192.02C70.6477 192.02 75.6958 194.04 75.6958 194.04L115.5 177.824V140.07V140.04Z" fill="black"/>
<path d="M93.1046 154.481H67.9251V155.46H93.1046V154.481Z" fill="black"/>
<path d="M94.4506 157.173H68.0779V158.152H94.4506V157.173Z" fill="black"/>
<path d="M94.8483 159.835H69.6688V160.814H94.8483V159.835Z" fill="black"/>
<path d="M38.9821 197.772L7.50006 177.794V140.04H59.2358L83.9564 190.644L74.8698 194.315C74.8698 194.315 67.68 191.47 60.7044 193.214C60.7044 193.214 59.3888 193.336 54.2489 195.998C54.2489 195.998 49.9656 195.233 48.0381 195.906C48.0381 195.906 47.4568 195.753 44.3668 196.548C44.3668 196.548 42.1028 196.732 41.4603 197.068C41.4603 197.068 40.0835 197.099 38.9821 197.742V197.772Z" fill="black"/>
<path d="M68.0171 156.408C67.8947 155.827 67.7724 155.245 67.7112 154.633C67.1299 153.593 66.4568 152.584 65.7531 151.574H33.0779V156.408H68.0171Z" fill="white"/>
<path d="M62.1429 146.74C61.4086 145.761 60.705 144.813 60.0931 143.834C59.6647 143.191 59.42 142.518 59.2976 141.906H33.0779V146.74H62.1429Z" fill="white"/>
<path d="M79.6733 191.99C74.3804 188.074 67.8025 180.914 66.0892 168.921C63.8252 152.951 52.9946 142.334 51.1589 140.652L51.3731 140.407H62.9073C67.4354 146.159 73.126 155.521 74.8393 167.667C76.7668 181.282 87.1384 186.575 90.0143 187.798L79.6733 191.99Z" fill="white"/>
<path d="M62.7241 140.774C67.1909 146.495 72.7898 155.735 74.4725 167.728C76.2776 180.486 85.3948 186.024 89.0968 187.768L79.7348 191.561C74.5337 187.676 68.1394 180.608 66.4566 168.86C64.315 153.685 54.4941 143.313 51.8323 140.743H62.7241M63.0606 140.04H51.1899L50.6697 140.682C50.6697 140.682 63.2748 151.666 65.7224 168.982C67.4357 181.098 74.0441 188.349 79.6124 192.418L90.8101 187.859V187.768C90.8101 187.768 77.3484 183.209 75.1456 167.636C73.4017 155.337 67.6498 145.914 63.03 140.07L63.0606 140.04Z" fill="black"/>
<path d="M104.455 182.108L84.9359 140.04H107.087L110.605 175.652L104.455 182.108Z" fill="black"/>
<path d="M104.363 181.832C105.831 179.874 107.82 176.142 107.483 170.757L107.575 140.529H115.01V177.457L104.363 181.832Z" fill="#F50032"/>
<path d="M114.521 141.049V177.151L105.679 180.792C106.964 178.589 108.249 175.254 108.004 170.788L108.096 141.08H114.552M115.5 140.04H107.056L106.964 170.757C107.454 178.865 102.558 183.087 102.558 183.087L115.469 177.794V140.04H115.5Z" fill="black"/>
<path d="M71.1065 152.155C68.5978 146.74 65.6301 142.855 62.2646 140.56H90.2589C90.7178 140.56 91.1155 141.202 91.1155 141.906V150.809C91.1155 151.513 90.7178 152.155 90.2589 152.155H71.1065Z" fill="#F50032"/>
<path d="M90.2591 141.08C90.2591 141.08 90.5957 141.386 90.5957 141.906V150.809C90.5957 151.329 90.3509 151.635 90.2591 151.635H71.4433C69.2405 146.954 66.6705 143.436 63.8252 141.049H90.2897M90.2591 140.04H60.3986C65.0184 142.426 68.3839 147.444 70.7703 152.675H90.2591C91.024 152.675 91.6359 151.849 91.6359 150.809V141.906C91.6359 140.866 91.024 140.04 90.2591 140.04Z" fill="black"/>
<path d="M74.4722 148.79C73.5238 146.985 72.5141 145.302 71.1985 143.925H86.8019V148.79H74.4722Z" fill="#F50032"/>
<path d="M85.5782 145.18V147.597H75.2372C74.7783 146.771 74.3194 145.945 73.7992 145.18H85.6088M87.1386 142.702H67.4661C70.495 144.078 72.1471 147.015 73.7381 150.044H87.1386C87.6281 150.044 88.0258 149.555 88.0258 148.943V143.772C88.0258 143.191 87.6281 142.702 87.1386 142.702Z" fill="black"/>
<path d="M7.98926 177.029V141.355H37.0237V194.958L36.9319 195.08L7.98926 177.029Z" fill="#FFCE57"/>
<path d="M36.5345 141.875V194.254L8.47909 176.754V141.875H36.5345ZM37.5135 140.866H7.50006V177.304L37.024 195.722L37.5135 195.141V140.866Z" fill="black"/>
<path d="M27.3869 141.784H33.9648V192.663L27.3869 188.533V141.784Z" fill="#F50032"/>
<path d="M34.209 193.091L27.1416 188.685V141.539H34.209V193.091ZM27.6311 188.41L33.7195 192.204V142.028H27.6311V188.41Z" fill="black"/>
<path d="M18.5146 140.866H25.0925V187.859L18.5452 184.188L18.5146 140.866Z" fill="black"/>
<path d="M10.3454 141.784H16.6173V181.955L10.3454 178.161V141.784Z" fill="white"/>
<path d="M16.8624 182.414L10.0704 178.314V141.539H16.8624V182.414ZM10.5905 178.039L16.4035 181.526V142.028H10.5905V178.008V178.039Z" fill="black"/>
<path d="M78.694 43.605C78.694 43.605 76.7971 49.571 80.5909 54.925C84.507 60.5239 83.4974 63.155 83.4974 63.155C83.4974 63.155 80.0096 63.155 79.6118 65.9086C79.1529 69.0598 81.111 74.1386 87.4441 72.1499C87.4441 72.1499 91.4826 70.1001 89.8611 62.6961C88.209 55.2922 82.1206 48.1024 84.354 43.6356H78.7246L78.694 43.605Z" fill="#FFCE57"/>
<path d="M84.7826 72.8231C83.1305 72.8231 81.7537 72.2112 80.7747 71.0792C79.3979 69.4882 79.1532 67.2854 79.3673 65.8475C79.7345 63.3081 82.5492 62.941 83.2835 62.9104C83.4059 62.2985 83.62 59.7285 80.377 55.0781C76.5832 49.6628 78.4495 43.5745 78.4801 43.5133L78.5413 43.3297H84.752L84.5685 43.6968C83.2835 46.328 84.9356 49.9076 86.8631 54.0991C88.1481 56.822 89.433 59.6673 90.1061 62.6044C91.7888 70.1307 87.7503 72.2418 87.5668 72.3336H87.5362C86.5571 72.6701 85.6393 72.8231 84.7826 72.8231ZM78.8778 43.8498C78.6025 44.8595 77.4705 50.0912 80.7747 54.7722C84.7214 60.4322 83.7424 63.1245 83.7118 63.2469L83.6506 63.3999H83.4976C83.4976 63.3999 80.224 63.3999 79.8569 65.9393C79.6733 67.2548 79.8569 69.2741 81.1418 70.7732C82.488 72.3642 84.6602 72.7619 87.3526 71.9052C87.6585 71.7523 91.1769 69.6718 89.6166 62.7268C88.9741 59.8509 87.6891 57.0362 86.4347 54.3438C84.5379 50.2441 82.8857 46.6645 83.9872 43.8804H78.9084L78.8778 43.8498Z" fill="black"/>
<path d="M73.2176 44.064C73.2176 44.064 71.3208 50.0299 75.1145 55.384C79.0306 60.9829 78.021 63.614 78.021 63.614C78.021 63.614 74.5332 63.614 74.1355 66.337C73.6766 69.4882 75.6346 74.567 81.9677 72.5783C81.9677 72.5783 86.0368 70.5285 84.3847 63.1245C82.7326 55.7206 76.6442 48.5614 78.8777 44.064H73.2482H73.2176Z" fill="#FFCE57"/>
<path d="M79.3062 73.3126C77.6541 73.3126 76.2773 72.7007 75.2982 71.5687C73.9215 69.9778 73.6767 67.775 73.8909 66.337C74.258 63.7976 77.0727 63.4305 77.8376 63.3999C77.96 62.788 78.1742 60.2181 74.9311 55.5677C71.1374 50.1524 73.0036 44.0946 73.0342 44.0334L73.0954 43.8499H79.3062L79.1226 44.217C77.8376 46.8481 79.4897 50.4583 81.4172 54.6192C82.7022 57.3422 83.9872 60.1875 84.6603 63.1246C86.343 70.6509 82.3045 72.7925 82.1209 72.8537H82.0903C81.1113 73.1902 80.1934 73.3432 79.3368 73.3432L79.3062 73.3126ZM73.4014 44.3088C73.1566 45.3184 71.994 50.5501 75.2982 55.2311C79.245 60.8911 78.2659 63.5835 78.2354 63.7059L78.1742 63.8588H78.0212C78.0212 63.8588 74.7475 63.8894 74.3804 66.3982C74.1968 67.7138 74.3804 69.733 75.6654 71.2016C77.0116 72.7925 79.1838 73.1902 81.8761 72.3336C82.1821 72.1806 85.6699 70.1002 84.1401 63.1552C83.4977 60.2793 82.1821 57.4645 80.9277 54.7416C79.0308 50.6419 77.3787 47.0623 78.4801 44.2782H73.4014V44.3088Z" fill="black"/>
<path d="M68.9348 44.064C68.9348 44.064 67.0379 50.0299 70.8011 55.384C74.7172 60.9829 73.7076 63.614 73.7076 63.614C73.7076 63.614 70.2504 63.614 69.822 66.337C69.3631 69.4882 71.3212 74.567 77.6543 72.5783C77.6543 72.5783 81.6928 70.5285 80.0713 63.1245C78.4192 55.7206 72.3308 48.5614 74.5642 44.064H68.9348Z" fill="#FFCE57"/>
<path d="M74.9926 73.3126C73.3405 73.3126 71.9637 72.7007 70.9847 71.5687C69.6079 69.9778 69.3632 67.775 69.5774 66.337C69.9445 63.7976 72.7592 63.4305 73.5241 63.3999C73.6465 62.788 73.8606 60.2181 70.6176 55.5677C66.8238 50.1524 68.6901 44.0946 68.7207 44.0334L68.7819 43.8499H74.9926L74.8091 44.217C73.4935 46.8481 75.1762 50.4583 77.1037 54.6192C78.3581 57.3422 79.6736 60.1875 80.3161 63.1246C81.9988 70.6509 77.9603 72.7925 77.7768 72.8537H77.7462C76.7671 73.1902 75.8493 73.3432 74.9926 73.3432V73.3126ZM69.1184 44.3088C68.8431 45.3184 67.7111 50.5501 71.0153 55.2311C74.962 60.8911 73.983 63.5835 73.9524 63.7059L73.8912 63.8588H73.7077C73.7077 63.8588 70.434 63.8894 70.0669 66.3982C69.8833 67.7138 70.0975 69.733 71.3519 71.2016C72.7286 72.7925 74.8702 73.1902 77.5626 72.3336C77.8685 72.1806 81.3869 70.1002 79.8266 63.1552C79.1841 60.2793 77.8991 57.4645 76.6142 54.7416C74.7173 50.6419 73.0652 47.0623 74.1666 44.2782H69.0878L69.1184 44.3088Z" fill="black"/>
<path d="M112.043 73.9551H98.6115V76.3415H112.043V73.9551Z" fill="black"/>
<path d="M47.3958 60.4628C47.3958 60.4628 50.2717 59.8509 51.2202 61.3501C51.2202 61.3501 49.7516 61.962 48.7726 60.6464C48.7726 60.6464 47.8241 60.3405 47.3958 60.4628Z" fill="black"/>
<path d="M49.4762 68.2339C50.1799 68.3562 51.2201 68.5398 52.1379 68.0503C52.1379 68.0503 50.8835 69.9778 48.6807 69.1517L49.4762 68.2339Z" fill="black"/>
<path d="M56.7581 76.1578C52.5054 76.1578 49.3848 75.087 49.3236 75.0564C48.5893 74.8729 48.0692 74.4445 47.7938 73.802C47.0596 72.0581 48.4975 69.1822 48.9259 68.3562C48.1916 67.3771 48.5281 65.7862 48.6199 65.3273L48.2834 64.5624L48.5281 62.6655C46.3865 62.1148 45.1321 61.35 44.765 60.3403C44.459 59.5143 44.8873 58.8412 44.9179 58.8412L48.0998 53.4871C48.008 52.9058 47.5797 50.4888 47.5185 49.7851C47.3349 48.1636 48.5281 43.5438 48.5893 43.3602L49.2624 43.5438C49.2624 43.5438 48.0386 48.1942 48.2222 49.6933C48.314 50.4582 48.8341 53.4565 48.8341 53.4871V53.6095L45.4992 59.2083C45.4992 59.2389 45.2239 59.6367 45.4075 60.0956C45.6216 60.6463 46.4171 61.4417 48.987 62.0536L49.293 62.1148L48.987 64.44L49.3542 65.2355V65.3579C49.1706 65.878 48.9258 67.4077 49.5683 68.0196L49.7519 68.2032L49.6295 68.448C49.0788 69.3658 47.7938 72.1193 48.4057 73.4961C48.5893 73.9244 48.9564 74.1998 49.5072 74.3527C49.6295 74.4139 60.1847 77.9935 68.5371 71.7522L68.9348 72.3029C64.9269 75.3012 60.3989 76.1272 56.7275 76.1272L56.7581 76.1578Z" fill="black"/>
<path d="M84.6298 40.9739H48.375V43.8804H84.6298V40.9739Z" fill="white"/>
<path d="M84.8134 44.064H48.1608V40.7598H84.8134V44.064ZM48.5586 43.6663H84.4156V41.1575H48.5586V43.6663Z" fill="black"/>
<path d="M48.7732 38.9242C48.4978 37.6698 47.427 33.9066 44.6123 31.4896H88.3628C85.5481 33.9066 84.5079 37.6698 84.202 38.9242H48.7426H48.7732Z" fill="#F50032"/>
<path d="M87.1696 31.979C85.1503 34.2125 84.2019 37.0578 83.8348 38.4345H49.1709C48.8037 37.0578 47.8859 34.2125 45.8361 31.979H87.1696ZM89.9231 31H43.0825C47.3352 33.4782 48.3754 39.4136 48.3754 39.4136H84.6302C84.6302 39.4136 85.6705 33.4476 89.9231 31Z" fill="black"/>
<path d="M47.3957 36.2928C47.3957 36.2928 48.3747 40.1478 48.3747 40.9738H84.6296C84.6296 40.9738 84.9049 37.2107 85.3638 36.2928H47.3651H47.3957Z" fill="black"/>
<path d="M7.98926 127.833V90.9046L47.3036 74.9035C48.2826 75.2707 52.9636 76.8616 58.7154 76.8616C59.6638 76.8616 60.6123 76.8004 61.4995 76.7392C61.8055 76.7392 65.2627 76.5251 70.2802 73.7409C70.4638 73.7409 70.8309 73.8021 71.2899 73.8021C72.0547 73.8021 73.1867 73.6797 74.5023 73.1596C74.5329 73.1596 74.5635 73.1596 74.5941 73.1596C74.7165 73.1596 75.1142 73.1596 77.3782 72.5477C77.623 72.4866 79.887 71.997 80.7131 71.6605C81.2332 71.6605 82.8853 71.6299 83.9561 71.1404L114.979 90.8128V127.802H7.98926V127.833Z" fill="#F50032"/>
<path d="M83.9564 71.7216L114.521 91.1187V127.343H8.47909V91.2411L47.3039 75.4236C48.6194 75.8825 53.1781 77.351 58.7157 77.351C59.6642 77.351 60.6126 77.2899 61.5304 77.2287C61.9588 77.2287 65.416 76.9839 70.3723 74.261C70.5865 74.261 70.923 74.3222 71.2902 74.3222C72.0551 74.3222 73.2483 74.1998 74.5944 73.6797C74.8698 73.6797 75.4511 73.6185 77.4703 73.0678C78.1128 72.9454 79.9179 72.5171 80.8052 72.1805C81.4782 72.1805 82.855 72.1193 83.9258 71.7216M84.0176 70.5896C83.0692 71.1403 81.2029 71.2015 80.744 71.2015H80.6522C80.0097 71.538 77.2868 72.1193 77.2868 72.1193C75.4817 72.6089 74.8392 72.7006 74.625 72.7006C74.472 72.7006 74.5332 72.67 74.5332 72.67C73.2177 73.2208 72.0856 73.3431 71.2902 73.3431C70.6171 73.3431 70.1888 73.2513 70.1888 73.2513C64.9571 76.1578 61.4387 76.2496 61.4387 76.2496C60.5208 76.3414 59.5724 76.372 58.6851 76.372C52.3214 76.372 47.2733 74.3528 47.2733 74.3528L7.50006 90.568V128.322H115.5V90.568L84.0176 70.5896Z" fill="black"/>
<path d="M55.0447 112.872H29.8958V113.851H55.0447V112.872Z" fill="black"/>
<path d="M54.9227 110.21H28.55V111.189H54.9227V110.21Z" fill="black"/>
<path d="M53.3309 107.518H28.1514V108.497H53.3309V107.518Z" fill="black"/>
<path d="M51.6792 104.856H26.5303V105.835H51.6792V104.856Z" fill="black"/>
<path d="M50.0574 102.163H24.9084V103.142H50.0574V102.163Z" fill="black"/>
<path d="M48.4664 99.5017H23.2869V100.481H48.4664V99.5017Z" fill="black"/>
<path d="M48.3139 96.8093H23.165V97.7884H48.3139V96.8093Z" fill="black"/>
<path d="M46.5694 91.4553H20.4108V92.4344H46.5694V91.4553Z" fill="black"/>
<path d="M84.0178 70.5896L115.5 90.568V128.322H63.764L39.0435 77.7182L48.1301 74.0468C48.1301 74.0468 55.2893 76.8921 62.2955 75.1482C62.2955 75.1482 63.6111 75.0258 68.751 72.3641C68.751 72.3641 73.0343 73.129 74.9617 72.4559C74.9617 72.4559 75.5736 72.6394 78.6331 71.8134C78.6331 71.8134 80.8971 71.6298 81.5396 71.2933C81.5396 71.2933 82.9164 71.2933 84.0178 70.6202V70.5896Z" fill="black"/>
<path d="M47.3038 82.95V86.193C48.2522 86.4683 49.1089 87.0191 49.7208 87.7839H89.9223V82.95H47.3038Z" fill="white"/>
<path d="M50.8223 92.6179C50.8223 94.2394 50.914 95.8304 50.9752 97.4519H89.9224V92.6179H50.8223Z" fill="white"/>
<path d="M51.3122 102.286C51.4346 103.479 51.5264 104.703 51.6793 105.896C51.6793 105.896 51.7099 105.927 51.7405 105.957C52.1383 106.324 52.4748 106.722 52.8113 107.12H89.9228V102.286H51.3122Z" fill="white"/>
<path d="M54.9527 111.954C55.075 112.535 55.1974 113.116 55.2586 113.728C55.8705 114.769 56.5436 115.778 57.2167 116.788H89.8919V111.954H54.9221H54.9527Z" fill="white"/>
<path d="M60.8572 121.622C61.5915 122.601 62.2951 123.549 62.907 124.528C63.3354 125.171 63.5801 125.813 63.7025 126.456H89.9222V121.622H60.8572Z" fill="white"/>
<path d="M60.0928 127.955C55.5647 122.203 49.8741 112.841 48.1608 100.695C46.2333 87.0802 35.8617 81.7873 32.9858 80.5636L43.3268 76.3721C48.6197 80.2882 55.1976 87.4474 56.9109 99.4405C59.1749 115.442 70.0055 126.027 71.8412 127.71L71.627 127.955H60.1234H60.0928Z" fill="white"/>
<path d="M43.2658 76.7697C48.4975 80.6552 54.8612 87.7226 56.5439 99.471C58.6855 114.646 68.5064 125.018 71.1988 127.588H60.307C55.8402 121.866 50.2414 112.627 48.5587 100.634C46.7536 87.8756 37.6363 82.338 33.9343 80.5941L43.2964 76.8003M43.3575 75.9742L32.1599 80.5329V80.6552C32.1599 80.6552 45.6216 85.2139 47.7938 100.756C49.5377 113.055 55.2895 122.509 59.9093 128.322H71.7801L72.3002 127.679C72.3002 127.679 59.6952 116.696 57.2476 99.3793C55.5343 87.2637 48.9258 80.0128 43.3575 75.9742Z" fill="black"/>
<path d="M18.5454 86.2542L38.0342 128.322H15.9142L12.3958 92.7096L18.5454 86.2542Z" fill="black"/>
<path d="M7.98926 127.832V90.9046L18.6362 86.5295C17.1677 88.4876 15.179 92.2202 15.5156 97.6048L15.4238 127.802H7.98926V127.832Z" fill="#F50032"/>
<path d="M17.321 87.6003C16.036 89.8031 14.751 93.138 14.9958 97.6354L14.904 127.343H8.47909V91.2411L17.321 87.6003ZM20.4111 85.2445L7.50006 90.568V128.322H15.9136L16.0054 97.6048C15.5159 89.4972 20.4111 85.2751 20.4111 85.2751V85.2445Z" fill="black"/>
<path d="M32.7407 127.802C32.2818 127.802 31.8841 127.159 31.8841 126.456V117.522C31.8841 116.818 32.2818 116.176 32.7407 116.176H51.8931C54.4019 121.591 57.3695 125.477 60.735 127.771H32.7407V127.802Z" fill="#F50032"/>
<path d="M51.5568 116.696C53.7596 121.377 56.3295 124.926 59.2055 127.282H32.741C32.741 127.282 32.4044 126.976 32.4044 126.456V117.522C32.4044 117.002 32.6492 116.696 32.741 116.696H51.5568ZM52.2298 115.686H32.741C31.9761 115.686 31.3642 116.512 31.3642 117.553V126.486C31.3642 127.527 31.9761 128.353 32.741 128.353H62.6015C57.9817 125.966 54.6162 120.918 52.2298 115.717V115.686Z" fill="black"/>
<path d="M36.1985 124.436V119.572H48.5282C49.4767 121.346 50.4863 123.06 51.7713 124.436H36.1985Z" fill="#F50032"/>
<path d="M47.7933 120.796C48.2522 121.622 48.7111 122.417 49.2312 123.182H37.4216V120.796H47.7627M49.2618 118.317H35.8613C35.3718 118.317 34.9741 118.807 34.9741 119.388V124.559C34.9741 125.14 35.3718 125.63 35.8613 125.63H55.5338C52.5049 124.222 50.8527 121.316 49.2618 118.287V118.317Z" fill="black"/>
<path d="M46.7229 94.1477H21.5434V95.1267H46.7229V94.1477Z" fill="black"/>
<path d="M85.9457 127.006V73.4044L86.0681 73.282L115.011 91.3329V127.006H85.9457Z" fill="#FFCE57"/>
<path d="M86.4653 74.1081L114.521 91.6083V126.486H86.4653V74.1081ZM85.9757 72.6395L85.4556 73.2208V127.496H115.5V91.0576L85.9757 72.6395Z" fill="black"/>
<path d="M95.6129 126.578H89.035V75.699L95.6129 79.8293V126.578Z" fill="#F50032"/>
<path d="M95.858 126.823H88.7906V75.2706L95.858 79.6763V126.823ZM89.2802 126.333H95.3685V79.9516L89.2802 76.1579V126.333Z" fill="black"/>
<path d="M104.486 127.496H97.9081V80.5024L104.455 84.1738L104.486 127.496Z" fill="black"/>
<path d="M112.654 126.578H106.352V86.3766L112.654 90.2009V126.578Z" fill="white"/>
<path d="M112.899 126.823H106.107V85.9482L112.899 90.0479V126.823ZM106.597 126.333H112.379V90.3539L106.597 86.8355V126.333Z" fill="black"/>
<path d="M115.5 127H7.5V161H115.5V127Z" fill="#FFCE57"/>
<path d="M114.5 156H7.5V160H114.5V156Z" fill="black"/>
<path d="M117 140V139.5H116.5H4.5H4V140V145V145.5H4.5H116.5H117V145V140Z" fill="#F50032" stroke="black"/>
<path d="M117 149.5V149H116.5H4.5H4V149.5V152.5V153H4.5H116.5H117V152.5V149.5Z" fill="white" stroke="black"/>
<path d="M115.01 127.312H7.98926V140.162H115.01V127.312Z" fill="#FFCE57"/>
<path d="M114.521 127.833V139.703H8.47909V127.833H114.521ZM115.5 126.823H7.50006V140.652H115.5V126.823Z" fill="black"/>
<path d="M72.3305 126.762H55.1362V140.682H72.3305V126.762Z" fill="#FFCE57"/>
<path d="M72.8501 141.172H54.6156V126.242H72.8501V141.172ZM55.6252 140.132H71.8099V127.251H55.6252V140.132Z" fill="black"/>
<path d="M70.2194 128.444H57.2166V138.969H70.2194V128.444Z" fill="black"/>
<path d="M45.1325 136.338C45.5608 135.328 45.775 134.196 45.775 133.034C45.775 128.261 41.92 124.375 37.1778 124.375C32.4356 124.375 28.5807 128.261 28.5807 133.034C28.5807 134.747 29.0702 136.338 29.9269 137.654L37.2084 151.146L45.1631 136.338H45.1325Z" fill="#F50032"/>
<path d="M37.1773 152.094L29.5286 137.898C28.6107 136.46 28.1212 134.747 28.1212 133.034C28.1212 128.016 32.1903 123.947 37.1773 123.947C42.1642 123.947 46.2333 128.016 46.2333 133.034C46.2333 134.227 45.9886 135.42 45.5602 136.491L37.2079 152.064L37.1773 152.094ZM37.1773 124.834C32.6798 124.834 29.0085 128.506 29.0085 133.034C29.0085 134.594 29.4368 136.124 30.2934 137.439L37.1773 150.228L44.7342 136.154C45.1319 135.175 45.3461 134.104 45.3461 133.034C45.3461 128.506 41.6747 124.834 37.1773 124.834Z" fill="black"/>
<path d="M45.1325 136.338C45.5608 135.328 45.775 134.196 45.775 133.034C45.775 128.261 41.92 124.375 37.1778 124.375C32.4356 124.375 28.5807 128.261 28.5807 133.034C28.5807 134.747 29.0702 136.338 29.9269 137.654C29.9269 137.654 30.1104 129.332 37.2084 129.148C37.2084 129.148 45.0101 129.148 44.1228 138.296L45.1631 136.338H45.1325Z" fill="white"/>
<path d="M43.4186 140.438L43.6328 138.265C43.9081 135.451 43.3574 133.248 41.9807 131.749C40.0532 129.638 37.1773 129.607 37.1467 129.607C30.5688 129.791 30.324 137.378 30.324 137.684V139.122L29.5286 137.898C28.6107 136.43 28.1212 134.747 28.1212 133.034C28.1212 128.016 32.1903 123.947 37.1773 123.947C42.1642 123.947 46.2333 128.016 46.2333 133.034C46.2333 134.227 45.9886 135.42 45.5602 136.491L43.4798 140.407L43.4186 140.438ZM37.1467 128.72C37.2997 128.72 40.4815 128.75 42.6537 131.137C43.8469 132.452 44.4894 134.227 44.5812 136.43L44.7342 136.124C45.1319 135.145 45.3461 134.074 45.3461 133.003C45.3461 128.475 41.6747 124.804 37.1773 124.804C32.6798 124.804 29.0085 128.475 29.0085 133.003C29.0085 134.104 29.2226 135.175 29.6204 136.185C30.0793 133.707 31.6396 128.842 37.1467 128.689V128.72Z" fill="black"/>
<path d="M42.0719 141.998C42.3167 141.355 42.4697 140.682 42.4697 139.948C42.4697 136.98 40.0833 134.594 37.1462 134.594C34.2091 134.594 31.8227 136.98 31.8227 139.948C31.8227 140.988 32.1286 141.967 32.6488 142.824L37.1462 151.176L42.0719 141.998Z" fill="#F50032"/>
<path d="M37.1468 151.849L32.374 142.977C31.7927 142.059 31.5174 141.019 31.5174 139.948C31.5174 136.797 34.0568 134.257 37.1774 134.257C40.2981 134.257 42.8375 136.797 42.8375 139.948C42.8375 140.682 42.6845 141.417 42.4091 142.12L37.1774 151.849H37.1468ZM37.1468 134.93C34.3933 134.93 32.1599 137.194 32.1599 139.948C32.1599 140.896 32.4352 141.845 32.9248 142.64L37.1468 150.473L41.7666 141.845C42.0114 141.233 42.1338 140.59 42.1338 139.948C42.1338 137.164 39.9004 134.93 37.1468 134.93Z" fill="black"/>
<path d="M40.2369 141.661C40.3898 141.264 40.4816 140.835 40.4816 140.376C40.4816 138.51 38.9825 137.011 37.1468 137.011C35.3111 137.011 33.812 138.51 33.812 140.376C33.812 141.049 33.9955 141.661 34.3321 142.182L37.1468 147.413L40.2369 141.661Z" fill="#F50032"/>
<path d="M37.1465 147.841L34.1482 142.273C33.8117 141.723 33.5975 141.049 33.5975 140.376C33.5975 138.418 35.1885 136.797 37.1465 136.797C39.1046 136.797 40.6955 138.388 40.6955 140.376C40.6955 140.835 40.6037 141.294 40.4202 141.753L37.1465 147.872V147.841ZM37.1465 137.225C35.4026 137.225 33.9953 138.632 33.9953 140.376C33.9953 140.988 34.1482 141.57 34.4848 142.059L37.1465 146.985L40.053 141.57C40.206 141.202 40.2672 140.805 40.2672 140.376C40.2672 138.632 38.8598 137.225 37.1159 137.225H37.1465Z" fill="black"/>
<path d="M37.1771 151.911L30.9052 140.254C30.1403 139.061 29.7426 137.684 29.7426 136.277C29.7426 132.146 33.0774 128.812 37.1771 128.812C41.2768 128.812 44.6116 132.177 44.6116 136.277C44.6116 137.256 44.428 138.235 44.0609 139.122L37.2077 151.911H37.1771ZM37.1771 129.515C33.4751 129.515 30.4462 132.544 30.4462 136.277C30.4462 137.562 30.8134 138.816 31.4865 139.887L37.1465 150.411L43.3572 138.847C43.6938 138.021 43.8467 137.164 43.8467 136.277C43.8467 132.544 40.8485 129.515 37.1465 129.515H37.1771Z" fill="black"/>
<path d="M30.2019 134.655L30.722 133.584L29.9265 128.353C29.7124 128.689 29.5288 129.026 29.3452 129.362L30.1713 134.655H30.2019Z" fill="black"/>
<path d="M31.8538 126.242C31.6091 126.425 31.3949 126.609 31.1807 126.823L31.7314 131.504L32.4351 131.198L31.8538 126.242Z" fill="black"/>
<path d="M33.6894 130.28L34.3931 129.729L34.0259 124.987C33.7812 125.079 33.567 125.171 33.3223 125.293L33.6588 130.28H33.6894Z" fill="black"/>
<path d="M35.7389 129.454L36.4732 129.332L36.3508 124.406C36.106 124.406 35.8613 124.467 35.6165 124.498L35.7389 129.423V129.454Z" fill="black"/>
<path d="M38.7067 124.528C38.4619 124.498 38.2172 124.437 38.003 124.437L37.8806 129.209L38.5843 129.454L38.7067 124.528Z" fill="black"/>
<path d="M40.9714 125.293C40.7573 125.171 40.5125 125.079 40.2678 124.987L39.9312 129.913L40.6349 130.28L40.9714 125.293Z" fill="black"/>
<path d="M41.8887 131.228L42.5618 131.687L43.1125 126.792C42.8983 126.578 42.6842 126.395 42.4394 126.211L41.8581 131.198L41.8887 131.228Z" fill="black"/>
<path d="M44.0917 134.808L44.979 129.362C44.826 128.995 44.6119 128.658 44.3977 128.353L43.6022 133.615L44.0917 134.808Z" fill="black"/>
<path d="M36.5345 146.281L37.0547 147.291V137.011C36.8711 137.011 36.6875 137.011 36.5345 137.072V146.281Z" fill="black"/>
<path d="M35.6779 144.69L36.1674 145.608V137.164C35.9839 137.225 35.8309 137.286 35.6779 137.347V144.69Z" fill="black"/>
<path d="M34.8213 143.099L35.2802 143.956V137.592C35.1272 137.715 34.9743 137.837 34.8213 137.959V143.099Z" fill="black"/>
<path d="M33.9642 141.386C34.056 141.661 34.1784 141.937 34.3314 142.181L34.3926 142.304V138.449C34.209 138.724 34.056 139.03 33.9642 139.336V141.355V141.386Z" fill="black"/>
<path d="M37.4221 146.924L37.9422 145.945V137.133C37.7892 137.103 37.6056 137.072 37.4221 137.042V146.924Z" fill="black"/>
<path d="M38.3093 145.241L38.7988 144.293V137.439C38.6459 137.348 38.4623 137.256 38.3093 137.195V145.21V145.241Z" fill="black"/>
<path d="M39.2274 143.558L39.6557 142.732V138.143C39.6557 138.143 39.3803 137.837 39.2274 137.715V143.528V143.558Z" fill="black"/>
<path d="M40.0835 141.937L40.2365 141.661C40.3894 141.264 40.4812 140.835 40.4812 140.376C40.4812 139.795 40.3283 139.244 40.0835 138.786V141.937Z" fill="black"/>
<path d="M78.2963 131.045C77.868 132.055 77.6538 133.187 77.6538 134.349C77.6538 139.122 81.5087 143.007 86.2509 143.007C90.9931 143.007 94.8481 139.153 94.8481 134.349C94.8481 132.636 94.3586 131.076 93.5019 129.729L86.2203 116.237L78.2657 131.045H78.2963Z" fill="#F50032"/>
<path d="M86.2514 115.289L93.9001 129.485C94.8179 130.923 95.3074 132.605 95.3074 134.349C95.3074 139.367 91.2383 143.436 86.2514 143.436C81.2644 143.436 77.1953 139.367 77.1953 134.349C77.1953 133.156 77.4095 131.993 77.8684 130.892L86.1902 115.319L86.2514 115.289ZM86.2514 142.549C90.7488 142.549 94.4202 138.877 94.4202 134.349C94.4202 132.789 93.9918 131.259 93.1658 129.943L86.282 117.155L78.7251 131.228C78.3273 132.207 78.1132 133.278 78.1132 134.349C78.1132 138.877 81.7845 142.549 86.282 142.549H86.2514Z" fill="black"/>
<path d="M78.2963 131.045C77.868 132.055 77.6538 133.187 77.6538 134.349C77.6538 139.122 81.5087 143.008 86.2509 143.008C90.9931 143.008 94.8481 139.153 94.8481 134.349C94.8481 132.636 94.3586 131.076 93.5019 129.729C93.5019 129.729 93.3183 138.051 86.2203 138.235C86.2203 138.235 78.4187 138.235 79.3059 129.087L78.2657 131.045H78.2963Z" fill="white"/>
<path d="M79.9792 126.945L79.7651 129.118C79.4897 131.932 80.0404 134.135 81.3866 135.634C83.2835 137.745 86.19 137.776 86.2206 137.776C92.7984 137.592 93.0432 130.035 93.0432 129.699V128.261L93.8387 129.485C94.7565 130.923 95.246 132.636 95.246 134.349C95.246 139.367 91.1769 143.436 86.19 143.436C81.203 143.436 77.1339 139.367 77.1339 134.349C77.1339 133.156 77.3481 131.993 77.807 130.892L79.8874 126.976L79.9792 126.945ZM86.2512 138.663C86.0982 138.663 82.9163 138.633 80.7441 136.216C79.5509 134.9 78.9084 133.125 78.8166 130.923L78.6637 131.198C78.2659 132.177 78.0518 133.248 78.0518 134.319C78.0518 138.847 81.7231 142.518 86.2206 142.518C90.718 142.518 94.3894 138.847 94.3894 134.319C94.3894 133.217 94.1752 132.146 93.7469 131.137C93.3186 133.646 91.7276 138.48 86.2206 138.633L86.2512 138.663Z" fill="black"/>
<path d="M81.3257 125.385C81.0504 126.027 80.928 126.701 80.928 127.435C80.928 130.403 83.3144 132.789 86.2515 132.789C89.1886 132.789 91.575 130.403 91.575 127.435C91.575 126.395 91.269 125.416 90.7489 124.559L86.2515 116.207L81.3257 125.385Z" fill="#F50032"/>
<path d="M86.2515 115.533L91.0549 124.406C91.6362 125.324 91.9116 126.364 91.9116 127.435C91.9116 130.586 89.3722 133.125 86.2515 133.125C83.1309 133.125 80.5915 130.586 80.5915 127.435C80.5915 126.7 80.7445 125.966 81.0198 125.262L86.2209 115.533H86.2515ZM86.2515 132.452C89.0051 132.452 91.2385 130.188 91.2385 127.435C91.2385 126.486 90.9631 125.538 90.4736 124.742L86.2515 116.91L81.6317 125.538C81.387 126.15 81.2646 126.792 81.2646 127.435C81.2646 130.219 83.498 132.452 86.2515 132.452Z" fill="black"/>
<path d="M83.1608 125.721C83.0078 126.119 82.916 126.547 82.916 127.006C82.916 128.873 84.4152 130.372 86.2508 130.372C88.0865 130.372 89.5857 128.873 89.5857 127.006C89.5857 126.333 89.4021 125.721 89.0656 125.201L86.2508 119.97L83.1608 125.721Z" fill="#F50032"/>
<path d="M86.2513 119.541L89.2496 125.11C89.6168 125.66 89.8003 126.333 89.8003 127.006C89.8003 128.965 88.2094 130.586 86.2513 130.586C84.2933 130.586 82.7023 128.995 82.7023 127.006C82.7023 126.548 82.7941 126.089 82.9777 125.63L86.2513 119.511V119.541ZM86.2513 130.158C87.9952 130.158 89.4026 128.75 89.4026 127.006C89.4026 126.395 89.2496 125.813 88.9131 125.324L86.2513 120.398L83.3448 125.813C83.1919 126.18 83.1307 126.578 83.1307 127.006C83.1307 128.75 84.538 130.158 86.2819 130.158H86.2513Z" fill="black"/>
<path d="M86.2514 115.442L92.5234 127.098C93.2882 128.291 93.686 129.668 93.686 131.076C93.686 135.175 90.3511 138.541 86.2514 138.541C82.1517 138.541 78.8169 135.175 78.8169 131.076C78.8169 130.097 79.0005 129.118 79.3676 128.23L86.2208 115.442H86.2514ZM86.2514 137.837C89.9534 137.837 92.9517 134.808 92.9517 131.106C92.9517 129.821 92.5845 128.567 91.9115 127.496L86.2514 116.971L80.0407 128.536C79.7041 129.362 79.5512 130.219 79.5512 131.106C79.5512 134.808 82.5495 137.837 86.282 137.837H86.2514Z" fill="black"/>
<path d="M93.1964 132.728L92.6763 133.798L93.4718 139.03C93.686 138.694 93.8695 138.357 94.0531 138.02L93.1964 132.728Z" fill="black"/>
<path d="M91.5441 141.141C91.7888 140.958 92.003 140.774 92.2171 140.56L91.697 135.879L90.9933 136.185L91.5441 141.141Z" fill="black"/>
<path d="M89.7387 137.103L89.035 137.653L89.4022 142.396C89.6469 142.304 89.8611 142.212 90.1059 142.09L89.7693 137.103H89.7387Z" fill="black"/>
<path d="M87.6583 137.929L86.9547 138.051L87.077 142.977C87.3218 142.977 87.5665 142.916 87.7807 142.885L87.6583 137.959V137.929Z" fill="black"/>
<path d="M84.7213 142.854C84.9661 142.885 85.1802 142.946 85.425 142.946L85.5474 138.173L84.8437 137.929L84.7213 142.854Z" fill="black"/>
<path d="M82.427 142.09C82.6718 142.212 82.8859 142.304 83.1307 142.396L83.4672 137.47L82.7635 137.103L82.427 142.09Z" fill="black"/>
<path d="M81.5093 136.154L80.8362 135.695L80.2855 140.591C80.4997 140.805 80.7138 140.988 80.928 141.172L81.5093 136.185V136.154Z" fill="black"/>
<path d="M79.3363 132.575L78.449 138.021C78.602 138.388 78.8162 138.724 79.0303 139.03L79.7952 133.768L79.3363 132.575Z" fill="black"/>
<path d="M86.8629 121.102L86.3122 120.092V130.341C86.4958 130.341 86.6793 130.341 86.8629 130.28V121.071V121.102Z" fill="black"/>
<path d="M87.7197 122.693L87.2302 121.775V130.219C87.3832 130.158 87.5668 130.096 87.7197 130.035V122.693Z" fill="black"/>
<path d="M88.5769 124.284L88.118 123.427V129.791C88.271 129.668 88.4239 129.546 88.5769 129.423V124.284Z" fill="black"/>
<path d="M89.4336 125.997C89.3418 125.721 89.2194 125.446 89.0664 125.201L89.0052 125.079V128.903C89.1888 128.628 89.3418 128.322 89.4336 128.016V125.997Z" fill="black"/>
<path d="M85.9757 120.459L85.4556 121.438V130.25C85.6392 130.28 85.7922 130.311 85.9757 130.341V120.459Z" fill="black"/>
<path d="M85.0885 122.142L84.599 123.06V129.913C84.752 130.005 84.9355 130.096 85.0885 130.158V122.142Z" fill="black"/>
<path d="M84.1705 123.825L83.7422 124.651V129.24C83.8646 129.393 84.0175 129.546 84.1705 129.668V123.855V123.825Z" fill="black"/>
<path d="M83.3138 125.446L83.1608 125.721C83.0078 126.119 82.916 126.547 82.916 127.006C82.916 127.588 83.069 128.138 83.3138 128.597V125.446Z" fill="black"/>
<path d="M108.279 76.0355H102.344V88.1205H108.279V76.0355Z" fill="#FFCE57"/>
<path d="M108.034 76.3108V87.9062H102.589V76.3108H108.034ZM108.524 75.7906H102.099V88.3651H108.524V75.7906Z" fill="black"/>
<path d="M101.824 76.6168C101.824 76.6168 101.732 76.1273 102.742 75.8519C102.742 75.8519 110.085 74.8117 110.788 76.6168C110.788 76.6168 111.37 77.7794 106.322 77.7182C106.322 77.7182 102.161 77.7182 101.824 76.6168Z" fill="white"/>
<path d="M106.75 77.9936H106.291C105.557 77.9936 101.916 77.9324 101.549 76.7086C101.549 76.6168 101.427 75.9437 102.65 75.5766C102.712 75.5766 104.823 75.2706 106.903 75.2706C109.351 75.2706 110.697 75.6684 111.033 76.525C111.095 76.6168 111.125 76.8616 110.972 77.0757C110.575 77.7182 109.198 77.9936 106.75 77.9936ZM102.1 76.5556C102.345 77.1063 104.456 77.4429 106.322 77.4429H106.75C109.748 77.4429 110.36 76.9533 110.483 76.8004C110.513 76.7392 110.513 76.7086 110.513 76.7086C110.299 76.1273 108.984 75.8213 106.903 75.8213C104.823 75.8213 102.773 76.1273 102.773 76.1273C102.253 76.2803 102.1 76.4944 102.1 76.5556Z" fill="black"/>
<path d="M101.978 78.7585C101.978 78.7585 101.886 78.269 102.895 77.9937C102.895 77.9937 110.238 76.9534 110.942 78.7585C110.942 78.7585 111.523 79.9211 106.475 79.8599C106.475 79.8599 102.345 79.8599 102.008 78.7585H101.978Z" fill="white"/>
<path d="M106.903 80.1353H106.444C105.71 80.1353 102.069 80.0741 101.702 78.8503C101.702 78.7585 101.579 78.0548 102.803 77.7183C102.864 77.7183 104.975 77.4124 107.056 77.4124C109.503 77.4124 110.849 77.8101 111.186 78.6667C111.247 78.7585 111.278 79.0033 111.125 79.2174C110.758 79.8293 109.35 80.1353 106.903 80.1353ZM102.252 78.7279C102.497 79.2786 104.608 79.6152 106.474 79.6152H106.903C109.901 79.6152 110.513 79.1257 110.635 79.0033C110.697 78.9421 110.666 78.9115 110.666 78.9115C110.452 78.3608 109.136 78.0242 107.056 78.0242C104.975 78.0242 102.956 78.3302 102.925 78.3302C102.405 78.4832 102.252 78.6973 102.252 78.7585V78.7279Z" fill="black"/>
<path d="M102.099 80.9306C102.099 80.9306 102.007 80.4411 103.016 80.1658C103.016 80.1658 110.359 79.1256 111.063 80.9306C111.063 80.9306 111.644 82.0932 106.596 82.0321C106.596 82.0321 102.466 82.0321 102.129 80.9306H102.099Z" fill="white"/>
<path d="M107.055 82.3074H106.597C105.893 82.3074 102.221 82.2462 101.854 81.0224C101.854 80.9306 101.732 80.227 102.956 79.8904C103.017 79.8904 105.128 79.5845 107.208 79.5845C109.656 79.5845 111.033 79.9822 111.339 80.8389C111.4 80.9306 111.431 81.1754 111.278 81.3896C110.88 82.0015 109.503 82.3074 107.055 82.3074ZM102.374 80.9C102.619 81.4508 104.73 81.7567 106.597 81.7567C106.75 81.7567 106.902 81.7567 107.055 81.7567C110.237 81.7567 110.727 81.206 110.788 81.1142C110.788 81.1142 110.788 81.1142 110.788 81.0836C110.574 80.5023 109.228 80.1658 107.178 80.1658C105.128 80.1658 103.048 80.4717 103.048 80.4717C102.527 80.6247 102.374 80.8083 102.374 80.9Z" fill="black"/>
<path d="M102.895 76.9534C102.895 76.9534 102.711 76.4639 102.895 76.2497C102.895 76.2497 103.659 75.8214 103.996 76.2497C103.996 76.2497 104.394 76.7086 103.996 77.1675C103.996 77.1675 103.751 77.3511 102.895 76.9534Z" fill="white"/>
<path d="M103.782 77.3205C103.537 77.3205 103.232 77.2287 102.834 77.0452H102.803V76.984C102.803 76.9228 102.589 76.4027 102.803 76.1273C102.803 76.1273 103.17 75.8826 103.537 75.8826C103.752 75.8826 103.935 75.9744 104.058 76.1273C104.211 76.3109 104.425 76.7698 104.058 77.1981C104.027 77.2287 103.935 77.2899 103.752 77.2899L103.782 77.3205ZM102.987 76.831C103.599 77.1064 103.843 77.0452 103.905 77.0452C104.211 76.678 103.905 76.3415 103.905 76.3109C103.843 76.2191 103.721 76.1579 103.568 76.1579C103.323 76.1579 103.048 76.2803 102.987 76.3109C102.926 76.4333 102.987 76.678 102.987 76.831Z" fill="black"/>
<path d="M102.895 79.1256C102.895 79.1256 102.711 78.6361 102.895 78.4219C102.895 78.4219 103.659 77.9936 103.996 78.4219C103.996 78.4219 104.394 78.8809 103.996 79.3398C103.996 79.3398 103.751 79.5233 102.895 79.1256Z" fill="white"/>
<path d="M103.782 79.4927C103.537 79.4927 103.232 79.4009 102.834 79.2173H102.803V79.1561C102.803 79.095 102.589 78.5748 102.803 78.3301C102.803 78.3301 103.17 78.0853 103.537 78.0853C103.752 78.0853 103.935 78.1771 104.058 78.3301C104.211 78.5137 104.425 79.0032 104.058 79.4315C104.027 79.4315 103.935 79.4927 103.752 79.4927H103.782ZM102.987 79.0032C103.599 79.2785 103.843 79.2173 103.905 79.2173C104.211 78.8502 103.905 78.4831 103.905 78.4831C103.843 78.3913 103.721 78.3301 103.568 78.3301C103.323 78.3301 103.048 78.4525 102.987 78.4831C102.926 78.6054 102.987 78.8502 102.987 79.0032Z" fill="black"/>
<path d="M103.048 81.1143C103.048 81.1143 102.864 80.6247 103.048 80.4106C103.048 80.4106 103.813 79.9823 104.119 80.4106C104.119 80.4106 104.516 80.8695 104.119 81.3284C104.119 81.3284 103.874 81.512 103.048 81.1143Z" fill="white"/>
<path d="M103.935 81.4813C103.69 81.4813 103.384 81.3895 102.986 81.2059H102.925V81.1447C102.925 81.0836 102.711 80.5634 102.925 80.2881C102.925 80.2881 103.292 80.0433 103.66 80.0433C103.874 80.0433 104.057 80.1351 104.18 80.2881C104.333 80.4717 104.547 80.9306 104.18 81.3589C104.149 81.3895 104.057 81.4507 103.874 81.4507L103.935 81.4813ZM103.139 81.0224C103.751 81.2977 103.996 81.2365 104.057 81.2365C104.333 80.9 104.057 80.5329 104.057 80.5023C103.965 80.4105 103.874 80.3493 103.721 80.3493C103.476 80.3493 103.201 80.4717 103.139 80.5023C103.048 80.6246 103.139 80.8694 103.139 81.0224Z" fill="black"/>
<path d="M109.595 83.929C107.82 84.5715 104.363 83.7148 104.363 83.7148C102.956 82.7664 104.302 82.0321 104.302 82.0321C104.302 82.0321 110.666 81.665 111.308 83.0417C111.308 83.0417 112.042 84.7856 108.249 85.4281L108.065 84.3267L109.595 83.9596V83.929Z" fill="white"/>
<path d="M108.035 85.7341L107.821 84.4491C106.138 84.4491 104.395 84.0208 104.333 83.9902H104.242C103.721 83.5924 103.446 83.1947 103.477 82.797C103.477 82.1851 104.119 81.8179 104.211 81.7873H104.272L104.333 81.7567C104.333 81.7567 105.129 81.6956 106.2 81.6956C111.064 81.6956 111.462 82.6134 111.615 82.8888C111.615 82.8888 111.86 83.4701 111.493 84.082C111.064 84.8468 110.024 85.3669 108.341 85.6423L108.066 85.7035L108.035 85.7341ZM108.402 84.5409L108.494 85.0916C110.146 84.7856 110.758 84.2349 110.972 83.8678C111.187 83.5007 111.064 83.1641 111.064 83.1641C110.881 82.7664 109.473 82.3075 106.169 82.3075C105.312 82.3075 104.639 82.3381 104.425 82.3686C104.303 82.4604 104.058 82.6746 104.027 82.8888C104.027 83.1335 104.272 83.3477 104.517 83.5312C104.823 83.5924 106.414 83.9596 107.913 83.9596C108.311 83.9596 108.678 83.9596 108.984 83.8678L109.565 83.7148L109.718 84.2349C109.534 84.2961 109.32 84.3573 109.076 84.3879L108.402 84.5409Z" fill="black"/>
<path d="M104.486 83.1642C104.486 83.1642 104.302 82.6747 104.486 82.4605C104.486 82.4605 105.251 82.0322 105.587 82.4605C105.587 82.4605 105.985 82.9194 105.587 83.3784C105.587 83.3784 105.342 83.5619 104.486 83.1642Z" fill="white"/>
<path d="M105.343 83.5313C105.098 83.5313 104.792 83.4395 104.394 83.2559H104.333V83.1947C104.333 83.1335 104.119 82.6134 104.333 82.3381C104.333 82.3381 104.7 82.1239 105.067 82.1239C105.281 82.1239 105.465 82.2157 105.587 82.3687C105.74 82.5522 105.955 83.0417 105.587 83.4395C105.557 83.4701 105.465 83.5313 105.281 83.5313H105.343ZM104.578 83.0723C105.159 83.3477 105.434 83.2865 105.465 83.2865C105.771 82.9194 105.465 82.5828 105.465 82.5522C105.373 82.4604 105.281 82.3993 105.128 82.3993C104.884 82.3993 104.639 82.5216 104.547 82.5522C104.455 82.6746 104.547 82.9194 104.547 83.0723H104.578Z" fill="black"/>
<path d="M110.023 87.2944C110.023 88.2735 107.943 89.0383 105.404 89.0383C102.864 89.0383 100.784 88.2429 100.784 87.2944C100.784 86.346 102.864 85.5505 105.404 85.5505C107.943 85.5505 110.023 86.346 110.023 87.2944Z" fill="#FFCE57"/>
<path d="M105.403 89.2524C102.711 89.2524 100.569 88.3958 100.569 87.2944C100.569 86.193 102.68 85.3363 105.403 85.3363C108.126 85.3363 110.237 86.193 110.237 87.2944C110.237 88.3958 108.126 89.2524 105.403 89.2524ZM105.403 85.7646C102.803 85.7646 100.967 86.5907 100.967 87.325C100.967 88.0592 102.772 88.8853 105.403 88.8853C108.035 88.8853 109.809 88.0592 109.809 87.325C109.809 86.5907 108.004 85.7646 105.403 85.7646Z" fill="black"/>
<path d="M110.115 88.0898C110.115 89.0689 108.004 89.8338 105.373 89.8338C102.742 89.8338 100.631 89.0383 100.631 88.0898C100.631 87.1414 102.742 86.3459 105.373 86.3459C108.004 86.3459 110.115 87.1414 110.115 88.0898Z" fill="#FFCE57"/>
<path d="M105.373 90.0785C102.559 90.0785 100.448 89.2218 100.448 88.1204C100.448 86.8966 102.956 86.1624 105.373 86.1624C107.79 86.1624 110.299 86.8966 110.299 88.1204C110.299 89.2524 108.188 90.0785 105.373 90.0785ZM105.373 86.5601C102.712 86.5601 100.845 87.3861 100.845 88.1204C100.845 88.8547 102.712 89.6808 105.373 89.6808C108.035 89.6808 109.901 88.8547 109.901 88.1204C109.901 87.3861 108.035 86.5601 105.373 86.5601Z" fill="black"/>
<path d="M102.099 85.061C102.099 85.061 99.7125 84.7857 99.7737 82.8582C99.7737 82.8582 96.6836 78.4831 99.9572 76.6169C103.231 74.7506 104.73 77.1676 105.74 79.8293C105.74 79.8293 104.546 81.5426 101.976 78.116" fill="white"/>
<path d="M102.069 85.3058C101.182 85.214 99.5296 84.5716 99.5296 82.9194C99.2543 82.5217 97.8775 80.3189 98.3058 78.3914C98.4894 77.5348 99.0095 76.8617 99.8356 76.4027C101.029 75.7297 102.1 75.5461 103.017 75.8826C104.517 76.4333 105.373 78.2384 105.955 79.7376V79.86V79.9517C105.955 79.9517 105.587 80.4719 104.884 80.5024C103.966 80.5024 102.926 79.7682 101.794 78.269L102.191 77.9631C103.476 79.6764 104.364 80.0129 104.884 80.0129C105.19 80.0129 105.404 79.86 105.496 79.7682C104.945 78.3914 104.18 76.8005 102.895 76.3416C102.1 76.0662 101.212 76.2192 100.111 76.8311C99.4072 77.2288 98.9483 77.7795 98.7953 78.5138C98.367 80.3801 99.9885 82.6747 99.9885 82.7053L100.05 82.7665V82.8582C99.9885 84.541 102.069 84.7857 102.161 84.8163L102.1 85.3058H102.069Z" fill="black"/>
<path d="M104.853 77.9324L104.088 78.5443C104.088 78.5443 104.302 79.7375 105.312 79.1562L104.853 77.9324Z" fill="white"/>
<path d="M104.822 79.4315C104.149 79.4315 103.966 78.5749 103.966 78.5443V78.4831L104.914 77.6876L105.465 79.1868L105.373 79.248C105.159 79.3703 105.006 79.4009 104.822 79.4009V79.4315ZM104.241 78.6055C104.302 78.789 104.455 79.2174 104.822 79.2174C104.822 79.2174 105.037 79.2174 105.159 79.1256L104.792 78.1465L104.241 78.6055Z" fill="black"/>
<path d="M54.0348 66.1534C54.0348 66.1534 53.7594 66.0616 53.6983 65.9392L53.3617 65.0214C53.3005 64.8378 53.3923 64.6542 53.5759 64.593C53.7594 64.5319 53.943 64.593 54.0042 64.8072L54.3407 65.7251C54.4019 65.9086 54.3407 66.0922 54.1266 66.1534C54.096 66.1534 54.0348 66.1534 54.0042 66.1534H54.0348Z" fill="black"/>
<path d="M48.8641 65.358L48.5275 64.5319C48.5275 64.5319 50.149 64.2565 50.9139 65.0214C50.9139 65.0214 51.893 65.3885 53.9122 65.358C53.9122 65.358 51.8624 66.2452 49.9655 65.4803C49.9655 65.4803 49.17 65.3274 48.8947 65.358H48.8641Z" fill="black"/>
<path d="M51.0671 52.814C54.5243 56.2101 57.7979 52.814 57.7979 52.814C54.3407 49.418 51.0671 52.814 51.0671 52.814Z" fill="white"/>
<path d="M54.3407 54.4967C53.1475 54.4967 51.9849 53.9766 50.9446 52.9364L50.8223 52.814L50.9446 52.6916C50.9446 52.6916 52.4744 51.1007 54.5548 51.1007C55.748 51.1007 56.9106 51.6208 57.9508 52.661L58.0732 52.7834L57.9508 52.9364C57.9508 52.9364 56.4211 54.5273 54.3407 54.5273V54.4967ZM51.3424 52.814C52.2908 53.6707 53.3004 54.1296 54.3407 54.1296C55.901 54.1296 57.1248 53.1506 57.5225 52.7834C56.5741 51.9268 55.595 51.4678 54.5548 51.4678C52.9945 51.4678 51.7707 52.4469 51.373 52.814H51.3424Z" fill="black"/>
<path d="M55.8707 52.7835C55.8707 53.6096 55.2282 54.252 54.4328 54.252C53.6373 54.252 52.9948 53.6096 52.9642 52.7835C52.9642 51.9574 53.6067 51.3149 54.4022 51.3149C55.1977 51.3149 55.8707 51.9574 55.8707 52.7529V52.7835Z" fill="white"/>
<path d="M54.4326 54.4661C53.5148 54.4661 52.7805 53.7318 52.7805 52.814C52.7805 51.8961 53.5148 51.1619 54.4326 51.1619C55.3505 51.1619 56.0848 51.8961 56.0848 52.814C56.0848 53.2729 55.9012 53.6706 55.5952 53.9766C55.2893 54.2825 54.861 54.4661 54.4326 54.4661ZM54.4326 51.529C53.729 51.529 53.1783 52.1103 53.1783 52.814C53.1783 53.5177 53.7596 54.0684 54.4326 54.0684C54.7692 54.0684 55.0751 53.946 55.3199 53.7012C55.5646 53.4565 55.687 53.1505 55.687 52.814C55.687 52.1103 55.1363 51.5596 54.4326 51.5596V51.529Z" fill="black"/>
<path d="M55.1059 52.814C55.1059 53.2118 54.8 53.5177 54.4022 53.5177C54.0351 53.5177 53.7291 53.2118 53.6985 52.814C53.6985 52.4469 54.0045 52.1104 54.3716 52.1104C54.7694 52.1104 55.0753 52.4163 55.0753 52.814H55.1059Z" fill="black"/>
<path d="M58.3489 49.877C58.3489 49.877 58.3489 49.877 58.2571 49.8464C58.1959 49.8464 58.1347 49.7852 58.0429 49.724C57.8593 49.6322 57.5534 49.5099 57.1863 49.3875C57.0027 49.3263 56.8191 49.2651 56.605 49.2039C56.3908 49.1427 56.1766 49.0815 55.9625 49.0509C55.7483 48.9898 55.5035 48.9898 55.2588 48.9592C55.014 48.9592 54.7693 48.9592 54.5245 48.9592C54.2798 48.9592 54.035 48.9592 53.8208 49.0204C53.6984 49.0204 53.6067 49.0509 53.4843 49.0815C53.3619 49.1121 53.2701 49.1427 53.1477 49.1733C53.056 49.1733 52.9336 49.2345 52.8418 49.2651C52.75 49.2957 52.6582 49.3569 52.5664 49.3875C52.4747 49.4181 52.3829 49.4793 52.2911 49.5099C52.1993 49.5711 52.1381 49.6017 52.0463 49.6628C51.8934 49.7546 51.7404 49.8158 51.6486 49.9076C51.5262 49.9994 51.4344 50.0606 51.3732 50.1524C51.2203 50.2747 51.1285 50.3359 51.1285 50.3359L51.0673 50.3971C50.7919 50.6113 50.4248 50.5501 50.2106 50.3053C49.9965 50.03 50.0577 49.6628 50.3024 49.4487C50.3024 49.4487 50.3024 49.4487 50.3636 49.4181C50.3636 49.4181 50.486 49.3263 50.7002 49.2039C50.8225 49.1427 50.9449 49.0509 51.0673 48.9592C51.2203 48.8674 51.4038 48.8062 51.5874 48.6838C51.6792 48.6532 51.771 48.592 51.8934 48.5614C52.0157 48.5308 52.1075 48.5002 52.2299 48.439C52.3523 48.439 52.4747 48.3779 52.597 48.3167C52.7194 48.3167 52.8418 48.2555 52.9642 48.2249C53.0866 48.1943 53.2089 48.1637 53.3619 48.1637C53.4843 48.1637 53.6373 48.1637 53.7596 48.1637C54.035 48.1637 54.3103 48.1637 54.5857 48.1637C54.8611 48.1637 55.1364 48.2249 55.4118 48.2555C55.6565 48.3167 55.9319 48.3473 56.1766 48.439C56.4214 48.5002 56.6356 48.592 56.8497 48.6532C57.0639 48.745 57.278 48.8368 57.4616 48.898C57.8287 49.0509 58.1041 49.2345 58.3183 49.3569C58.41 49.4181 58.5018 49.4793 58.563 49.5099C58.6242 49.5405 58.6548 49.5711 58.6548 49.5711C58.7466 49.6322 58.7772 49.7546 58.716 49.877C58.6548 49.9688 58.5324 49.9994 58.4406 49.9382L58.3489 49.877Z" fill="black"/>
<path d="M59.0219 52.3245C59.0219 52.3245 58.9301 52.3245 58.8995 52.2939C54.2185 48.8367 50.8837 52.2328 50.8531 52.2939C50.7919 52.3857 50.6695 52.3857 50.5777 52.2939C50.486 52.2328 50.486 52.1104 50.5777 52.0186C50.5777 51.988 54.1879 48.3166 59.1137 52.0186C59.2055 52.0798 59.2361 52.2022 59.1443 52.2939C59.1137 52.3551 59.0525 52.3857 58.9913 52.3857L59.0219 52.3245Z" fill="black"/>
<path d="M59.7257 53.6401C59.7257 53.6401 59.5116 53.6401 59.3586 53.6401H59.175L58.9915 53.6095C58.9303 53.6095 58.8691 53.6095 58.8385 53.5789C58.7773 53.5789 58.7161 53.5789 58.6549 53.5177C58.5325 53.4872 58.4407 53.426 58.3184 53.3954C58.196 53.3342 58.1042 53.273 58.0124 53.2424C57.89 53.1812 57.7983 53.12 57.7065 53.0588C57.6147 52.9976 57.5229 52.9059 57.4311 52.8447C57.3393 52.7529 57.2781 52.6917 57.1864 52.5693C57.1864 52.5693 56.9722 52.3857 56.8498 52.3246C56.7274 52.2328 56.6051 52.1716 56.4521 52.1104C56.3297 52.0492 56.1767 51.988 56.0544 51.9574C55.9014 51.8962 55.779 51.8656 55.626 51.835L55.4119 51.7738H55.1977C55.1977 51.7738 55.0447 51.7433 54.9835 51.7127H54.7694C54.7694 51.7127 54.4634 51.7127 54.341 51.7127C54.1881 51.7127 54.0657 51.7127 53.9127 51.7433L53.4844 51.835C53.4844 51.835 53.209 51.9268 53.0867 51.988L52.8725 52.0492C52.8725 52.0492 52.7501 52.1104 52.6583 52.141L52.2606 52.3246C52.2606 52.3246 51.9852 52.4775 51.8629 52.5387L51.4651 52.7529C51.2204 52.9364 50.9756 53.12 50.7003 53.273C50.7003 53.273 50.4861 53.3036 50.4249 53.2118C50.3637 53.12 50.3943 53.0282 50.4249 52.967C50.6697 52.7529 50.8838 52.5081 51.1286 52.294C51.251 52.2022 51.4039 52.1104 51.5263 51.988C51.6487 51.8962 51.8017 51.8044 51.9241 51.7127L52.3524 51.4679C52.3524 51.4679 52.5054 51.3761 52.5665 51.3455L52.8113 51.2537C52.9643 51.1925 53.1173 51.1314 53.2702 51.0702L53.7597 50.9478C53.9127 50.9172 54.0963 50.9172 54.2799 50.8866C54.4634 50.8866 54.6164 50.8866 54.8 50.8866H55.0447C55.0447 50.8866 55.1977 50.9478 55.2895 50.9784L55.5342 51.0396L55.779 51.1314C55.932 51.1925 56.1155 51.2537 56.2379 51.3455C56.3909 51.4067 56.5439 51.4985 56.6662 51.5903C56.7886 51.6821 56.9416 51.7738 57.064 51.8962C57.1864 52.0186 57.3087 52.1104 57.4311 52.2634C57.4311 52.2634 57.5535 52.4163 57.6453 52.5081C57.7371 52.5693 57.7983 52.6611 57.89 52.7223C58.043 52.8447 58.2266 52.967 58.4102 53.0588C58.5019 53.12 58.5937 53.1506 58.7161 53.1812C58.7773 53.1812 58.8079 53.1812 58.8691 53.2118C58.9303 53.2118 58.9915 53.2118 59.022 53.2118H59.175H59.328C59.4198 53.2118 59.5422 53.2118 59.6645 53.2118C59.6645 53.2118 59.8787 53.273 59.8787 53.3954C59.8787 53.5177 59.8175 53.6095 59.6951 53.6095L59.7257 53.6401Z" fill="black"/>
<path d="M51.8323 53.6708C51.4957 52.8141 51.7099 52.1104 51.7405 52.0798L52.1076 52.2022C52.1076 52.2022 51.924 52.8141 52.1994 53.5178L51.8323 53.6708Z" fill="black"/>
<path d="M53.7288 56.0571C53.7288 56.0571 53.7288 56.0571 53.6676 56.0571C52.1685 55.4452 50.6693 53.7625 50.6081 53.6707C50.547 53.6096 50.5775 53.5178 50.6081 53.4872C50.6693 53.426 50.7611 53.426 50.7917 53.4872C50.7917 53.4872 52.2909 55.2005 53.7288 55.7818C53.79 55.7818 53.8512 55.9042 53.8206 55.9654C53.8206 56.0265 53.7288 56.0571 53.6982 56.0571H53.7288Z" fill="black"/>
<path d="M65.2327 44.064C65.2327 44.064 63.3664 50.0299 67.1295 55.384C71.0457 60.9829 70.036 63.614 70.036 63.614C70.036 63.614 66.5788 63.614 66.1505 66.337C65.6916 69.4882 67.6497 74.567 73.9828 72.5783C73.9828 72.5783 78.0213 70.5285 76.3998 63.1245C74.7476 55.7206 68.6593 48.5614 70.8927 44.064H65.2633H65.2327Z" fill="#FFCE57"/>
<path d="M71.3214 73.3126C69.6692 73.3126 68.2925 72.7007 67.3135 71.5687C65.9367 69.9778 65.6919 67.775 65.9061 66.337C66.2732 63.7976 69.0879 63.4305 69.8528 63.3999C69.9752 62.788 70.1894 60.2181 66.9463 55.5677C63.1526 50.1524 65.0188 44.0946 65.0494 44.0334L65.1106 43.8499H71.3214L71.1378 44.217C69.8528 46.8481 71.5049 50.4583 73.4324 54.6192C74.7174 57.3422 76.0024 60.1875 76.6755 63.1246C78.3582 70.6509 74.3197 72.7925 74.1361 72.8537H74.1055C73.1265 73.1902 72.2086 73.3432 71.352 73.3432L71.3214 73.3126ZM65.4166 44.3088C65.1412 45.3184 64.0092 50.5501 67.3135 55.2311C71.2602 60.8911 70.2811 63.5835 70.2505 63.7059L70.1894 63.8588H70.0364C70.0364 63.8588 66.7627 63.8894 66.3956 66.3982C66.212 67.7138 66.4262 69.733 67.6806 71.2016C69.0268 72.7925 71.199 73.1902 73.8913 72.3336C74.1973 72.1806 77.6851 70.1002 76.1553 63.1552C75.5129 60.2793 74.2279 57.4645 72.9735 54.7416C71.0766 50.6419 69.4245 47.0623 70.5259 44.2782H65.4472L65.4166 44.3088Z" fill="black"/>
<path d="M70.0056 68.6315C70.0056 68.6315 70.0362 68.6315 70.128 68.6315C70.1892 68.6315 70.3116 68.6621 70.4339 68.6927C70.5563 68.6927 70.7399 68.7539 70.9235 68.7845C71.107 68.7845 71.3212 68.8151 71.5354 68.7845C71.6577 68.7845 71.7495 68.7845 71.8719 68.7845C71.9943 68.7539 72.0861 68.7233 72.2084 68.6927C72.4226 68.6315 72.6062 68.4785 72.7897 68.3256L72.9121 68.1726C72.9121 68.1726 72.9733 68.0502 73.0039 68.0196L73.0651 67.9278V67.8666L73.1569 67.6219C73.1569 67.6219 73.1875 67.4689 73.2181 67.4077C73.2181 67.3465 73.2487 67.2853 73.2793 67.2242C73.2793 67.1018 73.3405 66.9488 73.3405 66.7958C73.3405 66.5205 73.3099 66.2451 73.2181 65.9698C73.1263 65.6944 72.9733 65.4803 72.7897 65.2661C72.698 65.1743 72.6062 65.0519 72.5144 64.9907C72.392 64.8989 72.3002 64.8072 72.2084 64.746C72.0861 64.6848 71.9943 64.593 71.8719 64.5318C71.7495 64.4706 71.6577 64.4094 71.5354 64.3788C71.3212 64.2871 71.1376 64.1953 70.9235 64.1341C70.7399 64.0729 70.5869 64.0117 70.4339 63.9811C70.1586 63.9199 70.0056 63.8587 70.0056 63.8587C70.0056 63.8587 69.7915 63.6752 69.8221 63.5528C69.8526 63.4304 69.975 63.3386 70.0974 63.3692C70.0974 63.3692 70.281 63.3692 70.5869 63.3998C70.7399 63.3998 70.9235 63.461 71.1376 63.4916C71.3518 63.4916 71.566 63.614 71.8413 63.6752C71.9637 63.7363 72.0861 63.7669 72.239 63.8281C72.3614 63.8893 72.5144 63.9811 72.6368 64.0423C72.7897 64.1035 72.9121 64.2259 73.0345 64.3176C73.1875 64.4094 73.3099 64.5318 73.4322 64.6542C73.677 64.9295 73.8912 65.2355 74.0441 65.6026C74.1971 65.9698 74.2889 66.3675 74.2583 66.7652C74.2583 66.9488 74.2277 67.163 74.1971 67.3465C74.1359 67.5301 74.1053 67.7443 74.0441 67.9278L73.9524 68.142V68.2032L73.9218 68.2338V68.295L73.8606 68.4173C73.8606 68.4173 73.7688 68.6009 73.7076 68.6621C73.6464 68.7539 73.5852 68.8151 73.524 68.9069C73.2487 69.1822 72.9121 69.3964 72.5756 69.4882C72.239 69.6105 71.9025 69.6105 71.6271 69.58C71.3518 69.58 71.107 69.5188 70.8623 69.4576C70.6481 69.3964 70.4645 69.3352 70.3422 69.274C70.1892 69.2128 70.0974 69.1516 70.0056 69.121C69.9138 69.0598 69.8832 69.0598 69.8832 69.0598C69.7609 68.9987 69.7303 68.8457 69.7915 68.7233C69.8526 68.6315 69.975 68.5703 70.0974 68.6009L70.0056 68.6315Z" fill="black"/>
<path d="M109.014 74.3221H101.61V44.1557L105.465 36.6906L109.014 44.1557V74.3221ZM102.314 73.6185H108.31V44.3392L105.434 38.3121L102.314 44.3392V73.6185Z" fill="black"/>
<path d="M105.557 37.4861H105.312V73.9551H105.557V37.4861Z" fill="black"/>
<path d="M104.456 39.4136H104.211V74.2916H104.456V39.4136Z" fill="black"/>
<path d="M106.597 39.6583H106.352V74.6588H106.597V39.6583Z" fill="black"/>
</g>
<rect x="8" y="31.5" width="107" height="129" rx="5.5" stroke="#F50032"/>
</g>
</g>
<rect x="1.25" y="0.5" width="121" height="167.25" rx="10.5" stroke="#ADADAD"/>
<defs>
<clipPath id="clip0_17_2729">
<rect x="1.75" y="1" width="120" height="166.25" rx="10" fill="white"/>
</clipPath>
</defs>
</svg>
