<svg width="123" height="169" viewBox="0 0 123 169" fill="none" xmlns="http://www.w3.org/2000/svg">
<g clip-path="url(#clip0_17_2732)">
<rect x="1.75" y="1" width="120" height="166.25" rx="10" fill="white"/>
<mask id="mask0_17_2732" style="mask-type:alpha" maskUnits="userSpaceOnUse" x="1" y="1" width="121" height="167">
<rect x="1.75" y="1" width="120" height="166.25" fill="#D9D9D9"/>
</mask>
<g mask="url(#mask0_17_2732)">
<path d="M8.452 22V20.056L13.168 15.322C14.572 13.918 14.986 13.27 14.986 12.532C14.986 11.758 14.464 11.236 13.438 11.236C12.412 11.236 11.89 11.758 11.89 12.82V12.91H8.362C8.488 10.534 9.91 9.112 13.438 9.112C16.912 9.112 18.514 10.714 18.514 12.532C18.514 13.954 18.064 14.692 16.21 16.528C15.166 17.572 14.086 18.778 13.006 19.876H18.838V22H8.452Z" fill="#F50032"/>
<path d="M110.925 9.56748C109.514 9.56131 108.254 10.2147 107.43 11.2351C106.618 10.2048 105.365 9.54059 103.953 9.53443C101.493 9.52234 99.4888 11.508 99.476 13.971C99.4646 16.15 105.656 21.5058 107.084 22.7116C107.255 22.8562 107.496 22.8573 107.669 22.7144C109.108 21.5219 115.35 16.2242 115.361 14.0477C115.373 11.5877 113.388 9.58034 110.925 9.56748Z" fill="#F50032"/>
<path fill-rule="evenodd" clip-rule="evenodd" d="M89.0598 90.0749C90.9053 87.5393 91.994 84.4174 91.994 81.0413C91.994 72.554 85.1138 65.6737 76.6265 65.6737C69.7213 65.6737 63.8798 70.2281 61.942 76.4969C60.0042 70.2281 54.1627 65.6737 47.2575 65.6737C38.7702 65.6737 31.8899 72.554 31.8899 81.0413C31.8899 84.417 32.9784 87.5385 34.8235 90.074C35.2793 90.7783 35.7878 91.4523 36.3467 92.0898L59.6861 118.711C60.8811 120.074 63.0027 120.074 64.1978 118.711L87.5372 92.0898C88.0959 91.4526 88.6042 90.7789 89.0598 90.0749Z" fill="#F50032"/>
</g>
</g>
<rect x="1.25" y="0.5" width="121" height="167.25" rx="10.5" stroke="#ADADAD"/>
<defs>
<clipPath id="clip0_17_2732">
<rect x="1.75" y="1" width="120" height="166.25" rx="10" fill="white"/>
</clipPath>
</defs>
</svg>
