<svg width="123" height="169" viewBox="0 0 123 169" fill="none" xmlns="http://www.w3.org/2000/svg">
<g clip-path="url(#clip0_17_2730)">
<rect x="1.25" y="1" width="120" height="166.25" rx="10" fill="white"/>
<mask id="mask0_17_2730" style="mask-type:alpha" maskUnits="userSpaceOnUse" x="1" y="1" width="121" height="167">
<rect x="1.25" y="1" width="120" height="166.25" fill="#D9D9D9"/>
</mask>
<g mask="url(#mask0_17_2730)">
<path d="M17.186 22L16.304 19.192H11.426L10.49 22H7.34L11.678 9.4H16.556L20.786 22H17.186ZM12.164 16.978H15.602L13.946 11.668L12.164 16.978Z" fill="#F50032"/>
<path d="M110.425 9.56748C109.014 9.56131 107.754 10.2147 106.93 11.2351C106.118 10.2048 104.865 9.54059 103.453 9.53443C100.993 9.52234 98.9888 11.508 98.976 13.971C98.9646 16.15 105.156 21.5058 106.584 22.7116C106.755 22.8562 106.996 22.8573 107.169 22.7144C108.608 21.5219 114.85 16.2242 114.861 14.0477C114.873 11.5877 112.888 9.58034 110.425 9.56748Z" fill="#F50032"/>
<path fill-rule="evenodd" clip-rule="evenodd" d="M88.5594 90.1053C90.4051 87.5695 91.494 84.4475 91.494 81.071C91.494 72.5838 84.6138 65.7035 76.1265 65.7035C69.2212 65.7035 63.3797 70.2579 61.442 76.5267C59.5042 70.2579 53.6627 65.7035 46.7574 65.7035C38.2702 65.7035 31.3899 72.5838 31.3899 81.071C31.3899 84.4467 32.4783 87.5681 34.3233 90.1035C34.7791 90.8079 35.2877 91.482 35.8466 92.1196L59.1861 118.741C60.3811 120.104 62.5027 120.104 63.6977 118.741L87.0372 92.1196C87.5957 91.4825 88.1038 90.809 88.5594 90.1053Z" fill="#F50032"/>
<path d="M88.5594 90.1053L85.4113 88.0676L85.4671 87.9814L85.5275 87.8984L88.5594 90.1053ZM61.442 76.5267L65.0247 77.6342L61.442 89.2246L57.8592 77.6342L61.442 76.5267ZM34.3233 90.1035L37.3555 87.8971L37.4159 87.9801L37.4716 88.0662L34.3233 90.1035ZM35.8466 92.1196L38.6664 89.6474H38.6664L35.8466 92.1196ZM59.1861 118.741L56.3663 121.213V121.213L59.1861 118.741ZM63.6977 118.741L66.5175 121.213V121.213L63.6977 118.741ZM87.0372 92.1196L84.2174 89.6475V89.6475L87.0372 92.1196ZM85.5275 87.8984C86.9222 85.9823 87.744 83.6281 87.744 81.071H95.244C95.244 85.2668 93.888 89.1568 91.5912 92.3122L85.5275 87.8984ZM87.744 81.071C87.744 74.6549 82.5427 69.4535 76.1265 69.4535V61.9535C86.6848 61.9535 95.244 70.5127 95.244 81.071H87.744ZM76.1265 69.4535C70.9119 69.4535 66.4906 72.8919 65.0247 77.6342L57.8592 75.4192C60.2689 67.6239 67.5306 61.9535 76.1265 61.9535V69.4535ZM57.8592 77.6342C56.3933 72.8919 51.972 69.4535 46.7574 69.4535V61.9535C55.3534 61.9535 62.6151 67.6239 65.0247 75.4192L57.8592 77.6342ZM46.7574 69.4535C40.3413 69.4535 35.1399 74.6549 35.1399 81.071H27.6399C27.6399 70.5127 36.1991 61.9535 46.7574 61.9535V69.4535ZM35.1399 81.071C35.1399 83.6276 35.9613 85.9812 37.3555 87.8971L31.2911 92.31C28.9953 89.155 27.6399 85.2658 27.6399 81.071H35.1399ZM37.4716 88.0662C37.8291 88.6186 38.2279 89.1473 38.6664 89.6474L33.0269 94.5917C32.3474 93.8167 31.7292 92.9972 31.175 92.1408L37.4716 88.0662ZM38.6664 89.6474L62.0059 116.269L56.3663 121.213L33.0269 94.5917L38.6664 89.6474ZM62.0059 116.269C61.7071 115.928 61.1767 115.928 60.878 116.269L66.5175 121.213C63.8287 124.28 59.0551 124.28 56.3663 121.213L62.0059 116.269ZM60.878 116.269L84.2174 89.6475L89.8569 94.5917L66.5175 121.213L60.878 116.269ZM84.2174 89.6475C84.6555 89.1477 85.0541 88.6195 85.4113 88.0676L91.7074 92.143C91.1536 92.9986 90.5358 93.8173 89.8569 94.5917L84.2174 89.6475Z" fill="#F50032"/>
<path fill-rule="evenodd" clip-rule="evenodd" d="M88.5594 90.1053C90.4051 87.5695 91.494 84.4475 91.494 81.071C91.494 72.5838 84.6138 65.7035 76.1265 65.7035C69.2212 65.7035 63.3797 70.2579 61.442 76.5267C59.5042 70.2579 53.6627 65.7035 46.7574 65.7035C38.2702 65.7035 31.3899 72.5838 31.3899 81.071C31.3899 84.4467 32.4783 87.5681 34.3233 90.1035C34.7791 90.8079 35.2877 91.482 35.8466 92.1196L59.1861 118.741C60.3811 120.104 62.5027 120.104 63.6977 118.741L87.0372 92.1196C87.5957 91.4825 88.1038 90.809 88.5594 90.1053Z" fill="#F50032"/>
<path d="M88.5594 90.1053L86.6705 88.8827L86.704 88.831L86.7402 88.7812L88.5594 90.1053ZM61.442 76.5267L63.5916 77.1912L61.442 84.1454L59.2923 77.1912L61.442 76.5267ZM34.3233 90.1035L36.1426 88.7797L36.1788 88.8295L36.2123 88.8812L34.3233 90.1035ZM35.8466 92.1196L37.5385 90.6363L37.5385 90.6363L35.8466 92.1196ZM59.1861 118.741L57.4942 120.224L57.4942 120.224L59.1861 118.741ZM63.6977 118.741L65.3896 120.224V120.224L63.6977 118.741ZM87.0372 92.1196L85.3453 90.6363V90.6363L87.0372 92.1196ZM86.7402 88.7812C88.3154 86.6172 89.244 83.9559 89.244 81.071H93.744C93.744 84.939 92.4949 88.5219 90.3785 91.4294L86.7402 88.7812ZM89.244 81.071C89.244 73.8264 83.3711 67.9535 76.1265 67.9535V63.4535C85.8564 63.4535 93.744 71.3412 93.744 81.071H89.244ZM76.1265 67.9535C70.2356 67.9535 65.2463 71.8383 63.5916 77.1912L59.2923 75.8622C61.5132 68.6775 68.2069 63.4535 76.1265 63.4535V67.9535ZM59.2923 77.1912C57.6377 71.8383 52.6483 67.9535 46.7574 67.9535V63.4535C54.6771 63.4535 61.3707 68.6775 63.5916 75.8622L59.2923 77.1912ZM46.7574 67.9535C39.5128 67.9535 33.6399 73.8264 33.6399 81.071H29.1399C29.1399 71.3412 37.0276 63.4535 46.7574 63.4535V67.9535ZM33.6399 81.071C33.6399 83.9552 34.5681 86.616 36.1426 88.7797L32.504 91.4274C30.3885 88.5202 29.1399 84.9381 29.1399 81.071H33.6399ZM36.2123 88.8812C36.6091 89.4943 37.0518 90.0812 37.5385 90.6363L34.1548 93.6029C33.5235 92.8828 32.9491 92.1215 32.4343 91.3259L36.2123 88.8812ZM37.5385 90.6363L60.8779 117.258L57.4942 120.224L34.1548 93.6028L37.5385 90.6363ZM60.8779 117.258C61.1767 117.599 61.7071 117.599 62.0059 117.258L65.3896 120.224C63.2983 122.61 59.5855 122.61 57.4942 120.224L60.8779 117.258ZM62.0059 117.258L85.3453 90.6363L88.729 93.6029L65.3896 120.224L62.0059 117.258ZM85.3453 90.6363C85.8316 90.0816 86.274 89.4953 86.6705 88.8827L90.4482 91.3279C89.9337 92.1228 89.3598 92.8834 88.729 93.6029L85.3453 90.6363Z" fill="white"/>
<path fill-rule="evenodd" clip-rule="evenodd" d="M88.5594 90.0755C90.4051 87.5398 91.494 84.4177 91.494 81.0413C91.494 72.554 84.6138 65.6737 76.1265 65.6737C69.2212 65.6737 63.3797 70.2281 61.442 76.4969C59.5042 70.2281 53.6627 65.6737 46.7574 65.6737C38.2702 65.6737 31.3899 72.554 31.3899 81.0413C31.3899 84.4169 32.4783 87.5383 34.3233 90.0738C34.7791 90.7781 35.2877 91.4522 35.8466 92.0898L59.1861 118.711C60.3811 120.074 62.5027 120.074 63.6977 118.711L87.0372 92.0898C87.5957 91.4527 88.1038 90.7793 88.5594 90.0755Z" fill="#F50032"/>
</g>
</g>
<rect x="0.75" y="0.5" width="121" height="167.25" rx="10.5" stroke="#ADADAD"/>
<defs>
<clipPath id="clip0_17_2730">
<rect x="1.25" y="1" width="120" height="166.25" rx="10" fill="white"/>
</clipPath>
</defs>
</svg>
