<svg width="123" height="169" viewBox="0 0 123 169" fill="none" xmlns="http://www.w3.org/2000/svg">
<g clip-path="url(#clip0_17_2714)">
<rect x="1.25" y="1" width="120" height="166.25" rx="10" fill="white"/>
<mask id="mask0_17_2714" style="mask-type:alpha" maskUnits="userSpaceOnUse" x="1" y="1" width="121" height="167">
<rect x="1.25" y="1" width="120" height="166.25" fill="#D9D9D9"/>
</mask>
<g mask="url(#mask0_17_2714)">
<path d="M17.186 22L16.304 19.192H11.426L10.49 22H7.34L11.678 9.4H16.556L20.786 22H17.186ZM12.164 16.978H15.602L13.946 11.668L12.164 16.978Z" fill="black"/>
<path d="M103.637 20.7134C104.947 20.7131 106.111 20.1026 106.868 19.1519C107.627 20.1023 108.791 20.7123 110.101 20.712C112.385 20.7116 114.234 18.8595 114.231 16.5761C114.233 14.5659 108.529 9.67368 107.157 8.5262C106.985 8.38251 106.741 8.38265 106.569 8.52654C105.199 9.67553 99.5004 14.5739 99.5008 16.5834C99.5011 18.8676 101.353 20.7165 103.637 20.7134Z" fill="black"/>
<path d="M106.664 20.3605C106.754 20.2034 106.981 20.2034 107.072 20.3605L108.909 23.5425C109 23.6996 108.886 23.896 108.705 23.896H105.031C104.849 23.896 104.736 23.6996 104.827 23.5425L106.664 20.3605Z" fill="black"/>
<mask id="path-7-outside-1_17_2714" maskUnits="userSpaceOnUse" x="54.4843" y="79.7686" width="65" height="71" fill="black">
<rect fill="white" x="54.4843" y="79.7686" width="65" height="71"/>
<path fill-rule="evenodd" clip-rule="evenodd" d="M112.9 119.313C112.9 116.368 111.95 113.646 110.34 111.434C109.943 110.82 109.5 110.233 109.013 109.678L88.9477 86.7909C87.7526 85.4278 85.6311 85.4278 84.436 86.7909L64.3708 109.678C63.8833 110.234 63.4398 110.822 63.0422 111.436C61.4333 113.647 60.4843 116.369 60.4843 119.313C60.4843 126.714 66.4844 132.715 73.8859 132.715C79.9078 132.715 85.0021 128.743 86.6919 123.276C88.3818 128.743 93.476 132.715 99.498 132.715C106.899 132.715 112.9 126.714 112.9 119.313ZM87.991 132.343C87.4137 131.343 85.9703 131.343 85.3929 132.343L79.5709 142.427C78.9935 143.427 79.7152 144.677 80.8699 144.677H92.514C93.6687 144.677 94.3904 143.427 93.8131 142.427L87.991 132.343Z"/>
</mask>
<path fill-rule="evenodd" clip-rule="evenodd" d="M112.9 119.313C112.9 116.368 111.95 113.646 110.34 111.434C109.943 110.82 109.5 110.233 109.013 109.678L88.9477 86.7909C87.7526 85.4278 85.6311 85.4278 84.436 86.7909L64.3708 109.678C63.8833 110.234 63.4398 110.822 63.0422 111.436C61.4333 113.647 60.4843 116.369 60.4843 119.313C60.4843 126.714 66.4844 132.715 73.8859 132.715C79.9078 132.715 85.0021 128.743 86.6919 123.276C88.3818 128.743 93.476 132.715 99.498 132.715C106.899 132.715 112.9 126.714 112.9 119.313ZM87.991 132.343C87.4137 131.343 85.9703 131.343 85.3929 132.343L79.5709 142.427C78.9935 143.427 79.7152 144.677 80.8699 144.677H92.514C93.6687 144.677 94.3904 143.427 93.8131 142.427L87.991 132.343Z" fill="black"/>
<path d="M110.34 111.434L105.303 114.694L105.393 114.832L105.489 114.965L110.34 111.434ZM109.013 109.678L104.501 113.633L104.501 113.633L109.013 109.678ZM88.9477 86.7909L93.4593 82.8355V82.8355L88.9477 86.7909ZM84.436 86.7909L79.9244 82.8355V82.8355L84.436 86.7909ZM64.3708 109.678L59.8592 105.722L59.8592 105.722L64.3708 109.678ZM63.0422 111.436L67.8938 114.966L67.9904 114.834L68.0796 114.696L63.0422 111.436ZM86.6919 123.276L92.4243 121.504L86.6919 102.959L80.9595 121.504L86.6919 123.276ZM85.3929 132.343L80.1968 129.343L85.3929 132.343ZM87.991 132.343L93.1872 129.343H93.1872L87.991 132.343ZM79.5709 142.427L84.767 145.427L79.5709 142.427ZM93.8131 142.427L88.6169 145.427L93.8131 142.427ZM105.489 114.965C106.377 116.185 106.9 117.679 106.9 119.313H118.9C118.9 115.057 117.523 111.106 115.191 107.903L105.489 114.965ZM104.501 113.633C104.796 113.969 105.063 114.324 105.303 114.694L115.377 108.174C114.823 107.317 114.204 106.497 113.524 105.722L104.501 113.633ZM84.436 90.7463L104.501 113.633L113.524 105.722L93.4593 82.8355L84.436 90.7463ZM88.9477 90.7463C87.7526 92.1093 85.631 92.1093 84.436 90.7463L93.4593 82.8355C89.8742 78.7463 83.5095 78.7462 79.9244 82.8355L88.9477 90.7463ZM68.8825 113.633L88.9477 90.7463L79.9244 82.8355L59.8592 105.722L68.8825 113.633ZM68.0796 114.696C68.3197 114.325 68.5877 113.969 68.8825 113.633L59.8592 105.722C59.1789 106.498 58.5598 107.319 58.0049 108.176L68.0796 114.696ZM66.4843 119.313C66.4843 117.68 67.0062 116.186 67.8938 114.966L58.1907 107.906C55.8605 111.108 54.4843 115.059 54.4843 119.313H66.4843ZM73.8859 126.715C69.7981 126.715 66.4843 123.401 66.4843 119.313H54.4843C54.4843 130.028 63.1707 138.715 73.8859 138.715V126.715ZM80.9595 121.504C80.0247 124.528 77.2027 126.715 73.8859 126.715V138.715C82.6129 138.715 89.9794 132.957 92.4243 125.048L80.9595 121.504ZM99.498 126.715C96.1811 126.715 93.3592 124.528 92.4243 121.504L80.9595 125.048C83.4044 132.957 90.771 138.715 99.498 138.715V126.715ZM106.9 119.313C106.9 123.401 103.586 126.715 99.498 126.715V138.715C110.213 138.715 118.9 130.028 118.9 119.313H106.9ZM90.5891 135.343C88.857 138.343 84.5269 138.343 82.7949 135.343L93.1872 129.343C90.3004 124.343 83.0835 124.343 80.1968 129.343L90.5891 135.343ZM84.767 145.427L90.5891 135.343L80.1968 129.343L74.3747 139.427L84.767 145.427ZM80.8699 138.677C84.334 138.677 86.4991 142.427 84.767 145.427L74.3747 139.427C71.488 144.427 75.0964 150.677 80.8699 150.677V138.677ZM92.514 138.677H80.8699V150.677H92.514V138.677ZM88.6169 145.427C86.8849 142.427 89.0499 138.677 92.514 138.677V150.677C98.2875 150.677 101.896 144.427 99.0092 139.427L88.6169 145.427ZM82.7949 135.343L88.6169 145.427L99.0092 139.427L93.1872 129.343L82.7949 135.343Z" fill="black" mask="url(#path-7-outside-1_17_2714)"/>
<mask id="path-9-outside-2_17_2714" maskUnits="userSpaceOnUse" x="55.4843" y="80.7686" width="62" height="69" fill="black">
<rect fill="white" x="55.4843" y="80.7686" width="62" height="69"/>
<path fill-rule="evenodd" clip-rule="evenodd" d="M112.9 119.313C112.9 116.368 111.95 113.646 110.34 111.434C109.943 110.82 109.5 110.233 109.013 109.678L88.9477 86.7909C87.7526 85.4278 85.6311 85.4278 84.436 86.7909L64.3708 109.678C63.8833 110.234 63.4398 110.822 63.0422 111.436C61.4333 113.647 60.4843 116.369 60.4843 119.313C60.4843 126.714 66.4844 132.715 73.8859 132.715C79.9078 132.715 85.0021 128.743 86.6919 123.276C88.3818 128.743 93.476 132.715 99.498 132.715C106.899 132.715 112.9 126.714 112.9 119.313ZM87.991 132.343C87.4137 131.343 85.9703 131.343 85.3929 132.343L79.5709 142.427C78.9935 143.427 79.7152 144.677 80.8699 144.677H92.514C93.6687 144.677 94.3904 143.427 93.8131 142.427L87.991 132.343Z"/>
</mask>
<path fill-rule="evenodd" clip-rule="evenodd" d="M112.9 119.313C112.9 116.368 111.95 113.646 110.34 111.434C109.943 110.82 109.5 110.233 109.013 109.678L88.9477 86.7909C87.7526 85.4278 85.6311 85.4278 84.436 86.7909L64.3708 109.678C63.8833 110.234 63.4398 110.822 63.0422 111.436C61.4333 113.647 60.4843 116.369 60.4843 119.313C60.4843 126.714 66.4844 132.715 73.8859 132.715C79.9078 132.715 85.0021 128.743 86.6919 123.276C88.3818 128.743 93.476 132.715 99.498 132.715C106.899 132.715 112.9 126.714 112.9 119.313ZM87.991 132.343C87.4137 131.343 85.9703 131.343 85.3929 132.343L79.5709 142.427C78.9935 143.427 79.7152 144.677 80.8699 144.677H92.514C93.6687 144.677 94.3904 143.427 93.8131 142.427L87.991 132.343Z" fill="black"/>
<path d="M110.34 111.434L106.563 113.879L106.63 113.983L106.702 114.082L110.34 111.434ZM109.013 109.678L105.629 112.644V112.644L109.013 109.678ZM88.9477 86.7909L92.3314 83.8243V83.8243L88.9477 86.7909ZM84.436 86.7909L81.0523 83.8243V83.8243L84.436 86.7909ZM64.3708 109.678L60.9871 106.711L60.9871 106.711L64.3708 109.678ZM63.0422 111.436L66.6809 114.084L66.7533 113.984L66.8202 113.881L63.0422 111.436ZM86.6919 123.276L90.9912 121.947L86.6919 108.038L82.3926 121.947L86.6919 123.276ZM85.3929 132.343L81.4958 130.093L85.3929 132.343ZM87.991 132.343L91.8881 130.093L87.991 132.343ZM79.5709 142.427L83.468 144.677L79.5709 142.427ZM93.8131 142.427L89.9159 144.677L93.8131 142.427ZM106.702 114.082C107.771 115.55 108.4 117.351 108.4 119.313H117.4C117.4 115.385 116.129 111.741 113.978 108.786L106.702 114.082ZM105.629 112.644C105.972 113.035 106.283 113.448 106.563 113.879L114.118 108.989C113.603 108.193 113.028 107.431 112.397 106.711L105.629 112.644ZM85.5639 89.7574L105.629 112.644L112.397 106.711L92.3314 83.8243L85.5639 89.7574ZM87.8198 89.7574C87.2222 90.4389 86.1614 90.4389 85.5639 89.7574L92.3314 83.8243C89.3438 80.4166 84.0399 80.4166 81.0523 83.8243L87.8198 89.7574ZM67.7546 112.644L87.8198 89.7574L81.0523 83.8243L60.9871 106.711L67.7546 112.644ZM66.8202 113.881C67.0997 113.449 67.4116 113.035 67.7546 112.644L60.9871 106.711C60.355 107.432 59.7798 108.195 59.2642 108.991L66.8202 113.881ZM64.9843 119.313C64.9843 117.352 65.613 115.551 66.6809 114.084L59.4036 108.788C57.2537 111.743 55.9843 115.386 55.9843 119.313H64.9843ZM73.8859 128.215C68.9697 128.215 64.9843 124.229 64.9843 119.313H55.9843C55.9843 129.2 63.9991 137.215 73.8859 137.215V128.215ZM82.3926 121.947C81.269 125.582 77.879 128.215 73.8859 128.215V137.215C81.9366 137.215 88.7351 131.904 90.9912 124.605L82.3926 121.947ZM99.498 128.215C95.5048 128.215 92.1148 125.582 90.9912 121.947L82.3926 124.605C84.6488 131.904 91.4472 137.215 99.498 137.215V128.215ZM108.4 119.313C108.4 124.229 104.414 128.215 99.498 128.215V137.215C109.385 137.215 117.4 129.2 117.4 119.313H108.4ZM89.29 134.593C88.1353 136.593 85.2486 136.593 84.0939 134.593L91.8881 130.093C89.5787 126.093 83.8052 126.093 81.4958 130.093L89.29 134.593ZM83.468 144.677L89.29 134.593L81.4958 130.093L75.6738 140.177L83.468 144.677ZM80.8699 140.177C83.1793 140.177 84.6227 142.677 83.468 144.677L75.6738 140.177C73.3644 144.177 76.2511 149.177 80.8699 149.177V140.177ZM92.514 140.177H80.8699V149.177H92.514V140.177ZM89.9159 144.677C88.7612 142.677 90.2046 140.177 92.514 140.177V149.177C97.1328 149.177 100.02 144.177 97.7102 140.177L89.9159 144.677ZM84.0939 134.593L89.9159 144.677L97.7102 140.177L91.8881 130.093L84.0939 134.593Z" fill="white" mask="url(#path-9-outside-2_17_2714)"/>
</g>
</g>
<rect x="0.75" y="0.5" width="121" height="167.25" rx="10.5" stroke="#ADADAD"/>
<defs>
<clipPath id="clip0_17_2714">
<rect x="1.25" y="1" width="120" height="166.25" rx="10" fill="white"/>
</clipPath>
</defs>
</svg>
