<svg width="123" height="169" viewBox="0 0 123 169" fill="none" xmlns="http://www.w3.org/2000/svg">
<g clip-path="url(#clip0_17_2717)">
<rect x="1.75" y="1" width="120" height="166.25" rx="10" fill="white"/>
<mask id="mask0_17_2717" style="mask-type:alpha" maskUnits="userSpaceOnUse" x="1" y="1" width="121" height="167">
<rect x="1.75" y="1" width="120" height="166.25" fill="#D9D9D9"/>
</mask>
<g mask="url(#mask0_17_2717)">
<path d="M16.246 22L12.286 16.33V22H8.866V9.4H12.286V14.494L16.552 9.4H20.332L15.418 15.106L20.548 22H16.246Z" fill="black"/>
<path d="M104.137 20.7134C105.447 20.7131 106.611 20.1026 107.368 19.1519C108.127 20.1023 109.291 20.7123 110.601 20.712C112.885 20.7116 114.734 18.8595 114.731 16.5761C114.733 14.5659 109.029 9.67368 107.657 8.5262C107.485 8.38251 107.241 8.38265 107.069 8.52654C105.699 9.67553 100 14.5739 100.001 16.5834C100.001 18.8676 101.853 20.7165 104.137 20.7134Z" fill="black"/>
<path d="M107.164 20.3605C107.254 20.2034 107.481 20.2034 107.572 20.3605L109.409 23.5425C109.5 23.6996 109.386 23.896 109.205 23.896H105.531C105.349 23.896 105.236 23.6996 105.327 23.5425L107.164 20.3605Z" fill="black"/>
<mask id="mask1_17_2717" style="mask-type:alpha" maskUnits="userSpaceOnUse" x="7" y="31" width="109" height="130">
<rect x="7.5" y="31" width="108" height="130" rx="6" fill="white"/>
</mask>
<g mask="url(#mask1_17_2717)">
<path d="M114.5 127H7.5V157H114.5V127Z" fill="#FFCE57"/>
<path d="M114.5 156H7.5V160H114.5V156Z" fill="#F50032"/>
<path d="M115.32 139.964H7.5V126.201H115.32V139.964ZM8.46375 139H114.356V127.194H8.46375V139Z" fill="#000003"/>
<path d="M48.6695 53.076C48.6093 52.8953 48.5792 52.6845 48.6695 52.4435C48.8502 51.6304 48.4888 50.7268 48.3684 49.9438C48.3684 49.7631 48.3684 49.5824 48.3684 49.4017C48.278 49.2511 48.2479 49.1005 48.2178 48.8897C48.1877 48.1067 48.1575 47.3236 48.1274 46.5406C48.1274 46.2093 48.1274 45.878 48.1274 45.5467C48.007 47.7452 47.6154 52.0219 46.1698 54.2204C46.3204 53.9795 47.4347 52.0821 45.5675 51.9315C44.5736 51.8412 43.8508 52.5941 43.7002 53.4675C43.5195 54.7927 44.2122 55.7263 45.1157 56.0576C45.959 56.3889 47.4046 55.9371 48.4286 54.5517C48.3985 54.4011 48.3985 54.2204 48.4286 54.0397C48.519 53.7085 48.5792 53.4073 48.6394 53.076H48.6695Z" fill="white"/>
<path d="M48.4594 54.0999C47.6764 55.3347 46.562 55.937 45.7489 55.937C45.5681 55.937 45.3874 55.937 45.2369 55.8467C44.514 55.5756 43.7912 54.7926 43.9719 53.4976C44.0623 52.835 44.6044 52.1724 45.4176 52.1724C45.4477 52.1724 45.5079 52.1724 45.538 52.1724C45.9597 52.2025 46.2006 52.323 46.3211 52.5338C46.562 52.9856 46.1404 53.8288 45.9597 54.0999C45.8693 54.2204 45.8994 54.371 46.0199 54.4312C46.1404 54.4914 46.291 54.4613 46.3512 54.371C47.4053 52.8049 47.9173 50.2449 48.1883 48.0765C48.1883 47.5645 48.1582 47.0525 48.1281 46.5104C48.1281 45.7876 48.2185 45.0647 48.098 44.372C48.0679 44.2215 48.0679 44.101 48.098 43.9805C48.098 43.9805 48.098 43.9504 48.098 43.9203C48.0076 43.9504 47.9474 44.0408 47.9474 44.1311C47.9474 44.1913 47.9474 49.0402 46.803 52.3531C46.803 52.3531 46.803 52.3531 46.803 52.323C46.6223 51.9315 46.2307 51.7206 45.6284 51.6905C44.5743 51.6002 43.6708 52.3832 43.5202 53.4373C43.3395 54.7324 43.9418 55.8467 45.0863 56.2985C45.2971 56.3587 45.5079 56.4189 45.779 56.4189C46.5921 56.4189 47.7065 55.937 48.61 54.8227C48.4895 54.6119 48.4594 54.371 48.4895 54.0999H48.4594Z" fill="#000003"/>
<path d="M60.566 52.9253C64.9631 57.1718 69.0891 52.8952 69.0891 52.8952C64.692 48.6487 60.566 52.9253 60.566 52.9253Z" fill="white"/>
<path d="M64.7225 55.0336C63.1865 55.0336 61.7409 54.371 60.4157 53.0759L60.235 52.8952L60.3856 52.7145C60.3856 52.7145 62.3432 50.7268 64.9634 50.7268C66.4994 50.7268 67.945 51.3894 69.2702 52.6844L69.4509 52.8651L69.2702 53.0458C69.2702 53.0458 67.3126 55.0336 64.7225 55.0336ZM60.9277 52.9254C62.1023 54.0096 63.3973 54.5517 64.7225 54.5517C66.6801 54.5517 68.2462 53.347 68.7582 52.8651C67.5836 51.7809 66.2886 51.2388 64.9936 51.2388C63.0359 51.2388 61.4699 52.4435 60.9579 52.9254H60.9277Z" fill="#000003"/>
<path d="M66.6799 52.8953C66.6799 53.9192 65.8668 54.7324 64.8428 54.7324C63.8188 54.7324 63.0056 53.9192 62.9755 52.8953C62.9755 51.8713 63.7887 51.0581 64.8127 51.0581C65.8367 51.0581 66.6498 51.8713 66.6498 52.8953H66.6799Z" fill="white"/>
<path d="M64.8426 55.0035C63.6981 55.0035 62.7645 54.0699 62.7645 52.9254C62.7645 51.781 63.6981 50.8473 64.8426 50.8172C65.987 50.8172 66.9206 51.7508 66.9206 52.8953C66.9206 53.4675 66.7098 53.9795 66.3183 54.371C65.9268 54.7626 65.4148 54.9734 64.8426 55.0035ZM64.8426 51.2991C63.9692 51.2991 63.2463 52.0219 63.2463 52.8953C63.2463 53.7687 63.9692 54.4915 64.8426 54.4915C65.2642 54.4915 65.6858 54.3108 65.987 54.0096C66.2882 53.7084 66.4388 53.3169 66.4388 52.8652C66.4388 51.9918 65.716 51.269 64.8426 51.269V51.2991Z" fill="#000003"/>
<path d="M65.7162 52.8952C65.7162 53.3771 65.3247 53.7686 64.8429 53.7686C64.361 53.7686 63.9694 53.3771 63.9393 52.8952C63.9393 52.4134 64.3309 52.0219 64.8127 52.0219C65.2946 52.0219 65.6861 52.4134 65.6861 52.8952H65.7162Z" fill="#000003"/>
<path d="M55.868 67.2009C54.9645 67.2009 54.0309 66.9299 53.9706 66.9299L54.061 66.5685C54.061 66.5685 55.8379 67.0503 56.6511 66.7191C57.3438 66.4179 57.7654 66.5383 57.9461 66.6588C58.1268 66.5383 58.5485 66.448 59.2411 66.7191C60.0543 67.0503 61.8312 66.5383 61.8312 66.5383L61.9216 66.8998C61.9216 66.8998 60.0242 67.4419 59.0906 67.0503C58.3376 66.7492 58.0666 66.9901 58.0666 67.0202L57.9461 67.1407L57.8256 67.0202C57.8256 67.0202 57.5546 66.7793 56.8017 67.0805C56.5306 67.2009 56.1993 67.231 55.868 67.231V67.2009Z" fill="#000003"/>
<path d="M61.8009 67.0804L61.5599 66.4178L62.0117 66.2672L62.2526 66.8997L61.8009 67.0804Z" fill="#000003"/>
<path d="M53.9656 66.3169L53.7411 67.0356L54.0861 67.1434L54.3105 66.4246L53.9656 66.3169Z" fill="#000003"/>
<path d="M56.1992 68.1948C56.1992 68.1948 58.1568 69.279 60.1446 68.2551C60.1446 68.2551 58.187 71.3872 56.1992 68.1948Z" fill="#000003"/>
<path d="M48.2482 68.6465L48.1579 52.835L47.7964 49.0703V48.6487L47.947 43.7095L48.4289 43.7396L48.2783 48.6487V49.0703L48.6397 52.8049L48.7301 68.6164L48.2482 68.6465Z" fill="#000003"/>
<path d="M82.8664 39.592L48.0212 39.7684L48.0435 44.1654L82.8886 43.9891L82.8664 39.592Z" fill="white"/>
<path d="M47.7964 44.3721V39.4931L83.0938 39.3124V44.1914L47.7964 44.3721ZM48.2482 40.0051V43.9203L82.6119 43.7396V39.8244L48.2482 40.0051Z" fill="#000003"/>
<path d="M64.12 31.3614H63.7586L42.8874 31.4819C46.9833 33.8913 48.0073 39.7641 48.0073 39.7641L63.7887 39.6738H64.1501L82.8529 39.5834C82.8529 39.5834 83.8468 33.7106 87.9126 31.241L64.12 31.3614Z" fill="#FFCE57"/>
<path d="M47.8267 40.005V39.7942C47.8267 39.7942 46.7123 34.0117 42.767 31.6927L42.014 31.2409L88.7559 31L88.003 31.4518C84.0877 33.831 83.0939 39.5533 83.0638 39.6135V39.8243L47.7965 40.005H47.8267ZM43.6705 31.7228C46.893 34.1021 48.0074 38.5293 48.2182 39.5232L82.6722 39.3425C82.8831 38.3486 83.907 33.9214 87.1296 31.4819L43.7006 31.6927L43.6705 31.7228Z" fill="#000003"/>
<path d="M115.018 127.014L7.98138 127.556V90.3611L44.6942 75.1218C44.6942 75.1218 50.8683 78.6455 58.8192 71.7788C58.8192 71.7788 64.4511 77.3806 71.3178 75.6037C71.3178 75.6037 75.7451 74.6701 76.3474 71.0259C76.3474 71.0259 78.8773 73.5858 81.9191 72.7727C81.9191 72.7727 82.4913 72.6823 83.1539 72.351C83.1539 72.351 84.4489 72.351 85.5633 71.7186L114.867 90.6623" fill="#FFCE57"/>
<path d="M7.5 128.038V90.0297L44.7248 74.5796L44.9357 74.7001C45.1766 74.8205 50.929 77.9527 58.4884 71.3872L58.8197 71.086L59.151 71.4173C59.151 71.4173 64.6624 76.7782 71.1677 75.0916C71.228 75.0916 75.2938 74.158 75.8359 70.9053L75.9865 69.9717L76.6491 70.6343C76.6491 70.6343 79.0283 72.9834 81.769 72.2305H81.8292C81.8292 72.2305 82.3412 72.1401 82.8833 71.8691L83.0038 71.8088H83.1243C83.1243 71.8088 84.3289 71.8088 85.2927 71.2366L85.5637 71.086L115.109 90.1803L114.597 90.9935L85.5336 72.2305C84.6 72.6822 83.6061 72.7726 83.2748 72.8027C82.6725 73.0737 82.1605 73.1942 82.04 73.1942C79.6608 73.8267 77.6429 72.622 76.6491 71.8691C75.5648 75.1518 71.6195 76.0252 71.4388 76.0554C65.2949 77.6516 60.175 73.6159 58.8498 72.4112C51.6518 78.4346 45.9295 76.2361 44.7248 75.6638L8.46375 90.6622V127.044L115.018 126.502V127.465L7.5 128.038Z" fill="#000003"/>
<path d="M44.3935 89.1864H19.5769V89.9092H44.3935V89.1864Z" fill="#000003"/>
<path d="M46.6523 92.2886H21.8358V93.0114H46.6523V92.2886Z" fill="#000003"/>
<path d="M48.9408 95.3604H22.8894V96.0832H48.9408V95.3604Z" fill="#000003"/>
<path d="M51.2002 98.4324H24.8176V99.1552H51.2002V98.4324Z" fill="#000003"/>
<path d="M117 140V139.5H116.5H4.5H4V140V145V145.5H4.5H116.5H117V145V140Z" fill="#F50032" stroke="black"/>
<path d="M117 151V150.5H116.5H4.5H4V151V156V156.5H4.5H116.5H117V156V151Z" fill="white" stroke="black"/>
<path d="M10.4456 151.5L9 153.458L10.4757 155.415L11.8913 153.458L10.4456 151.5Z" fill="#000003"/>
<path d="M13.4456 151.5L12 153.458L13.4757 155.415L14.8913 153.458L13.4456 151.5Z" fill="#000003"/>
<path d="M16.4456 151.5L15 153.458L16.4757 155.415L17.8913 153.458L16.4456 151.5Z" fill="#000003"/>
<path d="M19.4456 151.5L18 153.458L19.4757 155.415L20.8913 153.458L19.4456 151.5Z" fill="#000003"/>
<path d="M22.4456 151.5L21 153.458L22.4757 155.415L23.8913 153.458L22.4456 151.5Z" fill="#000003"/>
<path d="M25.4456 151.5L24 153.458L25.4757 155.415L26.8913 153.458L25.4456 151.5Z" fill="#000003"/>
<path d="M28.4456 151.5L27 153.458L28.4757 155.415L29.8913 153.458L28.4456 151.5Z" fill="#000003"/>
<path d="M31.4456 151.5L30 153.458L31.4757 155.415L32.8913 153.458L31.4456 151.5Z" fill="#000003"/>
<path d="M34.4456 151.5L33 153.458L34.4757 155.415L35.8913 153.458L34.4456 151.5Z" fill="#000003"/>
<path d="M37.4456 151.5L36 153.458L37.4757 155.415L38.8913 153.458L37.4456 151.5Z" fill="#000003"/>
<path d="M40.4456 151.5L39 153.458L40.4757 155.415L41.8913 153.458L40.4456 151.5Z" fill="#000003"/>
<path d="M43.4456 151.5L42 153.458L43.4757 155.415L44.8913 153.458L43.4456 151.5Z" fill="#000003"/>
<path d="M46.4456 151.5L45 153.458L46.4757 155.415L47.8913 153.458L46.4456 151.5Z" fill="#000003"/>
<path d="M49.4456 151.5L48 153.458L49.4757 155.415L50.8913 153.458L49.4456 151.5Z" fill="#000003"/>
<path d="M52.4456 151.5L51 153.458L52.4757 155.415L53.8913 153.458L52.4456 151.5Z" fill="#000003"/>
<path d="M55.4456 151.5L54 153.458L55.4757 155.415L56.8913 153.458L55.4456 151.5Z" fill="#000003"/>
<path d="M58.4456 151.5L57 153.458L58.4757 155.415L59.8913 153.458L58.4456 151.5Z" fill="#000003"/>
<path d="M61.4456 151.5L60 153.458L61.4757 155.415L62.8913 153.458L61.4456 151.5Z" fill="#000003"/>
<path d="M64.4456 151.5L63 153.458L64.4757 155.415L65.8913 153.458L64.4456 151.5Z" fill="#000003"/>
<path d="M67.4456 151.5L66 153.458L67.4757 155.415L68.8913 153.458L67.4456 151.5Z" fill="#000003"/>
<path d="M70.4456 151.5L69 153.458L70.4757 155.415L71.8913 153.458L70.4456 151.5Z" fill="#000003"/>
<path d="M73.4456 151.5L72 153.458L73.4757 155.415L74.8913 153.458L73.4456 151.5Z" fill="#000003"/>
<path d="M76.4456 151.5L75 153.458L76.4757 155.415L77.8913 153.458L76.4456 151.5Z" fill="#000003"/>
<path d="M79.4456 151.5L78 153.458L79.4757 155.415L80.8913 153.458L79.4456 151.5Z" fill="#000003"/>
<path d="M82.4456 151.5L81 153.458L82.4757 155.415L83.8913 153.458L82.4456 151.5Z" fill="#000003"/>
<path d="M85.4456 151.5L84 153.458L85.4757 155.415L86.8913 153.458L85.4456 151.5Z" fill="#000003"/>
<path d="M88.4456 151.5L87 153.458L88.4757 155.415L89.8913 153.458L88.4456 151.5Z" fill="#000003"/>
<path d="M91.4456 151.5L90 153.458L91.4757 155.415L92.8913 153.458L91.4456 151.5Z" fill="#000003"/>
<path d="M94.4456 151.5L93 153.458L94.4757 155.415L95.8913 153.458L94.4456 151.5Z" fill="#000003"/>
<path d="M97.4456 151.5L96 153.458L97.4757 155.415L98.8913 153.458L97.4456 151.5Z" fill="#000003"/>
<path d="M100.446 151.5L99 153.458L100.476 155.415L101.891 153.458L100.446 151.5Z" fill="#000003"/>
<path d="M103.446 151.5L102 153.458L103.476 155.415L104.891 153.458L103.446 151.5Z" fill="#000003"/>
<path d="M106.446 151.5L105 153.458L106.476 155.415L107.891 153.458L106.446 151.5Z" fill="#000003"/>
<path d="M109.446 151.5L108 153.458L109.476 155.415L110.891 153.458L109.446 151.5Z" fill="#000003"/>
<path d="M112.446 151.5L111 153.458L112.476 155.415L113.891 153.458L112.446 151.5Z" fill="#000003"/>
<path d="M53.4281 101.535H25.2384V102.257H53.4281V101.535Z" fill="#000003"/>
<path d="M55.7174 104.606H27.1362V105.329H55.7174V104.606Z" fill="#000003"/>
<path d="M57.9763 107.678H28.612V108.401H57.9763V107.678Z" fill="#000003"/>
<path d="M55.0541 110.781H30.2375V111.503H55.0541V110.781Z" fill="#000003"/>
<path d="M85.5033 71.6583L114.807 90.6021V127.014L63.7888 127.255L39.153 77.4107L44.6945 75.1218C44.6945 75.1218 50.8685 78.6455 58.8195 71.7788C58.8195 71.7788 64.4514 77.3806 71.3181 75.6037C71.3181 75.6037 75.7453 74.6701 76.3477 71.0259C76.3477 71.0259 78.8775 73.5858 81.9194 72.7727C81.9194 72.7727 82.4916 72.6823 83.1542 72.351C83.1542 72.351 84.4492 72.351 85.5635 71.7186L85.5033 71.6583Z" fill="#000003"/>
<path d="M89.3281 84.5785H47.3447V94.0654H89.3281V84.5785Z" fill="#FFCE57"/>
<path d="M88.8458 85.0604V93.5836H47.8262V85.0604H88.8458ZM89.8397 84.0665H46.8624V94.5473H89.8397V84.0665Z" fill="#000003"/>
<path d="M89.1778 87.1987H47.5258V91.4151H89.1778V87.1987Z" fill="#F50032"/>
<path d="M88.8463 87.53V91.114H47.8267V87.53H88.8463ZM89.4787 86.8976H47.1942V91.7464H89.4787V86.8976Z" fill="#000003"/>
<path d="M88.8159 97.0168H52.1331V106.534H88.8159V97.0168Z" fill="#FFCE57"/>
<path d="M88.334 97.4989V106.022H52.6151V97.4989H88.334ZM89.2978 96.5352H51.6513V107.016H89.2978V96.5352Z" fill="#000003"/>
<path d="M88.6653 99.6671H52.3138V103.884H88.6653V99.6671Z" fill="#F50032"/>
<path d="M88.3346 99.9684V103.552H52.6156V99.9684H88.3346ZM88.9671 99.3359H51.9832V104.185H88.9671V99.3359Z" fill="#000003"/>
<path d="M62.223 118.972L62.0725 118.701C62.0725 118.701 62.0725 118.671 62.0423 118.641C61.3798 117.858 60.8979 116.955 60.4461 116.111L60.2052 115.66L60.416 115.388C61.3195 114.304 59.7836 112.106 58.9704 110.931C58.8499 110.781 58.7596 110.63 58.6692 110.509C58.609 110.419 58.5487 110.359 58.4885 110.299L57.1332 109.395H88.3346V118.882H62.2532L62.223 118.972Z" fill="#FFCE57"/>
<path d="M87.8222 109.967V118.49H62.4937C62.4937 118.49 62.4334 118.4 62.4033 118.37C61.7408 117.557 61.2589 116.653 60.777 115.78C62.0419 114.244 59.8735 111.503 59.0603 110.298C58.97 110.148 58.8495 110.058 58.729 109.967H87.7921M88.786 109.003H55.4764L58.1869 110.81C58.1869 110.81 58.1869 110.81 58.2472 110.871C58.3375 110.991 58.4279 111.142 58.5483 111.292C59.1808 112.226 60.6867 114.364 60.0241 115.177L59.6024 115.689L59.9337 116.262L60.0241 116.412C60.506 117.256 60.9878 118.159 61.6504 118.972V119.032L61.9516 119.484H88.786V109.003Z" fill="#000003"/>
<path d="M60.7167 116.352L60.3854 115.75L60.5058 115.569C61.0178 114.937 60.8974 113.973 60.1444 112.588L59.9035 112.106H88.0932V116.322H60.6866L60.7167 116.352Z" fill="#F50032"/>
<path d="M87.8225 112.437V116.021H60.9278C60.9278 116.021 60.8375 115.84 60.8074 115.78C61.5302 114.906 61.1085 113.611 60.4761 112.437H87.8225ZM88.4549 111.804H59.3918L59.9038 112.738C60.5664 113.973 60.717 114.846 60.2954 115.358L60.0243 115.689L60.2351 116.081L60.2954 116.201L60.3857 116.322L60.5664 116.653H88.485V111.804H88.4549Z" fill="#000003"/>
<path d="M85.0214 72.8629L85.2925 126.351L114.837 126.2V90.3007L85.5334 72.2906L85.0214 72.8629Z" fill="#FFCE57"/>
<path d="M84.8101 126.833L84.5391 72.6822L85.4125 71.6582L115.319 90.0297V126.682L84.8101 126.833ZM85.5028 73.0436L85.7739 125.839L114.355 125.688V90.5417L85.6233 72.893L85.5028 73.0135V73.0436Z" fill="#000003"/>
<path d="M18.8842 86.0542L38.3701 127.405L16.505 127.495L12.8307 92.439L18.8842 86.0542Z" fill="#000003"/>
<path d="M8.46332 90.6622L18.9742 86.2952C17.5286 88.2528 15.6011 91.897 15.9324 97.2277L15.9926 126.983H8.46332V90.632V90.6622Z" fill="#FFCE57"/>
<path d="M17.6791 87.3794C16.4142 89.5479 15.1493 92.8608 15.4504 97.2579L15.5107 126.532H8.94513V90.9935L17.6791 87.3794ZM20.721 85.0604L7.98138 90.3611V127.556H16.5045L16.4443 97.2278C15.9323 89.2467 20.7511 85.0604 20.7511 85.0604H20.721Z" fill="#000003"/>
<path d="M33.1294 126.923C32.6776 126.923 32.2861 126.321 32.2861 125.598L32.2259 116.804C32.2259 116.412 32.3464 116.051 32.5271 115.81C32.6174 115.69 32.7981 115.479 33.0692 115.479L52.0129 115.388C54.5427 120.689 57.4942 124.514 60.8071 126.773L33.0993 126.923H33.1294Z" fill="#FFCE57"/>
<path d="M51.7116 115.9C53.9101 120.478 56.4701 123.972 59.3312 126.291L33.1594 126.411C33.1594 126.411 32.8281 126.11 32.8281 125.598L32.7679 116.804C32.7679 116.292 33.0088 115.991 33.0992 115.991L51.7116 115.9ZM52.344 114.876L33.069 114.967C32.3161 114.967 31.7138 115.81 31.7439 116.804L31.8041 125.598C31.8041 126.622 32.4065 127.435 33.1594 127.435L62.6742 127.285C58.0964 124.966 54.7534 120.027 52.344 114.876Z" fill="#000003"/>
<path d="M36.5023 118.792L48.6997 118.732C49.6334 120.478 50.6573 122.165 51.9524 123.52L36.5324 123.58V118.792H36.5023Z" fill="#FFCE57"/>
<path d="M47.9775 119.936C48.4293 120.749 48.9111 121.532 49.4231 122.285L37.7376 122.345V119.996L47.9775 119.936ZM49.4231 117.497L36.1716 117.557C35.6897 117.557 35.2982 118.039 35.2982 118.611V123.731C35.2982 124.303 35.7198 124.785 36.2017 124.785L55.6574 124.695C52.6457 123.339 50.9892 120.478 49.4231 117.497Z" fill="#000003"/>
<path d="M97.9418 79.9404L89.5994 74.7904V126.05H97.9418V79.9404Z" fill="#FFCE57"/>
<path d="M98.4229 126.562H89.0866V73.9171L98.4229 79.6394V126.532V126.562ZM90.0805 125.568H97.4592V80.2116L90.0805 75.694V125.598V125.568Z" fill="#000003"/>
<path d="M112.187 88.7045L103.845 83.5544V126.05H112.187V88.7045Z" fill="#FFCE57"/>
<path d="M112.699 126.562H103.362V82.7112L112.699 88.4334V126.562ZM104.326 125.568H111.705V88.9756L104.326 84.458V125.598V125.568Z" fill="#000003"/>
<path d="M107.867 130.514L101.994 130.541L102.05 142.438L107.923 142.41L107.867 130.514Z" fill="#FFCE57"/>
<path d="M107.639 130.778L107.699 142.193H102.308L102.248 130.809H107.639M108.121 130.297H101.766L101.826 142.705H108.181L108.121 130.297Z" fill="#000003"/>
<path d="M100.622 127.977V128.218L108.121 128.188V127.947L100.622 127.977Z" fill="black"/>
<path d="M111.231 127.932L97.95 127.999L97.9618 130.348L111.243 130.281L111.231 127.932Z" fill="#000003"/>
<path d="M101.495 131.11C101.495 131.11 101.405 130.628 102.399 130.357C102.399 130.357 109.657 129.273 110.35 131.08C110.35 131.08 110.922 132.224 105.923 132.194C105.923 132.194 101.827 132.194 101.495 131.14V131.11Z" fill="white"/>
<path d="M106.254 132.435H105.953C104.929 132.435 101.616 132.344 101.255 131.17C101.255 131.079 101.134 130.387 102.339 130.055C102.399 130.055 104.568 129.724 106.646 129.724C109.025 129.724 110.32 130.116 110.621 130.929C110.681 131.019 110.711 131.26 110.561 131.471C110.169 132.103 108.754 132.405 106.254 132.405V132.435ZM101.767 131.049C102.008 131.591 104.056 131.893 105.923 131.893H106.254C109.326 131.893 109.958 131.411 110.079 131.26C110.109 131.2 110.109 131.17 110.109 131.17C109.898 130.628 108.633 130.296 106.646 130.296C104.658 130.296 102.489 130.598 102.459 130.598C101.947 130.748 101.797 130.959 101.797 131.049H101.767Z" fill="#000003"/>
<path d="M101.646 133.248C101.646 133.248 101.556 132.766 102.55 132.495C102.55 132.495 109.808 131.441 110.501 133.218C110.501 133.218 111.073 134.362 106.073 134.332C106.073 134.332 101.977 134.332 101.646 133.278V133.248Z" fill="white"/>
<path d="M106.404 134.573H106.103C105.079 134.573 101.766 134.483 101.405 133.338C101.405 133.248 101.284 132.555 102.489 132.224C102.549 132.224 104.717 131.893 106.796 131.893C109.145 131.893 110.47 132.284 110.771 133.097C110.831 133.188 110.861 133.429 110.711 133.639C110.319 134.272 108.904 134.573 106.404 134.573ZM101.917 133.188C102.158 133.73 104.205 134.031 106.073 134.031H106.404C109.476 134.031 110.108 133.549 110.229 133.398C110.289 133.338 110.289 133.308 110.289 133.308C110.169 132.977 109.536 132.465 106.826 132.465C104.778 132.465 102.67 132.766 102.639 132.766C102.127 132.917 101.977 133.127 101.977 133.188H101.917Z" fill="#000003"/>
<path d="M101.796 135.386C101.796 135.386 101.676 134.904 102.7 134.633C102.7 134.633 109.958 133.549 110.65 135.356C110.65 135.356 111.223 136.501 106.223 136.47C106.223 136.47 102.127 136.47 101.796 135.416V135.386Z" fill="white"/>
<path d="M106.525 136.711H106.223C105.199 136.711 101.887 136.621 101.525 135.477C101.525 135.386 101.405 134.693 102.609 134.362C102.67 134.362 104.838 134.031 106.916 134.031C109.295 134.031 110.59 134.422 110.892 135.236C110.952 135.326 110.982 135.567 110.831 135.778C110.44 136.41 109.024 136.711 106.494 136.711H106.525ZM102.067 135.326C102.308 135.838 104.356 136.169 106.223 136.169H106.525C109.597 136.169 110.229 135.687 110.38 135.537C110.41 135.477 110.41 135.446 110.41 135.446C110.289 135.115 109.657 134.573 106.946 134.573C104.928 134.573 102.79 134.874 102.76 134.904C102.248 135.055 102.097 135.236 102.097 135.326H102.067Z" fill="#000003"/>
<path d="M102.549 131.441C102.549 131.441 102.369 130.959 102.549 130.748C102.549 130.748 103.302 130.327 103.634 130.748C103.634 130.748 104.025 131.2 103.634 131.652C103.634 131.652 103.393 131.832 102.549 131.441Z" fill="white"/>
<path d="M103.423 131.802C103.182 131.802 102.881 131.712 102.489 131.561H102.429V131.501C102.429 131.441 102.218 130.929 102.429 130.658H102.459C102.459 130.658 102.82 130.417 103.182 130.417C103.393 130.417 103.573 130.507 103.694 130.658C103.844 130.839 104.055 131.32 103.694 131.712C103.634 131.742 103.573 131.802 103.393 131.802H103.423ZM102.67 131.351C103.272 131.622 103.513 131.561 103.573 131.561C103.875 131.23 103.573 130.869 103.573 130.839C103.483 130.748 103.393 130.688 103.242 130.688C103.001 130.688 102.73 130.808 102.67 130.869C102.58 130.989 102.67 131.23 102.67 131.381V131.351Z" fill="#000003"/>
<path d="M102.58 133.579C102.58 133.579 102.399 133.097 102.58 132.886C102.58 132.886 103.332 132.465 103.664 132.886C103.664 132.886 104.055 133.338 103.664 133.79C103.664 133.79 103.423 133.971 102.58 133.579Z" fill="white"/>
<path d="M103.453 133.941C103.212 133.941 102.911 133.85 102.519 133.67H102.459V133.609C102.459 133.549 102.248 133.037 102.459 132.796H102.489C102.489 132.796 102.851 132.555 103.212 132.555C103.423 132.555 103.604 132.646 103.724 132.796C103.875 132.977 104.085 133.459 103.724 133.88C103.664 133.91 103.604 133.971 103.423 133.971L103.453 133.941ZM102.67 133.489C103.272 133.76 103.513 133.7 103.574 133.7C103.875 133.338 103.574 133.007 103.574 132.977C103.483 132.886 103.393 132.826 103.242 132.826C103.001 132.826 102.73 132.947 102.67 132.977C102.58 133.097 102.67 133.338 102.67 133.489Z" fill="#000003"/>
<path d="M102.73 135.537C102.73 135.537 102.55 135.055 102.73 134.844C102.73 134.844 103.483 134.422 103.815 134.844C103.815 134.844 104.206 135.296 103.815 135.748C103.815 135.748 103.574 135.928 102.73 135.537Z" fill="white"/>
<path d="M103.604 135.898C103.363 135.898 103.062 135.808 102.67 135.657H102.61V135.597C102.61 135.537 102.399 135.025 102.61 134.784C102.61 134.784 102.971 134.543 103.333 134.543C103.543 134.543 103.724 134.633 103.845 134.784C103.995 134.965 104.206 135.446 103.845 135.838C103.784 135.868 103.724 135.928 103.543 135.928L103.604 135.898ZM102.851 135.446C103.453 135.718 103.694 135.657 103.754 135.627C104.025 135.296 103.754 134.935 103.754 134.904C103.664 134.814 103.574 134.754 103.423 134.754C103.182 134.754 102.911 134.874 102.851 134.934C102.76 135.055 102.851 135.296 102.851 135.446Z" fill="#000003"/>
<path d="M109.235 138.308C107.489 138.94 104.055 138.127 104.055 138.127C102.64 137.193 103.965 136.47 103.965 136.47C103.965 136.47 110.259 136.079 110.892 137.404C110.892 137.404 111.615 139.121 107.88 139.753L107.7 138.699L109.205 138.308H109.235Z" fill="white"/>
<path d="M107.67 140.084L107.459 138.819C105.802 138.819 104.086 138.398 103.995 138.398H103.905C103.363 138.006 103.122 137.645 103.122 137.223C103.122 136.621 103.754 136.26 103.815 136.229H103.875L103.935 136.199C103.935 136.199 104.809 136.139 105.953 136.139C110.591 136.139 110.983 137.012 111.133 137.283C111.133 137.314 111.374 137.826 111.043 138.458C110.621 139.211 109.567 139.753 107.911 140.024L107.64 140.084H107.67ZM108.031 138.88L108.121 139.422C109.748 139.091 110.35 138.579 110.561 138.187C110.772 137.826 110.651 137.494 110.651 137.494C110.561 137.314 109.959 136.651 105.983 136.651C105.049 136.651 104.297 136.681 104.086 136.711C103.965 136.802 103.724 137.012 103.694 137.223C103.694 137.464 103.935 137.675 104.176 137.856C104.477 137.916 106.043 138.247 107.489 138.247C107.911 138.247 108.272 138.247 108.603 138.157L109.176 138.006L109.326 138.548C109.145 138.609 108.935 138.669 108.694 138.729L108.061 138.88H108.031Z" fill="#000003"/>
<path d="M104.146 137.555C104.146 137.555 103.965 137.073 104.146 136.862C104.146 136.862 104.899 136.44 105.23 136.862C105.23 136.862 105.621 137.314 105.23 137.765C105.23 137.765 104.989 137.946 104.146 137.555Z" fill="white"/>
<path d="M105.019 137.946C104.778 137.946 104.477 137.856 104.085 137.675H104.055V137.615C104.055 137.555 103.844 137.043 104.055 136.802C104.055 136.802 104.417 136.561 104.778 136.561C104.989 136.561 105.17 136.651 105.29 136.802C105.441 136.982 105.651 137.434 105.29 137.856C105.26 137.886 105.17 137.946 104.989 137.946H105.019ZM104.266 137.464C104.868 137.735 105.109 137.675 105.17 137.645C105.441 137.314 105.17 136.952 105.17 136.922C105.109 136.832 104.989 136.771 104.838 136.771C104.597 136.771 104.326 136.892 104.266 136.922C104.176 137.043 104.266 137.283 104.266 137.434V137.464Z" fill="#000003"/>
<path d="M109.657 141.62C109.657 142.584 107.609 143.367 105.079 143.367C102.549 143.367 100.501 142.614 100.501 141.65C100.501 140.687 102.549 139.904 105.079 139.904C107.609 139.904 109.657 140.657 109.657 141.62Z" fill="#FFCE57"/>
<path d="M105.049 143.578C102.369 143.578 100.321 142.765 100.321 141.681C100.321 140.597 102.369 139.753 105.079 139.723H105.14C107.82 139.723 109.838 140.536 109.838 141.621C109.838 141.892 109.717 142.133 109.507 142.373C108.784 143.096 107.067 143.578 105.079 143.578H105.019H105.049ZM105.14 140.115H105.079C102.519 140.115 100.712 140.958 100.712 141.681C100.712 142.404 102.459 143.187 105.049 143.187H105.11C106.947 143.187 108.633 142.735 109.266 142.102C109.416 141.952 109.507 141.801 109.507 141.621C109.507 140.898 107.76 140.115 105.2 140.115H105.14Z" fill="#000003"/>
<path d="M109.747 142.403C109.747 143.367 107.669 144.15 105.079 144.15C102.489 144.15 100.411 143.397 100.381 142.434C100.381 141.47 102.459 140.687 105.049 140.687C107.639 140.687 109.717 141.44 109.747 142.403Z" fill="#FFCE57"/>
<path d="M105.02 144.361C102.279 144.361 100.201 143.548 100.201 142.464C100.201 141.259 102.671 140.506 105.08 140.506H105.14C107.881 140.506 109.959 141.319 109.959 142.403C109.959 143.518 107.851 144.331 105.08 144.361H105.02ZM105.14 140.898H105.08C102.43 140.898 100.592 141.711 100.592 142.434C100.592 143.156 102.369 143.939 105.02 143.939H105.08C107.73 143.939 109.537 143.126 109.537 142.403C109.537 141.681 107.7 140.898 105.11 140.898H105.14Z" fill="#000003"/>
<path d="M101.827 139.422C101.827 139.422 99.4776 139.181 99.5077 137.254C99.5077 137.254 96.4357 132.977 99.6583 131.11C102.881 129.272 104.387 131.652 105.381 134.272C105.381 134.272 104.206 135.958 101.646 132.615" fill="white"/>
<path d="M101.797 139.663C100.923 139.572 99.2669 138.97 99.2669 137.344C98.9959 136.922 97.6105 134.784 98.0321 132.917C98.2128 132.073 98.7248 131.411 99.538 130.929C100.713 130.266 101.767 130.086 102.67 130.417C104.176 130.959 105.019 132.736 105.592 134.212L105.652 134.332L105.592 134.422C105.592 134.422 105.23 134.934 104.507 134.965C103.604 134.965 102.58 134.242 101.435 132.766L101.827 132.465C103.122 134.151 103.995 134.483 104.477 134.483C104.778 134.483 104.989 134.332 105.08 134.242C104.537 132.886 103.754 131.32 102.489 130.869C101.706 130.598 100.803 130.748 99.7488 131.35C99.0561 131.742 98.6044 132.314 98.4538 133.007C98.0622 134.844 99.6585 137.103 99.6585 137.133L99.7187 137.193V137.284C99.6585 138.94 101.706 139.181 101.797 139.211L101.737 139.693L101.797 139.663Z" fill="#000003"/>
<path d="M104.507 132.405L103.754 133.007C103.754 133.007 103.965 134.151 104.959 133.609L104.507 132.405Z" fill="white"/>
<path d="M104.477 133.911C103.814 133.911 103.634 133.097 103.634 133.037V132.977L104.567 132.194L105.14 133.67L105.049 133.73C104.869 133.85 104.658 133.911 104.507 133.911H104.477ZM103.905 133.067C103.965 133.248 104.116 133.639 104.477 133.639C104.477 133.639 104.688 133.639 104.808 133.549L104.447 132.615L103.905 133.067Z" fill="#000003"/>
<path d="M78.2147 129.875C77.7931 130.869 77.5823 131.983 77.5823 133.127C77.5823 137.826 81.4373 141.62 86.1356 141.62C90.8338 141.62 94.6286 137.765 94.5985 133.067C94.5985 131.381 94.0865 129.815 93.2432 128.52L85.985 115.268L78.1846 129.905L78.2147 129.875Z" fill="#F50032"/>
<path d="M86.0146 114.334L93.6643 128.278C94.5678 129.694 95.0497 131.35 95.0798 133.067C95.0798 138.006 91.1044 142.042 86.1651 142.072C81.2259 142.072 77.1902 138.097 77.1601 133.157C77.1601 131.983 77.3709 130.808 77.8227 129.724L86.0146 114.334ZM86.135 141.199C90.5924 141.199 94.2064 137.524 94.1763 133.067C94.1763 131.531 93.7246 130.025 92.9114 128.73L86.0447 116.141L78.6358 130.055C78.2443 131.019 78.0335 132.073 78.0335 133.127C78.0335 137.585 81.7078 141.199 86.1651 141.169L86.135 141.199Z" fill="#000003"/>
<path d="M78.2147 129.875C77.7931 130.869 77.5823 131.983 77.5823 133.127C77.5823 137.826 81.4373 141.62 86.1356 141.62C90.8338 141.62 94.6286 137.765 94.5985 133.067C94.5985 131.381 94.0865 129.815 93.2432 128.519C93.2432 128.519 93.0926 136.711 86.1054 136.922C86.1054 136.922 78.3954 136.952 79.2086 127.947L78.1846 129.875H78.2147Z" fill="white"/>
<path d="M79.8707 125.839L79.6599 127.977C79.3889 130.748 79.9611 132.917 81.3164 134.392C83.2137 136.47 86.0749 136.47 86.105 136.47C92.6103 136.26 92.8211 128.79 92.8211 128.489V127.074L93.6343 128.278C94.5378 129.724 95.0197 131.35 95.0498 133.067C95.0498 138.006 91.0743 142.042 86.1351 142.072C81.1959 142.072 77.1602 138.097 77.1301 133.157C77.1301 131.983 77.3409 130.808 77.7926 129.724L79.8406 125.839H79.8707ZM86.1351 137.344C85.9845 137.344 82.8222 137.344 80.6839 134.965C79.4792 133.669 78.8467 131.923 78.7564 129.754L78.6058 130.025C78.2143 130.989 78.0035 132.043 78.0035 133.097C78.0035 137.555 81.6778 141.169 86.1351 141.139C90.5924 141.139 94.2065 137.464 94.1764 133.007C94.1764 131.923 93.9656 130.869 93.5439 129.875C93.1223 132.344 91.5863 137.133 86.1351 137.284V137.344Z" fill="#000003"/>
<path d="M81.1961 124.303C80.9551 124.936 80.8046 125.598 80.8046 126.321C80.8046 129.242 83.1838 131.592 86.1052 131.561C88.9964 131.561 91.3757 129.182 91.3456 126.261C91.3456 125.237 91.0444 124.243 90.5023 123.43L86.0148 115.238L81.1961 124.303Z" fill="#FFCE57"/>
<path d="M86.0153 114.545L90.8039 123.279C91.3761 124.183 91.6773 125.207 91.6773 126.261C91.6773 129.363 89.2077 131.863 86.1056 131.893C83.0035 131.893 80.5038 129.423 80.4737 126.321C80.4737 125.568 80.5942 124.845 80.8953 124.183L86.0153 114.545ZM86.1056 131.26C88.8162 131.26 91.0448 129.001 91.0147 126.291C91.0147 125.357 90.7437 124.424 90.2317 123.641L86.0153 115.931L81.4676 124.454C81.2266 125.056 81.1062 125.689 81.1062 126.321C81.1062 129.062 83.3348 131.26 86.0755 131.26H86.1056Z" fill="#000003"/>
<path d="M83.0036 124.634C82.853 125.026 82.7627 125.448 82.7627 125.899C82.7627 127.736 84.2686 129.212 86.1057 129.182C87.9429 129.182 89.4186 127.676 89.3885 125.869C89.3885 125.207 89.2078 124.604 88.8765 124.092L86.0455 118.942L83.0036 124.634Z" fill="#F50032"/>
<path d="M86.0454 118.491L89.0571 123.972C89.4185 124.514 89.5992 125.177 89.5992 125.839C89.5992 127.767 88.0331 129.363 86.1056 129.363C84.1781 129.363 82.5819 127.797 82.5819 125.869C82.5819 125.418 82.6723 124.936 82.853 124.514L86.0755 118.46L86.0454 118.491ZM86.1056 128.971C87.8223 128.971 89.2077 127.556 89.2077 125.839C89.2077 125.237 89.027 124.665 88.7258 124.183L86.0755 119.364L83.2144 124.725C83.0638 125.086 83.0035 125.478 83.0035 125.899C83.0035 127.616 84.4191 129.001 86.1357 129.001L86.1056 128.971Z" fill="#000003"/>
<path d="M86.0149 114.485L92.2793 125.96C93.0322 127.134 93.4237 128.489 93.4237 129.875C93.4237 133.941 90.1711 137.253 86.1052 137.253C82.0394 137.253 78.7265 134.001 78.6964 129.935C78.6964 128.971 78.8771 128.007 79.2385 127.134L85.9547 114.485H86.0149ZM86.1052 136.561C89.7795 136.561 92.731 133.549 92.731 129.875C92.731 128.61 92.3696 127.375 91.6769 126.321L86.0149 115.991L79.9312 127.435C79.5999 128.248 79.4493 129.092 79.4493 129.965C79.4493 133.639 82.4611 136.591 86.1052 136.591V136.561Z" fill="#000003"/>
<path d="M92.9722 131.471L92.4602 132.525L93.2734 137.675C93.4842 137.344 93.6649 137.012 93.8456 136.651L92.9722 131.441V131.471Z" fill="#000003"/>
<path d="M91.3762 139.783C91.6171 139.603 91.8279 139.422 92.0086 139.211L91.4665 134.603L90.804 134.904L91.3762 139.783Z" fill="#000003"/>
<path d="M89.5692 135.808L88.8464 136.35L89.2078 141.018C89.4487 140.928 89.6897 140.807 89.9005 140.717L89.5391 135.808H89.5692Z" fill="#000003"/>
<path d="M87.5207 136.621L86.7979 136.742L86.9183 141.59C87.1593 141.59 87.4002 141.53 87.6411 141.5L87.5207 136.651V136.621Z" fill="#000003"/>
<path d="M84.6294 141.5C84.8703 141.53 85.1112 141.56 85.3221 141.59L85.4124 136.892L84.6896 136.651L84.5992 141.5H84.6294Z" fill="#000003"/>
<path d="M82.3708 140.747C82.5816 140.867 82.8225 140.958 83.0635 141.048L83.3647 136.199L82.672 135.838L82.3708 140.747Z" fill="#000003"/>
<path d="M81.4372 134.904L80.7747 134.453L80.2325 139.271C80.4434 139.482 80.6542 139.663 80.8951 139.843L81.4372 134.904Z" fill="#000003"/>
<path d="M79.239 131.381L78.3958 136.741C78.5463 137.103 78.7572 137.434 78.968 137.735L79.7209 132.525L79.239 131.35V131.381Z" fill="#000003"/>
<path d="M86.6472 120.057L86.1051 119.063L86.1653 129.182C86.346 129.182 86.5267 129.182 86.7074 129.122L86.6472 120.057Z" fill="#000003"/>
<path d="M87.4909 121.592L87.009 120.689V129.031C87.2199 128.971 87.3704 128.911 87.521 128.851V121.623L87.4909 121.592Z" fill="#000003"/>
<path d="M88.3643 123.159L87.9125 122.345V128.61C88.0932 128.489 88.2739 128.369 88.3944 128.248V123.159H88.3643Z" fill="#000003"/>
<path d="M89.2379 124.875C89.1476 124.604 89.0271 124.333 88.8765 124.092L88.8163 123.972V127.736C89.0271 127.465 89.1476 127.164 89.268 126.833V124.845L89.2379 124.875Z" fill="#000003"/>
<path d="M85.7735 119.424L85.2615 120.388V129.092C85.4724 129.122 85.6531 129.152 85.8338 129.182L85.7735 119.454V119.424Z" fill="#000003"/>
<path d="M84.9011 121.081L84.4192 122.014V128.761C84.5999 128.851 84.7806 128.941 84.9312 129.002V121.081H84.9011Z" fill="#000003"/>
<path d="M83.9973 122.737L83.5757 123.55V128.068C83.7263 128.218 83.8769 128.339 84.0274 128.489V122.737H83.9973Z" fill="#000003"/>
<path d="M83.1542 124.363L83.0036 124.634C82.853 125.026 82.7627 125.448 82.7627 125.899C82.7627 126.471 82.9133 127.014 83.1542 127.465V124.363Z" fill="#000003"/>
<path d="M48.1582 39.975L48.1883 43.9203L49.6339 41.9326L48.1582 39.975Z" fill="#000003"/>
<path d="M53.9403 43.8902V39.9449L52.4947 41.9326L53.9403 43.8902Z" fill="#000003"/>
<path d="M51.0494 39.975L49.6339 41.9326L51.0795 43.8902L52.495 41.9326L51.0494 39.975Z" fill="#000003"/>
<path d="M53.9407 39.9449V43.8902L55.3863 41.9025L53.9407 39.9449Z" fill="#000003"/>
<path d="M59.723 43.8601L59.6929 39.9148L58.2774 41.9025L59.723 43.8601Z" fill="#000003"/>
<path d="M56.8314 39.9449L55.3857 41.9025L56.8314 43.8601L58.277 41.9025L56.8314 39.9449Z" fill="#000003"/>
<path d="M59.6926 39.9148L59.7227 43.8601L61.1382 41.8724L59.6926 39.9148Z" fill="#000003"/>
<path d="M65.4753 43.8299V39.8846L64.0297 41.8723L65.4753 43.8299Z" fill="#000003"/>
<path d="M62.5836 39.9148L61.138 41.8724L62.6137 43.83L64.0293 41.8724L62.5836 39.9148Z" fill="#000003"/>
<path d="M65.4755 39.8846V43.8299L66.9211 41.8422L65.4755 39.8846Z" fill="#000003"/>
<path d="M71.2578 43.7998L71.2277 39.8544L69.8122 41.8422L71.2578 43.7998Z" fill="#000003"/>
<path d="M68.3365 39.8846L66.921 41.8422L68.3666 43.7998L69.8122 41.8422L68.3365 39.8846Z" fill="#000003"/>
<path d="M71.2277 39.8544L71.2578 43.7998L72.6733 41.812L71.2277 39.8544Z" fill="#000003"/>
<path d="M77.0094 43.7698L76.9793 39.8244L75.5638 41.8121L77.0094 43.7698Z" fill="#000003"/>
<path d="M74.1187 39.8544L72.673 41.812L74.1187 43.7697L75.5643 41.812L74.1187 39.8544Z" fill="#000003"/>
<path d="M76.9795 39.8244L77.0096 43.7698L78.4251 41.782L76.9795 39.8244Z" fill="#000003"/>
<path d="M82.7626 43.7397V39.7943L81.317 41.782L82.7626 43.7397Z" fill="#000003"/>
<path d="M79.8709 39.8244L78.4252 41.782L79.901 43.7396L81.3165 41.782L79.8709 39.8244Z" fill="#000003"/>
<path d="M69.8116 49.2209C69.8116 49.2209 69.7814 49.2209 69.7212 49.1607C69.661 49.1306 69.5706 49.0703 69.42 49.0101C69.1791 48.8896 68.7876 48.739 68.3659 48.5885C68.125 48.5282 67.8841 48.4379 67.613 48.3776C67.3721 48.2873 67.0709 48.2572 66.7998 48.1969C66.4987 48.1367 66.1975 48.1066 65.8963 48.0765C65.5952 48.0765 65.2639 48.0463 64.9627 48.0765C64.6615 48.0765 64.3604 48.0765 64.0592 48.1668C63.9086 48.1668 63.758 48.227 63.6375 48.227C63.487 48.2572 63.3665 48.3174 63.2159 48.3475C63.0954 48.3776 62.9448 48.4077 62.8244 48.468C62.7039 48.5282 62.5834 48.5885 62.463 48.6186C62.3425 48.6788 62.222 48.7089 62.1317 48.7692C62.0112 48.8294 61.9209 48.8896 61.8305 48.9499C61.6498 49.0703 61.4691 49.1607 61.3185 49.251C61.1679 49.3715 61.0475 49.4618 60.9571 49.5522C60.7463 49.7028 60.6559 49.7931 60.6559 49.7931L60.5656 49.8534C60.2343 50.1244 59.7524 50.0642 59.4814 49.7329C59.2103 49.4016 59.2705 48.9197 59.6018 48.6487C59.6018 48.6487 59.632 48.6487 59.6621 48.6186C59.6621 48.6186 59.8127 48.5282 60.0536 48.3475C60.2042 48.2572 60.3548 48.1668 60.5355 48.0463C60.7162 47.9259 60.9571 47.8355 61.1981 47.7151C61.3185 47.6548 61.439 47.5946 61.5896 47.5344C61.7402 47.5042 61.8606 47.444 62.0112 47.3838C62.1618 47.3235 62.3124 47.2934 62.463 47.2332C62.6136 47.2031 62.7943 47.1729 62.9448 47.1428C63.0954 47.1127 63.2761 47.0826 63.4568 47.0525C63.6375 47.0525 63.7881 47.0525 63.9688 47.0224C64.3302 46.9922 64.6615 47.0224 65.0229 47.0224C65.3542 47.0224 65.7156 47.1127 66.0469 47.1428C66.3782 47.2332 66.7095 47.2633 67.0107 47.3838C67.3118 47.4741 67.613 47.5645 67.8841 47.6548C68.1551 47.7452 68.3961 47.8656 68.637 47.956C69.0888 48.1668 69.4803 48.3776 69.7212 48.5282C69.8417 48.5885 69.932 48.6487 70.0224 48.7089C70.0826 48.739 70.1127 48.7692 70.1127 48.7692C70.2332 48.8595 70.2633 49.0101 70.2031 49.1306C70.1127 49.251 69.9622 49.2811 69.8417 49.2209H69.8116Z" fill="#000003"/>
<path d="M48.0977 48.7691C48.0977 48.7691 48.0977 48.7691 48.1579 48.7089C48.2181 48.6788 48.2784 48.6186 48.3386 48.5282C48.4892 48.3776 48.7602 48.1969 49.0614 47.9861C49.212 47.8957 49.3927 47.7753 49.6035 47.6849C49.7842 47.5645 50.0252 47.5042 50.236 47.3838C50.4468 47.2934 50.7179 47.2332 50.9588 47.1729C51.1997 47.1428 51.4708 47.0826 51.7418 47.0826C51.8623 47.0826 52.0129 47.0826 52.1334 47.0826C52.2538 47.0826 52.4044 47.0826 52.5249 47.1127C52.7959 47.1127 53.0369 47.2332 53.2778 47.2934C53.3983 47.3235 53.5187 47.3838 53.6392 47.4139C53.7597 47.4741 53.85 47.5042 53.9705 47.5645C54.1813 47.6548 54.362 47.8054 54.5427 47.8957C54.6933 48.0162 54.874 48.1066 54.9945 48.227C55.115 48.3475 55.2354 48.4379 55.3258 48.4981C55.5065 48.6487 55.5968 48.739 55.5968 48.739C55.8679 48.98 55.898 49.4016 55.6571 49.6727C55.4161 49.9437 54.9945 49.9738 54.7234 49.7329C54.7234 49.7329 54.7234 49.7329 54.6632 49.6727L54.603 49.6124C54.603 49.6124 54.5427 49.5221 54.3921 49.4016C54.3319 49.3414 54.2416 49.251 54.1512 49.1305C54.0609 49.0101 53.9404 48.9498 53.8199 48.8294C53.6995 48.739 53.579 48.5884 53.3983 48.5282C53.3079 48.468 53.2477 48.4379 53.1573 48.3776C53.067 48.3174 53.0068 48.2873 52.8863 48.2572C52.7056 48.1969 52.5249 48.0764 52.3141 48.0463C52.2237 48.0463 52.1032 47.9861 52.0129 47.9861C51.8924 47.9861 51.8021 47.9861 51.6816 47.9861C51.4708 47.956 51.26 47.9861 51.019 47.9861C50.8082 48.0162 50.5974 48.0463 50.3866 48.1066C50.1757 48.1668 49.995 48.227 49.7842 48.2873C49.6035 48.3475 49.4228 48.4379 49.2722 48.4981C48.9711 48.6487 48.7 48.7993 48.5494 48.9197C48.4591 48.98 48.3988 49.0101 48.3687 49.0703C48.3085 49.1004 48.3085 49.1305 48.3085 49.1305C48.3085 49.1305 48.0675 49.1908 47.9772 49.1004C47.8868 49.0101 47.917 48.8595 47.9772 48.7993L48.0977 48.7691Z" fill="#000003"/>
<path d="M70.6555 52.293C70.6555 52.293 70.5651 52.293 70.5049 52.2628C64.5718 47.8959 60.3554 52.2026 60.3253 52.2628C60.2349 52.3532 60.0843 52.3532 59.9639 52.2628C59.8735 52.1725 59.8434 52.0219 59.9639 51.9316C60.0241 51.8713 64.5417 47.2935 70.806 51.9316C70.9265 52.0219 70.9265 52.1725 70.8663 52.2628C70.8362 52.3231 70.7458 52.3532 70.6856 52.3532L70.6555 52.293Z" fill="#000003"/>
<path d="M71.5588 53.9494C71.5588 53.9494 71.2878 53.9494 71.1071 53.9494H70.8661L70.6553 53.8891C70.565 53.8891 70.5047 53.8891 70.4445 53.8289C70.3541 53.8289 70.2939 53.7988 70.2337 53.7687C70.0831 53.7084 69.9626 53.6482 69.812 53.588C69.6615 53.5277 69.541 53.4675 69.4205 53.3772C69.3 53.2868 69.1796 53.2266 69.0591 53.1362C68.9386 53.0459 68.8182 52.9555 68.7278 52.8652C68.6074 52.7748 68.517 52.6543 68.3965 52.5339C68.3965 52.5339 68.1255 52.3231 67.9749 52.2026C67.8243 52.0821 67.6436 52.0219 67.493 51.9315C67.3123 51.8713 67.1617 51.7809 66.981 51.7207C66.8003 51.6605 66.6196 51.6002 66.4389 51.5701L66.1679 51.5099H65.8968C65.8968 51.5099 65.7161 51.4497 65.6257 51.4497H65.3547C65.174 51.4497 64.9933 51.4497 64.8126 51.4497C64.6319 51.4497 64.4512 51.4497 64.2705 51.5099L63.7284 51.6304C63.5477 51.6906 63.367 51.7508 63.1863 51.8111L62.9152 51.9014C62.9152 51.9014 62.7345 51.9918 62.6743 52.0219L62.1623 52.2628C61.9816 52.3532 61.831 52.4435 61.6503 52.5339L61.1383 52.835C60.807 53.0459 60.5058 53.2868 60.1745 53.4976C60.1745 53.4976 59.9035 53.5579 59.8432 53.4374C59.783 53.347 59.783 53.1965 59.8734 53.1362C60.1444 52.835 60.4757 52.564 60.7769 52.2929C60.9275 52.1725 61.1082 52.052 61.2889 51.9315C61.4696 51.8111 61.6202 51.6906 61.8009 51.5701L62.343 51.269C62.343 51.269 62.5237 51.1786 62.614 51.1184L62.9152 50.9979C63.126 50.9377 63.3067 50.8473 63.5175 50.7871L64.15 50.6365C64.3608 50.5763 64.5717 50.5763 64.7825 50.5461C64.9933 50.5461 65.2041 50.5461 65.4149 50.5461H65.7462C65.7462 50.5461 65.957 50.6064 66.0775 50.6365L66.3787 50.6967L66.6799 50.8172C66.8907 50.8774 67.0714 50.9678 67.2822 51.0581C67.493 51.1485 67.6436 51.269 67.8544 51.3894C68.0351 51.5099 68.2158 51.6304 68.3664 51.7508C68.517 51.8713 68.6977 52.0219 68.8483 52.2026C68.9085 52.2929 69.029 52.3833 69.1193 52.5038C69.2097 52.5941 69.3 52.6845 69.4205 52.7748C69.6313 52.9254 69.8422 53.076 70.0831 53.1965C70.2036 53.2567 70.324 53.2868 70.4445 53.347C70.5047 53.347 70.565 53.3772 70.6252 53.4073C70.6854 53.4073 70.7457 53.4374 70.8059 53.4374H70.9866H71.1673C71.2878 53.4374 71.4384 53.4374 71.589 53.4073C71.589 53.4073 71.8299 53.4976 71.86 53.6181C71.86 53.7386 71.7697 53.859 71.6492 53.8891L71.5588 53.9494Z" fill="#000003"/>
<path d="M61.5598 53.9795C61.1382 52.9254 61.4394 52.0219 61.4394 51.9918L61.8911 52.1423C61.8911 52.1423 61.6502 52.9254 62.0116 53.7988L61.5598 53.9795Z" fill="#000003"/>
<path d="M59.09 61.6593C59.09 61.6593 59.09 61.6593 59.0298 61.5991C58.9997 61.5388 58.9394 61.4786 58.9093 61.328C58.9093 61.2678 58.9093 61.1774 58.9093 61.0871C58.9093 61.0268 58.9093 60.9967 58.9695 60.9365C58.9695 60.8762 59.0298 60.8461 59.09 60.816C59.1804 60.7257 59.2406 60.6955 59.3611 60.6654H59.4213V60.6353C59.4213 60.6353 59.3912 60.6353 59.4815 60.6353H59.5418C59.5418 60.6353 59.602 60.6353 59.6622 60.6353C59.6622 60.6353 59.6924 60.6353 59.7225 60.6353H59.8128C59.8128 60.6353 59.9333 60.6353 59.9935 60.6654C60.114 60.6654 60.1742 60.7257 60.2947 60.7859C60.4754 60.8762 60.626 60.9967 60.7766 61.0871C60.9272 61.2075 61.0777 61.2979 61.1982 61.3581C61.2584 61.3581 61.2886 61.3882 61.3187 61.3882C61.3187 61.3882 61.409 61.3882 61.4391 61.3882C61.5295 61.3882 61.5897 61.3882 61.6801 61.3882C62.0114 61.3882 62.3427 61.2678 62.5234 61.0268C62.5535 60.9666 62.6137 60.9064 62.6137 60.8461C62.6137 60.7859 62.6137 60.7257 62.6137 60.6353C62.6137 60.4847 62.6137 60.3341 62.5535 60.2137C62.5535 60.1534 62.4932 60.0932 62.4631 60.033C62.4631 59.9727 62.4029 59.9426 62.3728 59.8824C62.2824 59.792 62.2523 59.7318 62.162 59.6716C62.0415 59.5812 61.9511 59.521 61.9511 59.521C61.9511 59.521 61.921 59.4607 61.9511 59.4306C61.9511 59.4306 62.0114 59.4005 62.0415 59.4306C62.0415 59.4306 62.1318 59.4909 62.3125 59.5511C62.4029 59.5812 62.4631 59.6716 62.5836 59.7619C62.6438 59.792 62.674 59.8523 62.7342 59.9125C62.7643 59.9727 62.8245 60.033 62.8547 60.0932C62.9149 60.2438 62.9751 60.4245 63.0052 60.6052C63.0052 60.6955 63.0052 60.816 63.0052 60.9064C63.0052 60.9967 62.945 61.1172 62.8848 61.2075C62.7643 61.4184 62.5836 61.5689 62.3728 61.6894C62.162 61.7798 61.9511 61.84 61.7102 61.8701C61.5897 61.8701 61.4693 61.8701 61.3789 61.8701C61.3187 61.8701 61.2584 61.8701 61.1982 61.8701C61.138 61.8701 61.0777 61.84 61.0476 61.8099C60.8067 61.7195 60.6561 61.5991 60.4754 61.5087C60.3248 61.4184 60.1742 61.328 60.0538 61.2678C59.9935 61.2678 59.9333 61.2075 59.8731 61.2075C59.8731 61.2075 59.8731 61.2075 59.8128 61.2075C59.8128 61.2075 59.7827 61.2075 59.7526 61.2075C59.7225 61.2075 59.6622 61.2075 59.6321 61.2075C59.6321 61.2075 59.6321 61.2075 59.6923 61.2075L59.6321 61.2377C59.602 61.2377 59.602 61.2377 59.5719 61.2678C59.5719 61.2979 59.5719 61.3581 59.5719 61.3882V61.4485C59.5719 61.5388 59.5116 61.6292 59.4213 61.6593C59.3912 61.6593 59.3309 61.6593 59.3008 61.6593H59.2707H59.09Z" fill="#000003"/>
<path d="M63.969 56.9912C63.969 56.9912 63.9389 56.9912 63.9088 56.9912C62.0114 56.2383 60.114 54.1 60.0237 54.0096C59.9635 53.9494 59.9635 53.8289 60.0237 53.7687C60.114 53.7085 60.2044 53.7085 60.2646 53.7687C60.2646 53.7687 62.162 55.9371 63.9992 56.6599C64.0895 56.6901 64.1196 56.8105 64.0895 56.9009C64.0895 56.9611 63.9992 57.0213 63.9389 57.0213L63.969 56.9912Z" fill="#000003"/>
<path d="M55.506 52.0519C52.3738 49.8534 49.5127 51.6303 48.4285 52.5037C48.4586 52.7747 48.4586 53.0458 48.4285 53.3168C51.38 55.7865 54.1507 54.5818 55.5662 53.618C55.4759 53.0759 55.4759 52.5639 55.506 52.0218V52.0519Z" fill="white"/>
<path d="M55.5061 53.3771C54.7532 53.9192 53.5485 54.5516 52.1029 54.5516C50.838 54.5516 49.6032 54.0396 48.4587 53.0458C48.4587 53.2265 48.4286 53.4072 48.3683 53.618C49.5429 54.5818 50.8078 55.0636 52.1029 55.0636C53.5485 55.0636 54.7833 54.4613 55.5965 53.9192C55.5664 53.7385 55.5362 53.5578 55.5061 53.3771Z" fill="#000003"/>
<path d="M48.4587 52.8049C49.061 52.2929 50.5368 51.2388 52.3438 51.2388C53.428 51.2388 54.4821 51.6002 55.476 52.323C55.476 52.1423 55.476 51.9315 55.5061 51.7508C54.5122 51.0882 53.428 50.7268 52.3438 50.7268C50.5669 50.7268 49.1514 51.6002 48.3984 52.2025C48.4286 52.3833 48.4587 52.5941 48.4587 52.7748V52.8049Z" fill="#000003"/>
<path d="M54.061 52.8953C54.061 53.9192 53.2478 54.7324 52.2238 54.7324C51.1998 54.7324 50.3867 53.9192 50.3566 52.8953C50.3566 51.8713 51.1697 51.0581 52.1937 51.0581C53.2177 51.0581 54.0309 51.8713 54.0309 52.8953H54.061Z" fill="white"/>
<path d="M52.2235 55.0035C51.079 55.0035 50.1454 54.0699 50.1454 52.9254C50.1454 51.781 51.079 50.8473 52.2235 50.8172C53.3679 50.8172 54.3016 51.7508 54.3317 52.8953C54.3317 53.4675 54.1209 53.9795 53.7293 54.371C53.3378 54.7626 52.8258 54.9734 52.2536 55.0035H52.2235ZM52.2235 51.2991C51.32 51.2991 50.6273 52.0219 50.6273 52.8953C50.6273 53.7687 51.3501 54.4915 52.2235 54.4915C52.6451 54.4915 53.0668 54.3108 53.3679 54.0096C53.6691 53.7084 53.8498 53.3169 53.8197 52.8652C53.8197 51.9918 53.0969 51.269 52.2235 51.269V51.2991Z" fill="#000003"/>
<path d="M53.0968 52.8952C53.0968 53.3771 52.7052 53.7686 52.2234 53.7686C51.7415 53.7686 51.35 53.3771 51.35 52.8952C51.35 52.4134 51.7415 52.0219 52.2234 52.0219C52.7052 52.0219 53.0968 52.4134 53.0968 52.8952Z" fill="#000003"/>
<path d="M48.2185 51.2086C48.2185 51.2086 48.2185 51.3893 48.2185 51.4797C48.2185 51.57 48.2787 51.6604 48.2787 51.7507C49.3931 50.9376 52.0434 49.4317 55.5972 50.9376C55.5972 50.7569 55.6273 50.6063 55.6574 50.4256C52.194 49.0402 49.5135 50.3051 48.2185 51.2086Z" fill="#000003"/>
<path d="M55.1447 51.4195C54.964 51.3291 54.7833 51.1785 54.6026 51.0882C54.4219 50.9978 54.2111 50.9075 54.0003 50.8472L53.6991 50.7268L53.3678 50.6665C53.3678 50.6665 53.157 50.6063 53.0365 50.6063H52.7052C52.4944 50.5461 52.2836 50.5461 52.0728 50.5762C51.8619 50.5762 51.6511 50.5762 51.4403 50.6665L50.8078 50.8171C50.597 50.8774 50.4163 50.9677 50.2055 51.0279L49.9043 51.1484C49.9043 51.1484 49.7236 51.2388 49.6333 51.299L49.0912 51.6002C48.9105 51.6905 48.7599 51.8411 48.5792 51.9616C48.5189 52.0218 48.4286 52.0519 48.3683 52.1122C48.4286 52.3531 48.4587 52.6241 48.4888 52.8952L49.0008 52.594C49.1815 52.5037 49.3321 52.3832 49.5128 52.323L50.0248 52.082C50.0248 52.082 50.2055 51.9917 50.2958 51.9616L50.5669 51.8712C50.7476 51.811 50.9283 51.7507 51.109 51.6905L51.6511 51.57C51.8318 51.5098 52.0125 51.5399 52.1932 51.5098C52.3739 51.5098 52.5546 51.5098 52.7353 51.5098H53.0064C53.0064 51.5098 53.1871 51.5098 53.2774 51.5399H53.5485L53.8196 51.6303C54.0003 51.6604 54.181 51.7206 54.3617 51.7809C54.5424 51.8411 54.693 51.9315 54.8737 51.9917C55.0242 52.082 55.205 52.1724 55.3555 52.2627C55.4158 52.2929 55.476 52.323 55.5061 52.3832C55.5061 52.1724 55.5061 51.9616 55.5362 51.7507C55.4158 51.6604 55.2953 51.57 55.1447 51.4797V51.4195Z" fill="#000003"/>
<path d="M48.9407 53.9795C48.519 52.9254 48.8202 52.0219 48.8202 51.9918L49.272 52.1423C49.272 52.1423 49.031 52.9254 49.3924 53.7988L48.9407 53.9795Z" fill="#000003"/>
<path d="M55.838 47.4741L55.7175 61.6894L59.9339 62.8941" fill="white"/>
<path d="M56.0784 47.4741L56.2892 61.6894L55.8676 61.1172L59.9936 62.6532C59.9936 62.6532 60.1743 62.8339 60.1442 62.9544C60.1141 63.0748 59.9936 63.1351 59.8732 63.1049L55.5664 62.2315L55.1448 62.1412V61.6593L55.6266 47.444C55.6266 47.3235 55.7471 47.2031 55.8977 47.2031C56.0182 47.2031 56.1386 47.3235 56.1386 47.444L56.0784 47.4741Z" fill="#000003"/>
<path d="M51.4711 56.69C51.4711 56.69 51.3205 56.6298 51.2904 56.5695C51.2904 56.4792 51.3205 56.3888 51.4109 56.3587C53.9708 55.7262 55.3562 54.2505 55.3562 54.2505C55.4165 54.1903 55.5369 54.1903 55.5972 54.2505C55.6574 54.3107 55.6875 54.4312 55.5972 54.4914C55.5369 54.5517 54.1214 56.0575 51.4711 56.69C51.4711 56.69 51.4711 56.69 51.441 56.69H51.4711Z" fill="#000003"/>
<path d="M76.7692 44.1914C76.7692 44.1914 74.9019 50.0341 78.6365 55.3046C82.5216 60.8161 81.5277 63.376 81.5277 63.376C81.5277 63.376 78.0943 63.376 77.6727 66.0564C77.2209 69.1585 79.1484 74.1279 85.4429 72.1702C85.4429 72.1702 89.4485 70.1524 87.8222 62.864C86.1959 55.5757 80.1724 48.5584 82.371 44.1613H76.7993L76.7692 44.1914Z" fill="white"/>
<path d="M82.7923 72.893C81.1659 72.893 79.7806 72.2907 78.8168 71.1763C77.4615 69.6102 77.2206 67.4418 77.4314 66.0564C77.7928 63.5868 80.5636 63.2254 81.3165 63.1652C81.437 62.5628 81.6779 60.033 78.4253 55.4552C74.6606 50.1244 76.4978 44.1612 76.5279 44.101L76.5881 43.9203H82.732L82.5513 44.2817C81.2563 46.8718 82.9127 50.3955 84.8402 54.4914C86.1052 57.1719 87.4002 59.9727 88.0327 62.8339C89.6891 70.2126 85.6835 72.3208 85.5329 72.4111H85.5028C84.5391 72.7424 83.6054 72.893 82.7923 72.893ZM76.9797 44.4323C76.7086 45.4261 75.5943 50.5461 78.8469 55.1841C82.7622 60.7257 81.7984 63.376 81.7382 63.4965L81.6779 63.647H81.5274C81.5274 63.647 78.2747 63.6772 77.9133 66.1468C77.7326 67.4418 77.9434 69.4295 79.2083 70.8752C80.5636 72.4413 82.6718 72.8328 85.3522 71.9895C85.6534 71.8389 89.1169 69.791 87.5809 62.9845C86.9484 60.1535 85.6534 57.4128 84.4186 54.7324C82.5212 50.6967 80.8949 47.1729 81.9791 44.4624H76.9495L76.9797 44.4323Z" fill="#000003"/>
<path d="M73.9688 44.1914C73.9688 44.1914 72.1015 50.0341 75.836 55.3046C79.7212 60.8161 78.6972 63.376 78.6972 63.376C78.6972 63.376 75.2638 63.376 74.8422 66.0564C74.3904 69.1585 76.3179 74.1279 82.6124 72.1702C82.6124 72.1702 86.618 70.1524 84.9917 62.864C83.3653 55.5757 77.3419 48.5584 79.5404 44.1613H73.9688V44.1914Z" fill="white"/>
<path d="M79.9918 72.893C78.3655 72.893 76.9801 72.2907 76.0163 71.1763C74.661 69.6102 74.4201 67.4418 74.6309 66.0564C74.9923 63.5868 77.7631 63.2254 78.516 63.1652C78.6365 62.5628 78.8473 60.033 75.6248 55.4552C71.8602 50.1244 73.7274 44.1612 73.7274 44.101L73.7877 43.9203H79.9316L79.7509 44.2817C78.4558 46.8718 80.1123 50.3955 82.0398 54.4914C83.3047 57.1719 84.5997 59.9727 85.2322 62.8339C86.8886 70.2126 82.883 72.3208 82.7325 72.4111H82.7023C81.7386 72.7424 80.805 72.893 79.9918 72.893ZM74.1792 44.4323C73.9081 45.4261 72.7938 50.5461 76.0464 55.1841C79.9617 60.7257 78.9979 63.376 78.9377 63.4965L78.8775 63.647H78.6968C78.6968 63.647 75.4742 63.6772 75.0827 66.1468C74.902 67.4418 75.0827 69.4295 76.3476 70.8752C77.7029 72.4413 79.8111 72.8328 82.4915 71.9895C82.7927 71.8389 86.2562 69.791 84.7202 62.9845C84.0877 60.1535 82.7927 57.4128 81.5579 54.7324C79.6906 50.6967 78.0342 47.1729 79.1184 44.4624H74.1189L74.1792 44.4323Z" fill="#000003"/>
<path d="M71.6496 44.3118C71.6496 44.3118 69.7823 50.1546 73.5168 55.4251C77.4019 60.9365 76.4081 63.4965 76.4081 63.4965C76.4081 63.4965 72.9747 63.4965 72.5531 66.207C72.1013 69.3091 74.0288 74.2784 80.3233 72.3208C80.3233 72.3208 84.3289 70.303 82.7026 63.0146C81.0762 55.7262 75.0528 48.7089 77.2514 44.3118H71.6797H71.6496Z" fill="white"/>
<path d="M77.673 72.9834C76.0467 72.9834 74.6613 72.3811 73.6976 71.2667C72.3423 69.7006 72.1014 67.5322 72.3122 66.1468C72.6736 63.6772 75.4444 63.3158 76.1973 63.2556C76.3178 62.6532 76.5587 60.1234 73.3362 55.5456C69.5715 50.2148 71.4087 44.2516 71.4388 44.1914L71.499 44.0107H77.6429L77.4622 44.3721C76.1672 46.932 77.8236 50.4859 79.7511 54.5818C81.0161 57.2622 82.3111 60.0631 82.9436 62.9243C84.6 70.303 80.5944 72.4112 80.4438 72.5015H80.4137C79.45 72.8328 78.5163 72.9834 77.7032 72.9834H77.673ZM71.8303 44.5528C71.5593 45.5467 70.4449 50.6666 73.6976 55.3046C77.6128 60.8462 76.6491 63.4965 76.5888 63.617L76.5286 63.7676H76.378C76.378 63.7676 73.1555 63.7977 72.7639 66.2372C72.5832 67.5322 72.7639 69.5199 74.0289 70.9656C75.3841 72.5317 77.4923 72.9232 80.1728 72.0799C80.4739 71.9293 83.9374 69.8813 82.4014 63.0749C81.769 60.2438 80.4739 57.5032 79.2391 54.8228C77.3418 50.787 75.7154 47.2935 76.7997 44.5528H71.7701H71.8303Z" fill="#000003"/>
<path d="M76.2568 68.6164C76.2568 68.6164 78.8469 69.8512 79.7805 67.8635C80.7142 65.8757 79.5998 63.888 76.3773 63.4965" fill="white"/>
<path d="M76.378 68.4057C76.378 68.4057 76.4081 68.4057 76.4984 68.4057C76.5587 68.4057 76.6791 68.4358 76.7996 68.496C76.9502 68.496 77.1008 68.5562 77.2815 68.5864C77.4622 68.5864 77.673 68.6165 77.8838 68.5864C78.0043 68.5864 78.0946 68.5864 78.2151 68.5562C78.3356 68.5261 78.4259 68.496 78.5464 68.4659C78.7572 68.4057 78.9379 68.2551 79.1186 68.1045L79.2391 67.9539C79.2391 67.9539 79.2993 67.8334 79.3294 67.7732L79.3897 67.6828V67.6527V67.5925L79.48 67.3516C79.48 67.3516 79.5403 67.201 79.5403 67.1407C79.5403 67.0805 79.5704 67.0203 79.6005 66.96C79.6005 66.8094 79.6607 66.689 79.6607 66.5384C79.6607 66.2673 79.6306 65.9963 79.5403 65.7252C79.4499 65.4542 79.2993 65.2433 79.1186 65.0325C79.0283 64.9422 78.9379 64.8217 78.8174 64.7615C78.697 64.6711 78.6066 64.5808 78.5163 64.5205C78.3958 64.4603 78.3055 64.3699 78.185 64.3097C78.0645 64.2495 77.9742 64.1892 77.8537 64.1591C77.6429 64.0688 77.4321 63.9784 77.2514 63.9182C77.0706 63.858 76.9201 63.7977 76.7695 63.7676C76.4984 63.7074 76.3478 63.6471 76.3478 63.6471C76.3478 63.6471 76.137 63.4966 76.1671 63.346C76.1671 63.2255 76.3177 63.1351 76.4382 63.1653C76.4382 63.1653 76.6189 63.1653 76.9201 63.1954C77.0706 63.1954 77.2514 63.2556 77.4622 63.2857C77.673 63.3158 77.9139 63.4062 78.1549 63.4664C78.2753 63.5267 78.3958 63.5568 78.5464 63.617C78.6669 63.6773 78.8174 63.7375 78.9379 63.8278C79.0885 63.8881 79.209 64.0085 79.3294 64.0989C79.4499 64.1892 79.6005 64.3097 79.721 64.4302C79.9619 64.7012 80.2028 65.0024 80.3233 65.3638C80.4739 65.7252 80.5642 66.1167 80.5341 66.5083C80.5341 66.7191 80.504 66.8998 80.4739 67.0805C80.4438 67.2612 80.3835 67.472 80.3233 67.6527L80.233 67.8937V67.9539L80.2028 67.984V68.0442L80.1426 68.1647C80.1426 68.1647 80.0522 68.3454 79.992 68.4057C79.9318 68.4659 79.8715 68.5562 79.8113 68.6165C79.5403 68.8875 79.209 69.0983 78.8777 69.1887C78.5464 69.3092 78.2151 69.3092 77.944 69.2791C77.673 69.2791 77.4019 69.2188 77.1911 69.1586C76.9803 69.0983 76.7996 69.0381 76.649 68.9779C76.4984 68.9176 76.4081 68.8574 76.3177 68.8273C76.2575 68.7972 76.1972 68.7671 76.1972 68.7671C76.0768 68.7068 76.0467 68.5562 76.1069 68.4358C76.1671 68.3454 76.2876 68.2852 76.4081 68.3153L76.378 68.4057Z" fill="#000003"/>
<path d="M49.7544 67.7129C49.7544 67.7129 48.5497 68.8875 47.074 69.1585C47.074 69.1585 44.0924 64.9722 41.683 68.8875C41.683 68.8875 40.2976 71.3571 42.4058 73.6159C42.4058 73.6159 48.5497 79.9706 58.5185 71.9895" fill="white"/>
<path d="M48.8203 76.2359C44.6641 76.2359 42.2547 73.8266 42.1945 73.7964C39.9959 71.4473 41.4114 68.8271 41.4415 68.797C42.1644 67.6525 43.0076 67.0502 43.9413 67.0201C45.4772 66.9598 46.7723 68.4657 47.1337 68.9174C48.489 68.5862 49.5431 67.5622 49.5431 67.5622L49.9045 67.9236C49.9045 67.9236 48.6396 69.1283 47.0735 69.4294H46.9229L46.8325 69.3391C46.8325 69.3391 45.4471 67.4417 43.9413 67.5019C43.1883 67.5019 42.4655 68.044 41.8632 69.0379C41.8029 69.1283 40.5983 71.3871 42.5559 73.4651C42.7968 73.7061 48.6998 79.5488 58.3373 71.8087L58.6385 72.2002C54.7533 75.3023 51.4404 76.266 48.8203 76.266V76.2359Z" fill="#000003"/>
<path d="M44.9654 69.9115L44.9052 69.4296C44.9052 69.4296 46.5617 69.2489 48.0374 68.5863L48.2482 69.0381C46.7424 69.7308 45.0558 69.9115 44.9956 69.9115H44.9654Z" fill="#000003"/>
<path d="M46.4414 72.4413C45.2066 72.4413 44.0923 72.0196 43.5502 71.5378C42.4961 70.5439 42.8274 69.3392 43.1587 68.8272C43.5803 68.2851 44.0622 68.0442 44.5742 68.0743C45.5982 68.1345 46.3812 69.279 46.4113 69.3392L46.0198 69.6103C46.0198 69.6103 45.3572 68.6164 44.5742 68.5562C44.2128 68.5562 43.8815 68.7369 43.5803 69.1284C43.5803 69.1284 42.8876 70.2427 43.9116 71.2065C44.3935 71.6582 45.809 72.2003 47.3751 71.8992C48.5195 71.6883 50.1157 70.9354 51.2602 68.6164L51.6818 68.8272C50.447 71.3269 48.7002 72.1401 47.4353 72.381C47.104 72.4413 46.7727 72.4714 46.4414 72.4714V72.4413Z" fill="#000003"/>
<path d="M46.3506 75.1519C45.6278 75.1519 45.0255 75.0315 44.5737 74.9411C41.321 74.3388 40.9897 71.2066 40.9897 71.1765L41.4716 71.1162C41.4716 71.1162 41.7728 73.9171 44.664 74.4592C46.3506 74.7905 49.8743 75.423 52.8258 69.52L53.2776 69.7308C50.9887 74.3087 48.3082 75.1218 46.3807 75.1218L46.3506 75.1519Z" fill="#000003"/>
<path d="M48.0673 76.1758C48.0673 76.1758 47.7962 76.1758 47.6456 76.1758V75.6939C52.8559 75.9951 54.9039 70.5439 54.934 70.4836L55.3857 70.6643C55.3857 70.6643 53.3077 76.1758 48.0673 76.1758Z" fill="#000003"/>
<path d="M54.0608 75.0616L53.8801 74.6098C55.3258 74.0376 56.8918 71.4776 56.8918 71.4475L57.3135 71.6884C57.3135 71.6884 55.657 74.4291 54.0608 75.0616Z" fill="#000003"/>
<path d="M67.7643 67.6225C67.7643 67.6225 68.969 68.7669 70.4749 69.038C70.4749 69.038 73.4264 64.8216 75.8659 68.7067C75.8659 68.7067 77.2513 71.1763 75.2033 73.4351C75.2033 73.4351 69.1196 79.9404 58.8195 71.7486L58.5184 71.9594" fill="white"/>
<path d="M68.6977 76.1156C66.0474 76.1156 62.7044 75.1518 58.7892 72.0799L58.6386 72.1702L58.3374 71.7787L58.7892 71.4474L58.9397 71.5679C68.9387 79.5188 74.7513 73.5255 74.9922 73.2845C76.9197 71.2065 75.6849 68.9477 75.6247 68.8573C74.9922 67.8635 74.2995 67.3515 73.5165 67.3515C72.0106 67.2912 70.6553 69.1886 70.6252 69.2187L70.5349 69.3392H70.3843C68.8182 69.0079 67.6135 67.8635 67.5533 67.8333L67.8846 67.4719C67.8846 67.4719 68.9688 68.4959 70.324 68.7971C70.6855 68.3453 71.9805 66.8395 73.5165 66.8696C74.4501 66.8696 75.3235 67.4719 76.0162 68.6164C76.0162 68.6465 77.4919 71.2667 75.3235 73.646C75.2934 73.6761 72.884 76.1457 68.6676 76.1457L68.6977 76.1156Z" fill="#000003"/>
<path d="M72.5831 69.791C72.5831 69.791 70.8363 69.6103 69.3003 68.9477L69.5111 68.496C70.9567 69.1284 72.6132 69.3091 72.6433 69.3091V69.791H72.5831Z" fill="#000003"/>
<path d="M71.0771 72.3208C70.7759 72.3208 70.4447 72.3208 70.1134 72.2304C68.8485 72.0196 67.1017 71.2064 65.8367 68.7368L66.2584 68.526C67.4028 70.845 69.0291 71.5679 70.1736 71.7787C71.7397 72.0497 73.1251 71.5377 73.6371 71.0559C74.6611 70.0921 73.9684 69.0079 73.9383 68.9477C73.6371 68.5862 73.3058 68.4055 72.9745 68.4055C72.1915 68.4357 71.559 69.4596 71.5289 69.4596L71.1072 69.1886C71.1072 69.1886 71.8903 67.9538 72.9143 67.8936C73.4263 67.8936 73.9081 68.1044 74.2997 68.6164C74.6611 69.1284 74.9924 70.3632 73.9383 71.357C73.3961 71.869 72.2818 72.2907 71.0169 72.2907L71.0771 72.3208Z" fill="#000003"/>
<path d="M71.167 75.0313C69.2395 75.0313 66.5591 74.188 64.2702 69.7006L64.722 69.4897C67.7337 75.3927 71.2273 74.7 72.9138 74.3687C75.8051 73.7965 76.0761 71.0257 76.0761 70.9956H76.558C76.558 70.9956 76.2568 74.188 73.0042 74.8506C72.5524 74.941 71.8898 75.0614 71.167 75.0614V75.0313Z" fill="#000003"/>
<path d="M69.4506 76.0854C64.2704 76.0854 62.1923 70.6944 62.1622 70.6342L62.614 70.4535C62.614 70.4535 64.7523 75.9047 69.9325 75.5734V76.0553C69.9325 76.0553 69.6012 76.0553 69.4506 76.0553V76.0854Z" fill="#000003"/>
<path d="M63.3973 74.9108C61.8011 74.3085 60.2953 71.7786 60.235 71.6582L60.6567 71.4172C60.6567 71.4172 62.1324 73.917 63.5781 74.4591L63.3973 74.9108Z" fill="#000003"/>
<path d="M108.121 127.947H100.411V44.3119L104.236 39.7642L108.121 44.3119V127.947Z" fill="white"/>
<path d="M108.693 128.519H99.839V44.101L104.236 38.8907L108.693 44.101V128.519ZM100.983 127.375H107.549V44.5227L104.236 40.6375L100.983 44.5227V127.375Z" fill="#000003"/>
<path d="M102.068 128.339C101.887 128.339 101.706 128.188 101.706 127.977V42.1134C101.706 41.9025 101.857 41.752 102.068 41.752C102.279 41.752 102.429 41.9025 102.429 42.1134V128.008C102.429 128.188 102.279 128.369 102.068 128.369V128.339Z" fill="#000003"/>
<path d="M104.266 127.977C104.086 127.977 103.905 127.827 103.905 127.616V40.2158C103.905 40.005 104.056 39.8544 104.266 39.8544C104.477 39.8544 104.628 40.005 104.628 40.2158V127.616C104.628 127.797 104.477 127.977 104.266 127.977Z" fill="#000003"/>
<path d="M106.465 127.616C106.284 127.616 106.103 127.465 106.103 127.255V42.3543C106.103 42.1736 106.254 41.9929 106.465 41.9929C106.676 41.9929 106.826 42.1434 106.826 42.3543V127.255C106.826 127.435 106.676 127.616 106.465 127.616Z" fill="#000003"/>
<path d="M64.0297 126.923C57.7954 119.876 52.4045 109.967 49.6337 100.39C46.6822 90.1503 38.4602 82.109 35.3882 79.3683L41.7731 76.718C45.8088 80.6935 52.796 88.6745 55.6872 98.6433C59.2109 110.871 67.0414 122.346 72.7034 126.562L72.4625 126.893H63.9996L64.0297 126.923Z" fill="white"/>
<path d="M41.7124 77.1094C45.7481 81.1149 52.5245 88.9454 55.3555 98.7335C58.8491 110.78 66.4387 122.044 72.1308 126.532H64.1799C58.0058 119.544 52.7052 109.756 49.9646 100.3C47.1034 90.391 39.3934 82.5305 36.0203 79.4585L41.6823 77.1094M41.8931 76.2661L34.7554 79.2176C37.1346 81.2655 46.1999 89.6983 49.3321 100.45C52.4342 111.232 58.3672 121.05 63.9088 127.254H72.703L73.2451 126.441C67.6132 122.436 59.6623 110.871 56.0783 98.4926C53.157 88.4033 46.1397 80.362 41.9233 76.236L41.8931 76.2661Z" fill="#000003"/>
<path d="M42.4054 79.3381L39.5744 81.9583C39.5744 81.9583 40.1466 81.868 40.6887 81.7475C41.261 81.6572 41.8332 81.5668 41.8332 81.5668C41.8332 81.5668 41.9838 80.9946 42.1344 80.4525C42.2849 79.8802 42.4054 79.3381 42.4054 79.3381Z" fill="#000003"/>
<path d="M42.767 85.6025L45.7486 83.1329C45.7486 83.1329 45.1763 83.1932 44.6041 83.2534C44.0319 83.3136 43.4597 83.404 43.4597 83.404C43.4597 83.404 43.279 83.9461 43.1284 84.4882C42.9477 85.0303 42.767 85.5724 42.767 85.5724V85.6025Z" fill="#000003"/>
<path d="M44.0921 81.2356C44.0921 81.2356 43.5199 81.3259 42.9476 81.3862C42.3754 81.4765 41.8032 81.5669 41.8032 81.5669C41.8032 81.5669 41.6526 82.109 41.502 82.6812C41.3514 83.2233 41.1707 83.7654 41.1707 83.7654C41.1707 83.7654 41.7429 83.6751 42.2851 83.5847C42.8573 83.4944 43.4295 83.4341 43.4295 83.4341C43.4295 83.4341 43.5801 82.892 43.7608 82.3198C43.9114 81.7777 44.0921 81.2054 44.0921 81.2054V81.2356Z" fill="#000003"/>
<path d="M48.2484 86.3856L45.1162 88.6745C45.1162 88.6745 45.6884 88.6444 46.2607 88.5841C46.8329 88.5841 47.4051 88.5239 47.4051 88.5239C47.4051 88.5239 47.6159 87.9818 47.8268 87.4397C48.0376 86.8976 48.2484 86.3555 48.2484 86.3555V86.3856Z" fill="#000003"/>
<path d="M47.7663 92.6499L51.1093 90.6923C51.1093 90.6923 50.5371 90.6622 49.9649 90.6321C49.3926 90.6321 48.8204 90.6321 48.8204 90.6321C48.8204 90.6321 48.5795 91.1441 48.3084 91.6561C48.0675 92.1681 47.7964 92.6499 47.7964 92.6499H47.7663Z" fill="#000003"/>
<path d="M49.7241 88.4938C49.7241 88.4938 49.1518 88.4938 48.5495 88.4938C47.9773 88.4938 47.405 88.5239 47.405 88.5239C47.405 88.5239 47.1942 89.066 46.9533 89.578C46.7123 90.09 46.5015 90.6321 46.5015 90.6321C46.5015 90.6321 47.0738 90.6321 47.646 90.6321C48.2182 90.6321 48.7904 90.6321 48.7904 90.6321C48.7904 90.6321 49.0314 90.1201 49.2723 89.578C49.5132 89.0359 49.7241 88.5239 49.7241 88.5239V88.4938Z" fill="#000003"/>
<path d="M53.0065 94.4569L49.4527 95.9628C49.4527 95.9628 50.0249 96.023 50.567 96.1435C51.1091 96.2338 51.6814 96.3844 51.6814 96.3844C51.6814 96.3844 52.0428 95.9327 52.3741 95.4508C52.7054 94.9689 53.0065 94.487 53.0065 94.487V94.4569Z" fill="#000003"/>
<path d="M50.808 100.48L54.5124 99.3962C54.5124 99.3962 53.9703 99.2456 53.4282 99.0951C52.8861 98.9445 52.344 98.7336 52.344 98.7336C52.344 98.7336 51.9524 99.1553 51.5609 99.5769C51.1694 99.9986 50.808 100.48 50.808 100.48Z" fill="#000003"/>
<path d="M53.91 97.0168C53.91 97.0168 53.7896 96.9566 53.5486 96.8964C53.3378 96.8361 53.0668 96.7458 52.7656 96.6554C52.4945 96.5651 52.1934 96.5048 51.9825 96.4446C51.7717 96.3844 51.6211 96.3542 51.6211 96.3542C51.6211 96.3542 51.5308 96.4747 51.4103 96.6253C51.2898 96.806 51.1091 97.0168 50.8983 97.2276C50.7176 97.4385 50.5369 97.6493 50.3863 97.7999C50.2357 97.9505 50.1454 98.0408 50.1454 98.0408C50.1454 98.0408 50.6574 98.1613 51.2296 98.342C51.7717 98.5227 52.3138 98.7335 52.3138 98.7335C52.3138 98.7335 52.7053 98.3119 53.0969 97.9203C53.4884 97.4987 53.8799 97.0168 53.8799 97.0168H53.91Z" fill="#000003"/>
<path d="M55.777 102.98L52.1931 104.396C52.1931 104.396 52.3436 104.396 52.5545 104.456C52.7653 104.486 53.0665 104.546 53.3375 104.607C53.9097 104.697 54.482 104.817 54.482 104.817C54.482 104.817 54.8132 104.335 55.1445 103.884C55.3252 103.643 55.4758 103.432 55.5963 103.251C55.7168 103.071 55.8071 102.95 55.8071 102.95L55.777 102.98Z" fill="#000003"/>
<path d="M54.2417 109.064L57.7052 107.377C57.7052 107.377 57.133 107.317 56.5608 107.257C55.9885 107.196 55.4163 107.106 55.4163 107.106C55.4163 107.106 55.1151 107.588 54.814 108.07C54.5128 108.582 54.2116 109.064 54.2116 109.064H54.2417Z" fill="#000003"/>
<path d="M56.7112 105.209C56.7112 105.209 56.5606 105.209 56.3498 105.149C56.139 105.118 55.868 105.088 55.5668 105.028C54.9946 104.938 54.4223 104.847 54.4223 104.847C54.4223 104.847 54.091 105.329 53.7899 105.811C53.6393 106.052 53.4586 106.293 53.3381 106.474C53.2176 106.654 53.1574 106.775 53.1574 106.775C53.1574 106.775 53.7296 106.865 54.3019 106.956C54.8741 107.046 55.4463 107.106 55.4463 107.106C55.4463 107.106 55.7475 106.624 56.0788 106.142C56.3799 105.661 56.7112 105.179 56.7112 105.179V105.209Z" fill="#000003"/>
<path d="M59.5123 110.841L56.1091 112.708C56.1091 112.708 56.6813 112.738 57.2535 112.798C57.8258 112.829 58.398 112.859 58.398 112.859C58.398 112.859 58.669 112.347 58.9401 111.865C59.2111 111.353 59.4822 110.871 59.4822 110.871L59.5123 110.841Z" fill="#000003"/>
<path d="M58.699 117.075L61.9817 115.027C61.9817 115.027 61.4095 115.027 60.8373 115.027C60.2651 115.027 59.6928 115.027 59.6928 115.027C59.6928 115.027 59.4519 115.539 59.1808 116.051C58.9399 116.563 58.699 117.105 58.699 117.105V117.075Z" fill="#000003"/>
<path d="M60.7163 112.949C60.7163 112.949 60.1441 112.949 59.5718 112.919C58.9996 112.889 58.4274 112.859 58.4274 112.859C58.4274 112.859 58.1563 113.371 57.8853 113.883C57.6142 114.394 57.3733 114.906 57.3733 114.906C57.3733 114.906 57.9455 114.906 58.5177 114.967C59.09 114.967 59.6622 114.997 59.6622 114.997C59.6622 114.997 59.9333 114.485 60.1742 113.973C60.4452 113.461 60.6862 112.949 60.6862 112.949H60.7163Z" fill="#000003"/>
<path d="M64.09 118.25L60.9277 120.478C60.9277 120.478 61.0783 120.478 61.2891 120.478C61.5 120.478 61.8011 120.478 62.0722 120.448C62.6444 120.418 63.2166 120.388 63.2166 120.388C63.2166 120.388 63.4275 119.846 63.6383 119.334C63.7587 119.063 63.8491 118.792 63.9395 118.611C64.0298 118.4 64.09 118.28 64.09 118.28V118.25Z" fill="#000003"/>
<path d="M64.0899 124.544L67.0113 122.014C67.0113 122.014 66.4692 122.105 65.8969 122.195C65.3247 122.255 64.7525 122.315 64.7525 122.315C64.7525 122.315 64.5718 122.857 64.3911 123.43C64.2405 123.972 64.0899 124.544 64.0899 124.544Z" fill="#000003"/>
<path d="M65.5056 120.177C65.5056 120.177 64.9334 120.237 64.3612 120.267C63.7889 120.297 63.2167 120.358 63.2167 120.358C63.2167 120.358 63.0059 120.9 62.8252 121.442C62.6445 121.984 62.4337 122.526 62.4337 122.526C62.4337 122.526 63.0059 122.466 63.5781 122.436C64.1503 122.376 64.7226 122.315 64.7226 122.315C64.7226 122.315 64.9033 121.773 65.084 121.231C65.2647 120.689 65.4755 120.177 65.4755 120.177H65.5056Z" fill="#000003"/>
<path d="M42.3452 86.0242H19.2454V86.7169H42.3452V86.0242Z" fill="#000003"/>
<path d="M47.1337 36.8427C47.6457 38.1076 47.9167 39.1617 48.0071 39.5834H82.8828C82.8828 39.5834 83.0936 38.3787 83.6658 36.8427H47.1638H47.1337Z" fill="#000003"/>
<path d="M47.1337 36.8428L49.4527 31.8735L51.7115 36.8428H47.1337Z" fill="#000003"/>
<path d="M51.7117 36.8428L54.0608 31.8735L56.3196 36.8428H51.7117Z" fill="#000003"/>
<path d="M56.3198 36.8428L58.6388 31.8735L60.8976 36.8428H56.3198Z" fill="#000003"/>
<path d="M60.8973 36.8428L63.2465 31.8735L65.5053 36.8428H60.8973Z" fill="#000003"/>
<path d="M65.5055 36.8428L67.8245 31.8735L70.0833 36.8428H65.5055Z" fill="#000003"/>
<path d="M70.0836 36.8428L72.4327 31.8735L74.6614 36.8428H70.0836Z" fill="#000003"/>
<path d="M74.6606 36.8428L77.0097 31.8735L79.2685 36.8428H74.6606Z" fill="#000003"/>
<path d="M79.2685 36.8428L81.5875 31.8735L83.8463 36.8428H79.2685Z" fill="#000003"/>
<path d="M44.785 136.772C45.2066 135.748 45.4175 134.663 45.4175 133.519C45.4175 128.821 41.5625 125.026 36.8642 125.026C32.1659 125.026 28.3711 128.881 28.4012 133.579C28.4012 135.266 28.9132 136.832 29.7565 138.127L37.0148 151.379L44.8151 136.742L44.785 136.772Z" fill="#F50032"/>
<path d="M36.9846 152.312L29.3348 138.368C28.4313 136.952 27.9494 135.296 27.9193 133.579C27.9193 128.64 31.8948 124.604 36.834 124.574C41.7732 124.574 45.8089 128.55 45.839 133.489C45.839 134.663 45.6282 135.838 45.1765 136.922L37.0147 152.312H36.9846ZM36.8641 125.448C32.4068 125.448 28.7927 129.122 28.8228 133.579C28.8228 135.115 29.2746 136.621 30.0877 137.916L36.9545 150.505L44.3633 136.591C44.7548 135.597 44.9656 134.573 44.9656 133.519C44.9656 129.062 41.2913 125.448 36.834 125.478L36.8641 125.448Z" fill="#000003"/>
<path d="M44.785 136.772C45.2066 135.748 45.4175 134.663 45.4175 133.519C45.4175 128.821 41.5625 125.026 36.8642 125.026C32.1659 125.026 28.3711 128.881 28.4012 133.579C28.4012 135.266 28.9132 136.832 29.7565 138.127C29.7565 138.127 29.9071 129.935 36.8943 129.724C36.8943 129.724 44.6043 129.694 43.761 138.699L44.785 136.772Z" fill="white"/>
<path d="M43.1278 140.807L43.3386 138.669C43.5796 135.898 43.0375 133.73 41.6822 132.254C39.7848 130.176 36.9237 130.176 36.8936 130.176C30.3883 130.387 30.1774 137.856 30.1774 138.157V139.573L29.3944 138.368C28.4909 136.952 27.9789 135.296 27.9789 133.579C27.9789 128.64 31.9544 124.604 36.8936 124.574C41.8328 124.574 45.8685 128.55 45.8986 133.489C45.8986 134.663 45.6878 135.838 45.236 136.922L43.1881 140.807H43.1278ZM36.8635 129.303C37.014 129.303 40.1763 129.303 42.3147 131.682C43.5194 132.977 44.1518 134.724 44.2422 136.892L44.3927 136.621C44.7843 135.627 44.9951 134.603 44.9951 133.549C44.9951 129.092 41.3208 125.478 36.8635 125.508C32.4061 125.508 28.792 129.182 28.8222 133.639C28.8222 134.724 29.033 135.778 29.4546 136.772C29.8763 134.302 31.4122 129.544 36.8635 129.363V129.303Z" fill="#000003"/>
<path d="M41.8032 142.343C42.0441 141.711 42.1947 141.048 42.1947 140.326C42.1947 137.404 39.8154 135.055 36.8941 135.085C33.9727 135.115 31.6236 137.464 31.6537 140.386C31.6537 141.44 31.9548 142.404 32.4969 143.217L36.9844 151.439L41.8032 142.373V142.343Z" fill="#FFCE57"/>
<path d="M36.9847 152.071L32.196 143.337C31.6238 142.434 31.3226 141.41 31.3226 140.356C31.3226 137.253 33.7922 134.754 36.8943 134.724C39.9964 134.724 42.4961 137.223 42.5262 140.295C42.5262 141.048 42.3756 141.771 42.1046 142.434L36.9847 152.071ZM36.8943 135.386C34.1536 135.386 31.9551 137.645 31.9852 140.356C31.9852 141.289 32.2563 142.223 32.7683 143.006L36.9847 150.716L41.5324 142.193C41.7733 141.59 41.8938 140.958 41.8938 140.325C41.8938 137.585 39.6651 135.386 36.9244 135.386H36.8943Z" fill="#000003"/>
<path d="M39.996 142.012C40.1466 141.62 40.237 141.199 40.237 140.747C40.237 138.91 38.7311 137.434 36.9241 137.464C35.0869 137.464 33.6112 138.97 33.6413 140.777C33.6413 141.44 33.822 142.042 34.1533 142.554L36.9843 147.704L40.0262 142.012H39.996Z" fill="#F50032"/>
<path d="M36.9541 148.126L33.9424 142.645C33.581 142.102 33.4003 141.44 33.4003 140.777C33.4003 138.85 34.9664 137.254 36.8939 137.254C38.8214 137.254 40.4176 138.82 40.4176 140.747C40.4176 141.199 40.3272 141.651 40.1465 142.102L36.924 148.156L36.9541 148.126ZM36.8939 137.645C35.1772 137.645 33.7918 139.061 33.7918 140.777C33.7918 141.38 33.9725 141.952 34.2737 142.434L36.924 147.252L39.7851 141.892C39.9357 141.53 39.9959 141.139 39.9959 140.717C39.9959 139 38.5804 137.615 36.8637 137.615L36.8939 137.645Z" fill="#000003"/>
<path d="M36.984 152.161L30.7196 140.687C29.9667 139.512 29.5751 138.157 29.5751 136.772C29.5751 132.706 32.8278 129.393 36.8936 129.363C40.9594 129.363 44.2723 132.615 44.2723 136.681C44.2723 137.645 44.0916 138.609 43.7302 139.482L37.0141 152.131L36.984 152.161ZM36.8635 130.086C33.1892 130.086 30.2377 133.097 30.2678 136.772C30.2678 138.037 30.6292 139.271 31.3219 140.325L36.984 150.656L43.0676 139.211C43.3989 138.398 43.5495 137.555 43.5495 136.681C43.5495 133.007 40.5378 130.055 36.8936 130.055L36.8635 130.086Z" fill="#000003"/>
<path d="M30.0276 135.145L30.5396 134.091L29.7265 128.941C29.5156 129.272 29.3349 129.604 29.1542 129.965L30.0276 135.175V135.145Z" fill="#000003"/>
<path d="M31.6239 126.863C31.4131 127.044 31.1722 127.224 30.9614 127.435L31.5035 132.043L32.1962 131.742L31.6239 126.863Z" fill="#000003"/>
<path d="M33.4307 130.838L34.1234 130.296L33.762 125.628C33.521 125.719 33.2801 125.839 33.0693 125.929L33.4307 130.838Z" fill="#000003"/>
<path d="M35.4786 130.025L36.2014 129.905L36.0809 125.056C35.84 125.056 35.599 125.116 35.3581 125.146L35.5087 129.995L35.4786 130.025Z" fill="#000003"/>
<path d="M38.3697 125.146C38.1288 125.116 37.8879 125.086 37.6469 125.056L37.5566 129.754L38.2493 129.995L38.3396 125.146H38.3697Z" fill="#000003"/>
<path d="M40.6288 125.869C40.3878 125.749 40.177 125.658 39.9361 125.568L39.6349 130.417L40.3276 130.778L40.6589 125.869H40.6288Z" fill="#000003"/>
<path d="M41.5617 131.712L42.2242 132.164L42.7362 127.345C42.5254 127.164 42.3146 126.953 42.0737 126.773L41.5316 131.682L41.5617 131.712Z" fill="#000003"/>
<path d="M43.7606 135.266L44.6038 129.905C44.4533 129.543 44.2424 129.212 44.0316 128.911L43.2787 134.121L43.7606 135.296V135.266Z" fill="#000003"/>
<path d="M36.3215 146.59L36.8636 147.584L36.8034 137.464C36.6227 137.464 36.442 137.464 36.2613 137.524V146.59H36.3215Z" fill="#000003"/>
<path d="M35.5091 145.024L35.9909 145.927V137.615C35.7801 137.675 35.6295 137.735 35.4789 137.796V145.024H35.5091Z" fill="#000003"/>
<path d="M34.6355 143.458L35.0873 144.271V138.006C34.9066 138.127 34.756 138.247 34.6054 138.368V143.458H34.6355Z" fill="#000003"/>
<path d="M33.7622 141.771C33.8525 142.042 33.973 142.313 34.1236 142.554L34.1838 142.675V138.88C33.973 139.151 33.8525 139.452 33.7321 139.783V141.771H33.7622Z" fill="#000003"/>
<path d="M37.2251 147.192L37.7371 146.228V137.555C37.5263 137.524 37.3456 137.494 37.1649 137.464L37.2251 147.192Z" fill="#000003"/>
<path d="M38.0988 145.566L38.5807 144.632V137.886C38.4 137.796 38.2193 137.735 38.0386 137.645V145.566H38.0988Z" fill="#000003"/>
<path d="M38.9721 143.909L39.3938 143.096V138.579C39.2432 138.428 39.0926 138.308 38.942 138.157V143.879L38.9721 143.909Z" fill="#000003"/>
<path d="M39.8456 142.283L39.9962 142.012C40.1468 141.621 40.2371 141.199 40.2371 140.747C40.2371 140.175 40.0865 139.663 39.8456 139.181V142.283Z" fill="#000003"/>
<path d="M72.131 126.261H55.2654V140.265H72.131V126.261Z" fill="#FFCE57"/>
<path d="M72.6431 140.807H54.7535V125.779H72.6431V140.807ZM55.7775 139.783H71.6192V126.773H55.7775V139.783Z" fill="#000003"/>
<path d="M69.2996 128.64H58.096V137.946H69.2996V128.64Z" fill="#000003"/>
</g>
<rect x="8" y="31.5" width="107" height="129" rx="5.5" stroke="black"/>
</g>
</g>
<rect x="1.25" y="0.5" width="121" height="167.25" rx="10.5" stroke="#ADADAD"/>
<defs>
<clipPath id="clip0_17_2717">
<rect x="1.75" y="1" width="120" height="166.25" rx="10" fill="white"/>
</clipPath>
</defs>
</svg>
