<svg width="123" height="169" viewBox="0 0 123 169" fill="none" xmlns="http://www.w3.org/2000/svg">
<g clip-path="url(#clip0_17_2713)">
<rect x="1.5" y="1.65137" width="120" height="166.25" rx="10" fill="white"/>
<mask id="mask0_17_2713" style="mask-type:alpha" maskUnits="userSpaceOnUse" x="1" y="1" width="121" height="167">
<rect x="1.5" y="1.65137" width="120" height="166.25" fill="#D9D9D9"/>
</mask>
<g mask="url(#mask0_17_2713)">
<path d="M8.22035 22.6697V20.7257L12.9363 15.9917C14.3403 14.5877 14.7543 13.9397 14.7543 13.2017C14.7543 12.4277 14.2323 11.9057 13.2063 11.9057C12.1803 11.9057 11.6583 12.4277 11.6583 13.4897V13.5797H8.13035C8.25635 11.2037 9.67835 9.78174 13.2063 9.78174C16.6803 9.78174 18.2823 11.3837 18.2823 13.2017C18.2823 14.6237 17.8323 15.3617 15.9783 17.1977C14.9343 18.2417 13.8543 19.4477 12.7743 20.5457H18.6063V22.6697H8.22035Z" fill="black"/>
<path d="M104.368 21.3832C105.679 21.3829 106.843 20.7724 107.6 19.8216C108.359 20.772 109.522 21.3821 110.832 21.3818C113.117 21.3814 114.966 19.5293 114.962 17.2458C114.964 15.2356 109.261 10.3434 107.889 9.19594C107.717 9.05225 107.473 9.05239 107.301 9.19628C105.93 10.3453 100.232 15.2436 100.232 17.2532C100.233 19.5374 102.085 21.3863 104.368 21.3832Z" fill="black"/>
<path d="M107.395 21.0302C107.486 20.8731 107.713 20.8731 107.804 21.0303L109.641 24.2122C109.731 24.3694 109.618 24.5658 109.437 24.5658H105.762C105.581 24.5658 105.468 24.3694 105.558 24.2122L107.395 21.0302Z" fill="black"/>
<path fill-rule="evenodd" clip-rule="evenodd" d="M77.5603 91.5784C78.6334 93.0527 79.2664 94.8678 79.2664 96.8308C79.2664 101.765 75.2663 105.765 70.332 105.765C66.3174 105.765 62.9212 103.117 61.7947 99.4728C60.6681 103.117 57.2719 105.765 53.2573 105.765C48.323 105.765 44.3229 101.765 44.3229 96.8308C44.3229 94.8684 44.9556 93.0537 46.0281 91.5797C46.2932 91.1701 46.5889 90.7781 46.9139 90.4073L60.2907 75.1494C61.0874 74.2407 62.5018 74.2407 63.2985 75.1494L76.6753 90.4073C77 90.7777 77.2954 91.1693 77.5603 91.5784Z" fill="black"/>
<path d="M60.9286 105.517C61.3135 104.851 62.2758 104.851 62.6607 105.517L66.542 112.24C66.9269 112.907 66.4458 113.74 65.676 113.74H57.9133C57.1435 113.74 56.6624 112.907 57.0473 112.24L60.9286 105.517Z" fill="black"/>
</g>
</g>
<rect x="1" y="1.15137" width="121" height="167.25" rx="10.5" stroke="#ADADAD"/>
<defs>
<clipPath id="clip0_17_2713">
<rect x="1.5" y="1.65137" width="120" height="166.25" rx="10" fill="white"/>
</clipPath>
</defs>
</svg>
