<svg width="122" height="169" viewBox="0 0 122 169" fill="none" xmlns="http://www.w3.org/2000/svg">
<g clip-path="url(#clip0_17_2714)">
<rect x="1.25" y="1" width="120" height="166.25" rx="10" fill="white"/>
<mask id="mask0_17_2730" style="mask-type:alpha" maskUnits="userSpaceOnUse" x="1" y="1" width="121" height="167">
<rect x="1.25" y="1" width="120" height="166.25" fill="#D9D9D9"/>
</mask>
<g mask="url(#mask0_17_2714)">
<path d="M17.186 22L16.304 19.192H11.426L10.49 22H7.34L11.678 9.4H16.556L20.786 22H17.186ZM12.164 16.978H15.602L13.946 11.668L12.164 16.978Z" fill="black"/>
<path d="M103.637 20.7134C104.947 20.7131 106.111 20.1026 106.868 19.1519C107.627 20.1023 108.791 20.7123 110.101 20.712C112.385 20.7116 114.234 18.8595 114.231 16.5761C114.233 14.5659 108.529 9.67368 107.157 8.5262C106.985 8.38251 106.741 8.38265 106.569 8.52654C105.199 9.67553 99.5004 14.5739 99.5008 16.5834C99.5011 18.8676 101.353 20.7165 103.637 20.7134Z" fill="black"/>
<path d="M106.664 20.3605C106.754 20.2034 106.981 20.2034 107.072 20.3605L108.909 23.5425C109 23.6996 108.886 23.896 108.705 23.896H105.031C104.849 23.896 104.736 23.6996 104.827 23.5425L106.664 20.3605Z" fill="black"/>
<mask id="path-7-outside-1_17_2714" maskUnits="userSpaceOnUse" x="29.2343" y="57.7019" width="65" height="71" fill="black">
<rect fill="white" x="29.2343" y="57.7019" width="65" height="71"/>
<path fill-rule="evenodd" clip-rule="evenodd" d="M87.6496 97.2462C87.6496 94.3016 86.6999 91.5789 85.0902 89.3675C84.693 88.7538 84.2499 88.1666 83.7629 87.6111L63.6977 64.7242C62.5026 63.3611 60.3811 63.3611 59.186 64.7242L39.1208 87.6111C38.6333 88.1672 38.1898 88.7551 37.7922 89.3694C36.1833 91.5805 35.2343 94.3025 35.2343 97.2462C35.2343 104.648 41.2344 110.648 48.6359 110.648C54.6578 110.648 59.7521 106.676 61.4419 101.209C63.1318 106.676 68.226 110.648 74.248 110.648C81.6495 110.648 87.6496 104.648 87.6496 97.2462ZM62.741 110.276C62.1637 109.276 60.7203 109.276 60.1429 110.276L54.3209 120.36C53.7435 121.36 54.4652 122.61 55.6199 122.61H67.264C68.4187 122.61 69.1404 121.36 68.5631 120.36L62.741 110.276Z"/>
</mask>
<path fill-rule="evenodd" clip-rule="evenodd" d="M87.6496 97.2462C87.6496 94.3016 86.6999 91.5789 85.0902 89.3675C84.693 88.7538 84.2499 88.1666 83.7629 87.6111L63.6977 64.7242C62.5026 63.3611 60.3811 63.3611 59.186 64.7242L39.1208 87.6111C38.6333 88.1672 38.1898 88.7551 37.7922 89.3694C36.1833 91.5805 35.2343 94.3025 35.2343 97.2462C35.2343 104.648 41.2344 110.648 48.6359 110.648C54.6578 110.648 59.7521 106.676 61.4419 101.209C63.1318 106.676 68.226 110.648 74.248 110.648C81.6495 110.648 87.6496 104.648 87.6496 97.2462ZM62.741 110.276C62.1637 109.276 60.7203 109.276 60.1429 110.276L54.3209 120.36C53.7435 121.36 54.4652 122.61 55.6199 122.61H67.264C68.4187 122.61 69.1404 121.36 68.5631 120.36L62.741 110.276Z" fill="black"/>
<path d="M85.0902 89.3675L80.0534 92.6278L80.1426 92.7657L80.2393 92.8986L85.0902 89.3675ZM83.7629 87.6111L79.2512 91.5665L79.2512 91.5665L83.7629 87.6111ZM63.6977 64.7242L68.2093 60.7688L68.2093 60.7688L63.6977 64.7242ZM59.186 64.7242L54.6744 60.7688L54.6744 60.7688L59.186 64.7242ZM39.1208 87.6111L34.6092 83.6557L34.6092 83.6557L39.1208 87.6111ZM37.7922 89.3694L42.6438 92.8996L42.7404 92.7669L42.8296 92.629L37.7922 89.3694ZM61.4419 101.209L67.1743 99.4373L61.4419 80.8925L55.7095 99.4373L61.4419 101.209ZM60.1429 110.276L54.9468 107.276L54.9468 107.276L60.1429 110.276ZM62.741 110.276L67.9372 107.276L67.9372 107.276L62.741 110.276ZM54.3209 120.36L59.517 123.36L59.517 123.36L54.3209 120.36ZM68.5631 120.36L63.3669 123.36L63.3669 123.36L68.5631 120.36ZM80.2393 92.8986C81.1274 94.1185 81.6496 95.6126 81.6496 97.2462H93.6496C93.6496 92.9907 92.2725 89.0392 89.9411 85.8363L80.2393 92.8986ZM79.2512 91.5665C79.5457 91.9023 79.8134 92.2572 80.0534 92.6278L90.127 86.1071C89.5726 85.2505 88.9541 84.4308 88.2745 83.6557L79.2512 91.5665ZM59.186 68.6796L79.2512 91.5665L88.2745 83.6557L68.2093 60.7688L59.186 68.6796ZM63.6977 68.6796C62.5026 70.0427 60.381 70.0427 59.186 68.6796L68.2093 60.7688C64.6242 56.6796 58.2595 56.6796 54.6744 60.7688L63.6977 68.6796ZM43.6325 91.5665L63.6977 68.6796L54.6744 60.7688L34.6092 83.6557L43.6325 91.5665ZM42.8296 92.629C43.0697 92.2579 43.3377 91.9027 43.6325 91.5665L34.6092 83.6557C33.9289 84.4316 33.3098 85.2522 32.7549 86.1098L42.8296 92.629ZM41.2343 97.2462C41.2343 95.6131 41.7562 94.1194 42.6438 92.8996L32.9407 85.8392C30.6105 89.0415 29.2343 92.992 29.2343 97.2462H41.2343ZM48.6359 104.648C44.5481 104.648 41.2343 101.334 41.2343 97.2462H29.2343C29.2343 107.961 37.9207 116.648 48.6359 116.648V104.648ZM55.7095 99.4373C54.7747 102.462 51.9527 104.648 48.6359 104.648V116.648C57.3629 116.648 64.7294 110.89 67.1743 102.981L55.7095 99.4373ZM74.248 104.648C70.9311 104.648 68.1092 102.462 67.1743 99.4373L55.7095 102.981C58.1544 110.89 65.521 116.648 74.248 116.648V104.648ZM81.6496 97.2462C81.6496 101.334 78.3358 104.648 74.248 104.648V116.648C84.9632 116.648 93.6496 107.961 93.6496 97.2462H81.6496ZM65.3391 113.276C63.607 116.276 59.2769 116.276 57.5449 113.276L67.9372 107.276C65.0504 102.276 57.8335 102.276 54.9468 107.276L65.3391 113.276ZM59.517 123.36L65.3391 113.276L54.9468 107.276L49.1247 117.36L59.517 123.36ZM55.6199 116.61C59.084 116.61 61.2491 120.36 59.517 123.36L49.1247 117.36C46.238 122.36 49.8464 128.61 55.6199 128.61V116.61ZM67.264 116.61H55.6199V128.61H67.264V116.61ZM63.3669 123.36C61.6349 120.36 63.7999 116.61 67.264 116.61V128.61C73.0375 128.61 76.646 122.36 73.7592 117.36L63.3669 123.36ZM57.5449 113.276L63.3669 123.36L73.7592 117.36L67.9372 107.276L57.5449 113.276Z" fill="black" mask="url(#path-7-outside-1_17_2714)"/>
<mask id="path-9-outside-2_17_2714" maskUnits="userSpaceOnUse" x="30.2343" y="58.7019" width="62" height="69" fill="black">
<rect fill="white" x="30.2343" y="58.7019" width="62" height="69"/>
<path fill-rule="evenodd" clip-rule="evenodd" d="M87.6496 97.2462C87.6496 94.3016 86.6999 91.5789 85.0902 89.3675C84.693 88.7538 84.2499 88.1666 83.7629 87.6111L63.6977 64.7242C62.5026 63.3611 60.3811 63.3611 59.186 64.7242L39.1208 87.6111C38.6333 88.1672 38.1898 88.7551 37.7922 89.3694C36.1833 91.5805 35.2343 94.3025 35.2343 97.2462C35.2343 104.648 41.2344 110.648 48.6359 110.648C54.6578 110.648 59.7521 106.676 61.4419 101.209C63.1318 106.676 68.226 110.648 74.248 110.648C81.6495 110.648 87.6496 104.648 87.6496 97.2462ZM62.741 110.276C62.1637 109.276 60.7203 109.276 60.1429 110.276L54.3209 120.36C53.7435 121.36 54.4652 122.61 55.6199 122.61H67.264C68.4187 122.61 69.1404 121.36 68.5631 120.36L62.741 110.276Z"/>
</mask>
<path fill-rule="evenodd" clip-rule="evenodd" d="M87.6496 97.2462C87.6496 94.3016 86.6999 91.5789 85.0902 89.3675C84.693 88.7538 84.2499 88.1666 83.7629 87.6111L63.6977 64.7242C62.5026 63.3611 60.3811 63.3611 59.186 64.7242L39.1208 87.6111C38.6333 88.1672 38.1898 88.7551 37.7922 89.3694C36.1833 91.5805 35.2343 94.3025 35.2343 97.2462C35.2343 104.648 41.2344 110.648 48.6359 110.648C54.6578 110.648 59.7521 106.676 61.4419 101.209C63.1318 106.676 68.226 110.648 74.248 110.648C81.6495 110.648 87.6496 104.648 87.6496 97.2462ZM62.741 110.276C62.1637 109.276 60.7203 109.276 60.1429 110.276L54.3209 120.36C53.7435 121.36 54.4652 122.61 55.6199 122.61H67.264C68.4187 122.61 69.1404 121.36 68.5631 120.36L62.741 110.276Z" fill="black"/>
<path d="M85.0902 89.3675L81.3126 91.8127L81.3795 91.9162L81.452 92.0158L85.0902 89.3675ZM83.7629 87.6111L80.3791 90.5776L80.3791 90.5776L83.7629 87.6111ZM63.6977 64.7242L67.0814 61.7577L67.0814 61.7577L63.6977 64.7242ZM59.186 64.7242L55.8023 61.7577L55.8023 61.7577L59.186 64.7242ZM39.1208 87.6111L35.7371 84.6445L35.7371 84.6445L39.1208 87.6111ZM37.7922 89.3694L41.4309 92.0171L41.5033 91.9175L41.5702 91.8141L37.7922 89.3694ZM61.4419 101.209L65.7412 99.8802L61.4419 85.9717L57.1426 99.8802L61.4419 101.209ZM60.1429 110.276L56.2458 108.026L56.2458 108.026L60.1429 110.276ZM62.741 110.276L66.6381 108.026L66.6381 108.026L62.741 110.276ZM54.3209 120.36L58.218 122.61L58.218 122.61L54.3209 120.36ZM68.5631 120.36L64.6659 122.61L64.6659 122.61L68.5631 120.36ZM81.452 92.0158C82.5205 93.4836 83.1496 95.2848 83.1496 97.2462H92.1496C92.1496 93.3184 90.8794 89.6741 88.7284 86.7191L81.452 92.0158ZM80.3791 90.5776C80.7217 90.9684 81.0333 91.3813 81.3126 91.8127L88.8678 86.9222C88.3527 86.1263 87.778 85.3648 87.1466 84.6445L80.3791 90.5776ZM60.3139 67.6908L80.3791 90.5776L87.1466 84.6445L67.0814 61.7577L60.3139 67.6908ZM62.5698 67.6908C61.9722 68.3723 60.9114 68.3723 60.3139 67.6908L67.0814 61.7577C64.0938 58.35 58.7899 58.35 55.8023 61.7577L62.5698 67.6908ZM42.5046 90.5776L62.5698 67.6908L55.8023 61.7577L35.7371 84.6445L42.5046 90.5776ZM41.5702 91.8141C41.8497 91.3822 42.1616 90.9688 42.5046 90.5776L35.7371 84.6445C35.105 85.3655 34.5298 86.1279 34.0142 86.9247L41.5702 91.8141ZM39.7343 97.2462C39.7343 95.2854 40.363 93.4847 41.4309 92.0171L34.1536 86.7217C32.0037 89.6762 30.7343 93.3196 30.7343 97.2462H39.7343ZM48.6359 106.148C43.7197 106.148 39.7343 102.162 39.7343 97.2462H30.7343C30.7343 107.133 38.7491 115.148 48.6359 115.148V106.148ZM57.1426 99.8802C56.019 103.515 52.629 106.148 48.6359 106.148V115.148C56.6866 115.148 63.4851 109.837 65.7412 102.538L57.1426 99.8802ZM74.248 106.148C70.2548 106.148 66.8648 103.515 65.7412 99.8802L57.1426 102.538C59.3988 109.837 66.1972 115.148 74.248 115.148V106.148ZM83.1496 97.2462C83.1496 102.162 79.1642 106.148 74.248 106.148V115.148C84.1348 115.148 92.1496 107.133 92.1496 97.2462H83.1496ZM64.04 112.526C62.8853 114.526 59.9986 114.526 58.8439 112.526L66.6381 108.026C64.3287 104.026 58.5552 104.026 56.2458 108.026L64.04 112.526ZM58.218 122.61L64.04 112.526L56.2458 108.026L50.4238 118.11L58.218 122.61ZM55.6199 118.11C57.9293 118.11 59.3727 120.61 58.218 122.61L50.4238 118.11C48.1144 122.11 51.0011 127.11 55.6199 127.11V118.11ZM67.264 118.11H55.6199V127.11H67.264V118.11ZM64.6659 122.61C63.5112 120.61 64.9546 118.11 67.264 118.11V127.11C71.8828 127.11 74.7696 122.11 72.4602 118.11L64.6659 122.61ZM58.8439 112.526L64.6659 122.61L72.4602 118.11L66.6381 108.026L58.8439 112.526Z" fill="white" mask="url(#path-9-outside-2_17_2714)"/>
</g>
</g>
<rect x="0.75" y="0.5" width="121" height="167.25" rx="10.5" stroke="#ADADAD"/>
<defs>
<clipPath id="clip0_17_2714">
<rect x="1.25" y="1" width="120" height="166.25" rx="10" fill="white"/>
</clipPath>
</defs>
</svg>
